<svg xmlns="http://www.w3.org/2000/svg" xmlns:xlink="http://www.w3.org/1999/xlink" xmlns:lucid="lucid" width="1544.76" height="944.2"><g transform="translate(-120 -180)" lucid:page-tab-id="0_0"><path d="M500 875.78c0-4.42 3.58-8 8-8h1104.48c4.42 0 8 3.58 8 8v47.33c0 4.43-3.58 8-8 8H508c-4.42 0-8-3.57-8-8zM500 960.22c0-4.42 3.58-8 8-8h1104.48c4.42 0 8 3.58 8 8v47.34c0 4.4-3.58 8-8 8H508c-4.42 0-8-3.6-8-8zM500 1044.67c0-4.42 3.58-8 8-8h1104.48c4.42 0 8 3.58 8 8V1092c0 4.42-3.58 8-8 8H508c-4.42 0-8-3.58-8-8zM500 453.56c0-4.42 3.58-8 8-8h1104.48c4.42 0 8 3.58 8 8v47.33c0 4.4-3.58 8-8 8H508c-4.42 0-8-3.6-8-8zM500.48 538c0-4.42 3.58-8 8-8h1104c4.42 0 8 3.58 8 8v47.33c0 4.42-3.58 8-8 8h-1104c-4.42 0-8-3.58-8-8zM500.48 622.44c0-4.4 3.58-8 8-8h1104c4.42 0 8 3.6 8 8v47.34c0 4.42-3.58 8-8 8h-1104c-4.42 0-8-3.58-8-8zM500 706.9c0-4.43 3.58-8 8-8h1104.48c4.42 0 8 3.57 8 8v47.32c0 4.42-3.58 8-8 8H508c-4.42 0-8-3.58-8-8zM500 791.33c0-4.4 3.58-8 8-8h1104.48c4.42 0 8 3.6 8 8v47.34c0 4.4-3.58 8-8 8H508c-4.42 0-8-3.6-8-8zM140 875.78c0-4.42 3.58-8 8-8h344c4.42 0 8 3.58 8 8v47.33c0 4.43-3.58 8-8 8H148c-4.42 0-8-3.57-8-8z" stroke="#fff" stroke-width="2" fill-opacity="0"/><use xlink:href="#a" transform="matrix(1,0,0,1,144.80000000000024,872.5777777777778) translate(11.2 37.314691840277774)"/><use xlink:href="#b" transform="matrix(1,0,0,1,144.80000000000024,872.5777777777778) translate(121.82217881944443 37.314691840277774)"/><use xlink:href="#c" transform="matrix(1,0,0,1,144.80000000000024,872.5777777777778) translate(167.66451822916665 37.314691840277774)"/><path d="M140 960.22c0-4.42 3.58-8 8-8h344c4.42 0 8 3.58 8 8v47.34c0 4.4-3.58 8-8 8H148c-4.42 0-8-3.6-8-8z" stroke="#fff" stroke-width="2" fill-opacity="0"/><use xlink:href="#d" transform="matrix(1,0,0,1,144.80000000000024,957.0222222222222) translate(11.2 37.314691840277774)"/><use xlink:href="#e" transform="matrix(1,0,0,1,144.80000000000024,957.0222222222222) translate(158.02042100694442 37.314691840277774)"/><path d="M140 1040.47c0-4.42 3.58-8 8-8h344c4.42 0 8 3.58 8 8v55.73c0 4.42-3.58 8-8 8H148c-4.42 0-8-3.58-8-8z" stroke="#fff" stroke-width="2" fill-opacity="0"/><use xlink:href="#f" transform="matrix(1,0,0,1,144.80000000000024,1037.2681206597213) translate(11.2 24.98969184027777)"/><use xlink:href="#g" transform="matrix(1,0,0,1,144.80000000000024,1037.2681206597213) translate(119.52074652777777 24.98969184027777)"/><use xlink:href="#h" transform="matrix(1,0,0,1,144.80000000000024,1037.2681206597213) translate(168.24535590277776 24.98969184027777)"/><use xlink:href="#e" transform="matrix(1,0,0,1,144.80000000000024,1037.2681206597213) translate(11.2 55.55490451388887)"/><path d="M500.48 200H1620v80H500.48z" fill="none"/><path d="M500.48 240H1620M500.48 200v80M1620 200v80M580.44 220v40m79.97-40v40m79.98-40v40m79.96-40v40m79.97-40v40m79.97-40v40m79.97-40v40m79.97-40v40m79.97-40v40m79.97-40v40m79.96-40v40m79.97-40v40m79.96-40v40" stroke="#fff" stroke-width="2" fill="none"/><use xlink:href="#i" transform="matrix(1,0,0,1,477.1081960187938,290) translate(0.12950303819444997 23.98969184027777)"/><use xlink:href="#j" transform="matrix(1,0,0,1,1596.6295030381943,290) translate(0.12950303819444997 23.98969184027777)"/><use xlink:href="#k" transform="matrix(1,0,0,1,557.0740036630367,270) translate(0.12950303819444997 23.98969184027777)"/><use xlink:href="#l" transform="matrix(1,0,0,1,643.456423720474,270) translate(0.046115451388892836 23.98969184027777)"/><use xlink:href="#m" transform="matrix(1,0,0,1,717.0056189515225,270) translate(0.12950303819444997 23.98969184027777)"/><use xlink:href="#n" transform="matrix(1,0,0,1,796.9714265957654,270) translate(0.12950303819444997 23.98969184027777)"/><use xlink:href="#o" transform="matrix(1,0,0,1,876.9372342400084,270) translate(0.12950303819444997 23.98969184027777)"/><use xlink:href="#p" transform="matrix(1,0,0,1,963.3196542974456,270) translate(0.046115451388892836 23.98969184027777)"/><use xlink:href="#q" transform="matrix(1,0,0,1,1043.2854619416887,270) translate(0.046115451388892836 23.98969184027777)"/><use xlink:href="#r" transform="matrix(1,0,0,1,1116.834657172737,270) translate(0.12950303819444997 23.98969184027777)"/><use xlink:href="#s" transform="matrix(1,0,0,1,1196.80046481698,270) translate(0.12950303819444997 23.98969184027777)"/><use xlink:href="#t" transform="matrix(1,0,0,1,1276.7662724612228,270) translate(0.12950303819444997 23.98969184027777)"/><use xlink:href="#u" transform="matrix(1,0,0,1,1363.1486925186603,270) translate(0.046115451388892836 23.98969184027777)"/><use xlink:href="#v" transform="matrix(1,0,0,1,1436.6978877497086,270) translate(0.12950303819444997 23.98969184027777)"/><use xlink:href="#w" transform="matrix(1,0,0,1,1516.6636953939515,270) translate(0.12950303819444997 23.98969184027777)"/><path d="M500 369.1c0-4.4 3.58-8 8-8h1104c4.42 0 8 3.6 8 8v47.34c0 4.42-3.58 8-8 8H508c-4.42 0-8-3.58-8-8zM140 453.56c0-4.42 3.58-8 8-8h344c4.42 0 8 3.58 8 8v47.33c0 4.4-3.58 8-8 8H148c-4.42 0-8-3.6-8-8z" stroke="#fff" stroke-width="2" fill-opacity="0"/><use xlink:href="#x" transform="matrix(1,0,0,1,144.8,450.3555555555555) translate(11.2 37.314691840277774)"/><use xlink:href="#y" transform="matrix(1,0,0,1,144.8,450.3555555555555) translate(78.73059895833332 37.314691840277774)"/><use xlink:href="#z" transform="matrix(1,0,0,1,144.8,450.3555555555555) translate(104.01347656249997 37.314691840277774)"/><use xlink:href="#A" transform="matrix(1,0,0,1,144.8,450.3555555555555) translate(221.79201388888885 37.314691840277774)"/><path d="M140 538c0-4.42 3.58-8 8-8h344c4.42 0 8 3.58 8 8v47.33c0 4.42-3.58 8-8 8H148c-4.42 0-8-3.58-8-8z" stroke="#fff" stroke-width="2" fill-opacity="0"/><use xlink:href="#B" transform="matrix(1,0,0,1,144.80000000000024,534.8000000000001) translate(11.2 37.314691840277774)"/><use xlink:href="#C" transform="matrix(1,0,0,1,144.80000000000024,534.8000000000001) translate(92.99947916666665 37.314691840277774)"/><use xlink:href="#D" transform="matrix(1,0,0,1,144.80000000000024,534.8000000000001) translate(164.21236979166662 37.314691840277774)"/><use xlink:href="#E" transform="matrix(1,0,0,1,144.80000000000024,534.8000000000001) translate(234.3293402777777 37.314691840277774)"/><path d="M140 622.44c0-4.4 3.58-8 8-8h344c4.42 0 8 3.6 8 8v47.34c0 4.42-3.58 8-8 8H148c-4.42 0-8-3.58-8-8z" stroke="#fff" stroke-width="2" fill-opacity="0"/><use xlink:href="#F" transform="matrix(1,0,0,1,144.80000000000024,619.2444444444444) translate(11.2 37.314691840277774)"/><use xlink:href="#E" transform="matrix(1,0,0,1,144.80000000000024,619.2444444444444) translate(91.51998697916665 37.314691840277774)"/><path d="M660 538c0-4.42 3.58-8 8-8h304.48c4.42 0 8 3.58 8 8v47.33c0 4.42-3.58 8-8 8H668c-4.42 0-8-3.58-8-8z" stroke="#000" stroke-opacity="0" stroke-width="2" fill="#1b4965"/><path d="M980.96 791.33c0-4.4 3.58-8 8-8h143.52c4.42 0 8 3.6 8 8v47.34c0 4.4-3.58 8-8 8H988.96c-4.42 0-8-3.6-8-8z" stroke="#000" stroke-opacity="0" stroke-width="2" fill="#ffd972"/><path d="M1140.48 875.78c0-4.42 3.58-8 8-8H1292c4.42 0 8 3.58 8 8v47.33c0 4.43-3.58 8-8 8h-143.52c-4.42 0-8-3.57-8-8z" stroke="#000" stroke-opacity="0" stroke-width="2" fill="#efa7a7"/><path d="M140 706.9c0-4.43 3.58-8 8-8h344c4.42 0 8 3.57 8 8v47.32c0 4.42-3.58 8-8 8H148c-4.42 0-8-3.58-8-8z" stroke="#fff" stroke-width="2" fill-opacity="0"/><g><use xlink:href="#G" transform="matrix(1,0,0,1,144.80000000000024,703.6888888888889) translate(11.2 37.314691840277774)"/><use xlink:href="#H" transform="matrix(1,0,0,1,144.80000000000024,703.6888888888889) translate(71.08107638888887 37.314691840277774)"/><use xlink:href="#D" transform="matrix(1,0,0,1,144.80000000000024,703.6888888888889) translate(119.1700520833333 37.314691840277774)"/><use xlink:href="#E" transform="matrix(1,0,0,1,144.80000000000024,703.6888888888889) translate(189.2870225694444 37.314691840277774)"/></g><path d="M140 787.43c0-4.4 3.58-8 8-8h344c4.42 0 8 3.6 8 8v55.14c0 4.4-3.58 8-8 8H148c-4.42 0-8-3.6-8-8z" stroke="#fff" stroke-width="2" fill-opacity="0"/><g><use xlink:href="#I" transform="matrix(1,0,0,1,145.00000000000023,784.4347873263889) translate(11.2 23.98969184027777)"/><use xlink:href="#J" transform="matrix(1,0,0,1,145.00000000000023,784.4347873263889) translate(71.12491319444443 23.98969184027777)"/><use xlink:href="#K" transform="matrix(1,0,0,1,145.00000000000023,784.4347873263889) translate(225.75924479166662 23.98969184027777)"/><use xlink:href="#L" transform="matrix(1,0,0,1,145.00000000000023,784.4347873263889) translate(11.2 54.55490451388887)"/><use xlink:href="#M" transform="matrix(1,0,0,1,145.00000000000023,784.4347873263889) translate(137.0225911458333 54.55490451388887)"/><use xlink:href="#N" transform="matrix(1,0,0,1,145.00000000000023,784.4347873263889) translate(211.49036458333327 54.55490451388887)"/></g><path d="M140 369.1c0-4.4 3.58-8 8-8h344c4.42 0 8 3.6 8 8v47.34c0 4.42-3.58 8-8 8H148c-4.42 0-8-3.58-8-8z" stroke="#fff" stroke-width="2" fill-opacity="0"/><g><use xlink:href="#I" transform="matrix(1,0,0,1,144.80000000000024,365.91111111111087) translate(11.2 37.314691840277774)"/><use xlink:href="#O" transform="matrix(1,0,0,1,144.80000000000024,365.91111111111087) translate(71.12491319444443 37.314691840277774)"/><use xlink:href="#P" transform="matrix(1,0,0,1,144.80000000000024,365.91111111111087) translate(123.19207899305553 37.314691840277774)"/></g><path d="M1301.44 960.22c0-4.42 3.58-8 8-8h143.52c4.42 0 8 3.58 8 8v47.34c0 4.4-3.58 8-8 8h-143.52c-4.42 0-8-3.6-8-8z" stroke="#000" stroke-opacity="0" stroke-width="2" fill="#fcbcb8"/><path d="M500.48 453.56c0-4.42 3.58-8 8-8h144c4.42 0 8 3.58 8 8v47.33c0 4.4-3.58 8-8 8h-144c-4.42 0-8-3.6-8-8z" stroke="#000" stroke-opacity="0" stroke-width="2" fill="#cae9ff"/><path d="M500.48 369.1c0-4.4 3.58-8 8-8h144c4.42 0 8 3.6 8 8v47.34c0 4.42-3.58 8-8 8h-144c-4.42 0-8-3.58-8-8z" stroke="#000" stroke-opacity="0" stroke-width="2" fill="#5fa8d3"/><path d="M659.76 622.44c0-4.4 3.58-8 8-8h304.48c4.42 0 8 3.6 8 8v47.34c0 4.42-3.58 8-8 8H667.76c-4.42 0-8-3.58-8-8z" stroke="#000" stroke-opacity="0" stroke-width="2" fill="#62b6cb"/><path d="M660.48 706.9c0-4.43 3.58-8 8-8h304.48c4.42 0 8 3.57 8 8v47.32c0 4.42-3.58 8-8 8H668.48c-4.42 0-8-3.58-8-8z" stroke="#000" stroke-opacity="0" stroke-width="2" fill="#bee9e8"/><path d="M1460.48 1044.67c0-4.42 3.58-8 8-8H1612c4.42 0 8 3.58 8 8V1092c0 4.42-3.58 8-8 8h-143.52c-4.42 0-8-3.58-8-8z" stroke="#000" stroke-opacity="0" stroke-width="2" fill="#9e788f"/><defs><path fill="#fff" d="M125-733c6-459 248-750 704-750 153 0 287 28 402 84l-72 146c-111-52-221-78-332-78-334-1-520 251-520 600 0 361 171 600 518 600 102 0 218-18 349-55v149C1073 1 948 20 799 20c-445 1-680-294-674-753" id="Q"/><path fill="#fff" d="M588-1114c260 0 384 106 385 366V0H850l-33-156h-8C708-34 639 17 442 20 231 23 94-94 94-303c0-221 177-337 531-348l186-6c11-203-40-320-233-320-91 0-195 28-310 84l-51-127c97-53 229-94 371-94zM268-301c-1 123 81 184 207 184 203 0 334-120 332-323v-99c-257 14-539-7-539 238" id="R"/><path fill="#fff" d="M342 0H176v-1556h166V0" id="S"/><path fill="#fff" d="M995-51C878-2 799 19 639 20c-329 2-524-221-524-559 0-326 172-577 481-577 278 0 451 210 446 493v105H287c4 242 121 392 358 393 118 0 235-25 350-74v148zM864-653c2-195-85-324-270-324-190 0-288 139-303 324h573" id="T"/><path fill="#fff" d="M694-1116c270 0 399 125 398 401V0H926v-709c-1-177-76-266-252-266-250 0-332 133-332 400V0H176v-1096h135l27 150h8c62-101 190-170 348-170" id="U"/><path fill="#fff" d="M115-545c0-330 146-571 454-571 149 0 263 54 342 162h13c-20-185-8-401-11-602h166V0H944l-22-147h-9C836-36 722 20 569 20c-309 0-454-234-454-565zm172 2c0 249 78 424 303 424 257 0 327-150 323-426-4-282-68-432-325-432-220 0-301 191-301 434" id="V"/><path fill="#fff" d="M340-893c80-153 237-262 467-211l-23 154c-45-10-85-15-120-15-184-3-322 182-322 377V0H176v-1096h137l19 203h8" id="W"/><path fill="#fff" d="M502-977c-130 0-238 32-238 139 0 75 39 101 95 134 33 19 97 46 192 81 130 48 217 95 263 143s69 108 69 181C883-73 695 20 449 20 304 20 190-3 109-49v-154c91 47 216 86 344 86 149 0 270-36 270-168 0-43-21-76-55-109-56-55-367-158-434-208-74-55-128-109-128-225 0-327 490-342 754-217l-59 135c-110-45-210-68-299-68" id="X"/><g id="a"><use transform="matrix(0.010959201388888886,0,0,0.010959201388888886,0,0)" xlink:href="#Q"/><use transform="matrix(0.010959201388888886,0,0,0.010959201388888886,14.159288194444441,0)" xlink:href="#R"/><use transform="matrix(0.010959201388888886,0,0,0.010959201388888886,26.641818576388882,0)" xlink:href="#S"/><use transform="matrix(0.010959201388888886,0,0,0.010959201388888886,32.31868489583333,0)" xlink:href="#T"/><use transform="matrix(0.010959201388888886,0,0,0.010959201388888886,44.91080729166666,0)" xlink:href="#U"/><use transform="matrix(0.010959201388888886,0,0,0.010959201388888886,58.686523437499986,0)" xlink:href="#V"/><use transform="matrix(0.010959201388888886,0,0,0.010959201388888886,72.44032118055554,0)" xlink:href="#R"/><use transform="matrix(0.010959201388888886,0,0,0.010959201388888886,84.92285156249999,0)" xlink:href="#W"/><use transform="matrix(0.010959201388888886,0,0,0.010959201388888886,94.08474392361111,0)" xlink:href="#X"/></g><g id="b"><use transform="matrix(0.010959201388888886,0,0,0.010959201388888886,0,0)" xlink:href="#R"/><use transform="matrix(0.010959201388888886,0,0,0.010959201388888886,12.482530381944441,0)" xlink:href="#U"/><use transform="matrix(0.010959201388888886,0,0,0.010959201388888886,26.25824652777777,0)" xlink:href="#V"/></g><path fill="#fff" d="M516-150c94-315 146-423 332-946h178L610 0H416L0-1096h178c98 281 253 670 330 946h8" id="Y"/><path fill="#fff" d="M354-322c-2 123 60 204 176 205 51 1 114-10 150-20v127C647 7 557 20 506 20 294 20 188-92 188-315v-652H31v-80l157-69 70-234h96v254h318v129H354v645" id="Z"/><g id="c"><use transform="matrix(0.010959201388888886,0,0,0.010959201388888886,0,0)" xlink:href="#T"/><use transform="matrix(0.010959201388888886,0,0,0.010959201388888886,12.142795138888886,0)" xlink:href="#Y"/><use transform="matrix(0.010959201388888886,0,0,0.010959201388888886,23.386935763888882,0)" xlink:href="#T"/><use transform="matrix(0.010959201388888886,0,0,0.010959201388888886,35.979058159722214,0)" xlink:href="#U"/><use transform="matrix(0.010959201388888886,0,0,0.010959201388888886,49.75477430555554,0)" xlink:href="#Z"/><use transform="matrix(0.010959201388888886,0,0,0.010959201388888886,57.67827690972221,0)" xlink:href="#X"/></g><path fill="#fff" d="M621-1116c316 0 501 239 501 567 0 339-180 575-508 569S119-212 115-549c-4-339 178-567 506-567zm-5 141c-239 0-329 168-329 426 0 255 93 430 331 430s332-174 332-430-95-426-334-426" id="aa"/><path fill="#fff" d="M686 20c-159 0-273-61-344-161h-12L295 0H176v-1556h166c-2 198 6 423-8 606h8c77-109 192-164 344-164 310 0 455 234 455 565 0 329-147 569-455 569zm283-571c0-257-72-424-307-424-256 0-320 146-320 426s68 430 324 430c228 0 303-184 303-432" id="ab"/><path fill="#fff" d="M342 0H176v-1096h166V0zm-82-1282c-61 0-98-43-98-111 0-69 36-110 98-110 59 0 98 43 98 110s-39 111-98 111" id="ac"/><g id="d"><use transform="matrix(0.010959201388888886,0,0,0.010959201388888886,0,0)" xlink:href="#Q"/><use transform="matrix(0.010959201388888886,0,0,0.010959201388888886,14.159288194444441,0)" xlink:href="#aa"/><use transform="matrix(0.010959201388888886,0,0,0.010959201388888886,27.715820312499993,0)" xlink:href="#S"/><use transform="matrix(0.010959201388888886,0,0,0.010959201388888886,33.392686631944436,0)" xlink:href="#S"/><use transform="matrix(0.010959201388888886,0,0,0.010959201388888886,39.06955295138888,0)" xlink:href="#R"/><use transform="matrix(0.010959201388888886,0,0,0.010959201388888886,51.55208333333332,0)" xlink:href="#ab"/><use transform="matrix(0.010959201388888886,0,0,0.010959201388888886,65.30588107638887,0)" xlink:href="#aa"/><use transform="matrix(0.010959201388888886,0,0,0.010959201388888886,78.86241319444443,0)" xlink:href="#W"/><use transform="matrix(0.010959201388888886,0,0,0.010959201388888886,87.5749782986111,0)" xlink:href="#R"/><use transform="matrix(0.010959201388888886,0,0,0.010959201388888886,100.05750868055556,0)" xlink:href="#Z"/><use transform="matrix(0.010959201388888886,0,0,0.010959201388888886,107.98101128472221,0)" xlink:href="#ac"/><use transform="matrix(0.010959201388888886,0,0,0.010959201388888886,113.65787760416666,0)" xlink:href="#aa"/><use transform="matrix(0.010959201388888886,0,0,0.010959201388888886,127.21440972222221,0)" xlink:href="#U"/></g><g id="e"><use transform="matrix(0.010959201388888886,0,0,0.010959201388888886,0,0)" xlink:href="#Z"/><use transform="matrix(0.010959201388888886,0,0,0.010959201388888886,7.923502604166665,0)" xlink:href="#aa"/><use transform="matrix(0.010959201388888886,0,0,0.010959201388888886,21.480034722222218,0)" xlink:href="#aa"/><use transform="matrix(0.010959201388888886,0,0,0.010959201388888886,35.03656684027777,0)" xlink:href="#S"/><use transform="matrix(0.010959201388888886,0,0,0.010959201388888886,40.713433159722214,0)" xlink:href="#X"/></g><path fill="#fff" d="M1120 0L938-465H352L172 0H0l578-1468h143L1296 0h-176zM885-618c-81-228-168-420-238-664-57 230-159 449-235 664h473" id="ad"/><path fill="#fff" d="M287-543c-1 247 91 418 323 418 91 0 185-20 281-59v147C818 1 725 20 614 20c-329 0-499-221-499-561 0-349 172-575 510-575 96 0 221 26 282 57l-51 141c-61-25-157-50-235-51-223 0-334 142-334 426" id="ae"/><g id="f"><use transform="matrix(0.010959201388888886,0,0,0.010959201388888886,0,0)" xlink:href="#ad"/><use transform="matrix(0.010959201388888886,0,0,0.010959201388888886,14.203124999999996,0)" xlink:href="#V"/><use transform="matrix(0.010959201388888886,0,0,0.010959201388888886,27.95692274305555,0)" xlink:href="#Y"/><use transform="matrix(0.010959201388888886,0,0,0.010959201388888886,39.20106336805555,0)" xlink:href="#R"/><use transform="matrix(0.010959201388888886,0,0,0.010959201388888886,51.683593749999986,0)" xlink:href="#U"/><use transform="matrix(0.010959201388888886,0,0,0.010959201388888886,65.45930989583333,0)" xlink:href="#ae"/><use transform="matrix(0.010959201388888886,0,0,0.010959201388888886,76.14453125,0)" xlink:href="#T"/><use transform="matrix(0.010959201388888886,0,0,0.010959201388888886,88.73665364583333,0)" xlink:href="#V"/></g><path fill="#fff" d="M340-561c134-179 332-366 485-535h197L578-629 1053 0H852L465-518 340-410V0H176v-1556h164c-4 336 9 669-8 995h8" id="af"/><g id="g"><use transform="matrix(0.010959201388888886,0,0,0.010959201388888886,0,0)" xlink:href="#Z"/><use transform="matrix(0.010959201388888886,0,0,0.010959201388888886,7.923502604166665,0)" xlink:href="#R"/><use transform="matrix(0.010959201388888886,0,0,0.010959201388888886,20.406032986111107,0)" xlink:href="#X"/><use transform="matrix(0.010959201388888886,0,0,0.010959201388888886,31.11317274305555,0)" xlink:href="#af"/></g><path fill="#fff" d="M1368-1116c259 2 372 131 371 401V0h-166v-713c0-168-66-262-230-262-221 0-303 131-303 363V0H874v-713c-1-169-66-262-231-262-235 0-301 142-301 400V0H176v-1096h135l27 150h8c56-99 174-170 324-170 171 0 283 62 336 186h8c60-108 189-187 354-186" id="ag"/><path fill="#fff" d="M125-741c0-247 161-377 414-375 57 0 109 7 155 20h379v105l-203 24c37 48 72 129 72 219 0 255-227 390-504 345-71 37-106 84-106 141 0 78 66 88 164 88h194c219-1 369 87 369 293 0 121-49 213-146 277s-239 96-426 96c-250 0-448-83-448-306C39 36 147-58 283-86c-52-23-102-79-99-152 4-104 57-143 133-192-107-42-192-164-192-311zM438-25c-143-1-242 70-239 209s131 181 290 181c139 0 242-21 309-63s101-98 101-169c0-147-88-158-262-158H438zm94-970c-158 0-243 88-243 250 0 153 93 233 246 233 162 0 243-79 243-236 0-165-82-247-246-247" id="ah"/><g id="h"><use transform="matrix(0.010959201388888886,0,0,0.010959201388888886,0,0)" xlink:href="#ag"/><use transform="matrix(0.010959201388888886,0,0,0.010959201388888886,20.87727864583333,0)" xlink:href="#R"/><use transform="matrix(0.010959201388888886,0,0,0.010959201388888886,33.35980902777777,0)" xlink:href="#U"/><use transform="matrix(0.010959201388888886,0,0,0.010959201388888886,47.1355251736111,0)" xlink:href="#R"/><use transform="matrix(0.010959201388888886,0,0,0.010959201388888886,59.61805555555554,0)" xlink:href="#ah"/><use transform="matrix(0.010959201388888886,0,0,0.010959201388888886,71.91427951388887,0)" xlink:href="#T"/><use transform="matrix(0.010959201388888886,0,0,0.010959201388888886,84.5064019097222,0)" xlink:href="#ag"/><use transform="matrix(0.010959201388888886,0,0,0.010959201388888886,105.38368055555553,0)" xlink:href="#T"/><use transform="matrix(0.010959201388888886,0,0,0.010959201388888886,117.97580295138886,0)" xlink:href="#U"/><use transform="matrix(0.010959201388888886,0,0,0.010959201388888886,131.7515190972222,0)" xlink:href="#Z"/></g><path fill="#fff" d="M512-123c223 0 372-106 371-323 0-204-125-306-375-306-63 0-148 10-254 29l-86-55 55-684h727v153H365l-37 439c77-15 153-23 229-23 289 0 496 151 496 428 0 312-221 485-543 485-165 0-290-26-377-79v-160c85 57 241 96 379 96" id="ai"/><path fill="#fff" d="M731-1462L186 0H20l545-1462h166" id="aj"/><path fill="#fff" d="M559-1483c258 0 441 142 440 389 0 93-26 184-78 275-109 192-433 475-612 657v8h752V0H100v-143c177-182 479-462 617-641 67-87 110-168 112-303 2-158-106-258-268-254-165 4-240 52-354 139l-88-113c135-112 281-168 440-168" id="ak"/><path fill="#fff" d="M715 0H553c4-427-9-874 8-1288-79 77-94 81-285 239l-88-114 387-299h140V0" id="al"/><g id="i"><use transform="matrix(0.010959201388888886,0,0,0.010959201388888886,0,0)" xlink:href="#ai"/><use transform="matrix(0.010959201388888886,0,0,0.010959201388888886,12.833224826388886,0)" xlink:href="#aj"/><use transform="matrix(0.010959201388888886,0,0,0.010959201388888886,21.07454427083333,0)" xlink:href="#ak"/><use transform="matrix(0.010959201388888886,0,0,0.010959201388888886,33.907769097222214,0)" xlink:href="#al"/></g><path fill="#fff" d="M152-1135c0-225 192-348 432-348 245 0 434 118 434 350 0 72-22 138-67 197S835-823 737-774c119 57 203 116 253 178s75 135 75 217c0 256-203 399-475 399-288 0-486-123-486-393 0-167 102-298 306-391-92-52-158-108-198-168s-60-128-60-203zM586-115c184 0 314-89 315-262 0-65-26-123-78-173s-143-99-272-146c-99 43-171 90-216 142s-67 113-67 185c1 172 134 254 318 254zm268-1013c-1-144-117-220-272-220-153 0-266 77-267 220 0 61 20 114 59 158s112 88 218 132c95-40 162-83 202-129s60-100 60-161" id="am"/><path fill="#fff" d="M285 0l606-1309H94v-153h973v133L469 0H285" id="an"/><g id="j"><use transform="matrix(0.010959201388888886,0,0,0.010959201388888886,0,0)" xlink:href="#am"/><use transform="matrix(0.010959201388888886,0,0,0.010959201388888886,12.833224826388886,0)" xlink:href="#aj"/><use transform="matrix(0.010959201388888886,0,0,0.010959201388888886,21.07454427083333,0)" xlink:href="#ak"/><use transform="matrix(0.010959201388888886,0,0,0.010959201388888886,33.907769097222214,0)" xlink:href="#an"/></g><g id="k"><use transform="matrix(0.010959201388888886,0,0,0.010959201388888886,0,0)" xlink:href="#ai"/><use transform="matrix(0.010959201388888886,0,0,0.010959201388888886,12.833224826388886,0)" xlink:href="#aj"/><use transform="matrix(0.010959201388888886,0,0,0.010959201388888886,21.07454427083333,0)" xlink:href="#ak"/><use transform="matrix(0.010959201388888886,0,0,0.010959201388888886,33.907769097222214,0)" xlink:href="#am"/></g><path fill="#fff" d="M610 20c-332-4-493-282-493-645 0-287 55-503 167-645s277-213 496-213c75 0 135 6 178 19v143c-51-17-110-25-176-25-157 0-276 48-359 146S295-948 287-739h12c73-115 189-172 348-172 263 0 424 177 424 442 0 293-175 492-461 489zM287-506c0 212 112 385 321 385 200 0 299-137 299-348 0-191-98-312-291-311-128 1-231 59-284 139-30 43-45 88-45 135" id="ao"/><path fill="#fff" d="M1130-336H913V0H754v-336H43v-145l694-989h176v983h217v151zM754-487c2-284-7-530 10-809h-8c-32 64-61 118-90 159L209-487h545" id="ap"/><g id="l"><use transform="matrix(0.010959201388888886,0,0,0.010959201388888886,0,0)" xlink:href="#ao"/><use transform="matrix(0.010959201388888886,0,0,0.010959201388888886,12.833224826388886,0)" xlink:href="#aj"/><use transform="matrix(0.010959201388888886,0,0,0.010959201388888886,21.07454427083333,0)" xlink:href="#ap"/></g><g id="m"><use transform="matrix(0.010959201388888886,0,0,0.010959201388888886,0,0)" xlink:href="#ao"/><use transform="matrix(0.010959201388888886,0,0,0.010959201388888886,12.833224826388886,0)" xlink:href="#aj"/><use transform="matrix(0.010959201388888886,0,0,0.010959201388888886,21.07454427083333,0)" xlink:href="#al"/><use transform="matrix(0.010959201388888886,0,0,0.010959201388888886,33.907769097222214,0)" xlink:href="#al"/></g><g id="n"><use transform="matrix(0.010959201388888886,0,0,0.010959201388888886,0,0)" xlink:href="#ao"/><use transform="matrix(0.010959201388888886,0,0,0.010959201388888886,12.833224826388886,0)" xlink:href="#aj"/><use transform="matrix(0.010959201388888886,0,0,0.010959201388888886,21.07454427083333,0)" xlink:href="#al"/><use transform="matrix(0.010959201388888886,0,0,0.010959201388888886,33.907769097222214,0)" xlink:href="#am"/></g><g id="o"><use transform="matrix(0.010959201388888886,0,0,0.010959201388888886,0,0)" xlink:href="#ao"/><use transform="matrix(0.010959201388888886,0,0,0.010959201388888886,12.833224826388886,0)" xlink:href="#aj"/><use transform="matrix(0.010959201388888886,0,0,0.010959201388888886,21.07454427083333,0)" xlink:href="#ak"/><use transform="matrix(0.010959201388888886,0,0,0.010959201388888886,33.907769097222214,0)" xlink:href="#ai"/></g><g id="p"><use transform="matrix(0.010959201388888886,0,0,0.010959201388888886,0,0)" xlink:href="#an"/><use transform="matrix(0.010959201388888886,0,0,0.010959201388888886,12.833224826388886,0)" xlink:href="#aj"/><use transform="matrix(0.010959201388888886,0,0,0.010959201388888886,21.07454427083333,0)" xlink:href="#ak"/></g><path fill="#fff" d="M106-991c0-291 181-498 463-492 348 8 492 281 492 645 0 572-221 858-664 858-77 0-139-7-184-20v-143c53 17 114 26 182 26 356 0 482-232 496-604h-12c-67 103-189 169-351 170-262 2-422-172-422-440zm787 35c0-214-113-380-324-385-199-4-300 142-299 348 1 191 96 313 291 309 180-3 332-102 332-272" id="aq"/><g id="q"><use transform="matrix(0.010959201388888886,0,0,0.010959201388888886,0,0)" xlink:href="#an"/><use transform="matrix(0.010959201388888886,0,0,0.010959201388888886,12.833224826388886,0)" xlink:href="#aj"/><use transform="matrix(0.010959201388888886,0,0,0.010959201388888886,21.07454427083333,0)" xlink:href="#aq"/></g><g id="r"><use transform="matrix(0.010959201388888886,0,0,0.010959201388888886,0,0)" xlink:href="#an"/><use transform="matrix(0.010959201388888886,0,0,0.010959201388888886,12.833224826388886,0)" xlink:href="#aj"/><use transform="matrix(0.010959201388888886,0,0,0.010959201388888886,21.07454427083333,0)" xlink:href="#al"/><use transform="matrix(0.010959201388888886,0,0,0.010959201388888886,33.907769097222214,0)" xlink:href="#ao"/></g><path fill="#fff" d="M557-1483c261-2 449 121 449 365 0 202-125 312-301 348v8c212 25 346 130 346 348 0 303-232 437-557 434C328 19 210-2 94-59v-158c108 55 257 96 406 96 253 0 379-99 379-297 0-177-139-266-418-266H317v-143h146c207 3 370-92 371-285 1-150-117-233-273-229-171 4-249 44-375 122l-84-112c109-87 268-150 455-152" id="ar"/><g id="s"><use transform="matrix(0.010959201388888886,0,0,0.010959201388888886,0,0)" xlink:href="#an"/><use transform="matrix(0.010959201388888886,0,0,0.010959201388888886,12.833224826388886,0)" xlink:href="#aj"/><use transform="matrix(0.010959201388888886,0,0,0.010959201388888886,21.07454427083333,0)" xlink:href="#ak"/><use transform="matrix(0.010959201388888886,0,0,0.010959201388888886,33.907769097222214,0)" xlink:href="#ar"/></g><path fill="#fff" d="M1069-733c0 253-39 441-119 566S748 20 584 20c-157 0-277-64-359-192S102-486 102-733c0-255 40-444 119-567s200-185 363-185c159 0 280 64 362 193s123 315 123 559zm-724-463c-95 160-94 768 0 928 55 94 130 145 239 145 111 0 185-52 240-147 94-164 94-761 0-924-55-95-129-147-240-147-109 0-184 52-239 145" id="as"/><g id="t"><use transform="matrix(0.010959201388888886,0,0,0.010959201388888886,0,0)" xlink:href="#an"/><use transform="matrix(0.010959201388888886,0,0,0.010959201388888886,12.833224826388886,0)" xlink:href="#aj"/><use transform="matrix(0.010959201388888886,0,0,0.010959201388888886,21.07454427083333,0)" xlink:href="#ar"/><use transform="matrix(0.010959201388888886,0,0,0.010959201388888886,33.907769097222214,0)" xlink:href="#as"/></g><g id="u"><use transform="matrix(0.010959201388888886,0,0,0.010959201388888886,0,0)" xlink:href="#am"/><use transform="matrix(0.010959201388888886,0,0,0.010959201388888886,12.833224826388886,0)" xlink:href="#aj"/><use transform="matrix(0.010959201388888886,0,0,0.010959201388888886,21.07454427083333,0)" xlink:href="#ao"/></g><g id="v"><use transform="matrix(0.010959201388888886,0,0,0.010959201388888886,0,0)" xlink:href="#am"/><use transform="matrix(0.010959201388888886,0,0,0.010959201388888886,12.833224826388886,0)" xlink:href="#aj"/><use transform="matrix(0.010959201388888886,0,0,0.010959201388888886,21.07454427083333,0)" xlink:href="#al"/><use transform="matrix(0.010959201388888886,0,0,0.010959201388888886,33.907769097222214,0)" xlink:href="#ar"/></g><g id="w"><use transform="matrix(0.010959201388888886,0,0,0.010959201388888886,0,0)" xlink:href="#am"/><use transform="matrix(0.010959201388888886,0,0,0.010959201388888886,12.833224826388886,0)" xlink:href="#aj"/><use transform="matrix(0.010959201388888886,0,0,0.010959201388888886,21.07454427083333,0)" xlink:href="#ak"/><use transform="matrix(0.010959201388888886,0,0,0.010959201388888886,33.907769097222214,0)" xlink:href="#as"/></g><path fill="#fff" d="M1198-240c-25-390-10-810-14-1222h159V0h-194L350-1227h-8c30 405 10 805 16 1227H201v-1462h192l797 1222h8" id="at"/><g id="x"><use transform="matrix(0.010959201388888886,0,0,0.010959201388888886,0,0)" xlink:href="#at"/><use transform="matrix(0.010959201388888886,0,0,0.010959201388888886,16.92100694444444,0)" xlink:href="#aa"/><use transform="matrix(0.010959201388888886,0,0,0.010959201388888886,30.477539062499993,0)" xlink:href="#Z"/><use transform="matrix(0.010959201388888886,0,0,0.010959201388888886,38.40104166666666,0)" xlink:href="#T"/><use transform="matrix(0.010959201388888886,0,0,0.010959201388888886,50.993164062499986,0)" xlink:href="#X"/></g><g id="y"><use transform="matrix(0.010959201388888886,0,0,0.010959201388888886,0,0)" xlink:href="#ac"/><use transform="matrix(0.010959201388888886,0,0,0.010959201388888886,5.676866319444443,0)" xlink:href="#U"/></g><path fill="#fff" d="M1169-178c39-215 75-309 230-918h172L1268 0h-197c-99-332-184-548-272-911h-8C712-564 610-319 514 0H322L23-1096h174c71 275 124 485 161 629s59 241 64 291h8c76-328 186-611 279-920h180l196 629c37 115 63 211 76 289h8" id="au"/><g id="z"><use transform="matrix(0.010959201388888886,0,0,0.010959201388888886,0,0)" xlink:href="#ag"/><use transform="matrix(0.010959201388888886,0,0,0.010959201388888886,20.87727864583333,0)" xlink:href="#R"/><use transform="matrix(0.010959201388888886,0,0,0.010959201388888886,33.35980902777777,0)" xlink:href="#W"/><use transform="matrix(0.010959201388888886,0,0,0.010959201388888886,42.52170138888888,0)" xlink:href="#af"/><use transform="matrix(0.010959201388888886,0,0,0.010959201388888886,53.853515624999986,0)" xlink:href="#V"/><use transform="matrix(0.010959201388888886,0,0,0.010959201388888886,67.60731336805554,0)" xlink:href="#aa"/><use transform="matrix(0.010959201388888886,0,0,0.010959201388888886,80.71451822916666,0)" xlink:href="#au"/><use transform="matrix(0.010959201388888886,0,0,0.010959201388888886,98.17252604166666,0)" xlink:href="#U"/></g><path fill="#fff" d="M575-1430c-169 0-190 146-184 334h279v129H391V0H225v-967H29v-75l196-60c-15-299 97-465 353-465 58 0 126 12 204 35l-43 133c-64-21-119-31-164-31" id="av"/><g id="A"><use transform="matrix(0.010959201388888886,0,0,0.010959201388888886,0,0)" xlink:href="#av"/><use transform="matrix(0.010959201388888886,0,0,0.010959201388888886,7.6056857638888875,0)" xlink:href="#aa"/><use transform="matrix(0.010959201388888886,0,0,0.010959201388888886,21.16221788194444,0)" xlink:href="#W"/><use transform="matrix(0.010959201388888886,0,0,0.010959201388888886,30.32411024305555,0)" xlink:href="#ag"/><use transform="matrix(0.010959201388888886,0,0,0.010959201388888886,51.20138888888888,0)" xlink:href="#R"/><use transform="matrix(0.010959201388888886,0,0,0.010959201388888886,63.68391927083332,0)" xlink:href="#Z"/></g><path fill="#fff" d="M649-1462c450-4 719 268 719 717 0 484-276 748-762 745H201v-1462h448zM578-147c400 1 610-197 610-592 1-379-192-576-570-576H371v1168h207" id="aw"/><path fill="#fff" d="M1141-549c0 329-147 569-455 569-159 0-273-61-344-161h-12c23 199 7 418 12 633H176v-1588h135l23 150h8c77-108 175-170 344-170 311 0 455 237 455 567zm-172-2c0-242-88-424-307-424-256 0-323 154-320 426 3 280 68 430 324 430 213 0 303-196 303-432" id="ax"/><path fill="#fff" d="M526-162c88-293 120-356 326-934h178L559 152c-47 123-102 209-163 262-93 80-237 94-380 61V342c184 39 305-9 367-180L444 6 2-1096h178c103 283 263 645 338 934h8" id="ay"/><g id="B"><use transform="matrix(0.010959201388888886,0,0,0.010959201388888886,0,0)" xlink:href="#aw"/><use transform="matrix(0.010959201388888886,0,0,0.010959201388888886,16.362087673611107,0)" xlink:href="#ac"/><use transform="matrix(0.010959201388888886,0,0,0.010959201388888886,22.03895399305555,0)" xlink:href="#X"/><use transform="matrix(0.010959201388888886,0,0,0.010959201388888886,32.74609374999999,0)" xlink:href="#ax"/><use transform="matrix(0.010959201388888886,0,0,0.010959201388888886,46.49989149305554,0)" xlink:href="#S"/><use transform="matrix(0.010959201388888886,0,0,0.010959201388888886,52.176757812499986,0)" xlink:href="#R"/><use transform="matrix(0.010959201388888886,0,0,0.010959201388888886,64.65928819444443,0)" xlink:href="#ay"/></g><g id="C"><use transform="matrix(0.010959201388888886,0,0,0.010959201388888886,0,0)" xlink:href="#ag"/><use transform="matrix(0.010959201388888886,0,0,0.010959201388888886,20.87727864583333,0)" xlink:href="#T"/><use transform="matrix(0.010959201388888886,0,0,0.010959201388888886,33.46940104166666,0)" xlink:href="#V"/><use transform="matrix(0.010959201388888886,0,0,0.010959201388888886,47.223198784722214,0)" xlink:href="#ac"/><use transform="matrix(0.010959201388888886,0,0,0.010959201388888886,52.90006510416666,0)" xlink:href="#R"/></g><path fill="#fff" d="M690-1114c271 2 402 123 402 399V0H926v-709c-1-177-76-266-252-266-251 0-332 135-332 402V0H176v-1556h166c-4 200 8 426-8 612h10c61-100 187-171 346-170" id="az"/><g id="D"><use transform="matrix(0.010959201388888886,0,0,0.010959201388888886,0,0)" xlink:href="#au"/><use transform="matrix(0.010959201388888886,0,0,0.010959201388888886,17.458007812499996,0)" xlink:href="#ac"/><use transform="matrix(0.010959201388888886,0,0,0.010959201388888886,23.13487413194444,0)" xlink:href="#Z"/><use transform="matrix(0.010959201388888886,0,0,0.010959201388888886,31.058376736111104,0)" xlink:href="#az"/><use transform="matrix(0.010959201388888886,0,0,0.010959201388888886,44.834092881944436,0)" xlink:href="#ac"/><use transform="matrix(0.010959201388888886,0,0,0.010959201388888886,50.51095920138888,0)" xlink:href="#U"/></g><g id="E"><use transform="matrix(0.010959201388888886,0,0,0.010959201388888886,0,0)" xlink:href="#U"/><use transform="matrix(0.010959201388888886,0,0,0.010959201388888886,13.77571614583333,0)" xlink:href="#aa"/><use transform="matrix(0.010959201388888886,0,0,0.010959201388888886,27.332248263888882,0)" xlink:href="#Z"/><use transform="matrix(0.010959201388888886,0,0,0.010959201388888886,35.25575086805555,0)" xlink:href="#T"/><use transform="matrix(0.010959201388888886,0,0,0.010959201388888886,47.84787326388888,0)" xlink:href="#X"/></g><g id="F"><use transform="matrix(0.010959201388888886,0,0,0.010959201388888886,0,0)" xlink:href="#at"/><use transform="matrix(0.010959201388888886,0,0,0.010959201388888886,16.92100694444444,0)" xlink:href="#T"/><use transform="matrix(0.010959201388888886,0,0,0.010959201388888886,29.51312934027777,0)" xlink:href="#X"/><use transform="matrix(0.010959201388888886,0,0,0.010959201388888886,40.220269097222214,0)" xlink:href="#Z"/><use transform="matrix(0.010959201388888886,0,0,0.010959201388888886,48.14377170138888,0)" xlink:href="#T"/><use transform="matrix(0.010959201388888886,0,0,0.010959201388888886,60.73589409722221,0)" xlink:href="#V"/></g><path fill="#fff" d="M201 0v-1462h170v1308h645V0H201" id="aA"/><g id="G"><use transform="matrix(0.010959201388888886,0,0,0.010959201388888886,0,0)" xlink:href="#aA"/><use transform="matrix(0.010959201388888886,0,0,0.010959201388888886,11.649631076388886,0)" xlink:href="#aa"/><use transform="matrix(0.010959201388888886,0,0,0.010959201388888886,25.206163194444432,0)" xlink:href="#ae"/><use transform="matrix(0.010959201388888886,0,0,0.010959201388888886,35.8913845486111,0)" xlink:href="#R"/><use transform="matrix(0.010959201388888886,0,0,0.010959201388888886,48.37391493055554,0)" xlink:href="#S"/></g><g id="H"><use transform="matrix(0.010959201388888886,0,0,0.010959201388888886,0,0)" xlink:href="#av"/><use transform="matrix(0.010959201388888886,0,0,0.010959201388888886,7.6056857638888875,0)" xlink:href="#ac"/><use transform="matrix(0.010959201388888886,0,0,0.010959201388888886,13.28255208333333,0)" xlink:href="#S"/><use transform="matrix(0.010959201388888886,0,0,0.010959201388888886,18.95941840277777,0)" xlink:href="#T"/><use transform="matrix(0.010959201388888886,0,0,0.010959201388888886,31.5515407986111,0)" xlink:href="#X"/></g><path fill="#fff" d="M1214-416C1213-138 1004 0 711 0H201v-1462h413c194 0 334 29 421 87s130 150 130 275c0 188-114 295-284 324v10c222 38 333 155 333 350zm-225-667c0-194-147-232-368-232H371v479h280c219-3 338-46 338-247zm43 655c0-204-147-264-370-264H371v547h305c220-1 356-73 356-283" id="aB"/><g id="I"><use transform="matrix(0.010959201388888886,0,0,0.010959201388888886,0,0)" xlink:href="#aB"/><use transform="matrix(0.010959201388888886,0,0,0.010959201388888886,14.542860243055552,0)" xlink:href="#R"/><use transform="matrix(0.010959201388888886,0,0,0.010959201388888886,27.025390624999993,0)" xlink:href="#X"/><use transform="matrix(0.010959201388888886,0,0,0.010959201388888886,37.732530381944436,0)" xlink:href="#ac"/><use transform="matrix(0.010959201388888886,0,0,0.010959201388888886,43.40939670138888,0)" xlink:href="#ae"/></g><path fill="#fff" d="M877 0H82v-113l598-854H119v-129h743v129L272-129h605V0" id="aC"/><g id="J"><use transform="matrix(0.010959201388888886,0,0,0.010959201388888886,0,0)" xlink:href="#aa"/><use transform="matrix(0.010959201388888886,0,0,0.010959201388888886,13.556532118055552,0)" xlink:href="#W"/><use transform="matrix(0.010959201388888886,0,0,0.010959201388888886,22.499240451388882,0)" xlink:href="#ah"/><use transform="matrix(0.010959201388888886,0,0,0.010959201388888886,34.795464409722214,0)" xlink:href="#R"/><use transform="matrix(0.010959201388888886,0,0,0.010959201388888886,47.27799479166666,0)" xlink:href="#U"/><use transform="matrix(0.010959201388888886,0,0,0.010959201388888886,61.053710937499986,0)" xlink:href="#ac"/><use transform="matrix(0.010959201388888886,0,0,0.010959201388888886,66.73057725694443,0)" xlink:href="#aC"/><use transform="matrix(0.010959201388888886,0,0,0.010959201388888886,77.22949218749999,0)" xlink:href="#R"/><use transform="matrix(0.010959201388888886,0,0,0.010959201388888886,89.71202256944443,0)" xlink:href="#Z"/><use transform="matrix(0.010959201388888886,0,0,0.010959201388888886,97.63552517361111,0)" xlink:href="#ac"/><use transform="matrix(0.010959201388888886,0,0,0.010959201388888886,103.31239149305556,0)" xlink:href="#aa"/><use transform="matrix(0.010959201388888886,0,0,0.010959201388888886,116.8689236111111,0)" xlink:href="#U"/><use transform="matrix(0.010959201388888886,0,0,0.010959201388888886,130.64463975694443,0)" xlink:href="#R"/><use transform="matrix(0.010959201388888886,0,0,0.010959201388888886,143.12717013888886,0)" xlink:href="#S"/></g><g id="K"><use transform="matrix(0.010959201388888886,0,0,0.010959201388888886,0,0)" xlink:href="#Z"/><use transform="matrix(0.010959201388888886,0,0,0.010959201388888886,7.923502604166665,0)" xlink:href="#aa"/><use transform="matrix(0.010959201388888886,0,0,0.010959201388888886,21.480034722222218,0)" xlink:href="#aa"/><use transform="matrix(0.010959201388888886,0,0,0.010959201388888886,35.03656684027777,0)" xlink:href="#S"/><use transform="matrix(0.010959201388888886,0,0,0.010959201388888886,40.713433159722214,0)" xlink:href="#X"/></g><path fill="#fff" d="M383 324C201 116 82-188 82-561c0-378 120-688 301-901h162c-172 227-289 529-289 899 0 361 122 665 287 887H383" id="aD"/><path fill="#fff" d="M63 264c30-115 88-378 105-502h182l15 23C327-69 250 132 188 264H63" id="aE"/><g id="L"><use transform="matrix(0.010959201388888886,0,0,0.010959201388888886,0,0)" xlink:href="#aD"/><use transform="matrix(0.010959201388888886,0,0,0.010959201388888886,6.641276041666665,0)" xlink:href="#W"/><use transform="matrix(0.010959201388888886,0,0,0.010959201388888886,15.35384114583333,0)" xlink:href="#T"/><use transform="matrix(0.010959201388888886,0,0,0.010959201388888886,27.945963541666654,0)" xlink:href="#ag"/><use transform="matrix(0.010959201388888886,0,0,0.010959201388888886,48.823242187499986,0)" xlink:href="#ac"/><use transform="matrix(0.010959201388888886,0,0,0.010959201388888886,54.50010850694443,0)" xlink:href="#U"/><use transform="matrix(0.010959201388888886,0,0,0.010959201388888886,68.27582465277776,0)" xlink:href="#V"/><use transform="matrix(0.010959201388888886,0,0,0.010959201388888886,82.02962239583331,0)" xlink:href="#T"/><use transform="matrix(0.010959201388888886,0,0,0.010959201388888886,94.62174479166664,0)" xlink:href="#W"/><use transform="matrix(0.010959201388888886,0,0,0.010959201388888886,103.78363715277776,0)" xlink:href="#X"/><use transform="matrix(0.010959201388888886,0,0,0.010959201388888886,114.4907769097222,0)" xlink:href="#aE"/></g><g id="M"><use transform="matrix(0.010959201388888886,0,0,0.010959201388888886,0,0)" xlink:href="#Z"/><use transform="matrix(0.010959201388888886,0,0,0.010959201388888886,7.923502604166665,0)" xlink:href="#R"/><use transform="matrix(0.010959201388888886,0,0,0.010959201388888886,20.406032986111107,0)" xlink:href="#ab"/><use transform="matrix(0.010959201388888886,0,0,0.010959201388888886,34.15983072916666,0)" xlink:href="#S"/><use transform="matrix(0.010959201388888886,0,0,0.010959201388888886,39.8366970486111,0)" xlink:href="#T"/><use transform="matrix(0.010959201388888886,0,0,0.010959201388888886,52.428819444444436,0)" xlink:href="#X"/><use transform="matrix(0.010959201388888886,0,0,0.010959201388888886,63.13595920138887,0)" xlink:href="#aE"/></g><path fill="#fff" d="M270 29c-76 0-118-48-118-135 0-84 38-135 118-136 81 0 123 51 123 136 0 82-44 135-123 135" id="aF"/><path fill="#fff" d="M223-1462c182 213 301 524 301 901 0 373-119 679-301 885H63c166-222 287-526 287-887 0-369-117-672-289-899h162" id="aG"/><g id="N"><use transform="matrix(0.010959201388888886,0,0,0.010959201388888886,0,0)" xlink:href="#T"/><use transform="matrix(0.010959201388888886,0,0,0.010959201388888886,12.59212239583333,0)" xlink:href="#Z"/><use transform="matrix(0.010959201388888886,0,0,0.010959201388888886,20.515624999999996,0)" xlink:href="#ae"/><use transform="matrix(0.010959201388888886,0,0,0.010959201388888886,31.20084635416666,0)" xlink:href="#aF"/><use transform="matrix(0.010959201388888886,0,0,0.010959201388888886,37.1736111111111,0)" xlink:href="#aG"/></g><path fill="#fff" d="M563 20c-271 0-399-123-399-399v-717h168v711c1 177 76 266 252 266 250 0 331-135 331-401v-576h166V0H944l-24-147h-9C848-44 724 20 563 20" id="aH"/><g id="O"><use transform="matrix(0.010959201388888886,0,0,0.010959201388888886,0,0)" xlink:href="#aH"/><use transform="matrix(0.010959201388888886,0,0,0.010959201388888886,13.77571614583333,0)" xlink:href="#X"/><use transform="matrix(0.010959201388888886,0,0,0.010959201388888886,24.48285590277777,0)" xlink:href="#T"/><use transform="matrix(0.010959201388888886,0,0,0.010959201388888886,37.0749782986111,0)" xlink:href="#W"/></g><g id="P"><use transform="matrix(0.010959201388888886,0,0,0.010959201388888886,0,0)" xlink:href="#ac"/><use transform="matrix(0.010959201388888886,0,0,0.010959201388888886,5.676866319444443,0)" xlink:href="#U"/><use transform="matrix(0.010959201388888886,0,0,0.010959201388888886,19.45258246527777,0)" xlink:href="#Z"/><use transform="matrix(0.010959201388888886,0,0,0.010959201388888886,27.37608506944444,0)" xlink:href="#T"/><use transform="matrix(0.010959201388888886,0,0,0.010959201388888886,39.968207465277764,0)" xlink:href="#W"/><use transform="matrix(0.010959201388888886,0,0,0.010959201388888886,49.130099826388864,0)" xlink:href="#av"/><use transform="matrix(0.010959201388888886,0,0,0.010959201388888886,56.73578559027776,0)" xlink:href="#R"/><use transform="matrix(0.010959201388888886,0,0,0.010959201388888886,69.2183159722222,0)" xlink:href="#ae"/><use transform="matrix(0.010959201388888886,0,0,0.010959201388888886,79.90353732638886,0)" xlink:href="#T"/></g></defs></g></svg>