<svg xmlns="http://www.w3.org/2000/svg" xmlns:xlink="http://www.w3.org/1999/xlink" xmlns:lucid="lucid" width="1560" height="860"><g transform="translate(20 20)" lucid:page-tab-id="HsHQY2heQ3Mq"><path d="M0 6c0-3.3 2.7-6 6-6h1508c3.3 0 6 2.7 6 6v808c0 3.3-2.7 6-6 6H6c-3.3 0-6-2.7-6-6z" stroke="#fff" stroke-width="3" fill="#2f3437"/><path d="M243.42 376.53c0-3.3 2.7-6 6-6h517.16c3.3 0 6 2.7 6 6v344.94c0 3.3-2.7 6-6 6H249.42c-3.3 0-6-2.7-6-6z" stroke="#000" stroke-opacity="0" stroke-width="3" fill-opacity="0"/><use xlink:href="#a" transform="matrix(1,0,0,1,248.42270922223247,375.53405154005713) translate(0 32.049177629030524)"/><use xlink:href="#b" transform="matrix(1,0,0,1,248.42270922223247,375.53405154005713) translate(43.375153976665295 32.049177629030524)"/><use xlink:href="#c" transform="matrix(1,0,0,1,248.42270922223247,375.53405154005713) translate(216.5277245154094 32.049177629030524)"/><use xlink:href="#d" transform="matrix(1,0,0,1,248.42270922223247,375.53405154005713) translate(0 71.55232688761836)"/><use xlink:href="#d" transform="matrix(1,0,0,1,248.42270922223247,375.53405154005713) translate(0 111.05547614620622)"/><use xlink:href="#d" transform="matrix(1,0,0,1,248.42270922223247,375.53405154005713) translate(0 150.55862540479404)"/><use xlink:href="#e" transform="matrix(1,0,0,1,248.42270922223247,375.53405154005713) translate(0 190.06177466338193)"/><use xlink:href="#f" transform="matrix(1,0,0,1,248.42270922223247,375.53405154005713) translate(166.8877539162368 190.06177466338193)"/><use xlink:href="#g" transform="matrix(1,0,0,1,248.42270922223247,375.53405154005713) translate(0 253.21233212669873)"/><use xlink:href="#h" transform="matrix(1,0,0,1,248.42270922223247,375.53405154005713) translate(71.2498828833148 253.21233212669873)"/><use xlink:href="#d" transform="matrix(1,0,0,1,248.42270922223247,375.53405154005713) translate(0 299.97477603174065)"/><use xlink:href="#i" transform="matrix(1,0,0,1,248.42270922223247,375.53405154005713) translate(0 339.47792529032847)"/><use xlink:href="#j" transform="matrix(1,0,0,1,248.42270922223247,375.53405154005713) translate(56.76039875114275 339.47792529032847)"/><use xlink:href="#k" transform="matrix(1,0,0,1,248.42270922223247,375.53405154005713) translate(130.13996382032576 339.47792529032847)"/><use xlink:href="#l" transform="matrix(1,0,0,1,248.42270922223247,375.53405154005713) translate(249.34550233192346 339.47792529032847)"/><path d="M301.04 65.06c2.53-1.76 5.05-3.52 7.9-3.8 3.46 8.2 6.3 17 6.62 26.1 4.73 3.24 9.78 6.18 14.83 9.1-.32-6.74 0-13.5-1.27-19.95 1.26.9 2.52 1.48 3.15 2.36 3.48 6.46 4.74 13.5 5.37 20.55 4.42 1.47 9.47 3.24 14.2 3.53.32-6.17-.63-12.33-1.9-18.5v-.3c.95 0 2.22-.28 3.16-.58 3.5 5.88 4.75 12.33 6 18.8 5.06-1.18 9.8-4.12 13.58-7.35-1.58-7.04-3.8-13.8-6.94-19.96v-.3c1.58-1.75 2.84-3.5 4.1-5.57 2.2 7.63 4.42 15.27 5.68 23.2 4.73-4.12 8.52-9.1 12-14.7-1.27-4.1-2.53-8.5-3.48-12.9h6.94c1.9 7.92 3.16 15.85 4.42 23.78 4.42 5.28 10.1 9.98 16.1 12.9-.95-9.38-1.9-18.78-3.47-27.88 1.57 1.77 3.15 3.53 4.73 5.58 2.53 7.93 4.42 15.85 5.68 24.07 4.42.6 9.15-.58 13.57-1.76-.3-5.87-1.25-11.74-2.83-17.32 1.26-.3 2.2-.6 3.47-.6 2.2 5 3.47 10.58 5.05 15.87 4.73-1.75 9.46-4.1 13.88-6.75-1.9-5.28-3.47-10.86-5.68-16.43.94-.6 1.58-1.18 2.2-1.76 2.53 5.28 4.1 11.44 4.74 17.3 4.73-2.63 9.15-5.56 12.94-9.38-1.26-6.46-3.47-12.62-6.63-18.5l2.2-2.05v.3c1.9.3 4.1.58 6-.3h.32v.6c.63 5.27 2.2 10.56 2.84 16.13.33 1.47.33 3.23 1.6 4.1 5.04 4.42 9.77 8.82 14.82 13.22 0-7.04-.94-14.1-2.2-20.84.3-.3.63-.3.94-.3.63.6 1.58.9 1.9 1.77.63 7.05 1.9 14.1 2.52 21.15 0 1.46 1.58 2.64 2.84 3.8 4.1 3.24 8.2 7.35 12.3 10.87.32-7.63-.3-15.26-1.25-22.6.63.6 1.57 1.47 2.52 2.05-.32 7.34 1.57 14.4-.32 21.43 4.1 3.82 7.9 7.93 12.3 11.45 2.2-6.16 3.16-12.9 3.16-19.37 4.1 3.23 7.9 6.75 11.68 10.27-2.84 4.7-6.95 8.8-10.73 12.92 1.25 2.35 4.1 3.8 4.72 6.46-1.26 4.1-3.8 7.92-6 12.03 9.47-4.4 16.73-12.33 22.73-20.25.94 1.18 1.9 2.65.94 4.12-3.48 6.16-6 12.32-9.8 18.2-5.36 1.76-10.72 2.64-16.4 2.64-2.84 5-5.68 10.27-8.52 15.55 5.68.3 11.04-.87 16.72-1.45-1.26 2.64-2.84 5-3.78 7.63h-.32c-5.05-.6-10.1-.3-15.15-1.17-2.84 4.7-5.36 9.4-7.9 14.1 5.38.3 10.43.88 15.8 1.17-1.58 2.64 1.26 4.7 1.57 7.34-5.36-.3-10.4-2.93-15.78-3.22 1.9 5.28 4.1 10.57 5.37 16.14 5.7.88 10.74 3.82 16.1 4.4h.63c1.27 4.4 2.2 8.52 3.16 12.92-5.7-2.64-12.95-2.35-18-7.04h-1.58c-2.2-10.86-5.68-21.43-10.4-31.7 9.14-17.32 19.24-34.64 28.08-52.26-18.62-17.3-37.56-34.34-56.5-51.66-10.1 8.5-20.82 16.44-33.13 21.72-6.95 2.64-14.84 4.1-21.78 1.18-11.05-4.4-19.26-13.5-25.9-22.9-6.3 8.8-13.87 17.32-23.66 22.3-6.62 2.95-14.2 2.95-20.82.6-13.58-5-25.57-13.8-36.3-23.2-18.93 17.33-37.55 34.94-56.8 51.96 9.15 17.03 18.3 34.06 27.45 50.8.95 1.16.63 2.34 0 3.5-6.94 15.57-11.04 32.6-11.67 49.62-.32 17.32 3.78 35.22 14.2 49.02 10.1 13.8 24.93 23.2 40.7 29.65 21.47 8.5 44.5 12.33 67.54 13.5 27.78-1.76 56.18-6.75 80.8-20.55 11.67-6.75 22.4-15.85 29.35-27.6 10.08-15.84 12.3-35.8 10.4-54.3h2.2c.64 2.65.96 5.3.96 8.22 5.68 1.47 11.36 3.82 17.04 5 .3 1.46.3 2.93.3 4.4-5.35-1.47-11.35-2.94-17.03-4.4 0 4.98 0 9.97-.95 14.96 6 1.77 12 2.94 17.68 4.1v2.07c-6-1.17-11.68-2.94-17.68-3.82-.94 4.7-2.2 9.4-3.47 14.1 6.32.88 12.3 2.94 18.62 3.82-.63 2.35-1.57 4.4-2.2 6.75l-.32-.3c-6-2.34-12.3-3.8-18.3-5.28-1.9 4.7-5.7 8.5-7.9 13.2 6.95 1.47 13.9 3.23 20.2 5.87-.63 1.18-1.26 2.35-2.2 3.53-5.7-3.23-11.68-6.17-18-8.22-1.26-.88-2.2.58-3.15 1.46-2.84 3.82-6.63 6.76-10.42 10 7.9 1.75 15.78 4.1 22.73 8.5-1.26.88-2.2 2.35-3.46 3.23-6.63-3.53-13.58-6.46-20.83-8.8-1.26-.9-2.52.28-3.47 1.16-4.4 2.94-9.15 5.58-13.57 8.52 8.53 2.93 17.36 5.87 25.88 9.1l-9.47 6.16c-8.83-2.92-16.4-8.2-25.24-11.14-6.3 2.64-12.63 5.28-19.25 7.34 8.52 4.4 18 7.33 26.2 12.32-1.6.3-2.85.9-4.1 1.47h-.33c-8.52-4.4-17.36-8.52-26.2-12.34-7.57 1.47-15.46 3.82-23.03 4.4 8.52 5.88 18.94 9.1 28.1 14.4-1.9.28-3.48.58-5.38 1.16-9.78-2.64-18.62-8.2-27.14-14.1-1.9-1.45-4.73-.57-6.94-.57-6.3.3-12.62-1.18-18.62-.6 7.57 7.35 16.4 12.93 25.25 18.8-1.28 0-2.54 0-3.5.3V353.32c-5.03 0-9.77 1.17-14.82.87-5.68-7.04-12-13.8-18.62-20.25-1.9-1.76-4.73-1.47-7.26-1.76-6.62-.9-12.94-2.95-19.88-4.12 7.26 8.8 17.04 14.97 23.36 24.07-4.74-.6-9.47-1.47-14.2-2.06v-.3c-5.7-7.34-9.8-15.85-15.15-23.48-8.2-3.23-16.42-6.46-24.62-10.57 4.74 11.15 13.9 19.37 19.9 29.65-6-1.47-12.32-3.53-18-5.88-4.42-9.1-8.83-18.5-9.78-28.47-5.37-3.23-10.1-6.75-14.83-10.57-.96 9.98 1.88 19.96 4.4 29.65-3.47-2.05-6.62-3.8-9.46-6.16-.63-3.82-.32-7.93-.32-11.74 0-4.4.95-8.8 1.9-13.2.63-1.48-.95-2.66-1.9-3.83-3.47-3.52-6.3-7.34-9.47-11.15-2.52 8.5-5.36 17.02-5.68 26.12v.3c-1.9-2.35-3.78-4.4-5.36-6.76 3.8-7.33 6.32-14.96 10.1-22-2.83-5-5.04-9.98-6.3-15.56-6.95 5.28-8.84 14.38-12.94 21.43-.95-2.64-1.9-5.58-3.16-8.52 3.47-7.04 7.26-14.38 12.94-19.96 1.9-1.47.95-3.82.95-5.58-.64-4.1-.64-8.52-.64-12.92-6.32 2.94-11.37 8.22-15.47 13.8-.32-1.47-.96-2.94-1.27-4.4v-.3c4.73-4.7 9.78-9.7 16.4-11.74 1.27-5 .96-10.28 2.22-15.56-6 1.18-11.36 4.7-17.04 6.46.32-3.82 1.27-7.63 2.22-11.16 5.36-.88 10.73-1.46 16.1-2.05.94-5 2.83-9.7 3.78-14.38-5.05-.3-9.8.58-14.52.88 0-.3-.3-.88-.3-1.18.93-1.47 1.56-3.23 2.2-5 5.04 0 9.78-.28 14.83-.58.95-3.23 2.53-6.17 3.48-9.4-.63-1.76-1.9-3.52-2.84-5-5.37.3-10.73.6-16.1.6-.63-1.18-1.26-2.06-1.9-2.94 5.37-.88 11.06-.3 16.42-.58-2.52-4.7-5.05-9.4-7.9-13.8l-.3-.6c-5.05-.28-10.42 0-15.47.3-1.27-2.05-2.22-4.1-3.16-6.16h3.47c4.1.3 8.2 0 12.3.6-1.88-4.4-4.72-8.52-6.93-12.93-.3-.9-.63-2.36-1.9-2.36-5.04-.3-9.78-.3-14.5-.3h-.32c-1.27-2.92-2.84-5.86-4.42-8.8 6 1.18 11.67 4.1 17.67 5.3-.63-1.77-1.58-3.53-2.2-5.6 2.2-2.92 5.04-5.27 7.57-8.2-6-1.77-12.3-2.94-18-5.6l-.3-.28c.3 0 .62-.6.94-.88 6.64 1.47 13.26 3.23 20.2 4.1l13.26-12.32c-6-1.17-12.3-1.47-18.3-2.93-.64-.3-1.58-.3-1.9-.6.63-.87 1.58-1.75 2.53-2.63 6.93 1.46 14.2 2.64 21.13 2.64 5.05-4.1 9.8-8.5 14.83-12.92-6-.88-11.67-1.17-17.35-1.76h-4.1c1.58-1.47 3.16-2.93 4.74-4.1 5.36 2.05 11.04 2.63 16.4 4.7.96.87 1.9-.3 2.85-.9 4.4-4.4 9.46-8.5 14.2-12.9 2.52 2.05 5.04 4.4 7.57 6.45-1.9-7.92-6.32-14.96-12.63-20.54z" stroke="#000" stroke-opacity="0" stroke-width=".33" fill="#556775"/><path d="M289.36 74.46l.32.3c1.26 1.46 2.84 2.92 4.1 4.4-2.52-.6-5.05-1.48-7.26-2.06l2.84-2.64zM310.5 101.17c10.1 10.86 22.42 21.13 36.93 25.83 12 4.1 24.93-2.64 33.14-11.45 2.84-2.35 4.42-5.58 6.94-8.22 7.27 9.7 17.06 19.08 29.36 20.84 7.9.88 15.47-2.34 22.4-6.16 9.48-5.57 18-12.9 25.57-20.83 12.63 9.98 25.57 19.66 38.5 29.65l-3.47 3.22c-11.04-8.2-22.4-16.73-33.13-25.24-13.9 11.15-27.78 23.2-44.82 29.35-7.88 2.94-17.03.6-23.66-4.4-4.4-3.52-7.57-8.22-10.73-12.62-5.67 9.7-15.45 19.08-27.76 18.2-9.47-.88-17.67-6.17-25.56-10.86-8.84-6.17-17.67-12.63-25.25-19.96-11.36 8.52-22.4 17.03-33.45 25.84 9.47 13.8 18.62 28.47 27.14 43.15 1.26 2.63 3.8 5.57 1.58 8.5-9.15 17.32-17.04 37.28-13.57 57.24 2.84 19.67 18 34.64 35.03 43.45 18.3 9.67 38.82 14.66 59.33 17.9 3.46.87 6.93-.3 10.4-.9 14.52-2.34 28.72-6.15 42.6-11.44.32 0 .95.3 1.27.3l.32.3-.33-.3c.32-1.47 2.2-1.76 3.47-2.64 17.36-7.64 34.4-20.55 40.08-39.34 6.63-22.3-1.58-45.5-12.3-64.87-1.9-2.63.62-5.28 1.57-7.62 8.2-14.1 16.72-28.18 26.2-41.7 3.14-.57 4.72-7.03 7.88-3.5-9.8 15.84-20.2 31.4-30 47.54 9.48 15.86 16.1 33.76 16.74 52.25-.32 0-1.26 0-1.58-.3-2.2 2.65-.63 5.88.95 8.23-.96 16.44-11.37 30.53-22.73 41.68-22.4 20.55-53.02 29.06-83 30.83-22.1-1.76-44.82-6.75-64.07-18.2-13.88-8.2-25.56-19.66-33.77-33.75-3.78-6.75-5.68-14.38-6.62-22.3 0-3.24-.3-7.06 0-10.28 1.9-16.74 7.58-33.18 16.1-47.56.63-.87-.3-1.75-.63-2.34-9.47-15.55-19.25-30.53-28.72-46.08 13.9-10.28 27.77-21.14 41.66-31.4z" stroke="#000" stroke-opacity="0" stroke-width=".33" fill="#556775"/><path d="M475.25 71.52c4.1-1.47 5.36 4.1 6 7.04.62 2.65-4.1 4.7-4.42 1.47-.64-2.64-4.42-6.16-1.58-8.5zM378.36 72.1c4.1-2.05 6.94 7.05 1.9 6.76-2.53-.6-4.1-5-1.9-6.75zM455.37 72.7c5.04-2.06 5.68 3.8 5.68 7.33.94 2.64-4.1 3.82-4.74.88-.3-2.63-1.25-5.27-.93-8.2zM399.82 77.4c.95-1.48 2.53-2.65 4.1-1.48 1.58 2.06 2.53 5 2.53 7.93-4.42 2.64-6.3-3.23-6.63-6.46zM441.8 85.02c-.64-2.35 3.47-3.23 4.4-1.17.96 2.35 1.9 5 1.9 7.63-.94 1.76-2.83 1.47-4.4 1.47-.96-2.35-1.6-5.3-1.9-7.93zM364.16 94.42c-.95-2.94-2.84-8.52 2.2-8.52 2.22 2.06 1.9 5.58 2.85 8.52.32 2.93-5.04 2.93-5.04 0zM424.12 88.55c6-1.77 4.42 5.87 4.42 9.4-1.58.87-3.16 1.16-4.42 0-.3-2.95-1.26-6.47 0-9.4zM340.17 90.3c6-4.7 9.16 10 1.58 7.05-.63-2.35-1.58-4.7-1.58-7.04zM493.87 90.3c1.26-.87 2.84-1.17 4.42-.3.62 2.65 1.56 5.6 1.88 8.23.3 2.35-3.16 3.82-4.1 1.76-1.27-2.94-2.2-6.17-2.2-9.7zM475.25 97.35c.63 0 1.58.6 1.9.6 13.88 11.44 28.08 22.3 42.28 33.75.63.58 2.2 1.46 1.26 2.93-5.37 8.8-10.42 17.9-15.8 26.42-1.88-2.05-.62-5-.3-7.34.94-5.27 2.52-10.56 4.42-15.55.3-1.76 1.9-4.1.3-5.57-11.03-12.04-23.03-23.2-34.07-35.23zM512.5 103.52c1.25-.3 2.5-.3 3.77 0 .95 3.22 1.9 6.75 1.9 10.27-.63 2.34-5.05 2.04-5.05-.6 0-3.23-2.2-6.75-.63-9.68zM464.2 121.13c1.26-1.47 2.53-2.64 3.8-4.1 8.2 7.03 16.08 14.37 23.66 21.7-.95-.28-1.9-.58-2.84-.58-5.37-1.46-10.42-2.64-15.78-4.1-2.84-1.18-4.74 2.05-6.94 3.52-9.47 7.04-18.94 14.1-30 18.5-6.6 2.93-14.2 3.5-21.13 2.63-6.94-1.76-12.94-6.16-17.67-11.15-1.58-2.06-3.8-3.53-4.42-6.17.3-.3.95-.3 1.26-.58 7.9 6.16 18.3 9.4 28.4 7.92 17.05-2.93 29.98-15.85 41.66-27.6zM530.16 123.18c3.47-1.17 4.42 2.35 3.8 5 .3 3.22-5.38 4.1-5.7 1.17.95-2.06 0-4.7 1.9-6.17z" stroke="#000" stroke-opacity="0" stroke-width=".33" fill="#fffefc"/><path d="M415.92 162.52l.94.3c0 16.72-.3 33.16 0 49.9h-.94v-50.2z" stroke="#000" stroke-opacity="0" stroke-width=".33" fill="#c7eaff"/><path d="M455.68 188.06c11.05 9.98 13.9 25.24 17.04 38.74 1.58 12.04 2.2 25.54-4.73 36.1-4.1 5.3-8.85 10.28-13.9 14.4-12.3 9.1-27.45 13.5-42.6 15.26-7.26 0-14.83 1.47-22.1-.3 5.06-3.52 11.68-3.22 17.05-5.87 13.88-4.4 27.46-11.16 38.5-20.85 13.9-12.62 20.5-32.3 17.36-51.07-.3-9.1-4.73-17.62-6.62-26.42zM251.18 238.55c-2.84-4.1 2.84-6.46 6-7.64 2.52-1.45 5.36 3.24 2.52 4.42-2.84.88-5.37 3.8-8.52 3.23zM274.53 248.53c0-2.65-.63-5.87 1.9-7.64 3.47 20.25 15.77 38.15 32.2 50.2 19.24 15.25 42.6 24.06 65.94 30.52-22.72 1.17-46.07-2.64-65.64-14.4-15.78-8.8-27.46-24.06-32.5-41.67-1.27-5.58-1.9-11.45-1.9-17.02zM257.8 251.76c2.2-1.18 5.06 1.76 3.48 3.52-1.27 2.35-3.16 4.7-3.8 7.34-.62 2.93-5.67 1.76-5.04-.88.95-3.82 3.16-7.05 5.37-9.98zM262.54 280.23c.95-2.35 5.36-.88 4.42 1.47-.95 2.35-2.2 4.7-2.2 7.34 0 2.05-2.85 2.34-4.43 1.76-1.58-3.82.32-7.64 2.2-10.57zM276.43 298.43c1.57-1.47 5.04 0 4.4 2.64-.93 3.82.33 7.93-1.25 12.04-1.26.6-2.84 0-4.1-.58 0-4.7-.63-9.4.95-14.1zM295.05 314.57c4.4-1.46 4.4 4.4 6 7.05 2.2 2.93-4.1 4.7-4.74 1.47-.94-2.66-4.1-6.18-1.25-8.53zM324.08 328.37c1.26-.3 2.84-1.17 3.8-.3.93 2.35 1.56 4.7 3.14 6.76.95 2.35-.94 4.7-3.47 4.1-1.9-2.93-4.1-6.74-3.47-10.56zM360.06 335.42c3.47.58 5.68 5 8.52 7.04 2.52 1.47.94 5.87-2.2 4.7-2.85-2.65-5.7-5.58-8.53-8.52-.63-1.46.63-2.93 2.2-3.22zM398.87 340.4c2.53-1.46 4.74 1.47 6.32 3.53-.96 5.87-10.74 0-6.33-3.52z" stroke="#000" stroke-opacity="0" stroke-width=".33" fill="#fffefc"/><path d="M308.93 60.95c1.9.3 4.1.3 5.68 2.06 4.75 4.4 9.16 9.7 14.53 13.22v.3c1.26 6.74.95 13.5 1.26 19.95-5.37-2.64-10.1-5.58-15.16-9.1 0-9.1-2.84-17.6-6.3-25.83v-.6zM485.03 75.04c.32-.3.63-.3.63-.58h.32c-6-3.53-10.73-9.4-17.36-12.63l-.63.3c.3 5.57 1.88 10.86 2.5 16.14.64 1.47.33 3.52 1.6 4.4 5.04 4.1 10.1 8.8 14.82 12.92.32-6.76-.94-13.8-1.9-20.56zm-8.2 5c-.64-2.65-4.42-6.17-1.58-8.52 3.78-1.47 5.36 4.1 6 7.04.62 2.94-4.1 4.7-4.42 1.47z" stroke="#000" stroke-opacity="0" stroke-width=".33" fill="#b1cce1"/><path d="M476.83 80.03c-.64-2.64-4.42-6.16-1.58-8.5 3.78-1.48 5.36 4.1 6 7.03.62 2.94-4.1 4.7-4.42 1.47z" stroke="#000" stroke-opacity="0" stroke-width=".33" fill="#fff"/><path d="M459.15 63.9c-3.47 3.5-6.94 7.33-10.73 10.56 2.53 5.28 3.8 11.44 4.42 17.3 4.73-2.63 9.15-5.56 12.94-9.38-.95-6.46-3.47-12.62-6.63-18.5zm-2.84 17c-.3-2.63-1.25-5.27-.93-8.2 5.04-2.06 5.68 3.8 5.68 7.33.94 2.64-4.1 3.82-4.74.88z" stroke="#000" stroke-opacity="0" stroke-width=".33" fill="#b1cce1"/><path d="M456.3 80.9c-.3-2.63-1.25-5.27-.93-8.2 5.04-2.06 5.68 3.8 5.68 7.33.94 2.64-4.1 3.82-4.74.88z" stroke="#000" stroke-opacity="0" stroke-width=".33" fill="#fff"/><path d="M384.04 64.77c-4.73.6-10.73 0-14.2 4.1l.32.3c2.2 7.63 4.1 15.56 5.68 23.48 4.4-4.4 8.52-9.4 11.67-14.67-1.25-4.4-2.5-8.8-3.46-13.2zm-3.8 14.1c-2.5-.6-4.1-5-1.88-6.76 4.1-2.05 6.94 7.05 1.9 6.76z" stroke="#000" stroke-opacity="0" stroke-width=".33" fill="#b1cce1"/><path d="M380.25 78.86c-2.52-.6-4.1-5-1.9-6.75 4.1-2.05 6.95 7.05 1.9 6.76z" stroke="#000" stroke-opacity="0" stroke-width=".33" fill="#fff"/><path d="M408.03 73.57c-1.9-2.64-3.47-6.45-6.95-7.33-3.47-.88-6.62-1.18-10.1-1.47 1.9 7.92 3.16 16.14 4.42 24.07 4.42 5.28 10.1 9.7 16.4 12.62-1.25-9.1-2.2-18.5-3.77-27.9zm-8.2 3.82c.94-1.48 2.52-2.65 4.1-1.48 1.57 2.06 2.52 5 2.52 7.93-4.42 2.64-6.3-3.23-6.63-6.46z" stroke="#000" stroke-opacity="0" stroke-width=".33" fill="#b1cce1"/><path d="M406.45 83.85c-4.42 2.64-6.3-3.23-6.63-6.46.95-1.48 2.53-2.65 4.1-1.48 1.58 2.06 2.53 5 2.53 7.93z" stroke="#000" stroke-opacity="0" stroke-width=".33" fill="#fff"/><path d="M289.68 74.75c3.47-3.52 7.57-6.46 11.36-9.4 6.3 5.3 10.42 12.63 12.63 20.55-2.85-2.05-5.05-4.4-7.9-6.45-4.4 4.4-9.46 8.5-14.2 12.9-.63.6-1.57 1.77-2.52.9-5.37-2.06-11.36-2.65-16.4-4.7 4.4-4.1 9.14-7.34 13.56-11.45h.32c2.2.58 4.74 1.17 7.26 2.05-1.26-1.47-2.84-2.93-4.1-4.4zM353.43 83.55c5.05-1.17 8.84-4.7 12.62-8.5 2.84 6.45 5.37 12.9 6.63 19.95-3.47 3.53-8.2 6.17-13.25 7.34-1.58-6.46-2.84-12.9-6-18.8z" stroke="#000" stroke-opacity="0" stroke-width=".33" fill="#b1cce1"/><path d="M364.16 94.42c-.95-2.94-2.84-8.52 2.2-8.52 2.22 2.06 1.9 5.58 2.85 8.52.32 2.93-5.04 2.93-5.04 0z" stroke="#000" stroke-opacity="0" stroke-width=".33" fill="#fff"/><path d="M446.2 76.22c-4.4 2.64-8.5 6.16-13.56 7.04v.3c2.2 5.28 3.47 10.56 5.05 15.85 5.04-1.75 9.46-3.8 13.88-6.75-1.58-5.28-3.47-10.86-5.37-16.43zm-2.5 16.73c-.96-2.35-1.6-5.3-1.9-7.93-.64-2.35 3.47-3.23 4.4-1.17.96 2.35 1.9 5 1.9 7.63-.94 1.76-2.83 1.47-4.4 1.47z" stroke="#000" stroke-opacity="0" stroke-width=".33" fill="#b1cce1"/><path d="M448.1 91.48c-.94 1.76-2.83 1.47-4.4 1.47-.96-2.35-1.6-5.3-1.9-7.93-.64-2.35 3.47-3.23 4.4-1.17.96 2.35 1.9 5 1.9 7.63z" stroke="#000" stroke-opacity="0" stroke-width=".33" fill="#fff"/><path d="M503.97 89.72c-5.68-4.4-10.73-9.4-16.4-13.2.62 7.03 1.88 13.8 2.5 20.83 0 1.76 1.6 2.94 2.85 3.82 4.1 3.52 8.2 7.34 12.3 11.15.32-7.63 0-15.26-1.25-22.6zm-7.9 10.27c-1.26-3.24-2.2-6.46-2.2-9.7 1.26-.87 2.84-1.17 4.42-.58.93 2.93 1.56 5.58 1.88 8.5.3 2.36-3.16 3.83-4.1 1.77z" stroke="#000" stroke-opacity="0" stroke-width=".33" fill="#b1cce1"/><path d="M496.08 100c-1.27-3.24-2.2-6.46-2.2-9.7 1.25-.87 2.83-1.17 4.4-.58.95 2.93 1.58 5.58 1.9 8.5.3 2.36-3.16 3.83-4.1 1.77z" stroke="#000" stroke-opacity="0" stroke-width=".33" fill="#fff"/><path d="M349.96 84.44c-6.3 0-12.3-2.06-17.68-5.3 3.48 6.18 4.74 13.22 5.37 20.27 4.42 1.47 9.15 3.24 14.2 3.53.32-6.17-.63-12.33-1.9-18.5zm-8.2 12.9c-.64-2.34-1.6-4.7-1.6-7.03 5.7-4.7 9.17 10 1.6 7.05z" stroke="#000" stroke-opacity="0" stroke-width=".33" fill="#b1cce1"/><path d="M341.75 97.35c-.63-2.35-1.58-4.7-1.58-7.04 5.7-4.7 9.16 10 1.58 7.05z" stroke="#000" stroke-opacity="0" stroke-width=".33" fill="#fff"/><path d="M429.5 84.14c-6 .6-12-1.17-16.74-5 2.53 7.94 4.42 15.86 5.68 24.08 4.42.6 9.15-.58 13.57-1.76-.3-5.87-1.25-11.45-2.5-17.32zm-.96 13.8c-1.58.88-3.16 1.17-4.42 0-.3-2.94-1.26-6.46 0-9.4 6-1.76 4.42 5.88 4.42 9.4z" stroke="#000" stroke-opacity="0" stroke-width=".33" fill="#b1cce1"/><path d="M428.54 97.94c-1.58.88-3.16 1.17-4.42 0-.3-2.94-1.26-6.46 0-9.4 6-1.76 4.42 5.88 4.42 9.4z" stroke="#000" stroke-opacity="0" stroke-width=".33" fill="#fff"/><path d="M526.7 225.04c-5.7-2.64-12.95-2.35-18-7.04h-1.58c-2.2-10.86-5.68-21.43-10.4-31.7 9.14-17.32 18.92-34.64 28.08-52.26-18.62-17.3-37.56-34.34-56.5-51.66-10.1 8.5-20.82 16.44-33.13 21.72-6.95 2.64-14.84 4.1-21.78 1.18-11.05-4.4-19.26-13.5-25.9-22.9-6.3 8.8-13.87 17.32-23.97 22.3-6.3 2.95-13.9 2.95-20.83.6-13.57-5-25.25-13.8-35.98-22.9-19.25 17.03-37.87 34.64-56.8 51.96 9.15 16.73 18.3 33.76 27.45 50.5.95 1.16.63 2.63 0 3.5-6.94 15.57-11.04 32.6-11.67 49.62-.32 17.32 3.78 35.22 14.2 49.02 10.1 13.8 24.93 23.48 40.4 29.65 21.45 8.5 44.8 12.33 67.53 13.5 27.77-1.76 56.5-6.75 81.1-20.55 11.68-6.75 22.1-15.85 29.36-27.3 10.08-16.14 12.3-36.1 10.08-54.6h2.53c.64 2.65.96 5.58.96 8.22 5.68 1.77 11.04 3.82 17.04 5-.63-5.3-.95-10.57-2.2-15.86zm-49.56-127.1c13.9 11.45 28.1 22.3 42.3 33.76.62.58 2.2 1.46 1.25 2.93-5.37 8.8-10.42 17.9-15.8 26.42-1.88-2.05-.62-5-.3-7.34.94-5.27 2.52-10.56 4.42-15.55.63-1.76 1.9-4.1.3-5.57-11.03-12.04-23.03-23.2-34.07-35.23.63 0 1.58.6 1.9.6zm-168.2 209.3c-15.8-8.8-27.47-24.37-32.5-41.7-4.75-6.15-6-13.78-7.9-21.12-1.27-19.67 5.05-38.75 12.93-56.66.64-1.76 2.53-3.52 1.9-5.87-3.16-5.3-6.94-10.28-10.1-15.57h-.95c-.63-3.22-2.84-6.16-5.05-8.5-4.1-7.64-9.78-14.7-13.88-22.32 4.1-3.8 7.88-7.9 11.66-12.02.64.3.95.3 1.58.3 2.2-5.6 8.84-8.52 12.3-13.22 9.16-7.92 17.68-16.44 26.52-24.36 10.4 9.1 22.1 17.32 34.7 22.6 12 5 25.26 2.05 37.25-1.76-.3 2.93-3.14 4.7-5.35 6.75-8.2 5.86-19.25 8.2-29.03 4.98-12.63-4.1-23.04-12.92-33.77-20.84-8.52 3.52-14.84 11.45-22.73 16.44-7.25 5.87-14.5 11.15-21.77 17.32-.63 2.05.95 4.1 1.9 5.87 5.36 10.56 12.3 20.25 18.6 30.23 3.48 3.82 5.06 8.8 8.85 12.33-9.15 12.62-12 28.18-15.15 43.15-1.26 5.87-1.58 12.04-2.52 17.6 3.47 20.27 15.77 38.17 32.2 50.2 19.24 15.27 42.6 24.08 65.94 30.54-22.72.88-46.07-2.64-65.64-14.4zm183.35-66.64c-.96 16.44-11.37 30.53-22.73 41.68-22.4 20.55-53.02 29.06-83 30.83-22.1-1.76-44.82-6.75-64.07-18.2-13.88-8.2-25.56-19.66-33.77-33.75-3.78-6.75-5.68-14.38-6.62-22.3l-.63.58c-.3-4.1 0-8.22 0-12.63l.95 1.77c1.58-17.03 7.26-33.18 15.78-47.56.63-.87 0-1.75-.63-2.34-9.47-15.55-19.25-30.53-28.72-46.08 13.9-10.28 27.77-21.14 41.66-31.4 10.1 10.85 22.42 21.12 36.93 25.82 12 4.1 24.93-2.64 33.14-11.45 2.84-2.35 4.73-5.58 6.94-8.22 7.27 9.7 17.06 19.08 29.36 20.84 7.9.88 15.47-2.34 22.4-6.16 9.48-5.57 18-12.9 25.57-20.83 12.63 9.98 25.57 19.66 38.5 29.65l-3.47 3.22c-11.04-8.2-22.4-16.73-33.13-25.24-13.9 11.15-27.78 23.2-44.82 29.35-7.88 2.94-17.03.6-23.66-4.4-4.4-3.52-7.57-8.22-10.73-12.62-5.67 9.7-15.45 19.08-27.76 18.2-9.47-.88-17.67-6.17-25.56-10.86-8.84-6.17-17.67-12.63-25.25-19.96-11.36 8.52-22.4 17.03-33.45 25.84 9.47 13.8 18.62 28.47 27.14 43.15 1.26 2.63 3.8 5.57 1.58 8.5-9.15 17.32-17.04 37.28-13.57 57.24 2.84 19.67 18 34.64 35.03 43.45 18.3 9.67 38.82 14.66 59.33 17.9 3.46.87 6.93-.3 10.4-.9 14.52-2.34 28.72-6.15 42.6-11.44.32 0 .95.3 1.27.3.32-1.47 2.2-1.76 3.47-2.64 17.36-7.64 34.4-20.55 40.08-39.34 6.63-22.3-1.58-45.5-12.3-64.87-1.9-2.63.62-5.28 1.57-7.62 8.2-14.1 16.72-28.18 26.2-41.7 3.14-.57 4.72-7.03 7.88-3.5-9.8 15.84-20.2 31.4-30 47.54 9.48 15.86 16.1 33.76 16.74 52.25l-1.58-.3c-2.2 2.65-.63 5.6.95 8.23zm-33.46-56.07c12.3 18.2 19.56 40.5 15.78 62.53-.63 2.64-1.27 5.87-2.2 8.5-.96 2.95-2.22 5.3-4.43 7.35-4.1 5.3-8.85 10.28-13.9 14.4-12.3 9.1-27.45 13.5-42.6 15.26-4.42 1.47-8.84 2.93-13.57 4.1-.32.3-.95.3-1.26.3-.64.3-1.27.3-1.58.6-.64 0-.96.28-1.6.28-.62 0-.94.3-1.57.3-.95.3-1.9.3-2.52.3-.62.28-1.26.28-2.2.28-12.63-.88-24.93-4.4-36.3-9.98-11.36-5.28-22.1-12.62-31.55-20.84-11.37-7.93-18.3-21.72-18.3-35.52 0-2.05 0-4.1.3-6.16.32-4.1.95-8.52 2.22-12.63 1.26-4.1 2.84-8.22 4.1-12.33 1.9-3.23 3.8-6.76 5.68-9.98.32-.3.32-.9.63-1.2.63-.87.95-1.75 1.26-2.34 1.27-2.35 2.53-4.1 3.47-6.46-6.3-9.98-13.56-19.66-20.18-29.64v-.88c0-1.47.94-2.65 1.9-3.82 2.83-2.94 5.67-6.16 8.5-9.4 2.54-3.52 5.38-6.74 8.22-9.97 0-.3.3-.6.63-.9 0-.3.3-.3.3-.3.33-.28.64-.28.96-.28 7.9 7.04 15.78 14.68 24.93 20.25.95.6 1.9 1.18 2.53 1.47 1.88 1.18 3.77 2.06 5.67 2.94.94.3 1.9.58 2.84 1.17 1.27.6 2.85.88 4.1 1.47 7.9 2.05 14.53-2.94 19.58-7.93 3.15-2.65 6.62-4.7 9.15-7.64.3.3.63.6.95 1.17l.3.3s0 .3.33.3l.32.3.32.28H390.97s0-.28.33-.58c0 0 0-.3.32-.3.63.6 1.57 1.18 2.52 1.77h.32-.32c7.9 6.15 18.3 9.38 28.4 8.2 13.9-7.92 26.5-17.9 38.5-28.17 1.27-.3 2.22 0 3.16 0 1.26-1.18 2.53-2.64 3.8-3.82 8.2 6.76 16.08 14.1 23.66 21.73l-2.84-.88c-2.53 3.82-5.05 7.34-7.58 11.16-1.26 1.77-2.52 3.53-3.78 5.6-6.32 8.8-12.94 17.9-20.2 26.4 0 1.18.63 2.35 1.58 3.23zm51.75 41.4c-1.9.87-3.8-2.35-1.27-2.65 0-.3.32-1.17.32-1.76.94 1.47.94 2.94.94 4.4z" stroke="#000" stroke-opacity="0" stroke-width=".33" fill="#b1cce1"/><path d="M520.7 134.63c-5.37 8.8-10.42 17.9-15.8 26.42-1.88-2.05-.62-5-.3-7.34.94-5.27 2.52-10.56 4.42-15.55.63-1.76 1.9-4.1.3-5.57-11.03-12.04-23.03-23.2-34.07-35.23.63 0 1.26.6 1.9.6 13.88 11.44 28.08 22.3 41.96 33.75.96.58 2.54 1.46 1.6 2.93zM468 262.9c-4.1 5.3-8.85 10.28-13.9 14.4-12.3 9.1-27.45 13.5-42.6 15.26-7.26 0-14.83 1.47-22.1-.3 2.85-1.76 5.7-2.64 8.53-3.22 2.84-.6 5.68-1.18 8.52-2.65 13.88-4.4 27.46-11.16 38.5-20.85 11.68-10.57 18.3-25.83 18.3-41.4 0-3.22-.3-6.45-.94-9.67-.3-9.1-4.73-17.32-6.3-26.13 5.36 4.7 8.83 11.15 11.04 17.9 2.53 6.46 4.1 13.8 5.68 20.85 1.58 11.74 2.2 25.24-4.73 35.8zM491.66 138.74c-.95 0-1.9-.3-2.84-.6-5.37-1.45-10.42-2.63-15.78-4.1-2.84-1.17-4.74 2.35-6.94 3.53-9.47 7.04-18.94 14.1-30 18.5-5.04 2.34-10.08 3.22-15.45 3.22-1.9 0-3.8-.3-5.68-.3-6.94-1.77-12.94-6.17-17.67-11.45-1.58-1.76-3.47-3.23-4.1-5.58 0-.3.3-.3.3-.6l.64-.28c7.9 6.15 18.62 9.38 28.72 7.92 13.57-7.93 26.2-17.62 38.5-27.9.95-.3 1.9 0 3.16 0 1.26-1.46 2.2-2.63 3.47-4.1 8.2 7.04 16.08 14.38 23.66 21.72zM374.57 321.62c-22.72.88-46.07-2.64-65.64-14.4-15.78-8.8-27.46-24.35-32.5-41.67-1.27-5.58-1.9-11.45-1.9-17.02 0-2.65-.63-5.87 1.9-7.64 3.15 20.25 15.77 38.15 32.2 50.2 19.24 15.25 42.6 24.06 65.94 30.52z" stroke="#000" stroke-opacity="0" stroke-width=".33" fill="#fff"/><path d="M506.5 91.77c-.32 7.05 1.57 14.4 0 21.43 3.78 3.82 7.57 7.93 11.98 11.16 2.2-6.17 3.16-12.62 3.47-19.38-5.36-4.4-10.4-8.8-15.46-13.2zm6.62 21.43c0-3.23-2.2-6.75-.63-9.68 1.25-.3 2.5-.3 3.77 0 .95 3.22 1.9 6.75 1.9 10.27-.63 2.34-5.05 1.75-5.05-.6z" stroke="#000" stroke-opacity="0" stroke-width=".33" fill="#b1cce1"/><path d="M518.17 113.8c-.63 2.34-5.05 1.75-5.05-.6 0-3.23-2.2-6.75-.63-9.68 1.25-.3 2.5-.3 3.77 0 .95 3.22 1.58 6.75 1.9 10.27z" stroke="#000" stroke-opacity="0" stroke-width=".33" fill="#fff"/><path d="M266 93.54c1.6-1.47 3.8-.6 5.7-.9 6 .6 11.67.9 17.66 1.78-5.04 4.1-9.78 8.8-14.83 12.9-6.94-.28-14.2-1.16-21.14-2.63 4.1-3.83 8.82-7.05 12.6-11.16zM249.92 107.92c.63-.88 1.57-.3 2.52-.3 6 1.47 12.3 2.06 18.62 2.94-4.42 4.4-9.15 8.5-13.57 12.62-6.64-.88-13.26-2.64-19.9-4.1 4.1-3.82 7.9-7.64 12.32-11.16zM533.63 115.26c-3.15 5-7.26 9.1-11.04 12.9 1.25 2.36 4.1 4.12 4.72 6.47-1.26 4.4-3.8 8.22-6 12.33 9.47-4.4 16.73-12.33 22.73-20.25-3.16-4.1-6.63-7.92-10.42-11.44zm-5.36 14.1c.94-2.07 0-4.7 1.9-6.18 3.46-1.17 4.4 2.35 3.78 5 .3 3.22-5.05 4.1-5.68 1.17z" stroke="#000" stroke-opacity="0" stroke-width=".33" fill="#b1cce1"/><path d="M533.95 128.17c.3 3.23-5.05 4.1-5.68 1.18.94-2.06 0-4.7 1.9-6.17 3.46-1.17 4.4 2.35 3.78 5z" stroke="#000" stroke-opacity="0" stroke-width=".33" fill="#fff"/><path d="M230.35 127.6c1.58-2.66 3.8-5.3 6.63-7.35 5.36 2.93 11.67 3.8 17.67 5.58-2.2 2.93-5.37 5.28-7.57 8.5.94 1.77 1.57 3.24 2.52 5.3-6-1.18-11.68-4.12-17.67-5.3h-.32c-.62-2.05-2.83-4.4-1.25-6.74zM236.66 143.14c4.73 0 9.47 0 14.2.3 1.58 0 1.58 1.47 2.2 2.35 2.22 4.4 4.75 8.5 6.95 12.9-4.1-.6-8.5-.3-12.6-.88h-3.16c-2.85-4.7-5.7-9.7-7.58-14.68zM519.1 151.66c5.38-.3 11.06-.88 16.1-2.64-2.2 5.87-5.36 11.15-7.88 16.73H527c-5.68.58-11.04 1.46-16.72 1.46 3.15-5.27 5.68-10.55 8.83-15.54zM247.7 164.57h15.47c2.84 4.7 5.37 9.1 7.9 14.1-5.37 0-11.06-.6-16.42.3-2.2-5-5.05-9.4-6.94-14.4zM507.75 172.2c5.05.9 10.1.3 15.15.9-1.9 4.98-5.05 9.38-6.94 14.37h-.32c-5.36-.3-10.73-.88-16.1-1.17 2.85-4.7 5.37-9.7 8.2-14.1zM256.54 181.9c5.37 0 10.73-.3 16.1-.6.95 1.47 2.2 3.23 2.84 5.3-.95 2.92-2.53 5.86-3.47 9.1-5.04.28-10.1.28-14.83.58.64-2.94 3.8-6.17 1.9-9.1-.95-1.77-1.9-3.53-2.53-5.3zM501.44 191.58c5.37.3 10.42 2.93 15.78 3.23h.32c1.9 5.6 4.1 11.46 5.36 17.33-5.36-.88-10.4-3.53-16.1-4.4-1.57-5.58-3.46-10.87-5.36-16.15zM249.92 218c1.26-5.58 3.15-11.16 5.05-16.73 0 .3 0 .88.3 1.17 4.74-.3 9.48-1.17 14.53-.88-.95 4.7-2.84 9.4-3.8 14.38-5.35.6-10.72 1.18-16.08 2.06zM247.7 229.15h-.3c-.32 7.05-2.53 13.8-1.27 20.84 4.73-4.7 9.78-9.7 16.4-11.75 1.27-5 .96-10.57 2.22-15.56-6 1.17-11.36 4.4-17.04 6.45zm12 6.17c-2.84.88-5.37 3.8-8.52 3.23-2.84-4.1 2.84-6.46 6-7.64 2.52-1.45 5.68 3.24 2.52 4.42z" stroke="#000" stroke-opacity="0" stroke-width=".33" fill="#b1cce1"/><path d="M259.7 235.32c-2.84.88-5.37 3.8-8.52 3.23-2.84-4.1 2.84-6.46 6-7.64 2.52-1.45 5.68 3.24 2.52 4.42z" stroke="#000" stroke-opacity="0" stroke-width=".33" fill="#fff"/><path d="M263.5 253.8c-.64-4.1-.64-8.5-.64-12.9-6.32 2.93-11.37 8.2-15.47 13.8-.64.58-.96 1.46-1.27 2.05-.32 7.63 1.58 15.26 3.47 22.6 3.47-7.05 7.26-14.4 12.94-19.96 1.9-1.48.95-3.83.95-5.6zm-2.22 1.48c-1.27 2.35-3.16 4.7-3.8 7.34-.62 2.93-5.67 1.76-5.04-.88.95-3.82 3.16-7.05 5.37-9.98 2.2-1.18 5.06 1.76 3.48 3.52z" stroke="#000" stroke-opacity="0" stroke-width=".33" fill="#b1cce1"/><path d="M261.28 255.28c-1.27 2.35-3.16 4.7-3.8 7.34-.62 2.93-5.67 1.76-5.04-.88.95-3.82 3.16-7.05 5.37-9.98 2.2-1.18 5.06 1.76 3.48 3.52z" stroke="#000" stroke-opacity="0" stroke-width=".33" fill="#fff"/><path d="M512.17 241.2c5.68 1.16 11.36 2.63 17.04 4.1.33 5 .64 9.98-.3 14.97-6-1.47-12-2.64-17.68-4.4.95-4.7.95-9.7.95-14.68zM511.22 258.2c6 1.2 11.68 2.66 17.68 4.12-.63 4.7-1.26 9.4-2.84 13.8-6.3-.6-12.3-2.64-18.62-3.52 1.58-4.7 2.84-9.7 3.78-14.4zM265.7 266.73c-6.95 5-8.84 14.1-12.94 21.42 2.84 5.3 5.36 11.16 9.15 16.15 3.8-7.34 6.64-14.97 10.1-22.3-2.83-4.7-5.04-10-6.3-15.27zm-.95 22.3c0 2.06-2.84 2.35-4.42 1.77-1.58-3.53.32-7.34 2.2-10.57.96-2.35 5.37-.88 4.43 1.47-.95 2.35-2.2 4.7-2.2 7.34z" stroke="#000" stroke-opacity="0" stroke-width=".33" fill="#b1cce1"/><path d="M266.96 281.7c-.95 2.35-2.2 4.7-2.2 7.34 0 2.05-2.85 2.34-4.43 1.76-1.58-3.53.32-7.34 2.2-10.57.96-2.35 5.37-.88 4.43 1.47z" stroke="#000" stroke-opacity="0" stroke-width=".33" fill="#fff"/><path d="M505.23 277.3c6.3 1.75 12.62 3.22 18.62 5.57-.95 5-3.47 9.4-6 13.8-6.3-2.64-13.25-4.4-20.2-6.17 2.2-4.4 6-8.22 7.58-13.2zM282.42 295.5c-3.47-3.53-6.3-7.35-9.47-11.16-2.52 8.5-5.36 17.02-5.68 25.83 4.42 5.28 9.16 9.98 14.84 13.5.32-3.8 0-7.34.32-11.15.32-4.4.95-8.8 1.9-13.2.94-1.48-.95-2.65-1.9-3.83zm-1.58 5.57c-.94 3.82.32 7.93-1.26 12.04-1.26.6-2.84 0-4.1-.58 0-4.7-.63-9.4.95-14.1 1.57-1.46 5.36 0 4.4 2.65z" stroke="#000" stroke-opacity="0" stroke-width=".33" fill="#b1cce1"/><path d="M280.84 301.07c-.94 3.82.32 7.93-1.26 12.04-1.26.6-2.84 0-4.1-.58 0-4.7-.63-9.4.95-14.1 1.57-1.46 5.36 0 4.4 2.65z" stroke="#000" stroke-opacity="0" stroke-width=".33" fill="#fff"/><path d="M494.5 293.44c.95-.88 1.9-2.64 3.15-1.76 6.32 2.35 12.3 5.28 18 8.5-2.53 4.12-5.7 7.94-8.84 11.46-6.94-4.4-14.83-6.75-22.72-8.22 3.8-3.23 7.58-6.17 10.42-9.98zM439.27 292.56zM302.62 311.34c-5.37-2.93-10.1-6.75-14.83-10.56-.96 9.98 1.88 19.96 4.4 29.64v.3c6.63 3.23 13.26 6.75 20.2 9.4-4.42-9.4-8.52-18.5-9.78-28.78zm-6.3 11.75c-.96-2.66-4.12-6.18-.96-8.53 4.1-1.46 4.1 4.4 5.68 7.05 2.2 2.93-4.1 4.7-4.73 1.47z" stroke="#000" stroke-opacity="0" stroke-width=".33" fill="#b1cce1"/><path d="M296.3 323.1c-.94-2.66-4.1-6.18-.94-8.53 4.1-1.46 4.1 4.4 5.68 7.05 2.2 2.93-4.1 4.7-4.73 1.47z" stroke="#000" stroke-opacity="0" stroke-width=".33" fill="#fff"/><path d="M479.03 307.23c.95-.58 2.2-1.76 3.48-1.17 7.26 2.64 14.2 5.28 20.84 9.1-3.8 3.52-7.58 6.75-12 9.7-8.52-3.24-17.35-5.88-25.88-9.1 4.42-2.65 9.16-5.3 13.57-8.53zM335.13 326.6c-8.2-3.22-16.73-6.45-24.62-10.27 4.74 10.87 13.9 19.1 19.9 29.36 6.62 2.04 12.93 3.5 19.56 4.4-5.37-7.64-9.47-15.86-14.83-23.5zm-7.26 12.34c-2.2-2.94-4.42-6.75-3.8-10.57 1.27-.3 2.85-1.17 3.8-.3.94 2.35 1.57 4.7 3.15 6.76.95 2.35-.63 4.7-3.15 4.1z" stroke="#000" stroke-opacity="0" stroke-width=".33" fill="#b1cce1"/><path d="M327.87 338.94c-2.2-2.94-4.42-6.75-3.8-10.57 1.27-.3 2.85-1.17 3.8-.3.94 2.35 1.57 4.7 3.15 6.76.95 2.35-.63 4.7-3.15 4.1z" stroke="#000" stroke-opacity="0" stroke-width=".33" fill="#fff"/><path d="M437.38 327.5c6.62-2.07 12.94-4.7 19.25-7.35 8.52 2.94 16.4 7.93 25.24 10.86-6 3.53-12 6.18-18.3 8.52-8.2-4.7-17.67-7.92-26.2-12.03zM368.26 334.24c-1.9-1.76-4.73-1.47-7.26-1.76-6.62-.88-13.25-3.23-19.88-4.1 7.26 8.8 16.73 14.96 23.36 24.06 7.25.88 14.83 1.76 22.4 2.06-5.68-7.05-12.3-13.8-18.62-20.26zm-1.9 12.92c-2.83-2.65-5.67-5.58-8.5-8.52-.64-1.46.62-2.93 2.2-3.22 3.47.58 5.68 5 8.52 7.04 2.52 1.47.94 5.87-2.2 4.7z" stroke="#000" stroke-opacity="0" stroke-width=".33" fill="#b1cce1"/><path d="M366.37 347.16c-2.84-2.65-5.68-5.58-8.52-8.52-.63-1.46.63-2.93 2.2-3.22 3.48.58 5.7 5 8.53 7.04 2.52 1.47.94 5.87-2.2 4.7z" stroke="#000" stroke-opacity="0" stroke-width=".33" fill="#fff"/><path d="M409.92 333.07c7.9-.3 15.46-2.65 23.04-4.1 8.83 3.8 17.67 7.9 26.2 12.02-6.95 2.93-14.2 4.7-21.15 6.45-9.14-5-19.56-8.5-28.08-14.38zM405.5 334.83c-1.9-1.47-4.73-.6-7.26-.88-6 .58-12.3-.88-18.3-.3 7.26 7.34 16.4 12.63 24.93 18.5.32.3.32.58.32.58l.3.3c9.15-1.18 18.3-2.35 27.14-4.4-9.78-2.35-18.62-7.93-27.14-13.8zm-6.63 5.58c2.53-1.46 4.74 1.47 6.32 3.53-.96 5.87-10.74 0-6.33-3.52z" stroke="#000" stroke-opacity="0" stroke-width=".33" fill="#b1cce1"/><path d="M405.2 343.93c-.96 5.87-10.74 0-6.33-3.52 2.53-1.46 4.74 1.77 6.32 3.53z" stroke="#000" stroke-opacity="0" stroke-width=".33" fill="#fff"/><path d="M461.68 61.83c1.9-.88 3.78-.58 6 0-1.9.88-4.1.6-6 0zM509.65 221.52c.94 1.47.94 2.94.94 4.4-1.9.88-3.8-2.34-1.27-2.64 0-.6.32-1.17.32-1.76zM246.13 250c.3 1.76.95 3.22 1.26 4.7-.64.58-.96 1.16-1.27 2.05-.32-2.06-.63-4.4 0-6.76zM401.7 352.73c.96-.3 2.22-.3 3.5-.3 0 0 0 .3.3.3-1.26.6-2.52.88-3.8.6v-.6z" stroke="#000" stroke-opacity="0" stroke-width=".33" fill="#556775"/><path d="M388.14 235.32c2.2 4.7 4.1 9.4 6 14.1 5.05 1.16 10.42 1.75 15.46 2.63-3.15 3.52-7.25 6.16-10.73 9.4 0 4.7.64 9.4.95 14.08-4.42-2.35-8.2-5.87-12.3-8.22-4.1 2.65-8.2 5.3-12.63 7.65.94-4.4 2.2-8.8 2.83-13.2-3.8-3.54-7.9-6.77-11.68-10.3 5.37-.58 10.73-1.46 16.1-1.46 2.2-5 3.8-10 6-14.68z" stroke="#000" stroke-opacity="0" stroke-width=".33" fill="#2f3c42"/><path d="M377.4 107.04c-.3 2.93-3.14 4.7-5.35 6.46-8.2 5.87-19.25 8.5-29.03 5.28-12.63-4.1-23.04-12.92-33.77-20.84-8.52 3.52-14.84 11.45-22.73 16.44-7.25 5.87-14.5 11.15-21.77 17.32-.63 2.05.95 4.1 1.9 5.87 5.36 10.56 12.3 20.25 18.6 30.23 3.48 3.82 5.06 8.8 8.85 12.33-9.15 12.62-12 28.18-15.15 43.15-1.26 5.87-1.58 12.04-2.52 17.6-2.2 1.78-1.9 5-1.9 7.65 0 5.57.63 11.44 2.2 17.02-5.04-6.16-6.3-13.8-8.2-21.13-1.26-19.67 5.06-38.75 12.94-56.66.64-2.05 2.53-3.8 1.9-5.87-3.16-5.3-6.94-10.28-10.1-15.57h-.95c-.63-3.22-2.52-6.16-5.05-8.5-4.1-7.64-9.78-14.7-13.88-22.6 4.1-3.53 7.88-7.64 11.98-11.75.32.3.95.3 1.26.3 2.2-5.6 8.84-8.52 12.63-13.5 9.15-7.94 17.35-16.16 26.5-24.08 10.1 9.1 21.78 17.32 34.4 22.6 12 4.7 25.25 1.76 37.24-1.76zM461.05 120.83c1.26-.3 2.2.3 3.15.3-11.68 11.74-24.6 24.66-41.66 27.9 13.9-7.94 26.5-17.92 38.5-28.2z" stroke="#000" stroke-opacity="0" stroke-width=".33" fill="#c7eaff"/><path d="M488.82 138.15c-5.37-1.46-10.42-2.64-15.78-4.1-2.84-1.18-4.74 2.34-6.94 3.52-9.47 7.04-19.26 14.1-30.3 18.5-4.74 2.34-10.1 3.22-15.15 3.22-1.9 0-3.8-.3-5.68-.3-6.94-1.77-12.94-6.17-17.67-11.45-1.58-1.76-3.47-3.23-4.1-5.58 0-.3 0-.3.3-.6l.64-.28c-.63-.6-1.9-1.18-2.52-2.07-.32.3-.32.3-.32.6l-.32.3-.3.28h-.64c0-.28 0-.28-.32-.28l-.3-.3v-.3h-.33c0-.3-.32-.3-.32-.58-.32-.3-.64-.88-.95-1.17-2.53 2.93-6 5.28-9.15 7.92-5.05 4.7-11.68 9.68-19.57 7.62-1.25-.3-2.83-.88-4.1-1.46-1.25-.3-1.9-.6-2.83-1.18l-5.68-2.64c-.64-.6-1.6-.88-2.54-1.47-9.15-5.87-17.04-13.2-24.93-20.54-.32 0-.63.3-.95.58h-.3c-.33.3-.64.6-.64.9-2.84 3.52-5.68 6.74-8.2 9.97-2.85 3.23-5.7 6.46-8.53 9.7-.94.87-1.88 2.34-1.88 3.5v1.2c6.62 9.97 13.88 19.36 20.2 29.63-.95 2.06-2.2 4.1-3.48 6.17-.3.88-.63 1.76-1.26 2.64-.3.3-.3.6-.63 1.2-1.9 3.2-3.8 6.44-5.68 9.97-1.26 4.1-2.84 7.92-4.1 12.32-1.27 4.1-1.9 8.2-2.2 12.62-.33 2.05-.33 4.1-.33 6.16 0 13.8 6.94 27.3 18.3 35.52 9.47 8.22 20.2 15.56 31.56 20.84 11.37 5.3 23.67 9.1 36.3 9.98.63 0 1.26-.3 2.2-.3.64 0 1.58-.28 2.53-.28.63-.3.95-.3 1.58-.3.64-.3.96-.3 1.6-.6.3 0 .93-.28 1.57-.28.3 0 .94-.3 1.26-.3 4.73-1.17 9.15-2.63 13.57-4.4-7.26.3-14.83 1.77-22.1-.3 2.85-1.46 5.7-2.34 8.53-2.92 2.84-.9 5.68-1.47 8.52-2.65 13.88-4.7 27.46-11.45 38.5-21.14 11.68-10.28 18.3-25.83 18.3-41.4 0-3.22-.3-6.16-.94-9.38-.3-9.4-4.73-17.62-6.3-26.42 5.36 5 8.83 11.15 11.04 17.9 2.53 6.75 4.1 14.1 5.68 20.84 1.58 12.04 2.2 25.54-4.73 35.82 2.2-1.76 3.46-4.4 4.72-7.05.95-2.93 1.27-5.87 1.9-8.8 4.1-21.73-3.48-44.33-15.78-62.53-.63-.88-1.58-1.76-1.27-3.23 6.95-8.5 13.57-17.3 19.9-26.4 1.25-2.06 2.5-3.82 3.77-5.58 2.53-3.53 5.05-7.34 7.58-10.87zm-89.95 123.3c0 4.7.64 9.4.95 13.8-4.42-2.07-8.2-5.6-12.62-7.94-4.1 2.36-7.9 5.3-12.3 7.65.94-4.4 2.2-8.8 2.5-13.2-3.46-3.54-7.88-6.77-11.35-10.3 5.37-.58 10.42-1.46 15.78-1.46 2.53-4.7 4.1-9.7 6.3-14.4 2.22 4.4 4.12 9.1 6 14.1 5.06 1.17 10.43 1.47 15.47 2.64-3.15 3.23-7.25 5.87-10.73 9.1zM281.47 226.8l.95 1.77c-.3 3.22-.3 7.04 0 10.27l-.95.6V226.8z" stroke="#000" stroke-opacity="0" stroke-width=".33" fill="#c7eaff"/><path d="M344.6 213.9c0 .58 0 .87-.32 1.16 0 .3-.32.3-.63.3h-.63c-.32 0-.32 0-.64-.3-.3 0-.63-.3-.94-.3-.32-.28-.32-.28-.63-.58v-.88-1.47c-.3-4.7-.3-9.4-.63-14.1 0-4.68-.3-9.67-.63-14.37-.3 1.76-.3 3.23-.63 5-.3 1.46-.3 3.22-.62 4.7-.3 1.75-.63 3.5-.63 5.27-.32 2.06-.63 3.52-.95 5.28-.3.6-.63 1.2-.63 1.48-.3.6-.63.6-1.26.6-.3 0-.62 0-.94-.3-.3 0-.3-.3-.63-.9-.3-.28-.63-.87-.63-1.75-.32-.88-.63-2.05-.95-3.23-.3-1.46-.63-2.64-.63-4.1-.3-1.47-.63-2.94-.94-4.1 0-1.2-.32-2.66-.64-3.54 0-1.17-.3-2.05-.3-2.64v4.7c0 3.23 0 6.16.3 9.4 0 2.93 0 6.16.32 9.1 0 .87 0 1.46.32 2.05v2.05c0 .6 0 .88-.32 1.17-.32.3-.63.3-.95.3-.93 0-1.56-.3-2.2-.9-.3-.58-.63-1.46-.63-2.93 0-2.64 0-5.58-.3-8.5v-8.23-2.05-3.54-4.4c0-1.76.3-3.23.3-4.7v-4.7-4.1-3.23c.32-.6.32-1.18.32-1.47 0-.3.3-.3.3-.6h.32c.63 0 1.26 0 1.58.6.3.3.63.88.94 1.76 0 .6.32 1.47.64 2.94.3 1.17.63 2.64.94 4.4.32 1.76.63 3.52.95 5.58.3 2.05.63 4.1.95 5.87.3 1.77.63 3.53.94 5 .32 1.76.32 2.93.63 3.52.3-4.1.94-7.92 1.26-12.03.63-3.83.94-7.94 1.57-12.05v-2.05c.32-.6.32-1.18.32-2.06 0-.3 0-.6-.32-1.17V164c0-.6 0-.9.32-.9.32-.3.32-.3.63-.3.32 0 .63 0 .95.3.3 0 .63.3 1.26.6.3 0 .3.3.62.58.32.6.32.88.32 1.47v2.64c.63 3.8.94 7.9 1.26 11.73.63 4.1.63 7.93.95 12.04.3 3.52.3 6.75.63 10.27 0 3.52 0 6.75.3 10.27v1.2zM365.1 194.5c0 .6-.3 1.2-.62 1.78 0 .3-.32.88-.64 1.17h-.3c-.33.3-.64.3-.64.3-.32 0-.32 0-.63.3h-.64l.64 5.27c.3 1.47.3 3.23.3 4.7.33 1.76.33 3.23.64 5l.33.28v.6c0 .28 0 .28-.32.58l-.3.3c-.32.28-.32.28-.63.28h-.94c-.33 0-.64 0-.96-.3-.3 0-.63-.28-.63-.58-.3-.3-.3-.6-.3-.88 0-.6 0-1.17-.33-1.76-.3-4.1-.62-8.5-1.25-12.62-.95 0-1.9.3-2.84.3-.94.28-2.2.58-3.15.58l-.63 6.75c0 .6 0 1.17-.32 1.76v2.36c-.3.6-.3 1.47-.3 2.05 0 .6-.33 1.2-.33 1.48 0 .3-.3.3-.3.6h-1.27c-.32-.3-.64-.6-.64-.9-.3 0-.63-.58-.63-.87-.3-.3-.3-.87-.3-1.17 0-.58 0-.88.3-1.46v-1.18c.32-1.77.32-3.24.63-4.7 0-1.47.32-3.23.32-4.7h-.32l-.3-.3c-.33 0-.33-.3-.33-.3-.3-.28-.3-.28-.3-.58 0-.3 0-.3.3-.58 0-.3.32-.3.32-.6l.63-.58c.32 0 .32 0 .32-.3.63-3.22.94-6.45 1.26-9.68.3-3.23.3-6.46.63-9.98 0-.88 0-1.76.3-2.64v-2.64c0-.88.32-1.76.32-2.64 0-.88 0-1.77.32-2.94 0-.6.3-1.47.63-1.76.3-.6.94-.88 1.58-.88h.63c.3 0 .3.3.63.3.32.3.64 1.17 1.27 2.34.32 1.47.95 3.23 1.26 5 .63 2.05.95 4.1 1.26 6.45.3 2.04.94 4.4 1.26 6.45.3 2.05.63 3.8.63 5.57.3 1.77.62 2.94.62 3.82.3 0 .63 0 .95-.3h1.58c.32 0 .32.3.64.3 0 .3.3.3.3.6 0 0 .33.28.33.57zm-7.57-.28c-.63-3.23-.94-6.46-1.58-9.7-.3-3.5-.94-6.74-1.57-9.97l-.95 10.57c-.32 3.52-.63 7.05-1.26 10.57.94-.3 1.9-.6 2.84-.6.64-.3 1.6-.6 2.53-.88zM384.67 213.9s0 .28-.3.58l-.64.58h-.95c0 .3-.32.3-.63.3-.32 0-.32-.3-.63-.3-.32 0-.32 0-.63-.3-.33-.28-.33-.58-.65-.87-.3-.6-.63-1.48-1.26-2.07-.32-.88-.95-2.05-1.27-2.93-.63-1.18-1.26-2.06-1.9-3.23-.62-1.18-1.26-2.35-1.57-3.52-.63-1.18-1.26-2.06-1.58-3.23-.63-.88-.95-1.76-1.26-2.35-.32-.88-.63-1.18-.63-1.47h-.33c0 2.64.32 5.58.32 8.22.3 2.94.62 5.58.93 8.22v2.05c0 .3 0 .88-.3.88-.33.3-.33.3-.64.3h-.64c-.32 0-.64-.3-.64-.3-.3 0-.63 0-.63-.3-.32 0-.64-.3-.64-.3-.3-.3-.3-.58-.3-.87 0-.3-.33-.58-.33-1.17-.3-4.7-.63-9.4-.63-14.1-.32-4.68-.32-9.38-.32-14.08v-6.16-6.18s-.3 0-.3-.3c-.33 0-.33-.28-.64-.58 0 0 0-.3-.32-.58v-.88-.88s.32-.3.32-.6c.3-.3.3-.3.63-.58 0-.3.3-.3.3-.6v-.57-.88-.6c.33-.28.33-.58.33-.87.32 0 .32-.3.63-.3.32 0 .63.3.95.3.3.3.63.6.94.88 1.27-.6 2.53-.88 3.8-.88 1.25 0 2.2.3 3.15.88.94.6 1.9 1.76 2.52 2.93.62 1.2 1.25 2.36 1.57 3.83.32 1.47.63 3.23.63 4.7 0 1.76-.3 3.52-.95 5.28-.3 1.48-.94 3.24-1.57 4.7-.63 1.48-1.58 2.65-2.53 3.82-.94 1.47-1.9 2.35-2.84 3.23 1.6 2.94 3.17 5.87 4.75 8.8 1.57 2.94 3.15 5.88 4.73 8.52 0 .3.32.3.32.88.3.3.3.6.63.88.3.3.3.88.63 1.18 0 .3.3.6.3.9zm-6.94-38.76c0-.88-.32-1.76-.63-2.64 0-.88-.32-1.76-.63-2.64-.63-.6-.95-1.18-1.58-1.76-.33-.6-.96-.9-1.6-.9-.62 0-1.25.3-1.57.3-.63.3-1.26.6-1.57.9v10.56c0 3.52 0 7.04.3 10.56h.33c.93-.58 1.56-1.46 2.5-2.64.64-.88 1.6-2.05 2.22-3.52.63-1.17.95-2.64 1.58-3.82.3-1.46.63-2.93.63-4.4z" stroke="#2f3c42" stroke-width=".33" fill="#2f3c42"/><path d="M399.2 202.73c0 1.76-.33 3.53-.64 5-.32 1.46-.95 2.93-1.58 4.1-.63 1.18-1.58 2.06-2.52 2.65-.95.58-2.2 1.17-3.48 1.17-.94 0-2.2-.3-2.84-.88-.94-.6-1.9-1.18-2.52-2.06-.63-.87-1.26-2.04-1.58-3.5-.3-1.18-.63-2.65-.63-4.12v-1.47-1.45c.33-.3.33-.6.64-1.18 0-.3.32-.3.63-.3.32 0 .63 0 .95.3.32 0 .32.3.63.6.32 0 .63.58.63.87.32.3.32.6.32 1.17v2.07c0 1.47.3 2.93.94 3.82.64.87 1.58 1.45 2.53 1.45.95 0 1.58-.3 2.2-.88.64-.3.96-1.17 1.27-2.05l.95-2.64c0-1.18.3-2.06.3-3.23 0-1.76-.3-3.82-.94-5.58-.63-2.06-1.27-3.82-2.2-5.58-.64-1.77-1.6-3.53-2.54-5.3-.94-1.46-1.9-3.22-2.84-4.98-.94-1.76-1.58-3.52-2.2-5-.64-1.75-.64-3.5-.64-5.28 0-1.46 0-2.64.63-3.8.32-.9.63-1.77 1.27-2.36.94-.6 1.57-1.17 2.52-1.47.63-.28 1.58-.58 2.52-.58.95 0 1.9.3 2.85.6.63.58 1.57 1.17 2.2 2.05.32.88.95 1.76 1.27 3.23.3 1.17.3 2.64.3 4.1v1.77c0 .58 0 .88-.3.88 0 .3-.32.58-.32.58-.63 0-.95-.3-1.26-.3 0-.28-.32-.58-.63-.58 0-.3-.33-.58-.33-.88 0-.3-.3-.3-.3-.88v-.9c0-.87-.33-1.75-.33-2.34 0-.58-.3-1.17-.63-1.76-.3-.3-.62-.88-.94-1.17-.3-.3-.94-.3-1.58-.3-.63 0-.94 0-1.26.3-.63 0-.94.3-1.26.58-.32.3-.63.9-.63 1.48-.32.3-.32 1.18-.32 1.76 0 1.18.33 2.35.64 3.23.32 1.18.64 2.35 1.27 3.53l1.9 3.52c.63 1.47 1.26 2.64 1.9 3.8.94 1.48 1.57 2.66 2.2 4.12l1.9 4.4c.3 1.47.94 2.94 1.26 4.7.63 1.76.63 3.23.63 5zM420.02 186.6c0 1.16 0 1.75-.63 2.34-.33.3-.64.58-1.27.88v10.57c.3 3.5.3 7.03.3 10.85 0 .58-.3.88-.3 1.17-.32.3-.64.6-.95.6-.32 0-.63-.3-.95-.3-.3 0-.63-.3-.94-.6-.33-.3-.65-.58-.65-.87-.3-.3-.3-.88-.3-1.47v-11.16-4.1-4.12c-1.6.3-2.85.6-4.1.9-1.6 0-2.85.28-4.12.28v14.97c.32 1.17.32 2.05.32 2.94v2.92c0 .6 0 .88-.32 1.17 0 .3-.3.3-.63.3h-.94s-.32-.3-.64-.3c-.3-.3-.63-.3-.63-.6-.32-.3-.64-.58-.64-.87v-.88c0-.6-.3-1.47-.3-2.35v-2.94-3.52-3.52-3.23-2.65-1.47h-.65c0-.3-.3-.6-.3-.88 0-.3.3-.88.3-1.18.33-.58.65-.88.65-1.17V167.2c0-.28 0-.87.3-1.16 0 0 .33-.3.64-.3.62 0 .94.3 1.26.3.3.3.63.6.63 1.17.3.3.3.9.3 1.48.32.6.32 1.18.32 1.76v17.02c1.26 0 2.84-.28 4.1-.58 1.58 0 2.84-.3 4.1-.88 0-2.35 0-5-.3-7.34 0-2.35-.33-5-.33-7.34-.32-1.17-.32-2.34-.64-3.52 0-1.17-.32-2.35-.32-3.52 0-.3.32-.6.32-.88h.63c.62 0 .94 0 1.25.3.32 0 .64.3.95.87.32.3.32.88.63 1.76 0 1.18.32 2.35.32 3.53.3 1.46.3 2.93.3 4.4.33 1.47.33 2.94.33 4.4.3 1.47.3 2.64.3 3.82 0 1.17.33 2.05.33 2.64 0-.3.33-.3.64-.3h.32c.63 0 .63 0 .94.6.32.3.32.58.32 1.17zM439.6 194.5c0 .6 0 1.2-.33 1.78-.32.3-.63.88-.95 1.17h-.3c0 .3-.33.3-.64.3 0 0-.32 0-.63.3h-.32l.63 5.27c0 1.47.32 3.23.32 4.7 0 1.76.3 3.23.63 5v1.46c-.3 0-.3.3-.62.3-.32.28-.32.28-.63.28h-.64c-.62 0-.93 0-1.25-.3-.3 0-.3-.28-.63-.58v-.88c0-.6-.3-1.17-.3-1.76-.33-4.1-.96-8.5-1.28-12.62-.94 0-1.9.3-3.15.3-.96.28-1.9.58-2.85.58l-.95 6.75v1.76c0 .9-.32 1.48-.32 2.36 0 .6 0 1.47-.3 2.05 0 .6 0 1.2-.33 1.48 0 .3 0 .3-.3.6h-1.27c-.32-.3-.32-.6-.64-.9-.3 0-.3-.58-.63-.87v-1.17-1.46c0-.3.33-.88.33-1.18 0-1.77.3-3.24.3-4.7.33-1.47.33-3.23.65-4.7h-.64s0-.3-.3-.3l-.33-.3v-.58-.58l.64-.6c0-.28.32-.28.32-.58.32 0 .63 0 .63-.3.3-3.22.62-6.45.94-9.68.3-3.23.63-6.46.94-9.98v-2.64c0-.88.32-1.76.32-2.64v-2.64c0-.88.32-1.77.32-2.94.3-.6.63-1.47.94-1.76.32-.6.63-.88 1.26-.88h.64c.3 0 .3.3.63.3.3.3.93 1.17 1.25 2.34.63 1.47.95 3.23 1.58 5 .3 2.05.63 4.1 1.26 6.45.3 2.04.62 4.4.94 6.45.3 2.05.63 3.8.94 5.57.32 1.77.32 2.94.63 3.82.33 0 .65 0 .96-.3h1.27c.32 0 .63.3.63.3l.64.6v.57zm-7.6-.28c-.3-3.23-.62-6.46-1.25-9.7-.63-3.5-.95-6.74-1.58-9.97-.3 3.53-.63 7.05-.95 10.57-.3 3.52-.94 7.05-1.26 10.57.95-.3 1.9-.6 2.53-.6.93-.3 1.88-.6 2.5-.88zM454.42 208.9c0 .3 0 .88-.32 1.47l-1.58 1.46c-.63.3-1.26.6-2.2.88-.64.6-1.27.9-1.9.9-.94.3-1.58.58-2.2.58-.64.3-.95.3-1.27.3-.3 0-.95 0-1.58-.3-.3-.3-.63-.6-.94-.88-.32-.3-.64-.88-.95-1.47 0-.58-.32-1.46-.32-2.34 0-6.18 0-12.34.32-18.5v-18.8-2.93c0-1.17-.32-2.06-.32-2.94v-.88c0-.3.32-.58.32-.88 0-.3 0-.58.3-.58 0-.3.33-.3.33-.3h.96s.3.3.63.58l.62.6c0 .28.32.57.32.87v2.94c.3 6.17.3 12.33.3 18.5V209.78c.64 0 .96 0 1.6-.3.62-.3 1.25-.3 1.88-.58.63-.3 1.26-.88 1.9-1.18.63-.3.94-.58 1.26-1.17.3 0 .3-.3.63-.6 0-.28.32-.28.32-.28.32 0 .64 0 .95.3 0 .3.32.58.63.87 0 .3.32.6.32.88v1.18z" stroke="#2f3c42" stroke-width=".33" fill="#2f3c42"/><path d="M1000 7.2c0-3.32 2.67-6 6-6h284c3.33 0 6 2.68 6 6v806.3c0 3.3-2.67 6-6 6h-284c-3.33 0-6-2.7-6-6z" stroke="#000" stroke-opacity="0" stroke-width="3" fill="#c1e4f7"/><g><use xlink:href="#m" transform="matrix(1,0,0,1,1004.9874573018616,6.1904235250183755) translate(47.17064799844853 267.250202639102)"/><use xlink:href="#n" transform="matrix(1,0,0,1,1004.9874573018616,6.1904235250183755) translate(65.4301148245876 313.8264355539868)"/><use xlink:href="#o" transform="matrix(1,0,0,1,1004.9874573018616,6.1904235250183755) translate(133.9565831046683 313.8264355539868)"/><use xlink:href="#p" transform="matrix(1,0,0,1,1004.9874573018616,6.1904235250183755) translate(143.5 354.2679421551311)"/><use xlink:href="#q" transform="matrix(1,0,0,1,1004.9874573018616,6.1904235250183755) translate(47.17064799844853 401.4408664237904)"/><use xlink:href="#r" transform="matrix(1,0,0,1,1004.9874573018616,6.1904235250183755) translate(18.341638646423988 448.0170993386752)"/><use xlink:href="#s" transform="matrix(1,0,0,1,1004.9874573018616,6.1904235250183755) translate(98.2483662525033 448.0170993386752)"/><use xlink:href="#t" transform="matrix(1,0,0,1,1004.9874573018616,6.1904235250183755) translate(194.4499271546323 448.0170993386752)"/><use xlink:href="#p" transform="matrix(1,0,0,1,1004.9874573018616,6.1904235250183755) translate(143.5 488.4586059398195)"/><use xlink:href="#u" transform="matrix(1,0,0,1,1004.9874573018616,6.1904235250183755) translate(47.17064799844853 535.6315302084788)"/><use xlink:href="#v" transform="matrix(1,0,0,1,1004.9874573018616,6.1904235250183755) translate(28.056494168617945 582.2077631233636)"/><use xlink:href="#w" transform="matrix(1,0,0,1,1004.9874573018616,6.1904235250183755) translate(89.0233353784872 582.2077631233636)"/><use xlink:href="#x" transform="matrix(1,0,0,1,1004.9874573018616,6.1904235250183755) translate(186.8903000844209 582.2077631233636)"/></g><path d="M0 6c0-3.3 2.7-6 6-6h1508c3.3 0 6 2.7 6 6v808c0 3.3-2.7 6-6 6H6c-3.3 0-6-2.7-6-6z" stroke="#fff" stroke-width="3" fill-opacity="0"/><defs><path fill="#e5e5e5" d="M1115 0L957-424H342L188 0H40l546-1434h134L1263 0h-148zM912-545c-82-228-168-452-248-682-5-17-10-36-13-57h-4c-7 38-17 71-28 101L387-545h525" id="y"/><path fill="#e5e5e5" d="M640-1048c240 2 344 170 344 424V0H856v-590c0-231-84-347-252-347-202 0-311 146-311 351V0H165v-1024h128v178h4c76-135 190-202 343-202" id="z"/><g id="a"><use transform="matrix(0.014501890329878066,0,0,0.014501890329878066,0,0)" xlink:href="#y"/><use transform="matrix(0.014501890329878066,0,0,0.014501890329878066,18.89596309983112,0)" xlink:href="#z"/></g><path fill="#e5e5e5" d="M1062-33c-159 75-410 77-571 1-236-111-390-333-390-669 0-356 148-592 400-701 160-71 408-78 567-2 235 108 382 332 382 667 0 351-143 591-388 704zm-41-1255c-125-65-343-65-471 0-193 98-310 293-310 574 0 275 109 470 295 567 126 66 339 67 469 5 199-91 307-290 307-575 0-277-99-479-290-571" id="A"/><path fill="#e5e5e5" d="M573-1043c40 0 72 5 100 16v134c-47-38-147-44-206-13C228-784 305-347 292 0H165v-1024h127v219h4c44-127 117-230 277-238" id="B"/><path fill="#e5e5e5" d="M1011-79c-1 374-161 558-529 560-112 0-218-25-318-75V276c111 62 217 93 318 93 267 0 401-141 401-424v-123h-4C782 4 559 78 346-11 181-80 95-250 93-486c2-257 100-438 275-522 58-27 122-40 194-40 145 0 250 59 317 176h4v-152h128v945zM883-445c0-108 13-218-23-298-47-109-136-194-286-194-246 0-349 188-349 441 0 186 65 319 189 381 77 39 192 37 271 1 119-54 198-164 198-331" id="C"/><path fill="#e5e5e5" d="M537-1048c236 1 346 138 346 382V0H755v-182h-4C693-65 581 24 419 24 223 24 98-76 98-268c0-212 141-299 346-329l311-45c0-197-76-295-229-295-119 0-230 44-332 131v-140c87-59 202-99 343-102zM230-276c6 125 84 190 213 190 234 0 328-184 312-448-157 30-354 26-463 102-42 34-62 81-62 156" id="D"/><path fill="#e5e5e5" d="M321-1375c0 56-37 89-93 92-49 1-91-41-91-92 0-50 43-91 91-90 56 3 93 34 93 90zM165 0v-1024h128V0H165" id="E"/><path fill="#e5e5e5" d="M240-112h631V0H45v-43l643-869H98v-112h788v36" id="F"/><path fill="#e5e5e5" d="M341-285c2 128 29 193 149 196 40 0 78-12 115-36v113c-44 22-92 33-144 33-165 0-248-95-248-286v-647H33v-112h180v-258l128-42v300h264v112H341v627" id="G"/><path fill="#e5e5e5" d="M602-1048c323 0 479 207 479 535 0 253-110 420-289 498-116 51-295 52-412 1C202-90 93-253 93-503c0-338 174-545 509-545zm347 537c2-257-112-426-355-426-253 0-369 173-369 432 0 251 120 419 367 419 251 0 354-170 357-425" id="H"/><g id="b"><use transform="matrix(0.014501890329878066,0,0,0.014501890329878066,0,0)" xlink:href="#A"/><use transform="matrix(0.014501890329878066,0,0,0.014501890329878066,22.49243190164088,0)" xlink:href="#B"/><use transform="matrix(0.014501890329878066,0,0,0.014501890329878066,32.16519275166955,0)" xlink:href="#C"/><use transform="matrix(0.014501890329878066,0,0,0.014501890329878066,49.21941577960615,0)" xlink:href="#D"/><use transform="matrix(0.014501890329878066,0,0,0.014501890329878066,64.09835525806105,0)" xlink:href="#z"/><use transform="matrix(0.014501890329878066,0,0,0.014501890329878066,80.44198565983362,0)" xlink:href="#E"/><use transform="matrix(0.014501890329878066,0,0,0.014501890329878066,87.08385143091778,0)" xlink:href="#F"/><use transform="matrix(0.014501890329878066,0,0,0.014501890329878066,100.6866245603434,0)" xlink:href="#D"/><use transform="matrix(0.014501890329878066,0,0,0.014501890329878066,115.5655640387983,0)" xlink:href="#G"/><use transform="matrix(0.014501890329878066,0,0,0.014501890329878066,125.00629464354893,0)" xlink:href="#E"/><use transform="matrix(0.014501890329878066,0,0,0.014501890329878066,131.64816041463308,0)" xlink:href="#H"/><use transform="matrix(0.014501890329878066,0,0,0.014501890329878066,148.67337966190993,0)" xlink:href="#z"/></g><path fill="#e5e5e5" d="M596-1312V0H463v-1312H50v-122h960v122H596" id="I"/><path fill="#e5e5e5" d="M165 0v-1516h128V0H165" id="J"/><g id="c"><use transform="matrix(0.014501890329878066,0,0,0.014501890329878066,0,0)" xlink:href="#I"/><use transform="matrix(0.014501890329878066,0,0,0.014501890329878066,12.312104890066479,0)" xlink:href="#H"/><use transform="matrix(0.014501890329878066,0,0,0.014501890329878066,29.337324137343327,0)" xlink:href="#H"/><use transform="matrix(0.014501890329878066,0,0,0.014501890329878066,46.362543384620174,0)" xlink:href="#J"/></g><path fill="#e5e5e5" d="M556-1434c288 4 469 130 469 415 0 302-200 452-508 461H319V0H186v-1434h370zm-47 754c232 3 376-108 377-329 0-202-118-303-354-303H319v632h190" id="K"/><path fill="#e5e5e5" d="M558-1048c309 9 417 231 408 559H226c7 241 110 396 349 403 115 0 224-40 327-121v126C804-11 685 24 546 24 233 24 93-192 93-513c0-245 111-412 279-495 57-27 119-40 186-40zm276 447c-2-196-92-336-279-336-208 0-295 149-326 336h605" id="L"/><path fill="#e5e5e5" d="M704-863c-139-102-462-121-462 92 0 137 114 160 214 207 140 66 286 107 286 299C742-60 578 18 368 24 265 24 178 2 107-41v-143c70 53 158 95 275 98 152 0 228-57 228-171 0-135-129-158-229-205-136-64-271-113-271-299 0-198 161-287 362-287 89 0 166 17 232 50v135" id="M"/><g id="e"><use transform="matrix(0.014501890329878066,0,0,0.014501890329878066,0,0)" xlink:href="#K"/><use transform="matrix(0.014501890329878066,0,0,0.014501890329878066,16.387136072762214,0)" xlink:href="#B"/><use transform="matrix(0.014501890329878066,0,0,0.014501890329878066,26.059896922790884,0)" xlink:href="#L"/><use transform="matrix(0.014501890329878066,0,0,0.014501890329878066,41.31588554982261,0)" xlink:href="#M"/><use transform="matrix(0.014501890329878066,0,0,0.014501890329878066,53.38145830428116,0)" xlink:href="#L"/><use transform="matrix(0.014501890329878066,0,0,0.014501890329878066,68.63744693131288,0)" xlink:href="#z"/><use transform="matrix(0.014501890329878066,0,0,0.014501890329878066,84.98107733308547,0)" xlink:href="#G"/><use transform="matrix(0.014501890329878066,0,0,0.014501890329878066,94.42180793783609,0)" xlink:href="#D"/><use transform="matrix(0.014501890329878066,0,0,0.014501890329878066,109.30074741629099,0)" xlink:href="#G"/><use transform="matrix(0.014501890329878066,0,0,0.014501890329878066,118.74147802104162,0)" xlink:href="#E"/><use transform="matrix(0.014501890329878066,0,0,0.014501890329878066,125.38334379212579,0)" xlink:href="#H"/><use transform="matrix(0.014501890329878066,0,0,0.014501890329878066,142.40856303940262,0)" xlink:href="#z"/></g><g id="f"><use transform="matrix(0.014501890329878066,0,0,0.014501890329878066,0,0)" xlink:href="#H"/><use transform="matrix(0.014501890329878066,0,0,0.014501890329878066,17.025219247276848,0)" xlink:href="#z"/></g><path fill="#e5e5e5" d="M758-344c146 0 199-115 198-277v-813h435v779c-1 453-196 678-643 680-421-2-623-238-623-672v-787h434v803c-1 162 54 287 199 287" id="N"/><path fill="#e5e5e5" d="M141 0v-1434h432V0H141" id="O"/><g id="g"><use transform="matrix(0.025455477986178924,0,0,0.025455477986178924,0,0)" xlink:href="#N"/><use transform="matrix(0.025455477986178924,0,0,0.025455477986178924,38.590504627047245,0)" xlink:href="#O"/></g><path fill="#e5e5e5" d="M1454 0c3-369-8-738 10-1096h-12c-79 395-172 717-260 1096H786L565-852c-6-21-22-103-47-244h-12c24 473 10 654 14 1096H141v-1434h647l197 779c9 29 31 173 33 211h6c7-61 16-133 35-215l184-775h637V0h-426" id="P"/><path fill="#e5e5e5" d="M57-518c4-350 239-525 592-531 245-1 429 99 521 253 48 79 71 168 71 266 2 352-233 555-594 555C290 25 53-171 57-518zm752-10c0-139-53-209-160-209s-160 73-160 219c0 154 54 231 162 231 105 0 158-80 158-241" id="Q"/><path fill="#e5e5e5" d="M489-510c-1 142 94 224 238 223 79 0 152-19 219-57v315c-73 39-207 55-332 54C285 18 57-165 57-489c0-369 238-553 607-560 100-1 227 12 282 43v332c-37-31-136-64-203-63-158-2-253 76-254 227" id="R"/><path fill="#e5e5e5" d="M760 0L532-526h-4V0H102v-1516h426v973h4l207-481h480L942-555 1235 0H760" id="S"/><path fill="#e5e5e5" d="M143-393v-287h547v287H143" id="T"/><path fill="#e5e5e5" d="M629-287c88 0 125-64 125-157v-580h426V0H754v-158h-4C669-49 604 25 434 25 191 25 90-145 90-406v-618h426v586c0 101 38 151 113 151" id="U"/><path fill="#e5e5e5" d="M848-1049c282 1 412 208 409 506 1 225-82 406-218 497-69 47-147 71-234 71-120 0-211-44-273-131h-4v577H102v-1495h426v139h4c62-94 167-163 316-164zM664-287c118 0 162-110 161-243 0-118-40-207-153-207-109 0-152 110-152 237 0 115 38 213 144 213" id="V"/><path fill="#e5e5e5" d="M598-786c-46 0-90 13-92 53 0 19 9 35 27 47s54 26 108 43c105 31 180 70 225 118s68 110 68 185C930-83 713 28 432 25 339 25 167 1 96-23v-299c126 56 231 84 316 84 83 0 125-22 125-65 0-18-10-33-29-45s-70-31-152-58C199-459 96-522 96-705c0-239 215-348 482-344 89 0 184 13 284 39v287c-66-29-179-62-264-63" id="W"/><g id="h"><use transform="matrix(0.025455477986178924,0,0,0.025455477986178924,0,0)" xlink:href="#P"/><use transform="matrix(0.025455477986178924,0,0,0.025455477986178924,51.44552101006761,0)" xlink:href="#Q"/><use transform="matrix(0.025455477986178924,0,0,0.025455477986178924,84.48673143612785,0)" xlink:href="#R"/><use transform="matrix(0.025455477986178924,0,0,0.025455477986178924,110.29858611411328,0)" xlink:href="#S"/><use transform="matrix(0.025455477986178924,0,0,0.025455477986178924,141.20153638933448,0)" xlink:href="#T"/><use transform="matrix(0.025455477986178924,0,0,0.025455477986178924,162.4314050298077,0)" xlink:href="#U"/><use transform="matrix(0.025455477986178924,0,0,0.025455477986178924,195.06532780808908,0)" xlink:href="#V"/><use transform="matrix(0.025455477986178924,0,0,0.025455477986178924,228.53928135991433,0)" xlink:href="#W"/></g><path fill="#e5e5e5" d="M1150-53C970 34 689 58 495-28 256-134 101-353 101-689c0-359 169-596 423-710 175-82 447-74 626-3v142c-167-87-398-105-576-29-209 95-334 294-334 590 0 275 116 465 309 555 179 83 444 52 601-39v130" id="X"/><path fill="#e5e5e5" d="M468 24C341 24 215-7 130-54v-156c89 64 202 110 348 114 195 1 325-67 325-244 0-142-87-192-179-252-165-108-395-180-470-369-31-87-25-205 18-279 74-136 222-215 428-218 113 0 207 16 283 47v147c-85-49-184-73-298-73-173 0-311 69-311 239 0 138 77 186 166 244 170 106 402 185 480 376 15 37 22 78 22 123C933-84 742 24 468 24" id="Y"/><path fill="#e5e5e5" d="M186 0v-1434h699v122H319v526h524v120H319v545h598V0H186" id="Z"/><g id="i"><use transform="matrix(0.014501890329878066,0,0,0.014501890329878066,0,0)" xlink:href="#X"/><use transform="matrix(0.014501890329878066,0,0,0.014501890329878066,18.417400718945142,0)" xlink:href="#Y"/><use transform="matrix(0.014501890329878066,0,0,0.014501890329878066,33.68789123630675,0)" xlink:href="#Z"/></g><path fill="#e5e5e5" d="M50-472c247-286 496-608 669-962h137v962h224v116H856V0H729v-356H50v-116zm679 0v-757C569-952 389-704 195-472h534" id="aa"/><path fill="#e5e5e5" d="M934-432c0 300-188 449-493 456-118 0-212-19-281-56v-140c95 57 191 86 286 86 220-6 357-117 357-335 0-224-147-326-383-324-51 0-123 4-218 12l44-701h625v116H355l-30 465c360-38 609 85 609 421" id="ab"/><path fill="#e5e5e5" d="M83-1208c170-55 308-151 434-258h37V0H426v-1282c-95 78-215 143-343 187v-113" id="ac"/><path fill="#e5e5e5" d="M722-24c-106 62-273 66-380 2C155-134 90-381 89-687c0-255 41-447 121-577s196-194 347-194c288 0 432 245 432 735-1 323-70 580-267 699zM549-1346c-107 0-183 57-244 162-103 178-105 754-3 942 77 142 236 208 374 116 147-98 179-326 181-581 0-426-103-639-308-639" id="ad"/><path fill="#e5e5e5" d="M321-949c0 59-39 97-97 97s-92-39-96-97c-2-52 44-97 96-95 58 4 97 36 97 95zm0 873c0 58-39 92-97 96-52 2-98-44-96-96-1-53 43-99 96-97 59 4 97 38 97 97" id="ae"/><g id="j"><use transform="matrix(0.014501890329878066,0,0,0.014501890329878066,0,0)" xlink:href="#aa"/><use transform="matrix(0.014501890329878066,0,0,0.014501890329878066,16.300124730782947,0)" xlink:href="#ab"/><use transform="matrix(0.014501890329878066,0,0,0.014501890329878066,31.94766439672138,0)" xlink:href="#ac"/><use transform="matrix(0.014501890329878066,0,0,0.014501890329878066,43.085116170067735,0)" xlink:href="#ad"/><use transform="matrix(0.014501890329878066,0,0,0.014501890329878066,58.73265583600617,0)" xlink:href="#ae"/></g><path fill="#e5e5e5" d="M223-1196c4-208 97-335 305-339 48 0 86 6 114 19v121c-29-19-66-28-111-28-120 0-180 78-180 235v164h255v112H351V0H223v-912H44v-112h179v-172" id="af"/><path fill="#e5e5e5" d="M1090 0H962L745-752c-7-23-12-54-16-91h-4c-5 31-10 57-21 89L465 0H340L30-1024h137l225 794c7 23 11 53 14 89h8c4-30 10-61 19-90l248-793h106l222 795c6 23 11 52 15 89h8c-1-32 9-60 17-89l225-795h129" id="ag"/><g id="k"><use transform="matrix(0.014501890329878066,0,0,0.014501890329878066,0,0)" xlink:href="#Y"/><use transform="matrix(0.014501890329878066,0,0,0.014501890329878066,15.270490517361603,0)" xlink:href="#H"/><use transform="matrix(0.014501890329878066,0,0,0.014501890329878066,31.759139822432964,0)" xlink:href="#af"/><use transform="matrix(0.014501890329878066,0,0,0.014501890329878066,41.040349633554925,0)" xlink:href="#G"/><use transform="matrix(0.014501890329878066,0,0,0.014501890329878066,50.481080238305545,0)" xlink:href="#ag"/><use transform="matrix(0.014501890329878066,0,0,0.014501890329878066,71.26228908102081,0)" xlink:href="#D"/><use transform="matrix(0.014501890329878066,0,0,0.014501890329878066,86.1412285594757,0)" xlink:href="#B"/><use transform="matrix(0.014501890329878066,0,0,0.014501890329878066,95.81398940950437,0)" xlink:href="#L"/></g><path fill="#e5e5e5" d="M563-1434c479-2 744 228 744 698 0 361-177 579-444 684C683 19 429-5 186 0v-1434h377zM539-121c403-6 628-208 628-611 0-387-204-580-613-580H319v1191h220" id="ah"/><path fill="#e5e5e5" d="M530 0H408L16-1024h141l283 780c17 47 28 89 33 125h4c8-48 18-88 31-121l293-784h137" id="ai"/><path fill="#e5e5e5" d="M297-828c66-128 188-220 368-220 290 0 417 207 417 503 0 258-96 441-270 527-57 28-121 42-192 42-144 0-252-63-323-189h-4v636H165v-1495h128v196h4zm653 282c0-225-92-391-311-391-224 0-346 152-346 375 0 100-9 194 23 268C363-176 456-86 615-86c245 0 335-206 335-460" id="aj"/><path fill="#e5e5e5" d="M907-825c62-126 167-219 336-223 225 0 337 139 337 416V0h-128v-602c1-198-46-345-241-335-182 9-274 155-274 345V0H809v-615c0-215-82-322-247-322-185 0-269 156-269 350V0H165v-1024h128v166h4c72-127 177-190 315-190 163 0 254 95 295 223" id="ak"/><g id="l"><use transform="matrix(0.014501890329878066,0,0,0.014501890329878066,0,0)" xlink:href="#ah"/><use transform="matrix(0.014501890329878066,0,0,0.014501890329878066,20.418661584468317,0)" xlink:href="#L"/><use transform="matrix(0.014501890329878066,0,0,0.014501890329878066,35.674650211500044,0)" xlink:href="#ai"/><use transform="matrix(0.014501890329878066,0,0,0.014501890329878066,49.335430902245186,0)" xlink:href="#L"/><use transform="matrix(0.014501890329878066,0,0,0.014501890329878066,64.5914195292769,0)" xlink:href="#J"/><use transform="matrix(0.014501890329878066,0,0,0.014501890329878066,71.23328530036106,0)" xlink:href="#H"/><use transform="matrix(0.014501890329878066,0,0,0.014501890329878066,88.25850454763791,0)" xlink:href="#aj"/><use transform="matrix(0.014501890329878066,0,0,0.014501890329878066,105.29822568524463,0)" xlink:href="#ak"/><use transform="matrix(0.014501890329878066,0,0,0.014501890329878066,130.28498272362452,0)" xlink:href="#L"/><use transform="matrix(0.014501890329878066,0,0,0.014501890329878066,145.54097135065624,0)" xlink:href="#z"/><use transform="matrix(0.014501890329878066,0,0,0.014501890329878066,161.8846017524288,0)" xlink:href="#G"/></g><path fill="#2f3437" d="M80-1258c204-36 339-103 490-208h251V0H395v-1032c-93 54-184 80-315 94v-320" id="al"/><path fill="#2f3437" d="M613 23C327 31 67-127 67-390c0-202 111-300 264-369-125-62-219-166-219-330 0-250 239-364 505-369 195-1 363 68 445 180 43 57 64 120 64 190-5 163-104 272-231 331 160 70 264 165 264 364 0 284-249 411-546 416zm1-615c-91-1-160 73-160 167 0 99 63 166 160 165 95 3 161-72 161-165 0-92-70-169-161-167zm6-598c-76-1-130 71-130 150 0 74 57 149 130 149 74 0 131-75 131-149 0-79-56-151-131-150" id="am"/><path fill="#2f3437" d="M1163-729c0 246-47 433-141 561S792 25 612 25c-184 0-321-59-412-177S63-453 63-700c0-248 49-436 147-565s241-193 427-193c351 0 526 243 526 729zm-420 0c0-143-10-248-30-316s-52-102-97-102c-87 0-131 146-131 438 0 143 11 250 31 319s52 103 96 103c87 0 131-147 131-442" id="an"/><path fill="#2f3437" d="M45-541c202-231 446-596 576-893h407v904h203v284h-204V0H652v-246H45v-295zm606 11v-420c-61 135-146 275-253 420h253" id="ao"/><path fill="#2f3437" d="M597-1458c294-4 490 144 490 426 0 103-22 191-67 263S892-622 771-544c-93 60-155 104-185 132s-45 51-46 70h560V0H90c-9-223 20-380 124-496 43-53 120-118 225-203 118-95 149-111 207-206 12-25 19-51 19-80 0-95-57-143-172-143-117 0-227 42-331 127v-349c138-69 253-105 435-108" id="ap"/><g id="m"><use transform="matrix(0.018153086215311684,0,0,0.018153086215311684,0,0)" xlink:href="#al"/><use transform="matrix(0.018153086215311684,0,0,0.018153086215311684,17.971555353158568,0)" xlink:href="#am"/><use transform="matrix(0.018153086215311684,0,0,0.018153086215311684,40.24539213934601,0)" xlink:href="#an"/><use transform="matrix(0.018153086215311684,0,0,0.018153086215311684,62.51922892553345,0)" xlink:href="#an"/><use transform="matrix(0.018153086215311684,0,0,0.018153086215311684,84.7930657117209,0)" xlink:href="#ao"/><use transform="matrix(0.018153086215311684,0,0,0.018153086215311684,107.86563829138204,0)" xlink:href="#al"/><use transform="matrix(0.018153086215311684,0,0,0.018153086215311684,125.8371936445406,0)" xlink:href="#ap"/><use transform="matrix(0.018153086215311684,0,0,0.018153086215311684,148.11103043072805,0)" xlink:href="#an"/><use transform="matrix(0.018153086215311684,0,0,0.018153086215311684,170.3848672169155,0)" xlink:href="#am"/></g><path fill="#2f3437" d="M319-1312v540h524v121H319V0H186v-1434h699v122H319" id="aq"/><path fill="#2f3437" d="M321-1375c0 56-37 89-93 92-49 1-91-41-91-92 0-50 43-91 91-90 56 3 93 34 93 90zM165 0v-1024h128V0H165" id="ar"/><path fill="#2f3437" d="M879-180C819-61 691 24 519 24 225 24 93-190 93-491c0-255 103-433 277-517 58-27 121-40 192-40 147 0 253 59 317 177h4v-645h128V0H883v-180h-4zM546-86c218 0 337-144 337-361 0-107 12-217-23-296-46-111-137-194-289-194-242 0-346 187-346 438 0 237 93 413 321 413" id="as"/><path fill="#2f3437" d="M537-1048c236 1 346 138 346 382V0H755v-182h-4C693-65 581 24 419 24 223 24 98-76 98-268c0-212 141-299 346-329l311-45c0-197-76-295-229-295-119 0-230 44-332 131v-140c87-59 202-99 343-102zM230-276c6 125 84 190 213 190 234 0 328-184 312-448-157 30-354 26-463 102-42 34-62 81-62 156" id="at"/><g id="n"><use transform="matrix(0.016327488272594875,0,0,0.016327488272594875,0,0)" xlink:href="#aq"/><use transform="matrix(0.016327488272594875,0,0,0.016327488272594875,15.935628554052597,0)" xlink:href="#ar"/><use transform="matrix(0.016327488272594875,0,0,0.016327488272594875,23.41361818290105,0)" xlink:href="#as"/><use transform="matrix(0.016327488272594875,0,0,0.016327488272594875,42.61474439147263,0)" xlink:href="#at"/></g><path fill="#2f3437" d="M937 0L354-671c-16-19-26-33-31-41h-4V0H186v-1434h133v675c197-226 396-450 594-675h169L460-742 1123 0H937" id="au"/><path fill="#2f3437" d="M907-825c62-126 167-219 336-223 225 0 337 139 337 416V0h-128v-602c1-198-46-345-241-335-182 9-274 155-274 345V0H809v-615c0-215-82-322-247-322-185 0-269 156-269 350V0H165v-1024h128v166h4c72-127 177-190 315-190 163 0 254 95 295 223" id="av"/><path fill="#2f3437" d="M165 0v-1516h128V0H165" id="aw"/><g id="o"><use transform="matrix(0.016327488272594875,0,0,0.016327488272594875,0,0)" xlink:href="#au"/><use transform="matrix(0.016327488272594875,0,0,0.016327488272594875,18.49904421284999,0)" xlink:href="#at"/><use transform="matrix(0.016327488272594875,0,0,0.016327488272594875,35.25104718053233,0)" xlink:href="#av"/><use transform="matrix(0.016327488272594875,0,0,0.016327488272594875,63.383309474213306,0)" xlink:href="#at"/><use transform="matrix(0.016327488272594875,0,0,0.016327488272594875,80.13531244189565,0)" xlink:href="#aw"/></g><path fill="#2f3437" d="M767-743c177 21 313 145 313 333 0 305-245 438-579 435-135 1-286-26-381-64v-334c81 49 202 86 327 86 118 0 211-36 211-141 0-155-214-152-392-147v-314c166 3 358 9 358-135 0-89-73-124-177-123-93 0-185 27-278 80v-319c116-48 238-72 366-72 281-3 503 110 508 366 0 188-113 312-276 344v5" id="ax"/><g id="q"><use transform="matrix(0.018153086215311684,0,0,0.018153086215311684,0,0)" xlink:href="#al"/><use transform="matrix(0.018153086215311684,0,0,0.018153086215311684,17.971555353158568,0)" xlink:href="#am"/><use transform="matrix(0.018153086215311684,0,0,0.018153086215311684,40.24539213934601,0)" xlink:href="#an"/><use transform="matrix(0.018153086215311684,0,0,0.018153086215311684,62.51922892553345,0)" xlink:href="#an"/><use transform="matrix(0.018153086215311684,0,0,0.018153086215311684,84.7930657117209,0)" xlink:href="#ao"/><use transform="matrix(0.018153086215311684,0,0,0.018153086215311684,107.86563829138204,0)" xlink:href="#al"/><use transform="matrix(0.018153086215311684,0,0,0.018153086215311684,125.8371936445406,0)" xlink:href="#ap"/><use transform="matrix(0.018153086215311684,0,0,0.018153086215311684,148.11103043072805,0)" xlink:href="#ap"/><use transform="matrix(0.018153086215311684,0,0,0.018153086215311684,170.3848672169155,0)" xlink:href="#ax"/></g><path fill="#2f3437" d="M468 24C341 24 215-7 130-54v-156c89 64 202 110 348 114 195 1 325-67 325-244 0-142-87-192-179-252-165-108-395-180-470-369-31-87-25-205 18-279 74-136 222-215 428-218 113 0 207 16 283 47v147c-85-49-184-73-298-73-173 0-311 69-311 239 0 138 77 186 166 244 170 106 402 185 480 376 15 37 22 78 22 123C933-84 742 24 468 24" id="ay"/><path fill="#2f3437" d="M641-1048c243 2 344 159 343 415V0H856v-602c-1-210-61-335-255-335-204 0-308 153-308 364V0H165v-1516h128v669h4c80-134 195-201 344-201" id="az"/><g id="r"><use transform="matrix(0.016327488272594875,0,0,0.016327488272594875,0,0)" xlink:href="#ay"/><use transform="matrix(0.016327488272594875,0,0,0.016327488272594875,17.192845151042402,0)" xlink:href="#az"/><use transform="matrix(0.016327488272594875,0,0,0.016327488272594875,35.59392443425683,0)" xlink:href="#at"/><use transform="matrix(0.016327488272594875,0,0,0.016327488272594875,52.345927401939164,0)" xlink:href="#az"/></g><path fill="#2f3437" d="M422-106C339 8 179 52 19 5v-131c109 57 258 31 311-70 36-68 58-169 58-308v-930h133v930c0 179-35 310-99 398" id="aA"/><path fill="#2f3437" d="M1090 0H962L745-752c-7-23-12-54-16-91h-4c-5 31-10 57-21 89L465 0H340L30-1024h137l225 794c7 23 11 53 14 89h8c4-30 10-61 19-90l248-793h106l222 795c6 23 11 52 15 89h8c-1-32 9-60 17-89l225-795h129" id="aB"/><g id="s"><use transform="matrix(0.016327488272594875,0,0,0.016327488272594875,0,0)" xlink:href="#aA"/><use transform="matrix(0.016327488272594875,0,0,0.016327488272594875,10.939417142638566,0)" xlink:href="#at"/><use transform="matrix(0.016327488272594875,0,0,0.016327488272594875,27.691420110320905,0)" xlink:href="#aB"/><use transform="matrix(0.016327488272594875,0,0,0.016327488272594875,51.08871080494936,0)" xlink:href="#at"/><use transform="matrix(0.016327488272594875,0,0,0.016327488272594875,67.8407137726317,0)" xlink:href="#as"/></g><path fill="#2f3437" d="M319 0H186v-1434h133V0" id="aC"/><path fill="#2f3437" d="M704-863c-139-102-462-121-462 92 0 137 114 160 214 207 140 66 286 107 286 299C742-60 578 18 368 24 265 24 178 2 107-41v-143c70 53 158 95 275 98 152 0 228-57 228-171 0-135-129-158-229-205-136-64-271-113-271-299 0-198 161-287 362-287 89 0 166 17 232 50v135" id="aD"/><g id="t"><use transform="matrix(0.016327488272594875,0,0,0.016327488272594875,0,0)" xlink:href="#aC"/><use transform="matrix(0.016327488272594875,0,0,0.016327488272594875,8.261709065933006,0)" xlink:href="#aD"/><use transform="matrix(0.016327488272594875,0,0,0.016327488272594875,21.846179308731937,0)" xlink:href="#aw"/><use transform="matrix(0.016327488272594875,0,0,0.016327488272594875,29.324168937580392,0)" xlink:href="#at"/><use transform="matrix(0.016327488272594875,0,0,0.016327488272594875,46.07617190526273,0)" xlink:href="#av"/></g><path fill="#2f3437" d="M68-932c7-330 204-526 534-526 239 0 403 139 476 321 42 101 63 221 63 361 7 463-221 800-658 801-126 0-236-19-329-56v-329c48 37 186 74 270 73 205 0 310-119 311-327h-6c-90 130-324 159-471 64C145-619 68-755 68-932zm528 144c169 5 161-351 2-351-86 0-125 75-125 178 0 97 40 171 123 173" id="aE"/><g id="u"><use transform="matrix(0.018153086215311684,0,0,0.018153086215311684,0,0)" xlink:href="#al"/><use transform="matrix(0.018153086215311684,0,0,0.018153086215311684,17.971555353158568,0)" xlink:href="#am"/><use transform="matrix(0.018153086215311684,0,0,0.018153086215311684,40.24539213934601,0)" xlink:href="#an"/><use transform="matrix(0.018153086215311684,0,0,0.018153086215311684,62.51922892553345,0)" xlink:href="#an"/><use transform="matrix(0.018153086215311684,0,0,0.018153086215311684,84.7930657117209,0)" xlink:href="#ao"/><use transform="matrix(0.018153086215311684,0,0,0.018153086215311684,107.86563829138204,0)" xlink:href="#al"/><use transform="matrix(0.018153086215311684,0,0,0.018153086215311684,125.8371936445406,0)" xlink:href="#ap"/><use transform="matrix(0.018153086215311684,0,0,0.018153086215311684,148.11103043072805,0)" xlink:href="#ap"/><use transform="matrix(0.018153086215311684,0,0,0.018153086215311684,170.3848672169155,0)" xlink:href="#aE"/></g><path fill="#2f3437" d="M1115 0L957-424H342L188 0H40l546-1434h134L1263 0h-148zM912-545c-82-228-168-452-248-682-5-17-10-36-13-57h-4c-7 38-17 71-28 101L387-545h525" id="aF"/><path fill="#2f3437" d="M530 0H408L16-1024h141l283 780c17 47 28 89 33 125h4c8-48 18-88 31-121l293-784h137" id="aG"/><g id="v"><use transform="matrix(0.016327488272594875,0,0,0.016327488272594875,0,0)" xlink:href="#aF"/><use transform="matrix(0.016327488272594875,0,0,0.016327488272594875,21.27471721919112,0)" xlink:href="#aw"/><use transform="matrix(0.016327488272594875,0,0,0.016327488272594875,28.752706848039573,0)" xlink:href="#aG"/><use transform="matrix(0.016327488272594875,0,0,0.016327488272594875,44.32913066009508,0)" xlink:href="#ar"/></g><path fill="#2f3437" d="M558-1048c309 9 417 231 408 559H226c7 241 110 396 349 403 115 0 224-40 327-121v126C804-11 685 24 546 24 233 24 93-192 93-513c0-245 111-412 279-495 57-27 119-40 186-40zm276 447c-2-196-92-336-279-336-208 0-295 149-326 336h605" id="aH"/><path fill="#2f3437" d="M640-1048c240 2 344 170 344 424V0H856v-590c0-231-84-347-252-347-202 0-311 146-311 351V0H165v-1024h128v178h4c76-135 190-202 343-202" id="aI"/><g id="w"><use transform="matrix(0.016327488272594875,0,0,0.016327488272594875,0,0)" xlink:href="#aF"/><use transform="matrix(0.016327488272594875,0,0,0.016327488272594875,20.57263522346954,0)" xlink:href="#aG"/><use transform="matrix(0.016327488272594875,0,0,0.016327488272594875,35.95312917625391,0)" xlink:href="#aH"/><use transform="matrix(0.016327488272594875,0,0,0.016327488272594875,53.12964683902372,0)" xlink:href="#aH"/><use transform="matrix(0.016327488272594875,0,0,0.016327488272594875,70.30616450179353,0)" xlink:href="#aI"/></g><g id="x"><use transform="matrix(0.016327488272594875,0,0,0.016327488272594875,0,0)" xlink:href="#au"/><use transform="matrix(0.016327488272594875,0,0,0.016327488272594875,18.49904421284999,0)" xlink:href="#az"/><use transform="matrix(0.016327488272594875,0,0,0.016327488272594875,36.90012349606442,0)" xlink:href="#at"/><use transform="matrix(0.016327488272594875,0,0,0.016327488272594875,53.652126463746754,0)" xlink:href="#aI"/></g></defs></g></svg>