<?xml version="1.0" encoding="UTF-8" ?>
<!DOCTYPE svg PUBLIC "-//W3C//DTD SVG 1.1//EN" "http://www.w3.org/Graphics/SVG/1.1/DTD/svg11.dtd">
<svg width="512pt" height="512pt" viewBox="0 0 512 512" version="1.1" xmlns="http://www.w3.org/2000/svg">
<g id="#333333ff">
<path fill="#333333" opacity="1.00" d=" M 96.66 43.40 C 199.75 42.45 302.88 43.29 405.99 42.98 C 439.59 41.71 470.14 72.53 469.02 106.02 C 468.99 206.01 468.99 306.00 469.02 405.99 C 470.21 439.49 439.43 470.16 405.92 469.00 C 305.95 469.02 205.98 468.97 106.01 469.02 C 72.54 470.22 41.85 439.42 42.98 405.98 C 43.01 305.99 43.01 206.00 42.98 106.01 C 41.92 75.61 67.00 47.82 96.66 43.40 M 103.68 85.49 C 92.55 87.10 83.98 97.99 85.05 109.21 C 85.03 207.36 84.82 305.52 85.16 403.66 C 84.03 416.70 96.44 427.98 109.18 426.97 C 207.34 426.94 305.51 427.20 403.66 426.84 C 416.70 427.97 427.98 415.56 426.97 402.82 C 426.95 304.65 427.17 206.47 426.86 108.31 C 427.65 95.43 415.71 83.72 402.79 85.05 C 303.09 85.25 203.35 84.38 103.68 85.49 Z" />
</g>
</svg>
