<?xml version="1.0" encoding="UTF-8" ?>
<!DOCTYPE svg PUBLIC "-//W3C//DTD SVG 1.1//EN" "http://www.w3.org/Graphics/SVG/1.1/DTD/svg11.dtd">
<svg width="512pt" height="512pt" viewBox="0 0 512 512" version="1.1" xmlns="http://www.w3.org/2000/svg">
<g id="#ffffffff">
<path fill="#ffffff" opacity="1.00" d=" M 95.61 43.50 C 198.69 42.28 301.84 43.45 404.95 42.92 C 438.48 41.29 469.75 71.50 468.99 105.08 C 469.00 206.71 469.01 308.34 468.99 409.97 C 467.79 441.64 438.77 469.68 406.91 469.01 C 305.38 468.99 203.84 469.01 102.31 469.00 C 68.81 467.90 39.84 435.58 42.94 402.04 C 43.09 302.13 42.94 202.22 43.00 102.31 C 43.97 73.63 67.67 48.35 95.61 43.50 M 103.68 85.49 C 92.55 87.08 83.98 98.00 85.06 109.22 C 85.01 207.37 84.84 305.54 85.14 403.69 C 84.26 416.57 96.42 428.07 109.19 426.96 C 207.35 426.95 305.53 427.17 403.69 426.86 C 416.57 427.73 428.07 415.58 426.96 402.81 C 426.95 304.65 427.17 206.47 426.86 108.31 C 427.73 95.43 415.58 83.93 402.81 85.04 C 303.11 85.28 203.36 84.36 103.68 85.49 Z" />
</g>
</svg>
