<?xml version="1.0" encoding="utf-8"?>
<!-- Generator: Adobe Illustrator 25.2.1, SVG Export Plug-In . SVG Version: 6.00 Build 0)  -->
<svg version="1.1" id="Layer_1" xmlns="http://www.w3.org/2000/svg" xmlns:xlink="http://www.w3.org/1999/xlink" x="0px" y="0px"
	 viewBox="0 0 512 512" style="enable-background:new 0 0 512 512;" xml:space="preserve">
<style type="text/css">
	.st0{fill:#464646;}
</style>
<g id="_x23_333333ff">
	<path class="st0" d="M96.7,43.4c103.1-1,206.2-0.1,309.3-0.4c33.6-1.3,64.2,29.5,63,63c0,100,0,200,0,300
		c1.2,33.5-29.6,64.2-63.1,63c-100,0-199.9,0-299.9,0c-33.5,1.2-64.2-29.6-63-63c0-100,0-200,0-300C41.9,75.6,67,47.8,96.7,43.4
		 M103.7,85.5C92.6,87.1,84,98,85.1,109.2c0,98.2-0.2,196.3,0.1,294.5c-1.1,13,11.3,24.3,24,23.3c98.2,0,196.3,0.2,294.5-0.1
		c13,1.1,24.3-11.3,23.3-24c0-98.2,0.2-196.4-0.1-294.5c0.8-12.9-11.1-24.6-24.1-23.3C303.1,85.2,203.4,84.4,103.7,85.5z"/>
</g>
</svg>
