<?xml version="1.0" encoding="UTF-8" ?>
<!DOCTYPE svg PUBLIC "-//W3C//DTD SVG 1.1//EN" "http://www.w3.org/Graphics/SVG/1.1/DTD/svg11.dtd">
<svg width="512pt" height="512pt" viewBox="0 0 512 512" version="1.1" xmlns="http://www.w3.org/2000/svg">
<g id="#e24c4bff">
<path fill="#e24c4b" opacity="1.00" d=" M 214.94 45.99 C 227.21 24.40 257.72 16.48 279.07 28.99 C 289.51 33.51 295.88 43.28 301.15 52.86 C 366.51 168.83 431.84 284.83 497.19 400.81 C 503.07 411.27 509.55 421.75 512.00 433.66 L 512.00 445.41 C 509.19 460.26 500.80 474.95 486.94 481.91 C 475.66 488.76 461.81 488.83 449.05 489.03 C 322.30 489.00 195.56 488.95 68.82 489.05 C 54.85 488.90 39.76 490.69 26.88 484.06 C 12.11 477.16 2.82 462.18 0.00 446.48 L 0.00 434.65 C 1.73 422.72 8.40 412.49 14.21 402.21 C 81.17 283.50 147.93 164.67 214.94 45.99 M 255.28 72.31 C 190.09 188.68 124.32 304.74 59.03 421.05 C 55.89 428.02 50.64 433.99 48.09 441.18 C 186.66 440.94 325.23 440.76 463.80 441.27 C 463.05 436.29 458.89 432.55 456.82 428.07 C 392.22 313.37 327.54 198.71 263.03 83.97 C 260.13 80.70 259.70 73.17 255.28 72.31 Z" />
</g>
<g id="#ffffffff">
<path fill="#ffffff" opacity="1.00" d=" M 255.28 72.31 C 259.70 73.17 260.13 80.70 263.03 83.97 C 327.54 198.71 392.22 313.37 456.82 428.07 C 458.89 432.55 463.05 436.29 463.80 441.27 C 325.23 440.76 186.66 440.94 48.09 441.18 C 50.64 433.99 55.89 428.02 59.03 421.05 C 124.32 304.74 190.09 188.68 255.28 72.31 M 251.62 202.39 C 235.94 203.82 223.82 218.19 222.21 233.37 C 221.84 241.14 223.46 248.75 224.63 256.38 C 228.51 280.29 231.55 304.33 235.68 328.19 C 238.04 340.22 252.80 347.61 263.77 342.04 C 271.91 339.24 276.87 330.92 277.66 322.64 C 281.68 295.31 286.06 268.03 289.90 240.68 C 293.98 218.87 273.02 198.85 251.62 202.39 M 251.02 362.40 C 242.36 363.89 236.59 372.48 237.14 380.99 C 236.16 391.25 245.75 400.72 255.95 399.87 C 267.96 401.04 277.79 388.17 274.51 376.72 C 273.34 365.93 261.11 359.51 251.02 362.40 Z" />
</g>
<g id="#3f4448ff">
<path fill="#3f4448" opacity="1.00" d=" M 251.62 202.39 C 273.02 198.85 293.98 218.87 289.90 240.68 C 286.06 268.03 281.68 295.31 277.66 322.64 C 276.87 330.92 271.91 339.24 263.77 342.04 C 252.80 347.61 238.04 340.22 235.68 328.19 C 231.55 304.33 228.51 280.29 224.63 256.38 C 223.46 248.75 221.84 241.14 222.21 233.37 C 223.82 218.19 235.94 203.82 251.62 202.39 Z" />
<path fill="#3f4448" opacity="1.00" d=" M 251.02 362.40 C 261.11 359.51 273.34 365.93 274.51 376.72 C 277.79 388.17 267.96 401.04 255.95 399.87 C 245.75 400.72 236.16 391.25 237.14 380.99 C 236.59 372.48 242.36 363.89 251.02 362.40 Z" />
</g>
</svg>
