<?xml version="1.0" encoding="utf-8"?>
<!-- Generator: Adobe Illustrator 25.2.1, SVG Export Plug-In . SVG Version: 6.00 Build 0)  -->
<svg version="1.1" id="Layer_1" xmlns="http://www.w3.org/2000/svg" xmlns:xlink="http://www.w3.org/1999/xlink" x="0px" y="0px"
	 viewBox="0 0 512 512" style="enable-background:new 0 0 512 512;" xml:space="preserve">
<style type="text/css">
	.st0{fill:#D3525D;}
</style>
<path class="st0" d="M243.6,0h22c39.5,2.5,78.4,17.9,107.9,44.6c33.3,28.7,54.1,70.6,59,114.1c1.6,19.9-0.4,39.9,1,59.8
	c2,17.8,14.2,33.4,30.5,40.7c27.1,14.1,44.5,42.6,48.1,72.5v14c-2,36.3-26.9,70.1-61.3,82.1c-25,9.5-52.3,3.5-78.3,5.5
	c-8.2,41.9-45.7,74.9-88.1,78.8h-56.7c-19.3-2.4-38.4-9.5-53.4-22.2c-18-13.9-29.6-34.8-34.8-56.7c-18.7-0.6-37.5,0.4-56.2-0.2
	c-21.4-2.5-42.2-12.3-57-28.1c-15-14.6-23.1-35-26.2-55.4v-17.8c3.2-23.6,13.9-46.7,32.6-62c8.5-7.6,19.1-12.1,28.5-18.5
	c11.4-9.9,18.4-25,18-40.1c0.2-16.5-0.7-32.9,0.5-49.4c3.9-42.4,23.5-83.3,54.6-112.4C163.5,20.6,203,3.7,243.6,0L243.6,0z
	 M242.6,40.5c-29.7,3.1-57.9,16.1-79.9,36.2c-20.7,19.8-35.5,45.6-41.3,73.7c-5.8,25,0.2,51-3.9,76.1c-3.2,23.8-17.2,45.4-36.5,59.5
	c-8.7,5.5-18.5,9.6-25.9,17.1c-12.5,12.7-18.3,31.8-13.7,49.2c4.6,21.8,24.4,39,46.6,40.6c109.9,0,219.9,0,329.8,0
	c20.7,1.2,41.1-11.9,49.3-30.8c9.9-20.6,4-47.5-13.6-61.9c-6.8-5.9-15.2-9.4-22.7-14.3c-23.5-16.8-38.1-45.2-38-74.1
	c0-11.7,0.1-23.4,0.1-35c0.4-36.4-14.7-72.8-41.2-97.8C323.6,50.9,282.3,36.3,242.6,40.5L242.6,40.5z M181.1,432.8
	c7.5,23.5,32.2,40.1,56.8,39.2c15.1-0.4,30.3,0.6,45.4-0.6c21.2-2.6,41.4-18.3,47.3-38.6C280.8,433.1,231,433.1,181.1,432.8z"/>
</svg>
