<?xml version="1.0" encoding="utf-8"?>
<!-- Generator: Adobe Illustrator 25.2.1, SVG Export Plug-In . SVG Version: 6.00 Build 0)  -->
<svg version="1.1" id="Layer_1" xmlns="http://www.w3.org/2000/svg" xmlns:xlink="http://www.w3.org/1999/xlink" x="0px" y="0px"
	 viewBox="0 0 512 512" style="enable-background:new 0 0 512 512;" xml:space="preserve">
<style type="text/css">
	.st0{fill:#FFFFFF;}
</style>
<g id="_x23_ffffffff">
	<path class="st0" d="M407.7,68.8h6.8c17.3,1.6,33.2,13.2,39.7,29.2c7.7,16.3,3.2,36.6-8.9,49.6c-55,60.5-110.4,120.7-165.3,181.2
		c-2.9,3.3-6.9,5-10.8,6.8c-17.4,7.5-34.7,15.1-52,22.7c-10.4,5.3-24.2,0.4-29.3-10c-2.8-5.4-2.3-11.8-1.3-17.6
		c6.3-18.6,12.5-37.3,18.7-56c1.9-7,7.6-11.8,12.3-17c48.2-52.7,96.3-105.5,144.5-158.2c7.3-7.8,14-16.3,22.5-22.8
		C391.5,72.2,399.6,69.7,407.7,68.8 M407.3,101.3c-5.9,1.5-9.4,6.9-13.3,11.1c-45.4,49.2-90,99.1-135.7,148.1
		c6.5,7.3,14.9,12.8,21.3,20.3c2.9-2.1,5.1-5,7.5-7.6c45.1-49.7,90.6-99,135.7-148.8C431.2,114.2,419.9,97.6,407.3,101.3
		 M236.3,284.5c-4.5,11.4-8.2,23.3-11.7,35c11.5-4,22.6-9.3,33.7-14.5C251.7,297.5,243.6,291.3,236.3,284.5z"/>
	<path class="st0" d="M90.9,147.8c10.9-25.8,37.3-43.8,65.2-44.5c47.4-0.3,94.7-0.2,142.1,0c9-0.8,17.8,7.4,17,16.6
		c0.6,8.3-7.2,16-15.5,15.4c-47.4,0.4-94.8-0.2-142.2,0.2c-20.8,0.2-39.5,17.9-40.4,38.7c0,65.7-0.2,131.4,0.1,197.1
		c0.1,21.1,19.2,39.8,40.3,39.7c63.3,0.1,126.6-0.1,189.9,0.1c8.7,0.2,17.9-0.7,25.5-5.2c12.3-6.6,20.3-19.9,21.3-33.7
		c0.1-46.2-0.1-92.4,0.1-138.6c-0.4-7.1,4.8-14.3,11.9-15.6c7.2-2.3,15.2,1.9,18.6,8.4c2.1,5.2,1.5,10.9,1.6,16.4
		c-0.2,42.7,0,85.3-0.1,128c0,14.6-4.9,29-13.2,41c-12.2,18.6-33.9,30-55.9,31.5H154.2c-25-1.5-48.9-16.4-60.5-38.7
		c-4.8-9.8-8.8-20.5-8.7-31.5c0-63.3,0-126.7,0-190C85.1,171,86.3,158.9,90.9,147.8z"/>
</g>
</svg>
