<?xml version="1.0" encoding="UTF-8" ?>
<!DOCTYPE svg PUBLIC "-//W3C//DTD SVG 1.1//EN" "http://www.w3.org/Graphics/SVG/1.1/DTD/svg11.dtd">
<svg width="512pt" height="512pt" viewBox="0 0 512 512" version="1.1" xmlns="http://www.w3.org/2000/svg">
<g id="#999999ff">
<path fill="#999999" opacity="1.00" d=" M 243.56 0.00 L 265.54 0.00 C 305.09 2.51 343.95 17.87 373.44 44.56 C 406.71 73.23 427.56 115.19 432.43 158.66 C 434.05 178.55 432.04 198.53 433.39 218.42 C 435.38 236.23 447.63 251.86 463.90 259.09 C 491.03 273.16 508.35 301.67 512.00 331.59 L 512.00 345.63 C 510.04 381.90 485.12 415.76 450.71 427.69 C 425.67 437.15 398.40 431.17 372.41 433.22 C 364.16 475.10 326.68 508.12 284.31 512.00 L 227.62 512.00 C 208.29 509.59 189.17 502.50 174.21 489.79 C 156.19 475.93 144.60 455.00 139.38 433.12 C 120.65 432.50 101.91 433.48 83.18 432.89 C 61.74 430.42 41.02 420.62 26.16 404.84 C 11.12 390.20 3.10 369.85 0.00 349.39 L 0.00 331.60 C 3.21 308.01 13.95 284.88 32.61 269.61 C 41.14 262.04 51.76 257.53 61.07 251.10 C 72.48 241.20 79.46 226.14 79.06 210.96 C 79.29 194.51 78.33 178.03 79.56 161.60 C 83.46 119.21 103.08 78.33 134.20 49.20 C 163.47 20.61 202.99 3.71 243.56 0.00 M 242.64 40.53 C 212.97 43.67 184.73 56.62 162.77 76.77 C 142.11 96.56 127.26 122.39 121.51 150.48 C 115.68 175.47 121.76 201.44 117.57 226.62 C 114.35 250.40 100.32 272.04 81.07 286.10 C 72.35 291.62 62.55 295.73 55.20 303.20 C 42.70 315.86 36.86 335.05 41.51 352.43 C 46.11 374.19 65.94 391.47 88.15 393.00 C 198.09 393.03 308.03 392.96 417.96 393.03 C 438.66 394.19 459.02 381.18 467.25 362.28 C 477.16 341.72 471.29 314.83 453.63 300.36 C 446.84 294.46 438.41 290.96 430.93 286.10 C 407.44 269.28 392.83 240.91 392.95 212.03 C 392.92 200.34 393.06 188.66 393.06 176.99 C 393.45 140.62 378.33 104.17 351.82 79.19 C 323.64 50.91 282.32 36.32 242.64 40.53 M 181.11 432.82 C 188.63 456.29 213.35 472.96 237.94 472.06 C 253.06 471.71 268.23 472.68 283.32 471.41 C 304.48 468.81 324.69 453.12 330.65 432.81 C 280.80 433.12 230.96 433.11 181.11 432.82 Z" />
</g>
</svg>
