<?xml version="1.0" encoding="utf-8"?>
<!-- Generator: Adobe Illustrator 25.2.1, SVG Export Plug-In . SVG Version: 6.00 Build 0)  -->
<svg version="1.1" id="Layer_1" xmlns="http://www.w3.org/2000/svg" xmlns:xlink="http://www.w3.org/1999/xlink" x="0px" y="0px"
	 viewBox="0 0 512 512" style="enable-background:new 0 0 512 512;" xml:space="preserve">
<style type="text/css">
	.st0{fill:#464646;}
</style>
<g id="_x23_464646ff">
	<path class="st0" d="M236.8,137.6c6.6-7.3,17.3-9.2,26.7-7.2c8.9,2.5,14.5,10.3,20.8,16.4c59.2,59.2,118.4,118.4,177.7,177.7
		c7.3,7.4,16.3,14.1,18.6,24.8v9.6c-3.2,12.3-14.1,23.6-27.5,23.1c-130,0.4-260,0-390.1,0.2c-14.7,1.9-28.3-9.3-31.6-23.3v-9.6
		c1.4-4.7,3.6-9.3,6.8-13C104.4,270,170.7,203.9,236.8,137.6z"/>
</g>
</svg>
