<?xml version="1.0"?>
<svg xmlns="http://www.w3.org/2000/svg" xmlns:xlink="http://www.w3.org/1999/xlink" xmlns:svgjs="http://svgjs.com/svgjs" version="1.1" width="512" height="512" x="0" y="0" viewBox="0 0 512 512" style="enable-background:new 0 0 512 512" xml:space="preserve" class=""><g><g xmlns="http://www.w3.org/2000/svg"><path d="m467 0h-422c-24.813 0-45 20.187-45 45v422c0 24.813 20.187 45 45 45h422c24.813 0 45-20.187 45-45v-422c0-24.813-20.187-45-45-45zm-422 30h422c8.271 0 15 6.729 15 15v75h-452v-75c0-8.271 6.729-15 15-15zm422 452h-422c-8.271 0-15-6.729-15-15v-317h452v317c0 8.271-6.729 15-15 15z" fill="#b2b2b2" data-original="#000000" style="" class=""/><circle cx="106" cy="75" r="15" fill="#b2b2b2" data-original="#000000" style="" class=""/><circle cx="166" cy="75" r="15" fill="#b2b2b2" data-original="#000000" style="" class=""/><circle cx="226" cy="75" r="15" fill="#b2b2b2" data-original="#000000" style="" class=""/><path d="m407 180h-301c-8.284 0-15 6.716-15 15v91c0 8.284 6.716 15 15 15h301c8.284 0 15-6.716 15-15v-91c0-8.284-6.716-15-15-15zm-15 91h-271v-61h271z" fill="#b2b2b2" data-original="#000000" style="" class=""/><path d="m256 331h-150c-8.284 0-15 6.716-15 15v91c0 8.284 6.716 15 15 15h150c8.284 0 15-6.716 15-15v-91c0-8.284-6.716-15-15-15zm-15 91h-120v-61h120z" fill="#b2b2b2" data-original="#000000" style="" class=""/><path d="m407 331h-91c-8.284 0-15 6.716-15 15v91c0 8.284 6.716 15 15 15h91c8.284 0 15-6.716 15-15v-91c0-8.284-6.716-15-15-15zm-15 91h-61v-61h61z" fill="#b2b2b2" data-original="#000000" style="" class=""/></g></g></svg>
