<?xml version="1.0" encoding="utf-8"?>
<!-- Generator: Adobe Illustrator 25.2.1, SVG Export Plug-In . SVG Version: 6.00 Build 0)  -->
<svg version="1.1" id="Layer_1" xmlns="http://www.w3.org/2000/svg" xmlns:xlink="http://www.w3.org/1999/xlink" x="0px" y="0px"
	 viewBox="0 0 482.2 449.2" style="enable-background:new 0 0 482.2 449.2;" xml:space="preserve">
<style type="text/css">
	.st0{fill:#556775;}
	.st1{fill:#FFFEFC;}
	.st2{fill:#C7EAFF;}
	.st3{fill:#B1CCE1;}
	.st4{fill:#FFFFFF;}
	.st5{fill:#2F3C42;}
	.st6{fill:#2F3C42;stroke:#2F3C42;stroke-miterlimit:10;}
</style>
<path class="st0" d="M108.8,6.2c3.9-2.4,7.7-5.1,12.3-5.7c5.3,12.7,9.5,26,9.9,39.8c7.3,5.1,14.9,9.7,22.8,13.9
	c-0.4-10.2,0.1-20.4-1.7-30.4c1.6,1.2,3.5,2.1,4.6,3.8c5.4,9.5,7.2,20.4,8,31.2c7.1,2.4,14.5,4.8,22,5.3c0.4-9.4-1-18.8-3.1-28
	l-0.1-0.6c1.8-0.2,3.5-0.5,5.2-0.8c5,8.7,6.9,18.8,9.1,28.4c7.7-1.5,15-5.9,20.6-11.2c-2.3-10.5-5.8-20.7-10.5-30.4l-0.1-0.3
	c2.2-2.8,4.3-5.7,6.4-8.6c3.4,11.7,6.6,23.5,8.6,35.6c7.2-6.4,13.1-14.2,18.2-22.4c-2-6.6-4-13.2-5.4-20c3.6-0.1,7.2,0,10.8,0
	c2.9,12.1,4.6,24.4,6.7,36.6c6.8,8.1,15.3,14.9,24.8,19.6c-1.5-14.3-3-28.6-5.7-42.7c2.4,2.9,5.2,5.4,7.4,8.4
	c3.7,12.1,6.8,24.4,8.5,36.9c7.1,0.8,14.1-1,20.9-2.8c-0.6-8.8-2-17.6-4.1-26.2c1.7-0.4,3.4-0.8,5.1-1.1c3.2,7.9,5.1,16.2,7.6,24.3
	c7.4-2.6,14.4-6.1,21.1-10.1c-2.5-8.5-5.1-17-8.2-25.2c1.1-1.1,2.2-2.1,3.3-3c3.9,8.4,6.1,17.6,7.1,26.8c7-4.1,13.9-8.7,19.6-14.6
	c-1.7-9.8-5.3-19.3-10.1-28c1.1-1.1,2.2-2.2,3.3-3.2l0.4,0.1c2.9,0.8,6.2,1.3,9-0.2l0.5-0.2l0.1,0.9c0.7,8.3,3.3,16.4,4.3,24.7
	c0.5,2.2,0.3,5.1,2.3,6.6c7.7,6.5,15.1,13.3,22.6,20c0.2-10.7-1.5-21.3-3.1-31.9c0.3-0.2,0.8-0.5,1.1-0.6c0.9,1,2.5,1.6,2.8,3
	c1.2,10.7,3.2,21.3,4.1,32.1c0,2.6,2.5,4.1,4.2,5.8c6.4,5.3,12.4,11.2,18.7,16.7c0.5-11.5-0.1-23.1-1.8-34.5
	c1.2,1.1,2.4,2.2,3.7,3.3c-0.2,10.9,2.5,21.9-0.1,32.8c6.2,5.8,12,12.1,18.7,17.3c3.4-9.6,4.7-19.7,5-29.8
	c6.1,5.1,11.9,10.6,17.8,15.9c-4.6,7.3-10.7,13.6-16.8,19.7c2.2,3.5,6.4,6,7.6,9.9c-2.2,6.5-6.1,12.3-9.2,18.4
	c14.5-6.5,25.2-18.6,34.8-30.9c1,1.9,2.7,4.1,1,6.2c-4.9,9.3-9,19.1-14.6,27.9c-8.1,2.7-16.5,3.9-25,4.2
	c-4.7,7.7-8.7,15.8-13.2,23.6c8.5,0.3,16.9-1.3,25.4-2c-1.8,3.8-4,7.4-5.6,11.3l-0.5,0c-7.7-0.9-15.5-0.3-23.2-1.5
	c-4.5,6.9-8,14.5-12.2,21.6c8.2,0.3,16.3,1.3,24.5,1.6c-2.6,3.9,1.5,7.4,2.3,11.1c-8.3-0.3-16.1-4.1-24.3-4.9
	c3.2,8.1,6.2,16.3,8.4,24.8c8.5,1.4,16.2,5.7,24.7,6.7l0.6,0.1c2.1,6.5,3.5,13.2,5,19.9c-8.9-4-20-3.9-27.3-10.8
	c-0.9-0.1-1.8-0.1-2.6-0.2c-3.5-16.6-8.8-32.8-15.8-48.3c14-26.8,29.1-53,42.8-79.9c-28.5-26.7-57.4-52.9-86.1-79.4
	c-15.5,13.1-32,25.4-50.9,33.2c-10.4,4.3-22.5,6.7-33.3,2.2c-16.8-6.8-29.3-20.9-39.5-35.3c-9.6,13.6-21,26.8-36.3,34
	c-9.9,4.8-21.5,4.5-31.8,0.9c-20.7-7.4-38.8-20.7-55.2-35.1c-29.2,26.2-57.6,53.3-86.8,79.5c14,25.8,28,51.8,42.1,77.6
	c1.2,1.7,0.7,3.7-0.1,5.4c-10.8,23.8-16.9,49.8-18,75.9c-0.3,26.3,5.9,53.6,22,74.9c15.3,21.1,37.9,35.7,61.8,45.4
	c32.8,13,68.1,18.9,103.1,20.7c42.5-2.8,86-10.4,123.7-31.4c17.9-10.4,34-24.5,44.8-42.2c15.4-24.6,19-54.9,15.7-83.3
	c1.2,0,2.4-0.1,3.7-0.1c0.8,4.2,1.1,8.4,1.4,12.7c8.7,2.5,17.1,5.8,26,7.7c0.4,2.2,0.5,4.4,0.6,6.6c-8.6-2.2-17.3-4.5-26-6.4
	c-0.2,7.5-0.2,15.1-1.5,22.5c8.8,2.9,18,4.5,26.9,6.7c0,0.7-0.1,2.2-0.1,3c-9-1.9-17.9-4.5-27-6.1c-1.3,7.4-3.1,14.7-5.4,21.8
	c9.6,1.4,18.8,4.4,28.4,5.7c-0.9,3.5-2.1,6.9-3.2,10.3l-0.4-0.2c-9.2-3.5-18.7-6-28.2-8.4c-2.7,7.5-8.3,13.4-11.8,20.3
	c10.5,2.5,21,5,31,9.1c-1.2,1.8-2.3,3.5-3.5,5.3c-8.8-4.9-17.9-9.2-27.4-12.7c-2.2-1.3-3.6,1.3-5,2.6c-4.5,5.8-10.3,10.3-15.8,15.1
	c12.1,2.6,24.1,6.1,34.5,12.9c-1.8,1.7-3.5,3.5-5.2,5.2c-10-5.7-20.9-9.9-31.7-13.8c-2.1-1.1-4,0.7-5.6,1.8
	c-6.5,4.9-13.7,8.7-20.6,13c13.2,4.7,26.6,9.1,39.8,14c-4.8,3.4-9.8,6.4-14.9,9.4c-13.2-4.4-25-12.2-38.2-16.7
	c-9.8,3.9-19.6,7.9-29.7,11.1c13.2,6.5,27.5,11.1,40.1,18.7c-2.2,0.7-4.3,1.5-6.4,2.4l-0.3-0.2c-13.2-6.4-26.4-12.9-39.9-18.7
	c-11.8,2.2-23.5,5.8-35.5,6.5c13.4,9,28.9,14.3,43.1,22.1c-2.7,0.5-5.4,1.1-8.1,1.7c-15.2-3.9-28.6-12.4-41.4-21.2
	c-3.1-2.4-7.3-1-10.9-1.2c-9.5,0.7-18.9-1.5-28.4-0.7c11.5,11.2,25.3,19.6,38.5,28.6c-1.8,0-3.5,0.1-5.2,0.5c0,0.2,0,0.6,0,0.8
	l0,0.8c-7.5,0-15,1.6-22.5,1.3c-8.8-11-18.6-21.1-28.5-31.1c-2.8-2.9-7.2-2.2-10.9-2.9c-10.3-1-20.2-4.5-30.5-5.9
	c10.9,13.2,25.7,22.7,35.7,36.7c-7.2-1-14.4-2.3-21.6-3.3l-0.4-0.6c-8.7-11.2-14.6-24.2-22.8-35.8c-12.8-4.8-25.4-10-37.8-15.9
	c7.3,16.9,21.3,29.5,30.6,45.3c-9.5-2.4-18.8-5.5-27.9-9c-6.5-13.9-13.1-28.2-14.8-43.6c-8-4.9-15.4-10.5-22.7-16.4
	c-1.2,15.5,2.8,30.6,6.7,45.5c-5-2.9-9.9-6-14.5-9.5c-0.8-5.8-0.3-11.9-0.3-17.9c0.2-6.8,1.4-13.5,3-20.1c1.1-2.5-1.5-4.1-2.9-5.7
	c-5.3-5.4-9.7-11.5-14.4-17.4c-4,13-8.4,26.2-8.8,39.9l-0.1,0.7c-2.6-3.5-5.5-6.7-8-10.2c5.5-11.2,9.7-22.9,15.3-34
	c-4.4-7.3-7.6-15.2-9.4-23.5c-10.6,7.9-13.5,21.9-19.9,32.8c-1.7-4.4-3.1-8.9-5-13.3c5.5-10.9,11.3-21.9,20-30.6
	c2.7-2,1.4-5.6,1.2-8.4c-1-6.5-0.7-13.1-0.8-19.6c-9.9,4.3-17.6,12.2-23.8,20.9c-0.6-2.3-1.2-4.6-1.9-6.9l-0.1-0.2
	c7.6-7,15-14.9,25.3-18c1.7-7.7,1.5-15.9,3.3-23.6c-9.3,1.5-17.4,6.8-26.1,9.8c0.8-5.8,2-11.6,3.6-17.2c8.1-1.4,16.4-2.1,24.6-3.2
	c1.4-7.5,4-14.7,5.6-22.1c-7.5-0.3-14.8,1.1-22.2,1.4c-0.1-0.4-0.3-1.1-0.4-1.5c1.2-2.6,2.3-5.1,3.3-7.8c7.6-0.2,15.2-0.6,22.7-1
	c1.5-4.8,4-9.2,5.3-14.1c-0.9-2.9-2.7-5.4-4.3-8c-8.2,0.7-16.5,1.1-24.8,1c-0.9-1.5-1.8-3-2.6-4.6c8.3-1,16.7-0.2,25-0.5
	c-3.7-7.3-7.8-14.4-12-21.4l-0.6-0.9c-7.9-0.2-15.8,0.2-23.7,0.5c-1.7-3.1-3.2-6.3-4.7-9.4c1.7,0,3.4-0.1,5.1-0.2
	c6.3,0.8,12.7,0.2,18.9,1.1c-3-6.8-7.1-13-10.3-19.7c-0.9-1.4-1.3-3.6-3.3-3.6c-7.3-0.5-14.6-0.3-21.9-0.5l-0.5,0
	c-2.1-4.5-4.6-8.9-6.7-13.4c9.1,1.9,17.5,6.3,26.8,7.8c-1.1-2.7-2.3-5.4-3.5-8.1c3.4-4.7,7.9-8.5,11.6-13
	c-9.2-2.6-18.8-4.1-27.4-8.4l-0.5-0.2c0.4-0.4,1.3-1.2,1.7-1.6c10.1,2.4,20.2,5.2,30.6,6.4c6.8-6.4,13.7-12.7,20.4-19.1
	c-9.4-1.5-19-2.2-28.2-4.4c-0.7-0.2-2-0.5-2.7-0.7c1-1.6,2.5-2.8,3.9-4.1c10.7,2.2,21.6,3.8,32.4,4.1c7.8-6.2,15-13.2,22.4-20
	c-8.8-1-17.7-1.6-26.6-2.4c-2-0.3-4-0.2-6-0.3c2.2-2.2,4.6-4.2,7.1-6.1c8.1,3.3,16.9,4.2,25.1,7.3c1.7,1,3-0.7,4.2-1.6
	c7.1-6.6,14.7-12.8,21.7-19.5c4.1,3.1,7.7,6.8,11.8,9.9c-3.1-12.2-9.6-23.3-19.1-31.7L108.8,6.2z"/>
<path class="st0" d="M91.1,20.8l0.3,0.3c2.3,2.2,4.5,4.5,6.6,6.9c-3.8-1.2-7.6-2.4-11.4-3.4C88.1,23.3,89.6,22.1,91.1,20.8z"/>
<path class="st0" d="M123.3,61.4c15.8,16.7,34.3,32.3,56.5,39.7c18.6,6.3,38-4,50.5-17.5c4.3-3.5,7.1-8.4,10.9-12.5
	c11.1,14.7,25.8,29,44.8,31.7c12,1.3,23.7-3.6,33.9-9.5c14.9-8.3,27.5-19.8,39.3-31.8c19.4,15.3,39.2,29.9,58.6,45.2
	c-1.7,1.8-3.5,3.6-5.2,5.3c-16.9-12.8-33.9-25.7-50.5-39c-21.1,17.2-42.4,35.5-68.3,45c-12.2,4.7-26.1,1.2-36.1-6.7
	c-6.9-5.1-11.8-12.4-16.6-19.4c-8.9,14.9-23.8,29.2-42.3,28.2c-14.4-1.4-27.1-9.4-39.1-16.9c-13.5-9.3-26.9-19-38.9-30.4
	c-17.1,12.9-34,26.2-51,39.3c14.7,21.5,28.5,43.7,41.5,66.3c1.8,4,5.8,8.6,2.7,13c-14.3,26.6-26,56.9-21.1,87.6
	c4.3,29.9,27.8,53.1,53.6,66.4c28.1,14.9,59.4,22.4,90.6,27.3c5.3,1.2,10.6-0.5,15.8-1.3c22.3-3.6,44.3-9.4,65.3-17.6
	c0.5,0.1,1.4,0.4,1.9,0.5c0.1,0.1,0.2,0.2,0.3,0.3c-0.1-0.1-0.2-0.2-0.3-0.3c0.4-2.4,3.4-2.7,5.1-3.8c26.9-11.7,52.6-31.6,61.6-60.6
	c10.2-33.9-2.5-69.2-18.7-99c-3-3.9,0.8-7.9,2.3-11.6c12.6-21.7,25.5-43.4,40.1-63.8c4.4-1.2,7.2-11,11.7-5.6
	c-15,24.4-30.7,48.4-45.5,73c14.4,24.1,24.5,51.5,25.2,79.8c-0.5-0.1-1.5-0.2-2-0.3c-3.4,4-1.2,8.7,1.1,12.5
	c-1.4,25.1-17.4,46.5-34.7,63.5c-33.9,31.8-81.1,44.6-126.6,47.4c-34-2.7-68.4-10.4-98-27.9c-21.1-12.4-39.2-30.2-51.3-51.6
	c-5.9-10.4-8.7-22.2-10.2-34c-0.3-5.3-0.4-10.7,0-16c2.5-25.6,11.3-50.5,24.5-72.5c0.7-1.3-0.4-2.6-0.9-3.8
	c-14.6-23.5-29.6-46.7-44-70.3C81.2,93.7,102.1,77.3,123.3,61.4z"/>
<g>
	<path class="st1" d="M375,16c6.2-2.3,8.4,6.5,9.2,11c1.2,4.2-6,7.3-6.8,2.3C376.7,25,370.8,19.7,375,16z"/>
	<path class="st1" d="M227,17c6.5-3.3,10.7,10.9,2.8,10.6C226.1,26.7,223.9,19.6,227,17z"/>
	<path class="st1" d="M344.9,18.1c7.4-3.2,8.4,5.7,8.7,10.9c1.1,4.4-6.4,6-7.4,1.7C345.5,26.5,344.1,22.3,344.9,18.1z"/>
	<path class="st1" d="M259.9,25.1c1.2-2,3.8-4.1,6.1-2.3c2.7,3.3,4,7.8,3.8,12.1C263.3,39.1,260.5,30,259.9,25.1z"/>
	<path class="st1" d="M323.8,36.9c-1-3.8,5.5-5.1,6.8-1.8c1.6,3.6,2.9,7.6,2.9,11.6c-1.2,2.7-4.3,2.4-6.8,2.4
		C325.3,45.2,324.7,41,323.8,36.9z"/>
	<path class="st1" d="M205.4,51.2c-1.4-4.5-4.2-13.1,3.2-13.2c3.6,3.2,3.1,8.6,4.3,13C213.5,55.5,205.6,55.5,205.4,51.2z"/>
	<path class="st1" d="M296.9,42.2c9.3-2.7,6.8,9.1,6.7,14.6c-2.2,1.1-4.6,1.4-6.8,0C296.3,52,295,46.8,296.9,42.2z"/>
	<path class="st1" d="M168.7,45c9-7.4,13.9,15.4,2.4,10.7C170.2,52.2,168.9,48.7,168.7,45z"/>
	<path class="st1" d="M403.6,45c2-1.5,4.4-1.8,6.6-0.7c1.1,4.3,2.4,8.5,3,12.9c0.6,3.3-4.7,5.8-6.4,2.5
		C405,55.1,403.4,50.1,403.6,45z"/>
	<path class="st1" d="M375.3,55.5c0.7,0.3,2,0.9,2.6,1.3c21.3,17.4,43.1,34.1,64.5,51.4c1.2,1.1,3.5,2.5,2,4.3
		c-8.2,13.5-15.6,27.4-23.9,40.8c-2.9-3.1-1.1-7.6-0.6-11.3c1.4-8.2,4-16.2,6.9-24c0.6-2.7,2.8-6,0.3-8.4
		C410.2,91.2,391.8,74.2,375.3,55.5z"/>
	<path class="st1" d="M432,65c1.8-0.3,3.7-0.3,5.6,0c1.8,5,2.9,10.4,2.9,15.8c-0.8,3.7-7.4,3-7.5-0.8C432.8,74.9,429.7,69.8,432,65z
		"/>
	<path class="st1" d="M358.4,91.9c1.9-2,3.6-4.1,5.5-6.1c12.5,10.6,24.7,21.8,36.4,33.2c-1.6-0.3-3.1-0.7-4.6-1.1
		c-8-2-15.9-4-23.8-6.2c-4.6-1.7-7.4,3.4-10.7,5.5c-14.5,10.7-29.2,21.4-46.1,28.1c-9.9,4.6-21.3,5.7-32.1,4.3
		c-10.5-2.7-19.7-9.3-26.9-17.2c-2.6-2.9-6-5.4-6.7-9.4c0.4-0.2,1.3-0.5,1.7-0.7c12.3,9.5,28.2,14.4,43.7,12.2
		C320.8,129.7,340.5,110.1,358.4,91.9z"/>
	<path class="st1" d="M458.9,95.1c5.2-1.6,6.8,3.9,5.8,7.9c0.6,4.7-7.9,6.3-8.7,1.8C457.6,101.7,456.1,97.5,458.9,95.1z"/>
	<path class="st2" d="M284.6,155.5l1.1,0.5c0.1,25.4-0.1,50.7,0,76.1l-1.2,0.1C284.4,206.7,284.3,181.1,284.6,155.5z"/>
	<path class="st1" d="M345.4,194.5c16.6,15.1,21.2,38.4,25.6,59.4c2.5,18.4,3.6,38.8-7.2,55c-6.2,8.1-13.1,15.8-21,22.3
		c-18.9,13.8-42,20.4-65.1,23c-11.2,0.2-22.6,2.6-33.6-0.5c7.8-5,17.6-4.6,25.8-8.6c21.3-7,41.8-17.3,58.7-32.2
		c21.5-19.2,31.7-49.5,26.7-77.9C354.9,220.8,348.2,208.1,345.4,194.5z"/>
	<path class="st1" d="M32.9,271.7c-4.3-6.2,4.3-9.8,8.9-11.6c4.1-2.1,8.5,5,3.9,6.8C41.3,268.1,37.7,272.5,32.9,271.7z"/>
	<path class="st1" d="M68.4,287c0.2-4-0.7-9,2.9-11.8c5.2,31,24.3,58.4,49.3,77c29.3,23.2,64.9,36.9,100.6,46.7
		c-34.4,1.5-70.2-4-100.2-21.9c-24.1-13.7-42.1-37.2-49.4-64C69.4,304.5,68.7,295.7,68.4,287z"/>
	<path class="st1" d="M43.1,292c3.2-1.9,7.4,2.4,5.2,5.5c-2.1,3.6-4.8,6.9-6,11.1c-0.9,4.4-8.3,2.6-7.5-1.6
		C36.3,301.5,39.7,296.6,43.1,292z"/>
	<path class="st1" d="M50.1,335.3c1.5-3.5,8.3-1.2,6.8,2.6c-1.3,3.6-3.2,7.1-3.4,11c-0.2,3.4-4.2,3.7-6.7,2.8
		C44.6,346,47.3,340.1,50.1,335.3z"/>
	<path class="st1" d="M71.3,363.4c2.7-2.4,8,0,6.8,3.9c-1.6,6,0.4,12.4-1.7,18.3c-2.2,1-4.5,0.3-6.5-0.7
		C69.9,377.8,69,370.3,71.3,363.4z"/>
	<path class="st1" d="M100,388.1c6.4-2.2,6.6,6.8,9.1,10.6c3.1,4.8-6.3,7.3-7.3,2.3C100.5,397,95.5,391.5,100,388.1z"/>
	<path class="st1" d="M144,409.1c1.9-0.5,4.3-1.9,6.1-0.6c1.3,3.6,2.5,7.3,4.5,10.6c1.6,3.3-1.1,7.2-4.9,6
		C146.5,420.7,143.1,415,144,409.1z"/>
	<path class="st1" d="M199,420c5.6,0.6,8.6,7.4,13.1,10.6c4,2.3,1.4,9.2-3.2,7.4c-4.7-4.1-9-8.6-13.2-13.1
		C194.7,422.4,196.7,420.4,199,420z"/>
	<path class="st1" d="M258.3,427.5c4.2-2.4,7.5,2.5,9.8,5.4C266.6,442.1,251.6,432.9,258.3,427.5z"/>
</g>
<g>
	<path class="st3" d="M120.9,0c3.1,0.4,6.6,0.5,8.9,3c7.3,6.9,13.8,14.9,22.2,20.5l0,0.5c1.7,10.1,1.3,20.3,1.7,30.4
		c-7.9-4.2-15.5-8.8-22.8-13.9c-0.4-13.9-4.7-27.1-9.9-39.8L120.9,0z"/>
	<g>
		<path class="st3" d="M390,21.4c0.3-0.1,0.8-0.5,1.1-0.6l0.5-0.3c-9.5-5.3-16.6-14.4-26.5-19.2c-0.3,0.2-1,0.5-1.3,0.6
			c0.7,8.3,3.3,16.4,4.3,24.7c0.5,2.2,0.3,5.1,2.3,6.6c7.7,6.5,15.1,13.3,22.6,20C393.2,42.6,391.5,31.9,390,21.4z M377.3,29.4
			c-0.6-4.3-6.5-9.7-2.4-13.4c6.2-2.3,8.4,6.5,9.2,11C385.4,31.3,378.2,34.3,377.3,29.4z"/>
		<path class="st4" d="M377.3,29.4c-0.6-4.3-6.5-9.7-2.4-13.4c6.2-2.3,8.4,6.5,9.2,11C385.4,31.3,378.2,34.3,377.3,29.4z"/>
	</g>
	<g>
		<path class="st3" d="M350.6,4.6C345.1,10,340,15.7,334,20.5c3.9,8.4,6.1,17.6,7.1,26.8c7-4.1,13.9-8.7,19.6-14.6
			C359,22.9,355.4,13.3,350.6,4.6z M346.2,30.7c-0.7-4.1-2.1-8.4-1.3-12.6c7.5-3.2,8.4,5.7,8.7,10.9C354.7,33.4,347.2,35,346.2,30.7
			z"/>
		<path class="st4" d="M346.2,30.7c-0.7-4.1-2.1-8.4-1.3-12.6c7.5-3.2,8.4,5.7,8.7,10.9C354.7,33.4,347.2,35,346.2,30.7z"/>
	</g>
	<g>
		<path class="st3" d="M235.7,6c-7.3,0.9-16.3,0-21.5,6.2l0.2,0.5c3.4,11.7,6.6,23.5,8.6,35.6c7.2-6.4,13.1-14.2,18.2-22.4
			C239.1,19.3,237.1,12.7,235.7,6z M229.8,27.6c-3.8-0.9-5.9-8-2.8-10.6C233.4,13.8,237.6,27.9,229.8,27.6z"/>
		<path class="st4" d="M229.8,27.6c-3.8-0.9-5.9-8-2.8-10.6C233.4,13.8,237.6,27.9,229.8,27.6z"/>
	</g>
	<g>
		<path class="st3" d="M272.3,19.4c-2.8-4.3-5.1-10.1-10.7-11.3c-4.9-1.2-10-1.9-15.1-2.1c2.8,12.1,4.6,24.4,6.7,36.6
			c6.8,8.1,15.3,14.9,24.8,19.6C276.5,47.9,274.9,33.5,272.3,19.4z M259.9,25.1c1.2-2,3.8-4.1,6.1-2.3c2.7,3.3,4,7.8,3.8,12.1
			C263.3,39.1,260.5,30.1,259.9,25.1z"/>
		<path class="st4" d="M269.9,34.9c-6.6,4.2-9.4-4.8-10-9.8c1.2-2,3.8-4.1,6.1-2.3C268.7,26.1,270,30.6,269.9,34.9z"/>
	</g>
	<path class="st3" d="M91.4,21.1c5.3-5.6,11.8-9.7,17.7-14.5c9.4,8.4,16,19.5,19.1,31.7c-4.1-3.1-7.7-6.8-11.8-9.9
		c-7,6.8-14.6,12.9-21.7,19.5c-1.2,1-2.5,2.7-4.2,1.6c-8.2-3.2-17-4-25.1-7.3c6.7-6.1,14.2-11.4,20.8-17.7l0.4,0.1
		c3.8,1,7.6,2.1,11.4,3.4C95.9,25.5,93.7,23.3,91.4,21.1z"/>
	<g>
		<path class="st3" d="M188.8,34.7c7.9-1.8,13.9-7.4,19.3-13.1c4.6,9.7,8.2,19.9,10.5,30.4c-5.6,5.3-12.9,9.7-20.6,11.2
			C195.7,53.5,193.9,43.4,188.8,34.7z"/>
		<path class="st4" d="M205.4,51.2c-1.4-4.5-4.2-13.1,3.2-13.2c3.6,3.2,3.1,8.6,4.3,13C213.5,55.5,205.6,55.5,205.4,51.2z"/>
	</g>
	<g>
		<path class="st3" d="M330.6,23.5c-6.5,4.1-12.8,9.4-20.6,10.7l0.2,0.4c3.2,7.9,5.1,16.2,7.6,24.3c7.4-2.6,14.4-6.1,21.1-10.2
			C336.3,40.3,333.7,31.8,330.6,23.5z M326.7,49.1c-1.5-3.9-2.1-8.1-2.9-12.2c-1-3.8,5.5-5.1,6.8-1.8c1.7,3.6,2.9,7.6,2.9,11.6
			C332.3,49.4,329.2,49.1,326.7,49.1z"/>
		<path class="st4" d="M333.5,46.7c-1.2,2.7-4.4,2.4-6.8,2.4c-1.5-3.9-2.1-8.1-2.9-12.2c-1-3.8,5.5-5.1,6.8-1.8
			C332.3,38.7,333.5,42.7,333.5,46.7z"/>
	</g>
	<g>
		<path class="st3" d="M419,43.8c-8.5-6.6-16.2-14.1-25.2-20c1.2,10.7,3.2,21.3,4.1,32.1c0,2.6,2.5,4.1,4.2,5.8
			c6.5,5.3,12.4,11.2,18.7,16.7C421.3,66.8,420.7,55.2,419,43.8z M406.9,59.7c-1.9-4.7-3.5-9.7-3.2-14.8c2-1.4,4.4-1.8,6.7-0.7
			c1.1,4.3,2.4,8.5,3,12.9C413.9,60.5,408.5,63,406.9,59.7z"/>
		<path class="st4" d="M406.9,59.7c-1.9-4.7-3.5-9.7-3.2-14.8c2-1.4,4.4-1.8,6.7-0.7c1.1,4.3,2.4,8.5,3,12.9
			C413.9,60.5,408.5,63,406.9,59.7z"/>
	</g>
	<g>
		<path class="st3" d="M183.7,36.1c-9.7-0.1-18.8-3.4-27-8.4c5.4,9.5,7.2,20.4,8,31.2c7.1,2.4,14.4,4.8,22,5.3
			C187.2,54.7,185.8,45.3,183.7,36.1z M171,55.7c-0.9-3.5-2.1-7-2.4-10.7C177.6,37.6,182.6,60.3,171,55.7z"/>
		<path class="st4" d="M171,55.7c-0.9-3.5-2.1-7-2.4-10.7C177.6,37.6,182.6,60.3,171,55.7z"/>
	</g>
	<g>
		<path class="st3" d="M305.1,35.7c-9.1,0.6-18.3-2-25.4-7.9c3.7,12.1,6.8,24.4,8.5,36.9c7.1,0.8,14.1-1,20.9-2.8
			C308.5,53.1,307.1,44.3,305.1,35.7z M303.6,56.8c-2.2,1.1-4.6,1.4-6.8,0c-0.5-4.8-1.8-9.9,0.1-14.5
			C306.2,39.5,303.7,51.3,303.6,56.8z"/>
		<path class="st4" d="M303.6,56.8c-2.2,1.1-4.6,1.4-6.8,0c-0.5-4.8-1.8-9.9,0.1-14.5C306.2,39.5,303.7,51.3,303.6,56.8z"/>
	</g>
	<g>
		<path class="st3" d="M453.7,251.2c-8.9-4-20-3.9-27.3-10.8c-0.9-0.1-1.8-0.1-2.7-0.2c-3.5-16.6-8.8-32.8-15.8-48.3
			c14-26.8,29.1-53,42.8-79.9c-28.5-26.7-57.5-52.9-86.1-79.4c-15.5,13.1-32,25.4-50.9,33.2c-10.4,4.3-22.5,6.7-33.3,2.2
			c-16.8-6.8-29.3-20.9-39.5-35.3c-9.6,13.6-21,26.8-36.3,34c-9.9,4.8-21.5,4.5-31.8,0.9c-20.7-7.4-38.8-20.7-55.2-35
			c-29.2,26.2-57.6,53.3-86.8,79.5c14,25.8,28,51.8,42.1,77.6c1.2,1.7,0.7,3.7-0.1,5.4c-10.8,23.8-16.9,49.8-18,75.9
			c-0.4,26.3,5.9,53.6,22,74.9c15.3,21.1,37.9,35.7,61.8,45.4c32.8,13,68.1,18.9,103.1,20.7c42.5-2.8,86-10.4,123.7-31.4
			c17.9-10.4,34-24.5,44.8-42.2c15.4-24.6,19-54.9,15.7-83.3c1.2,0,2.4-0.1,3.7-0.1c0.8,4.2,1.2,8.4,1.4,12.7
			c8.7,2.5,17.1,5.8,26,7.7C456.3,267.3,455.5,259.1,453.7,251.2z M377.9,56.8c21.3,17.4,43.1,34.1,64.5,51.4c1.2,1.1,3.5,2.5,2,4.3
			c-8.2,13.5-15.6,27.4-23.9,40.8c-2.9-3.1-1.1-7.6-0.6-11.3c1.4-8.2,4-16.2,6.9-24c0.7-2.7,2.8-6,0.3-8.4
			c-16.9-18.4-35.3-35.5-51.9-54.1C375.9,55.8,377.3,56.4,377.9,56.8z M121,376.9c-24.1-13.7-42.1-37.2-49.4-64
			c-7.5-9.1-9.5-21-12.5-32c-1.8-30.1,7.9-59.5,19.9-86.7c1-3.1,3.7-5.8,3-9.2c-4.9-8.1-10.7-15.6-15.4-23.8c-0.4,0-1.1,0-1.5,0.1
			c-0.9-5.1-4.1-9.3-7.6-12.9c-6.5-11.9-15.1-22.5-21.4-34.5c6.4-5.6,12.1-12,18.1-18.1c0.8,0.2,1.5,0.3,2.3,0.5
			c3.1-8.8,13.3-13.3,18.9-20.6c14-12.1,26.7-24.9,40.5-37.2c15.8,14,33.4,26.5,52.8,34.9c18.6,7.4,38.6,2.8,57-2.9
			c-0.7,4.7-5,7.4-8.3,10.3c-12.6,8.9-29.3,12.7-44.2,7.8c-19.5-6.3-35.4-19.9-51.5-31.8C108.5,62.2,98.7,74,86.6,81.7
			c-10.9,9-22.2,17.3-33,26.4c-0.9,3.3,1.6,6.2,2.7,9.1c8.2,16.3,18.9,31,28.7,46.4c5,5.9,7.8,13.4,13.6,18.6
			c-14,19.3-18.7,43.3-23.5,66.2c-1.7,8.8-2.2,18.2-3.8,26.7c5.2,31,24.3,58.4,49.4,77c29.3,23.2,64.9,36.9,100.6,46.7
			C186.8,400.3,151,394.7,121,376.9z M401,274.9c-1.4,25.1-17.4,46.5-34.7,63.5c-33.9,31.8-81.1,44.6-126.6,47.4
			c-34-2.7-68.3-10.5-98-27.9c-21.1-12.4-39.2-30.2-51.3-51.6c-5.9-10.4-8.7-22.2-10.2-34l-1,0.7c-0.4-6.4-0.2-12.7-0.1-19.1
			c0.3,0.6,0.9,1.8,1.2,2.4c2.5-25.7,11.3-50.5,24.5-72.5c0.7-1.3-0.4-2.6-0.9-3.8c-14.6-23.5-29.6-46.7-44-70.3
			c21.3-15.9,42.2-32.3,63.4-48.3c15.8,16.7,34.3,32.3,56.5,39.7c18.6,6.3,38-4,50.5-17.5c4.3-3.5,7.2-8.4,10.9-12.5
			c11,14.7,25.8,29,44.8,31.7c12,1.3,23.7-3.6,33.9-9.5c14.9-8.3,27.5-19.8,39.3-31.8c19.4,15.3,39.2,29.9,58.6,45.2
			c-1.7,1.8-3.5,3.6-5.2,5.3c-16.9-12.8-33.9-25.7-50.5-39c-21.1,17.2-42.4,35.5-68.3,45c-12.2,4.7-26.1,1.2-36.1-6.7
			c-6.9-5.1-11.8-12.4-16.6-19.4c-8.9,14.9-23.8,29.2-42.3,28.2c-14.4-1.4-27.1-9.4-39.1-16.9c-13.5-9.3-26.9-19-38.9-30.4
			c-17.1,12.9-34,26.2-51,39.3c14.7,21.5,28.5,43.7,41.5,66.3c1.8,4,5.8,8.6,2.7,13c-14.3,26.6-26,56.9-21.1,87.6
			c4.3,29.9,27.8,53.1,53.6,66.4c28.1,14.9,59.4,22.3,90.6,27.3c5.3,1.2,10.5-0.5,15.8-1.3c22.3-3.7,44.3-9.4,65.3-17.6
			c0.5,0.1,1.4,0.4,1.9,0.5c0.4-2.4,3.4-2.7,5.1-3.8c26.9-11.7,52.6-31.6,61.6-60.6c10.2-33.9-2.5-69.2-18.7-99
			c-3-3.9,0.8-8,2.3-11.6c12.6-21.7,25.5-43.4,40.1-63.8c4.4-1.2,7.2-11,11.7-5.6c-15,24.4-30.7,48.4-45.5,73
			c14.4,24.1,24.5,51.5,25.2,79.8l-2-0.3C396.4,266.4,398.7,271,401,274.9z M349.8,189c18.9,27.7,30.3,62.1,24.4,95.7
			c-1,4.2-1.8,8.8-3.3,13.1c-1.5,4.3-3.5,8.2-7.1,11.1c-6.2,8.1-13.1,15.8-20.9,22.3c-18.9,13.8-42,20.4-65.1,23l-0.2,0.1
			c0,0,0,0,0,0c-6.7,2.3-13.5,4.6-20.4,6.4c-0.8,0.2-1.5,0.4-2.3,0.6c-0.8,0.2-1.6,0.4-2.4,0.6c-0.8,0.2-1.5,0.3-2.3,0.5
			c-0.8,0.2-1.6,0.3-2.4,0.5c-1.3,0.2-2.7,0.5-4,0.6c-1,0.1-2,0.3-3.1,0.4c-19.4-1.5-38.1-7-55.5-15.3
			c-17.5-8.3-33.7-19.3-48.3-31.8c-17.2-12.5-28.1-33.2-28.1-54.4c0-3.1,0.2-6.3,0.7-9.4c0.2-6.6,1.6-13.1,3.4-19.4
			c1.8-6.4,4.2-12.6,6.4-18.8c2.6-5.2,5.5-10.3,8.4-15.3c0.4-0.6,0.7-1.3,1.1-1.9c0.7-1.3,1.4-2.5,2.1-3.8c1.8-3.2,3.5-6.3,5.1-9.5
			c0,0,0,0,0,0c-9.7-15.6-20.8-30.1-30.8-45.5c-0.2-0.5-0.2-0.9-0.2-1.4c0-2.2,1.5-4.2,2.9-5.8c4.6-4.7,8.8-9.6,13-14.6
			c4.2-5,8.2-10.1,12.5-15.1c0.4-0.4,0.8-1,1.3-1.5c0-0.1,0.1-0.1,0.2-0.2c0.5-0.4,1-0.7,1.7-0.6c0,0,0,0,0,0
			c12,10.9,24.1,22.5,38,31.1c1.3,0.8,2.6,1.6,4,2.4c2.7,1.5,5.5,2.9,8.3,4.2c1.4,0.6,2.9,1.2,4.3,1.8c2.2,0.8,4.4,1.6,6.7,2.2
			c11.6,3.1,21.8-4.5,29.9-11.8c4.7-4,9.7-7.5,13.9-12c0,0,0,0,0,0c0,0,0,0,0,0c0.4,0.5,0.8,1.1,1.3,1.8c0.2,0.2,0.3,0.4,0.5,0.6
			c0.1,0.1,0.2,0.3,0.4,0.4c0.1,0.1,0.1,0.1,0.2,0.2c0.2,0.2,0.3,0.3,0.5,0.5c0.2,0.1,0.3,0.2,0.5,0.3c0.2,0.1,0.5,0.1,0.7,0.1
			c0.1,0,0.3-0.1,0.4-0.2c0.2-0.1,0.4-0.4,0.6-0.7c0.1-0.2,0.2-0.4,0.3-0.7c0,0,0,0,0,0c0,0,0,0,0,0c1.4,1,2.8,1.9,4.3,2.8
			c0,0,0,0,0.1,0l-0.1,0l-0.3,0.1c12.2,9.5,28.2,14.4,43.7,12.3c21-12.1,40.2-27.2,58.8-42.9c1.6-0.5,3.2,0,4.8,0.1
			c1.9-2,3.6-4.1,5.5-6.1c12.5,10.6,24.7,21.8,36.4,33.2c-1.6-0.3-3.1-0.7-4.6-1.1c0,0,0,0,0,0c0,0,0,0,0,0
			c-3.8,5.6-7.6,11.3-11.5,16.9c-1.9,2.8-3.8,5.6-5.8,8.4c-9.7,13.9-19.8,27.6-30.6,40.8c0,0,0,0,0,0
			C347.6,185.9,348.8,187.5,349.8,189z M428.9,252.4c-2.9,1.2-5.4-3.4-1.7-4.1c0.2-0.6,0.4-1.9,0.6-2.6
			C428.9,247.7,429,250.1,428.9,252.4z"/>
		<path class="st4" d="M444.4,112.5c-8.2,13.5-15.6,27.4-23.9,40.8c-2.9-3.1-1.1-7.6-0.6-11.3c1.4-8.2,4-16.2,6.9-24
			c0.7-2.7,2.8-6,0.3-8.4c-16.9-18.4-35.3-35.5-51.9-54.1c0.7,0.3,2,0.9,2.6,1.3c21.3,17.4,43.1,34.1,64.5,51.4
			C443.6,109.3,445.9,110.7,444.4,112.5z"/>
		<path class="st4" d="M363.8,308.9c-6.2,8.1-13.1,15.8-20.9,22.3c-18.9,13.8-42,20.4-65.1,23l-0.2,0.1c0,0,0-0.1,0-0.1
			c-11.1,0.2-22.4,2.5-33.4-0.4c0,0,0-0.1,0-0.1c3.9-2.5,8.3-3.7,12.7-4.7c4.4-1,8.9-1.9,13.1-3.9c21.3-7,41.8-17.3,58.7-32.2
			c17.9-15.9,28-39.6,28-63.4c0-4.8-0.4-9.7-1.3-14.5c-0.5-14.1-7.1-26.8-9.9-40.3c0,0,0,0,0,0c8.3,7.5,13.5,17.1,17.3,27.4
			c3.8,10.3,6,21.4,8.3,31.9C373.5,272.3,374.6,292.7,363.8,308.9z"/>
		<path class="st4" d="M400.3,119.1c-1.6-0.3-3.1-0.7-4.6-1.1c0,0,0,0,0,0c0,0,0,0,0,0c-8-2-15.8-4-23.8-6.1
			c-4.6-1.7-7.4,3.4-10.7,5.5c-14.5,10.7-29.2,21.4-46.1,28.1c-7.3,3.4-15.4,4.9-23.4,4.9c-2.9,0-5.8-0.2-8.6-0.6
			c-10.5-2.7-19.7-9.3-26.9-17.2c-2.4-2.7-5.5-5-6.5-8.6c0.2-0.4,0.3-0.7,0.5-1.1l1-0.4c12.2,9.5,28.2,14.4,43.7,12.3
			c21-12.1,40.2-27.2,58.8-42.9c1.6-0.5,3.2,0,4.8,0.1c1.9-2,3.6-4.1,5.5-6.1C376.4,96.5,388.6,107.6,400.3,119.1z"/>
		<path class="st4" d="M221.2,398.8c-34.4,1.5-70.2-4-100.2-21.9c-24.1-13.7-42.1-37.2-49.4-64c-2.2-8.5-3-17.2-3.3-25.9
			c0.2-4-0.7-9,2.9-11.8c5.2,31,24.3,58.4,49.4,77C149.9,375.3,185.5,389,221.2,398.8z"/>
	</g>
	<g>
		<path class="st3" d="M422.7,47.1c-0.2,10.9,2.5,21.9-0.1,32.8c6.2,5.8,12,12,18.7,17.3c3.4-9.6,4.7-19.7,5-29.8l0-0.2
			C438.4,60.6,430.7,53.7,422.7,47.1z M433,79.9c-0.2-5-3.2-10.1-1-15c1.8-0.3,3.7-0.3,5.6,0c1.8,5,2.9,10.4,2.9,15.8
			C439.7,84.4,433.1,83.7,433,79.9z"/>
		<path class="st4" d="M440.5,80.7c-0.8,3.7-7.4,3-7.5-0.8c-0.2-5-3.2-10.1-1-15c1.8-0.3,3.7-0.3,5.6,0
			C439.4,70,440.4,75.3,440.5,80.7z"/>
	</g>
	<path class="st3" d="M55.7,49.9c2.2-2.5,5.7-0.8,8.6-1.4C73.1,49.4,82,50,90.9,51c-7.4,6.7-14.6,13.8-22.4,20
		c-10.8-0.3-21.8-1.8-32.4-4.1C42.5,61.1,49.5,56,55.7,49.9z"/>
	<path class="st3" d="M30.7,71.8c1.2-1.1,2.8-0.5,4.1-0.2c9.3,2.2,18.8,2.9,28.2,4.4c-6.7,6.5-13.6,12.8-20.4,19.1
		c-10.4-1.1-20.5-4-30.6-6.4C18.5,83.3,24.1,77.1,30.7,71.8z"/>
	<g>
		<path class="st3" d="M464.1,83.3c-4.6,7.4-10.7,13.6-16.8,19.7c2.2,3.5,6.4,6,7.5,9.9c-2.2,6.5-6.1,12.3-9.2,18.5
			c14.5-6.5,25.2-18.6,34.8-30.9C475.4,94.4,470,88.6,464.1,83.3z M456.1,104.8c1.5-3.1,0-7.3,2.9-9.7c5.2-1.6,6.8,3.9,5.8,7.9
			C465.3,107.7,456.9,109.3,456.1,104.8z"/>
		<path class="st4" d="M464.8,103c0.5,4.7-7.9,6.3-8.7,1.8c1.5-3.1,0-7.3,2.9-9.7C464.1,93.5,465.7,99,464.8,103z"/>
	</g>
	<path class="st3" d="M0.9,101.9c2.7-4.2,6.1-8.1,10-11.2c8.6,4.3,18.2,5.8,27.4,8.4c-3.7,4.5-8.2,8.2-11.6,13
		c1.2,2.7,2.4,5.3,3.5,8.1c-9.2-1.5-17.7-6-26.8-7.8L3,112.2C1.9,109-1.6,105.4,0.9,101.9z"/>
	<path class="st3" d="M10.6,125.7c7.3,0.2,14.6,0,21.9,0.5c2,0,2.4,2.3,3.3,3.6c3.2,6.7,7.3,12.9,10.3,19.7
		c-6.3-0.9-12.7-0.3-18.9-1.1c-1.7-0.4-3.5-0.3-5.2-0.1C17.9,141,13.7,133.6,10.6,125.7z"/>
	<path class="st3" d="M441.9,138.8c8.5-0.3,16.9-1.5,25-4.2c-3.4,8.9-8.6,17-12.4,25.8l-0.5,0c-8.5,0.7-16.9,2.2-25.4,2
		C433.2,154.6,437.2,146.5,441.9,138.8z"/>
	<path class="st3" d="M27.4,158.7c7.9-0.3,15.9-0.1,23.8-0.2c4.2,7,8.3,14.1,12,21.4c-8.3,0.3-16.7-0.5-25,0.5l-0.3,0
		C34.8,173.1,30.5,166.1,27.4,158.7z"/>
	<path class="st3" d="M424.7,170.2c7.7,1.2,15.5,0.6,23.2,1.5c-2.7,7.6-7.6,14.2-10.4,21.8l-0.6,0c-8.2-0.3-16.3-1.3-24.5-1.6
		C416.7,184.7,420.2,177.1,424.7,170.2z"/>
	<path class="st3" d="M40.8,185c8.3,0.1,16.5-0.3,24.8-1c1.6,2.6,3.3,5.1,4.3,8c-1.3,4.8-3.8,9.3-5.3,14.1c-7.6,0.4-15.2,0.7-22.7,1
		c1.2-4.5,6-9.3,2.9-14C43.3,190.4,41.9,187.8,40.8,185z"/>
	<path class="st3" d="M414.9,199.7c8.3,0.8,16,4.5,24.3,4.9l0.4,0c3.1,8.8,6.6,17.8,8.4,26.6c-8.5-1.1-16.2-5.3-24.7-6.7
		C421.1,216,418.1,207.8,414.9,199.7z"/>
	<path class="st3" d="M31,240.2c2-8.6,4.9-16.9,7.5-25.4c0.1,0.4,0.3,1.1,0.4,1.5c7.4-0.4,14.8-1.7,22.2-1.4
		c-1.5,7.5-4.2,14.6-5.6,22.1C47.3,238.2,39.1,238.8,31,240.2z"/>
	<g>
		<path class="st3" d="M27.4,257.4l-0.6,0.1c-0.4,10.6-3.4,21.1-1.9,31.7c7.6-7,15-14.9,25.3-18c1.7-7.7,1.5-15.9,3.3-23.6
			C44.2,249.1,36.1,254.4,27.4,257.4z M45.7,266.9c-4.4,1.2-8,5.6-12.8,4.8c-4.3-6.2,4.3-9.8,8.9-11.6
			C45.9,258,50.4,265.1,45.7,266.9z"/>
		<path class="st4" d="M45.7,266.9c-4.4,1.2-8,5.6-12.8,4.8c-4.3-6.2,4.3-9.8,8.9-11.6C45.9,258,50.4,265.1,45.7,266.9z"/>
	</g>
	<g>
		<path class="st3" d="M51.5,295.1c-1-6.5-0.7-13.1-0.8-19.6c-9.9,4.3-17.6,12.2-23.8,20.9c-0.7,1-1.4,2.1-2,3.2
			c-0.3,11.7,2.8,23.2,5.4,34.5c5.5-10.9,11.3-21.9,20-30.6C53,301.4,51.7,297.9,51.5,295.1z M48.3,297.5c-2.1,3.6-4.8,7-6,11.1
			c-0.8,4.4-8.3,2.6-7.5-1.6c1.5-5.5,4.9-10.4,8.3-15C46.3,290.2,50.5,294.4,48.3,297.5z"/>
		<path class="st4" d="M48.3,297.5c-2.1,3.6-4.8,7-6,11.1c-0.8,4.4-8.3,2.6-7.5-1.6c1.5-5.5,4.9-10.4,8.3-15
			C46.3,290.2,50.5,294.4,48.3,297.5z"/>
	</g>
	<path class="st3" d="M431.6,275.7c8.7,1.9,17.3,4.1,26,6.4c0.3,7.6,0.7,15.3-0.6,22.9c-9-2.3-18.1-3.9-26.9-6.7
		C431.4,290.8,431.4,283.2,431.6,275.7z"/>
	<path class="st3" d="M429.9,301.8c9.1,1.6,18,4.2,27,6.1c-0.9,7.2-2,14.4-4,21.5c-9.6-1.3-18.8-4.3-28.4-5.7
		C426.8,316.5,428.6,309.2,429.9,301.8z"/>
	<g>
		<path class="st3" d="M55.2,314.6c-10.6,7.9-13.5,21.9-19.9,32.8c4.2,8.5,8.3,17.1,14.1,24.7c5.5-11.2,9.7-22.9,15.3-34
			C60.3,330.8,57.1,322.9,55.2,314.6z M53.5,348.9c-0.2,3.4-4.2,3.7-6.7,2.8c-2.2-5.6,0.5-11.5,3.3-16.4c1.5-3.5,8.3-1.2,6.8,2.6
			C55.6,341.5,53.7,345,53.5,348.9z"/>
		<path class="st4" d="M56.9,337.9c-1.3,3.6-3.2,7.1-3.4,11c-0.2,3.4-4.2,3.7-6.7,2.8c-2.2-5.6,0.5-11.5,3.3-16.4
			C51.6,331.8,58.4,334.1,56.9,337.9z"/>
	</g>
	<path class="st3" d="M421.1,331.1c9.5,2.4,19,4.9,28.2,8.4c-1.6,7.5-5.5,14.2-8.9,21c-10-4-20.6-6.6-31-9.1
		C412.9,344.5,418.4,338.6,421.1,331.1z"/>
	<g>
		<path class="st3" d="M80.7,359c-5.3-5.4-9.7-11.5-14.4-17.4c-4,13-8.4,26.2-8.8,39.9c6.4,7.8,13.9,15.2,22.6,20.4
			c0.6-5.7,0-11.4,0.5-17.1c0.2-6.8,1.4-13.5,3-20.1C84.7,362.2,82.1,360.6,80.7,359z M78.1,367.3c-1.6,6,0.4,12.4-1.7,18.3
			c-2.2,1-4.5,0.3-6.5-0.7c-0.1-7.1-0.9-14.6,1.4-21.5C74,361.1,79.4,363.5,78.1,367.3z"/>
		<path class="st4" d="M78.1,367.3c-1.6,6,0.4,12.4-1.7,18.3c-2.2,1-4.5,0.3-6.5-0.7c-0.1-7.1-0.9-14.6,1.4-21.5
			C74,361.1,79.4,363.5,78.1,367.3z"/>
	</g>
	<path class="st3" d="M404.5,355.7c1.4-1.3,2.8-3.9,5-2.6c9.4,3.5,18.6,7.9,27.4,12.7c-3.9,6.5-8.8,12.2-13.6,17.9
		c-10.4-6.8-22.5-10.3-34.5-12.9C394.3,366,400,361.5,404.5,355.7z"/>
	<path class="st3" d="M320,354.2c0.1,0.1,0.2,0.2,0.3,0.3C320.2,354.5,320.1,354.3,320,354.2z"/>
	<g>
		<path class="st3" d="M111.4,383.2c-8-4.8-15.4-10.5-22.7-16.4c-1.2,15.5,2.8,30.6,6.7,45.5l0.1,0.4c10.1,4.9,20,10.4,30.7,14.2
			C119.6,412.9,113.1,398.6,111.4,383.2z M101.8,400.9c-1.3-4-6.2-9.4-1.7-12.9c6.4-2.2,6.6,6.8,9.1,10.6
			C112.2,403.4,102.8,406,101.8,400.9z"/>
		<path class="st4" d="M101.8,400.9c-1.3-4-6.2-9.4-1.7-12.9c6.4-2.2,6.6,6.8,9.1,10.6C112.2,403.4,102.8,406,101.8,400.9z"/>
	</g>
	<path class="st3" d="M380.8,376.9c1.6-1.1,3.5-2.9,5.6-1.8c10.8,4,21.7,8.1,31.7,13.8c-5.7,5.4-11.8,10.3-18.2,15
		c-13.2-4.9-26.6-9.2-39.8-14C367,385.6,374.2,381.8,380.8,376.9z"/>
	<g>
		<path class="st3" d="M161.2,406.4c-12.8-4.8-25.5-10-37.8-15.9c7.3,16.9,21.4,29.5,30.6,45.3c9.8,2.8,19.8,5.3,29.9,6.4
			C175.3,430.9,169.4,417.9,161.2,406.4z M149.8,425.2c-3.4-4.5-6.7-10.2-5.8-16.1c1.9-0.5,4.3-1.9,6.1-0.6
			c1.3,3.6,2.5,7.3,4.5,10.6C156.3,422.5,153.6,426.4,149.8,425.2z"/>
		<path class="st4" d="M149.8,425.2c-3.4-4.5-6.7-10.2-5.8-16.1c1.9-0.5,4.3-1.9,6.1-0.6c1.3,3.6,2.5,7.3,4.5,10.6
			C156.3,422.5,153.6,426.4,149.8,425.2z"/>
	</g>
	<path class="st3" d="M317.1,407.7c10.1-3.2,19.9-7.2,29.7-11.1c13.1,4.5,25,12.2,38.2,16.7c-8.9,5.1-18.2,9.4-27.8,13.1
		C344.6,418.8,330.3,414.2,317.1,407.7z"/>
	<g>
		<path class="st3" d="M211.6,418.1c-2.8-2.9-7.2-2.2-10.9-2.9c-10.3-1-20.2-4.5-30.5-5.9c10.9,13.2,25.7,22.7,35.7,36.7
			c11.3,1.3,22.7,2.8,34.1,3.1C231.3,438.2,221.5,428.1,211.6,418.1z M208.9,438c-4.7-4.1-9-8.6-13.2-13.1c-0.9-2.5,1-4.5,3.3-4.8
			c5.6,0.6,8.6,7.4,13.1,10.6C216.1,432.9,213.5,439.8,208.9,438z"/>
		<path class="st4" d="M208.9,438c-4.7-4.1-9-8.6-13.2-13.1c-0.9-2.5,1-4.5,3.3-4.8c5.6,0.6,8.6,7.4,13.1,10.6
			C216.1,432.9,213.5,439.8,208.9,438z"/>
	</g>
	<path class="st3" d="M275.1,416.4c12.1-0.7,23.7-4.3,35.5-6.5c13.5,5.8,26.7,12.3,39.9,18.7c-10.4,4.3-21.5,7-32.4,9.9
		C304,430.8,288.5,425.4,275.1,416.4z"/>
	<g>
		<path class="st3" d="M268.6,419c-3.1-2.4-7.3-1-10.9-1.2c-9.5,0.7-18.9-1.5-28.4-0.7c11.5,11.2,25.3,19.6,38.5,28.6
			c0.1,0.2,0.4,0.6,0.5,0.8l0.2,0.5c13.8-2.1,27.8-3.7,41.4-6.9C294.9,436.4,281.4,427.9,268.6,419z M258.3,427.5
			c4.2-2.4,7.5,2.5,9.8,5.4C266.6,442.1,251.6,432.9,258.3,427.5z"/>
		<path class="st4" d="M268.1,432.9c-1.5,9.2-16.5,0-9.8-5.4C262.5,425.2,265.8,430.1,268.1,432.9z"/>
	</g>
</g>
<g>
	<path class="st0" d="M354.3,1.5c2.8-1.4,6-1,9-0.2C360.4,2.8,357.2,2.3,354.3,1.5z"/>
	<path class="st0" d="M427.8,245.7c1.1,2,1.2,4.4,1.1,6.7c-2.9,1.2-5.4-3.4-1.7-4.1C427.4,247.6,427.7,246.4,427.8,245.7z"/>
	<path class="st0" d="M25,289.4c0.7,2.3,1.3,4.6,1.9,6.9c-0.7,1-1.4,2.1-2,3.2C24.6,296.2,24.2,292.8,25,289.4z"/>
	<path class="st0" d="M262.7,446.3c1.7-0.4,3.5-0.5,5.2-0.5c0.1,0.2,0.4,0.6,0.5,0.8c-1.7,0.9-3.9,1-5.8,0.5
		C262.7,446.9,262.7,446.5,262.7,446.3z"/>
	<path class="st5" d="M242.1,266.8c3.5,7,6.3,14.4,9.2,21.7c7.8,1.8,15.8,2.4,23.6,4c-5,5.4-11.3,9.4-16.6,14.4
		c0.2,7.1,1.2,14.1,1.5,21.2c-6.7-3.5-12.3-9-18.9-12.3c-6.3,3.8-12.3,8.2-18.9,11.5c1.3-6.7,3.2-13.3,3.9-20.1
		c-5.6-5.6-12-10.3-17.7-15.9c8.2-0.7,16.3-2.3,24.5-2.3C236.3,281.8,238.7,274.1,242.1,266.8z"/>
</g>
<g>
	<path class="st2" d="M225.7,70.3c-0.7,4.7-5,7.4-8.3,10.3c-12.6,8.9-29.3,12.7-44.2,7.8c-19.5-6.3-35.4-19.9-51.5-31.8
		C108.5,62.2,98.7,74,86.6,81.7c-10.9,9-22.2,17.3-33,26.4c-0.9,3.3,1.6,6.2,2.7,9.1c8.2,16.3,18.9,31,28.7,46.4
		c5,5.9,7.8,13.4,13.6,18.6c-14,19.3-18.7,43.3-23.5,66.2c-1.7,8.8-2.2,18.2-3.8,26.7c-3.5,2.9-2.6,7.8-2.9,11.8
		c0.3,8.7,1.1,17.5,3.3,25.9c-7.5-9.1-9.5-21-12.5-32c-1.8-30.1,7.9-59.5,19.9-86.7c1-3.1,3.7-5.8,3-9.2
		c-4.9-8.1-10.7-15.6-15.4-23.8c-0.4,0-1.1,0-1.5,0.1c-0.9-5.1-4.1-9.3-7.6-12.9c-6.5-11.9-15.1-22.5-21.4-34.5
		c6.4-5.6,12.1-12,18.1-18.1c0.8,0.2,1.5,0.3,2.3,0.5c3.1-8.8,13.3-13.3,18.9-20.6c14-12.1,26.7-24.9,40.5-37.2
		c15.8,14,33.4,26.5,52.8,34.9C187.3,80.5,207.4,76,225.7,70.3z"/>
	<path class="st2" d="M353.6,91.8c1.6-0.5,3.2,0.1,4.8,0.1c-17.9,18.1-37.6,37.7-63.6,42.8C315.9,122.6,335.1,107.5,353.6,91.8z"/>
	<path class="st2" d="M395.6,118c-8-2-15.8-4-23.8-6.1c-4.6-1.7-7.4,3.4-10.7,5.5c-14.5,10.7-29.2,21.4-46.1,28.1
		c-7.3,3.4-15.4,4.9-23.4,4.9c-2.9,0-5.8-0.2-8.6-0.6c-10.5-2.7-19.7-9.3-26.9-17.2c-2.4-2.7-5.5-5-6.5-8.6c0.2-0.4,0.3-0.7,0.5-1.1
		l1-0.4l0.3-0.1c0,0,0,0,0,0c-1.4-0.9-2.9-1.8-4.3-2.8c0,0,0,0,0,0c-0.1,0.3-0.2,0.5-0.3,0.7c-0.2,0.3-0.4,0.5-0.6,0.7
		c-0.1,0.1-0.2,0.1-0.4,0.2c-0.2,0-0.5,0-0.7-0.1c-0.2-0.1-0.3-0.2-0.5-0.3c-0.2-0.1-0.4-0.3-0.5-0.5c-0.1-0.1-0.1-0.1-0.2-0.2
		c-0.1-0.1-0.2-0.3-0.4-0.4c-0.2-0.2-0.3-0.4-0.5-0.6c-0.5-0.7-0.9-1.3-1.3-1.8c0,0,0,0,0,0c0,0,0,0,0,0c-4.2,4.5-9.3,8-13.9,12
		c-8.1,7.4-18.3,14.9-29.9,11.8c-2.3-0.6-4.5-1.4-6.7-2.2c-1.5-0.5-2.9-1.1-4.3-1.8c-2.9-1.3-5.6-2.7-8.3-4.2
		c-1.4-0.8-2.7-1.5-4-2.4c-13.9-8.6-26-20.2-38-31.1c0,0,0,0,0,0c-0.7-0.1-1.2,0.2-1.7,0.6c-0.1,0-0.1,0.1-0.2,0.2
		c-0.5,0.5-0.9,1-1.3,1.5c-4.2,5-8.3,10.1-12.5,15.1c-4.2,5-8.4,10-13,14.6c-1.3,1.6-2.9,3.6-2.9,5.8c0,0.5,0.1,1,0.2,1.4
		c9.9,15.4,21.1,30,30.8,45.5c0,0,0,0,0,0c-1.6,3.2-3.3,6.3-5.1,9.5c-0.7,1.3-1.4,2.5-2.1,3.8c-0.4,0.6-0.7,1.3-1.1,1.9
		c-2.9,5.1-5.8,10.2-8.4,15.3c-2.2,6.2-4.5,12.4-6.4,18.8c-1.8,6.4-3.2,12.8-3.4,19.4c-0.5,3.1-0.7,6.3-0.7,9.4
		c0,21.2,10.9,41.9,28.1,54.4c14.6,12.5,30.8,23.6,48.3,31.8c17.5,8.3,36.1,13.8,55.5,15.3c1-0.1,2-0.2,3.1-0.4
		c1.3-0.2,2.7-0.4,4-0.6c0.8-0.2,1.6-0.3,2.4-0.5c0.8-0.2,1.6-0.3,2.3-0.5c0.8-0.2,1.6-0.4,2.4-0.6c0.8-0.2,1.5-0.4,2.3-0.6
		c6.9-1.8,13.7-4.1,20.4-6.4c0,0,0,0,0,0c0,0,0-0.1,0-0.1c-11.1,0.2-22.4,2.5-33.4-0.4c0,0,0-0.1,0-0.1c3.9-2.5,8.3-3.7,12.7-4.7
		c4.4-1,8.9-1.9,13.1-3.9c21.3-7,41.8-17.3,58.7-32.2c17.9-15.9,28-39.6,28-63.4c0-4.8-0.4-9.7-1.3-14.5
		c-0.5-14.1-7.1-26.8-9.9-40.3c0,0,0,0,0,0c8.3,7.5,13.5,17.1,17.3,27.4c3.8,10.3,6,21.4,8.3,31.9c2.5,18.4,3.6,38.8-7.2,54.9
		c3.5-2.9,5.6-6.9,7.1-11.1c1.5-4.3,2.3-8.8,3.3-13.1c5.9-33.6-5.5-68-24.4-95.7c-1-1.5-2.1-3-2-4.9c0,0,0,0,0,0
		c10.8-13.1,20.9-26.8,30.6-40.8c1.9-2.8,3.9-5.6,5.8-8.4C388,129.3,391.9,123.7,395.6,118C395.6,118.1,395.6,118.1,395.6,118
		C395.6,118,395.6,118,395.6,118z M258.3,306.9C258.3,306.9,258.3,306.9,258.3,306.9c0.2,7.1,1.2,14.1,1.5,21.1c0,0,0,0-0.1,0
		c-6.7-3.4-12.3-8.9-18.9-12.3c0,0,0,0,0,0c-6.3,3.8-12.2,8.2-18.8,11.5c0,0-0.1,0-0.1,0c1.3-6.7,3.2-13.3,3.9-20c0,0,0,0,0,0
		c-5.6-5.6-12-10.3-17.7-15.8c0,0,0,0,0-0.1c8.2-0.7,16.2-2.3,24.5-2.3c0,0,0,0,0,0c3.6-7.1,6-14.8,9.4-22c0,0,0,0,0.1,0
		c3.5,7,6.3,14.3,9.1,21.6c0,0,0,0,0,0c7.7,1.8,15.7,2.4,23.5,4c0,0,0,0,0,0C269.9,297.9,263.6,301.9,258.3,306.9z"/>
	<path class="st2" d="M193,213.2"/>
	<path class="st2" d="M79.1,253.9c0.3,0.6,0.9,1.8,1.2,2.4c-0.4,5.3-0.3,10.7,0,16l-1,0.7C78.9,266.6,79,260.2,79.1,253.9z"/>
</g>
<g>
	<path class="st6" d="M175.5,234.1c0,0.7-0.1,1.3-0.3,1.7s-0.6,0.6-1.2,0.6c-0.3,0-0.6,0-0.9-0.1c-0.3-0.1-0.6-0.2-0.9-0.4
		c-0.6-0.3-1.1-0.5-1.5-0.7c-0.4-0.2-0.6-0.5-0.8-0.8c-0.2-0.3-0.3-0.8-0.3-1.3c0-0.5-0.1-1.3-0.1-2.2c-0.2-7.3-0.4-14.6-0.6-21.8
		c-0.2-7.2-0.6-14.5-1.1-21.8c-0.3,2.5-0.7,4.9-1,7.4c-0.3,2.5-0.6,5-1,7.5c-0.3,2.7-0.7,5.4-1,8.1c-0.3,2.8-0.8,5.4-1.5,8
		c-0.3,1-0.6,1.9-1,2.4c-0.4,0.6-1,0.9-1.8,0.9c-0.6,0-1.1-0.2-1.4-0.5s-0.7-0.8-1.1-1.4c-0.3-0.5-0.7-1.5-1-2.9
		c-0.4-1.4-0.8-3.1-1.2-5c-0.4-1.9-0.8-4-1.2-6.1c-0.4-2.2-0.8-4.3-1.1-6.3c-0.3-2-0.6-3.9-0.9-5.6c-0.3-1.7-0.5-3-0.6-3.8v7.3
		c0,4.8,0.1,9.5,0.2,14.2s0.3,9.4,0.6,14.1c0.1,1,0.2,2.1,0.3,3.1c0.1,1,0.2,2.1,0.2,3.1c0,0.9-0.2,1.5-0.6,1.8s-0.9,0.4-1.4,0.4
		c-1.4,0-2.5-0.4-3.2-1.3c-0.7-0.9-1.1-2.4-1.1-4.5c0-4.3-0.1-8.6-0.2-12.9c-0.1-4.3-0.2-8.6-0.2-12.9c0-0.6,0-1.7,0-3.2
		c0-1.5,0-3.3,0.1-5.3c0-2.1,0.1-4.3,0.1-6.7s0.1-4.9,0.1-7.3c0-2.5,0.1-4.9,0.1-7.2c0-2.3,0.1-4.4,0.1-6.3c0-1.9,0.1-3.4,0.2-4.6
		c0.1-1.2,0.1-2,0.2-2.2c0.1-0.5,0.3-0.8,0.4-1c0.2-0.1,0.4-0.2,0.8-0.2c0.9,0,1.7,0.3,2.3,0.9c0.6,0.6,1,1.6,1.3,3
		c0.3,0.8,0.7,2.1,1.2,4.1s0.9,4.3,1.4,7c0.5,2.7,1,5.5,1.5,8.6c0.5,3.1,1,6,1.4,8.8c0.5,2.8,0.9,5.4,1.2,7.8
		c0.4,2.4,0.7,4.2,0.9,5.4c0.7-6.2,1.4-12.3,2.2-18.4c0.7-6.1,1.4-12.2,2.1-18.4c0.1-1,0.3-2.1,0.4-3.1c0.1-1,0.2-2,0.2-3.1
		c0-0.6-0.1-1.2-0.2-1.8c-0.1-0.6-0.2-1.1-0.2-1.7c0-0.8,0.2-1.2,0.5-1.4s0.7-0.2,1.1-0.2c0.4,0,0.9,0.1,1.4,0.3
		c0.5,0.2,1.1,0.4,1.6,0.8c0.5,0.4,0.9,0.8,1.3,1.3c0.4,0.5,0.5,1.2,0.5,1.9c0,1.3-0.1,2.6-0.2,4c0.9,6.1,1.6,12.1,2.2,18.2
		s1,12.2,1.3,18.3c0.3,5.3,0.5,10.6,0.7,15.8c0.2,5.2,0.4,10.5,0.7,15.7c0,0.3,0.1,0.6,0.1,0.9C175.5,233.5,175.5,233.8,175.5,234.1
		z"/>
	<path class="st6" d="M206.7,204.5c0,0.8-0.2,1.5-0.6,2.4c-0.4,0.8-0.8,1.4-1.2,1.8c-0.1,0.1-0.3,0.2-0.6,0.3
		c-0.3,0.1-0.6,0.2-0.9,0.3c-0.3,0.1-0.6,0.2-1,0.3c-0.3,0.1-0.5,0.2-0.7,0.2l0.9,7.9c0.3,2.5,0.5,5,0.6,7.4c0.1,2.5,0.4,5,0.9,7.4
		c0,0.2,0.1,0.4,0.1,0.6c0,0.2,0.1,0.4,0.1,0.7c0,0.5-0.1,0.8-0.3,1.1c-0.2,0.2-0.4,0.4-0.7,0.6c-0.3,0.1-0.5,0.2-0.8,0.2
		c-0.3,0-0.6,0.1-0.8,0.1h-0.5c-0.8,0-1.3-0.1-1.7-0.3c-0.4-0.2-0.7-0.5-0.9-0.9c-0.2-0.4-0.4-1-0.4-1.6c-0.1-0.7-0.2-1.5-0.3-2.4
		c-0.6-6.6-1.2-13.1-2-19.7c-1.5,0.3-3,0.6-4.6,0.8c-1.5,0.3-3.1,0.5-4.6,0.7l-1.2,10.5c0,0.6-0.1,1.5-0.2,2.6
		c-0.1,1.1-0.2,2.2-0.3,3.4c-0.1,1.2-0.2,2.2-0.4,3.2c-0.1,1-0.3,1.7-0.5,2.2c-0.1,0.4-0.3,0.7-0.4,0.9c-0.1,0.2-0.4,0.3-0.7,0.3
		c-0.4,0-0.9-0.1-1.3-0.3c-0.4-0.2-0.8-0.6-1.1-1c-0.3-0.4-0.6-0.9-0.8-1.5c-0.2-0.6-0.3-1.2-0.3-1.9c0-0.7,0.1-1.4,0.2-2.1
		c0.1-0.7,0.2-1.4,0.3-2.1c0.3-2.4,0.5-4.7,0.7-7.1c0.2-2.3,0.5-4.7,0.7-7c-0.2,0-0.4-0.1-0.6-0.2c-0.2-0.1-0.4-0.2-0.6-0.3
		c-0.2-0.1-0.4-0.3-0.5-0.5s-0.2-0.5-0.2-0.8c0-0.4,0.1-0.7,0.3-1c0.2-0.3,0.4-0.6,0.7-0.9s0.5-0.5,0.8-0.7c0.3-0.2,0.5-0.3,0.7-0.5
		c0.5-5,1-10,1.5-15c0.5-5,0.9-10,1.2-15.1c0.1-1.4,0.2-2.7,0.3-4.1c0.1-1.4,0.2-2.8,0.2-4.2c0.1-1.4,0.2-2.8,0.3-4.1
		c0.1-1.4,0.3-2.7,0.6-4.1c0.2-1.3,0.6-2.3,1.1-3.1c0.5-0.8,1.3-1.2,2.3-1.2c0.3,0,0.6,0,0.9,0.1c0.3,0.1,0.5,0.2,0.8,0.4
		c0.6,0.5,1.3,1.7,2,3.8c0.7,2.1,1.4,4.6,2.1,7.5c0.7,3,1.3,6.1,2,9.6c0.6,3.4,1.2,6.8,1.7,10c0.5,3.2,1,6.1,1.3,8.7
		c0.4,2.6,0.6,4.5,0.8,5.8c0.5-0.1,1-0.2,1.5-0.3c0.5-0.1,1-0.1,1.5-0.1c0.2,0,0.5,0,0.8,0.1c0.3,0,0.6,0.1,0.9,0.3
		c0.3,0.2,0.5,0.4,0.7,0.7C206.6,203.6,206.7,204,206.7,204.5z M195.1,204c-0.6-5.1-1.3-10.1-2.1-15.1c-0.7-5-1.6-10-2.6-15
		c-0.4,5.4-0.9,10.8-1.4,16.1c-0.5,5.3-1.1,10.7-1.7,16c1.3-0.3,2.6-0.6,3.9-0.9C192.5,204.8,193.8,204.4,195.1,204z"/>
	<path class="st6" d="M236.6,233.8c0,0.4-0.1,0.8-0.4,1.1c-0.3,0.3-0.6,0.5-1,0.7c-0.4,0.2-0.8,0.3-1.2,0.4
		c-0.4,0.1-0.7,0.1-0.9,0.1c-0.5,0-0.9-0.1-1.2-0.2c-0.3-0.1-0.7-0.3-1.1-0.7c-0.1-0.1-0.4-0.6-0.9-1.4c-0.5-0.8-1-1.9-1.7-3.1
		c-0.7-1.3-1.4-2.8-2.3-4.4c-0.8-1.6-1.7-3.3-2.6-5.1c-0.9-1.7-1.8-3.5-2.6-5.2c-0.9-1.7-1.7-3.3-2.4-4.8c-0.7-1.5-1.4-2.7-1.9-3.8
		c-0.5-1.1-0.9-1.9-1.1-2.3l-0.2,0.1c0.1,4.3,0.3,8.5,0.6,12.8c0.2,4.2,0.6,8.4,1.2,12.6c0.1,0.4,0.2,0.9,0.2,1.3
		c0.1,0.5,0.1,0.9,0.1,1.5c0,0.8-0.2,1.4-0.6,1.6c-0.4,0.2-0.8,0.3-1.2,0.3c-0.2,0-0.5,0-0.9-0.1c-0.3,0-0.7-0.1-1.1-0.2
		c-0.4-0.1-0.7-0.2-1-0.4c-0.3-0.2-0.5-0.4-0.7-0.6c-0.3-0.4-0.6-0.9-0.6-1.3c-0.1-0.5-0.2-1-0.2-1.7c-0.7-7.2-1.2-14.4-1.3-21.7
		c-0.2-7.3-0.3-14.5-0.3-21.7c0-3.2,0-6.2,0-9.3c0-3,0.1-6.1,0.1-9.3c-0.3,0-0.6-0.2-0.8-0.4c-0.3-0.2-0.5-0.6-0.7-0.9
		c-0.2-0.4-0.3-0.8-0.5-1.2c-0.1-0.4-0.2-0.8-0.2-1.2c0-0.4,0.1-0.8,0.2-1.2c0.1-0.4,0.3-0.8,0.5-1.1c0.2-0.3,0.4-0.6,0.7-0.9
		c0.2-0.3,0.5-0.5,0.7-0.7v-1c0-0.4,0-0.8,0-1.2c0-0.5,0.1-0.9,0.1-1.3c0.1-0.4,0.2-0.8,0.4-1c0.2-0.3,0.5-0.4,0.9-0.4
		c0.5,0,1,0.1,1.5,0.4c0.5,0.3,1,0.7,1.3,1.3c1.8-1.1,3.8-1.6,5.8-1.6c1.8,0,3.4,0.5,4.9,1.6c1.5,1,2.7,2.4,3.8,4.2
		c1,1.8,1.8,3.8,2.4,6.1c0.6,2.3,0.8,4.7,0.8,7.2c0,2.7-0.3,5.3-1,7.8c-0.7,2.5-1.6,4.9-2.7,7.2s-2.4,4.3-3.8,6.2
		c-1.4,1.9-2.8,3.5-4.3,4.9c2.3,4.5,4.6,8.9,7,13.3c2.4,4.4,4.8,8.8,7.3,13.1c0.1,0.3,0.4,0.6,0.7,1.1c0.3,0.5,0.6,1,0.9,1.6
		c0.3,0.6,0.6,1.2,0.8,1.7S236.6,233.5,236.6,233.8z M225.9,174.7c0-1.3-0.2-2.7-0.5-4.1c-0.3-1.4-0.8-2.7-1.4-3.9
		c-0.6-1.2-1.3-2.1-2.1-2.9c-0.8-0.8-1.7-1.1-2.7-1.1c-0.8,0-1.6,0.2-2.4,0.5c-0.8,0.3-1.6,0.8-2.3,1.3c0,5.3,0.1,10.7,0.1,16
		c0,5.3,0.1,10.7,0.2,16l0.7,0.1c1.3-1,2.5-2.3,3.8-3.9c1.2-1.6,2.4-3.3,3.3-5.3s1.8-4,2.4-6.1C225.6,179.1,225.9,176.9,225.9,174.7
		z"/>
	<path class="st6" d="M258.9,217c0,2.7-0.3,5.2-0.9,7.5s-1.4,4.4-2.5,6.2c-1.1,1.8-2.4,3.2-4,4.2c-1.5,1.1-3.3,1.6-5.1,1.6
		c-1.7,0-3.2-0.4-4.6-1.2s-2.6-1.9-3.7-3.2s-1.8-3.1-2.4-5.1c-0.6-2-0.9-4.2-0.9-6.7c0-0.5,0-1.1,0-1.9s0.1-1.5,0.2-2.2
		c0.1-0.7,0.3-1.3,0.6-1.8c0.3-0.5,0.6-0.7,1.1-0.7c0.4,0,0.8,0.1,1.3,0.3c0.5,0.2,0.9,0.5,1.3,0.9c0.4,0.4,0.8,0.9,1,1.4
		c0.3,0.6,0.4,1.2,0.4,1.8v3.1c0,2.5,0.5,4.5,1.4,6c0.9,1.6,2.2,2.3,4,2.3c1.2,0,2.3-0.4,3.2-1.2c0.9-0.8,1.6-1.9,2.1-3.2
		s1-2.7,1.2-4.3s0.4-3.2,0.4-4.7c0-3-0.4-5.9-1.3-8.8c-0.8-2.8-1.9-5.6-3.2-8.3c-1.3-2.7-2.7-5.4-4.2-8c-1.5-2.6-2.9-5.2-4.2-7.8
		c-1.3-2.6-2.3-5.2-3.2-7.7s-1.3-5.2-1.3-7.9c0-2.2,0.3-4.1,0.9-5.7c0.6-1.6,1.4-2.9,2.4-3.9s2.1-1.8,3.4-2.3
		c1.3-0.5,2.6-0.7,3.9-0.7c1.6,0,3.1,0.3,4.4,1c1.3,0.7,2.4,1.7,3.3,3s1.6,2.9,2.1,4.8c0.5,1.9,0.7,4,0.7,6.4c0,0.4,0,0.8,0,1.3
		s-0.1,1.1-0.2,1.6c-0.1,0.5-0.2,1-0.4,1.3c-0.2,0.4-0.5,0.6-0.8,0.6c-0.5,0-1-0.2-1.5-0.5c-0.4-0.3-0.8-0.6-1-0.9
		c-0.3-0.3-0.5-0.6-0.6-1s-0.3-0.8-0.3-1.3c-0.1-0.5-0.1-1-0.2-1.7c-0.1-1.3-0.3-2.5-0.5-3.5c-0.2-1-0.5-1.9-0.9-2.6
		c-0.4-0.7-0.9-1.3-1.5-1.7c-0.6-0.4-1.5-0.6-2.5-0.6c-0.7,0-1.4,0.1-2,0.3c-0.6,0.2-1.2,0.6-1.7,1.1c-0.5,0.5-0.9,1.2-1.1,2
		c-0.3,0.8-0.4,1.8-0.4,3c0,1.6,0.3,3.3,0.8,5c0.5,1.7,1.2,3.5,2,5.3c0.8,1.8,1.8,3.6,2.8,5.5c1,1.9,2.1,3.8,3.2,5.8
		c1.1,2,2.2,4.1,3.2,6.2c1,2.1,2,4.3,2.8,6.6c0.8,2.3,1.5,4.7,2,7.1C258.7,211.9,258.9,214.4,258.9,217z"/>
	<path class="st6" d="M290.8,192.2c0,1.6-0.3,2.7-0.8,3.4c-0.6,0.7-1.4,1.1-2.4,1.4c0.2,5.5,0.4,11,0.4,16.4
		c0.1,5.4,0.1,10.9,0.1,16.4c0,0.9-0.1,1.5-0.4,2c-0.2,0.5-0.7,0.7-1.3,0.7c-0.5,0-1.1-0.1-1.6-0.3c-0.5-0.2-1-0.5-1.4-0.8
		c-0.4-0.4-0.8-0.9-1-1.5s-0.4-1.4-0.4-2.3v-16.8c0-2.1,0-4.2,0-6.3c0-2.1,0-4.2-0.1-6.3c-2.1,0.4-4.2,0.8-6.3,1.1
		c-2.1,0.3-4.2,0.5-6.3,0.6c0.1,7.6,0.2,15.3,0.4,22.9c0.1,1.6,0.2,3.1,0.2,4.6s0.1,3,0.1,4.5c0,0.7-0.1,1.3-0.4,1.6
		c-0.3,0.4-0.6,0.5-1.1,0.5c-0.4,0-0.8,0-1.2-0.1c-0.4-0.1-0.8-0.2-1.2-0.5s-0.8-0.5-1.1-0.8c-0.3-0.3-0.6-0.7-0.8-1.2
		c-0.1-0.2-0.1-0.7-0.2-1.6c0-0.9-0.1-2-0.1-3.4c0-1.4-0.1-2.9-0.1-4.6s0-3.5,0-5.3s0-3.6,0-5.4c0-1.8,0-3.4,0-4.9s0-2.8,0-3.9
		c0-1.1,0-1.9,0-2.3c-0.3,0-0.6-0.1-0.9-0.3c-0.3-0.2-0.4-0.6-0.4-1.2c0-0.6,0.1-1.3,0.4-1.9s0.6-1.1,0.9-1.5v-32.4
		c0-0.7,0.1-1.3,0.3-1.7s0.5-0.6,1-0.6c0.8,0,1.5,0.2,2,0.5c0.5,0.4,0.9,0.9,1.1,1.5c0.3,0.6,0.4,1.4,0.5,2.3
		c0.1,0.9,0.1,1.8,0.2,2.8c0.1,4.4,0.1,8.7,0.1,13.1c0,4.4,0.1,8.7,0.1,13.1c2.1-0.3,4.2-0.6,6.3-0.9c2.1-0.3,4.2-0.8,6.3-1.4
		c-0.1-3.8-0.3-7.6-0.5-11.3c-0.2-3.7-0.4-7.5-0.8-11.3c-0.2-1.8-0.4-3.6-0.7-5.3s-0.4-3.6-0.4-5.4c0-0.6,0.2-1.1,0.5-1.2
		c0.3-0.2,0.7-0.3,1-0.3c0.6,0,1.2,0.1,1.8,0.4c0.6,0.3,1.1,0.8,1.5,1.5c0.2,0.5,0.5,1.4,0.7,2.9c0.2,1.5,0.5,3.2,0.7,5.3
		c0.2,2,0.4,4.2,0.6,6.6c0.2,2.4,0.4,4.6,0.5,6.8c0.1,2.2,0.3,4.1,0.4,5.9c0.1,1.7,0.2,3,0.2,3.8c0.3-0.1,0.6-0.2,0.9-0.3
		c0.3-0.1,0.6-0.1,0.9-0.1c0.6,0,1,0.3,1.3,0.8C290.7,190.7,290.8,191.4,290.8,192.2z"/>
	<path class="st6" d="M320.7,204.5c0,0.8-0.2,1.5-0.6,2.4c-0.4,0.8-0.8,1.4-1.2,1.8c-0.1,0.1-0.3,0.2-0.6,0.3
		c-0.3,0.1-0.6,0.2-0.9,0.3c-0.3,0.1-0.6,0.2-1,0.3c-0.3,0.1-0.5,0.2-0.7,0.2l0.9,7.9c0.3,2.5,0.5,5,0.6,7.4c0.1,2.5,0.4,5,0.9,7.4
		c0,0.2,0.1,0.4,0.1,0.6c0,0.2,0.1,0.4,0.1,0.7c0,0.5-0.1,0.8-0.3,1.1c-0.2,0.2-0.4,0.4-0.7,0.6s-0.5,0.2-0.8,0.2
		c-0.3,0-0.6,0.1-0.8,0.1h-0.5c-0.8,0-1.3-0.1-1.7-0.3c-0.4-0.2-0.7-0.5-0.9-0.9c-0.2-0.4-0.4-1-0.4-1.6s-0.2-1.5-0.3-2.4
		c-0.6-6.6-1.2-13.1-2-19.7c-1.5,0.3-3,0.6-4.6,0.8c-1.5,0.3-3.1,0.5-4.6,0.7l-1.2,10.5c0,0.6-0.1,1.5-0.2,2.6
		c-0.1,1.1-0.2,2.2-0.3,3.4c-0.1,1.2-0.2,2.2-0.4,3.2c-0.1,1-0.3,1.7-0.5,2.2c-0.1,0.4-0.3,0.7-0.4,0.9c-0.1,0.2-0.4,0.3-0.7,0.3
		c-0.4,0-0.9-0.1-1.3-0.3c-0.4-0.2-0.8-0.6-1.1-1c-0.3-0.4-0.6-0.9-0.8-1.5c-0.2-0.6-0.3-1.2-0.3-1.9c0-0.7,0.1-1.4,0.2-2.1
		c0.1-0.7,0.2-1.4,0.3-2.1c0.3-2.4,0.5-4.7,0.7-7.1c0.2-2.3,0.5-4.7,0.7-7c-0.2,0-0.4-0.1-0.6-0.2c-0.2-0.1-0.4-0.2-0.6-0.3
		c-0.2-0.1-0.4-0.3-0.5-0.5c-0.1-0.2-0.2-0.5-0.2-0.8c0-0.4,0.1-0.7,0.3-1c0.2-0.3,0.4-0.6,0.7-0.9c0.3-0.3,0.5-0.5,0.8-0.7
		c0.3-0.2,0.5-0.3,0.7-0.5c0.5-5,1-10,1.5-15c0.5-5,0.9-10,1.2-15.1c0.1-1.4,0.2-2.7,0.3-4.1c0.1-1.4,0.2-2.8,0.2-4.2
		c0.1-1.4,0.2-2.8,0.3-4.1c0.1-1.4,0.3-2.7,0.6-4.1c0.2-1.3,0.6-2.3,1.1-3.1c0.5-0.8,1.3-1.2,2.3-1.2c0.3,0,0.6,0,0.9,0.1
		c0.3,0.1,0.5,0.2,0.8,0.4c0.6,0.5,1.3,1.7,2,3.8c0.7,2.1,1.4,4.6,2.1,7.5c0.7,3,1.3,6.1,2,9.6c0.6,3.4,1.2,6.8,1.7,10
		c0.5,3.2,1,6.1,1.3,8.7c0.4,2.6,0.6,4.5,0.8,5.8c0.5-0.1,1-0.2,1.5-0.3c0.5-0.1,1-0.1,1.5-0.1c0.2,0,0.5,0,0.8,0.1
		c0.3,0,0.6,0.1,0.9,0.3c0.3,0.2,0.5,0.4,0.7,0.7C320.6,203.6,320.7,204,320.7,204.5z M309.2,204c-0.6-5.1-1.3-10.1-2.1-15.1
		s-1.6-10-2.6-15c-0.4,5.4-0.9,10.8-1.4,16.1c-0.5,5.3-1.1,10.7-1.7,16c1.3-0.3,2.6-0.6,3.9-0.9C306.6,204.8,307.9,204.4,309.2,204z
		"/>
	<path class="st6" d="M343.5,226.2c0,0.8-0.3,1.6-0.9,2.4c-0.6,0.8-1.4,1.4-2.3,2.1c-0.9,0.6-2,1.2-3.1,1.7c-1.1,0.5-2.3,1-3.3,1.3
		c-1.1,0.4-2.1,0.6-3,0.8c-0.9,0.2-1.6,0.3-2,0.3c-0.8,0-1.6-0.1-2.3-0.4c-0.7-0.3-1.3-0.7-1.8-1.3c-0.5-0.6-0.9-1.4-1.2-2.3
		c-0.3-0.9-0.4-2.1-0.4-3.4c0-9.6,0-19.1,0.1-28.6c0-9.5,0.1-19,0.1-28.7c0-1.5,0-3-0.1-4.5c0-1.5-0.1-3-0.1-4.5c0-0.4,0-0.8,0-1.3
		s0.1-0.9,0.2-1.3c0.1-0.4,0.2-0.8,0.4-1c0.2-0.3,0.5-0.4,0.8-0.4c0.3,0,0.7,0.1,1.1,0.2c0.4,0.1,0.7,0.4,1.1,0.6
		c0.3,0.3,0.6,0.6,0.9,1c0.3,0.4,0.4,0.9,0.6,1.4c0.1,0.6,0.2,1.3,0.2,2.1c0,0.7,0,1.5,0,2.2c0.1,9.5,0.2,19,0.3,28.4
		c0.1,9.4,0.1,18.8,0.1,28.4c0,1.1,0,2.1,0,3.2c0,1.1,0.1,2.1,0.1,3.2c0.7,0,1.5-0.2,2.4-0.5c1-0.3,1.9-0.7,2.9-1.1
		c1-0.4,1.9-1,2.7-1.5c0.9-0.6,1.5-1.2,2-1.8c0.2-0.3,0.5-0.7,0.7-1s0.6-0.5,0.9-0.5c0.3,0,0.7,0.2,1,0.5s0.7,0.7,1,1.2
		c0.3,0.5,0.5,1,0.7,1.5C343.4,225.2,343.5,225.7,343.5,226.2z"/>
</g>
</svg>
