<svg id="Layer_1" data-name="Layer 1" xmlns="http://www.w3.org/2000/svg" width="337.24mm" height="502mm" viewBox="0 0 955.95 1423"><path d="M468.71,144.24a6,6,0,0,1,8.48,0l16.7,16.7a6,6,0,0,1,0,8.5l-16.7,16.7a6,6,0,0,1-8.48,0L452,169.44a6,6,0,0,1,0-8.5Z" transform="translate(-18.5 -18.5)" style="fill:#fff;fill-opacity:0;stroke:#fff;stroke-width:3px"/><path d="M447.27,165.2H303.75a6,6,0,0,0-6,6v69.2" transform="translate(-18.5 -18.5)" style="fill:none;stroke:#fff;stroke-width:3px"/><path d="M448.72,165.53l.27,1.17h-1.76v-3H449" transform="translate(-18.5 -18.5)" style="fill:#fff"/><path d="M297.75,256.16l-4.63-14.27h9.27Z" transform="translate(-18.5 -18.5)" style="fill:#fff;stroke:#fff;stroke-width:3px"/><g id="a"><path id="F" d="M387.93,146.75l4.23-7.93h2l-5.29,9.71v6.16H387v-6.07l-5.28-9.8h2" transform="translate(-18.5 -18.5)" style="fill:#fff"/><path id="G" d="M403.84,154.13a8.65,8.65,0,0,1-3.86.77c-3.57,0-5.68-2.39-5.68-6.06s1.86-6.26,5.21-6.26c3,0,4.9,2.28,4.84,5.35v1.14h-8.19c0,2.62,1.31,4.25,3.89,4.26a9.59,9.59,0,0,0,3.79-.8Zm-1.42-6.53c0-2.11-.92-3.51-2.93-3.51s-3.12,1.5-3.28,3.51h6.21" transform="translate(-18.5 -18.5)" style="fill:#fff"/><path id="H" d="M411,144.09c-1.41,0-2.58.34-2.58,1.5,0,.82.42,1.1,1,1.46a16.93,16.93,0,0,0,2.08.88,8,8,0,0,1,2.86,1.55,2.71,2.71,0,0,1,.75,2c0,2.45-2,3.46-4.71,3.46a7.53,7.53,0,0,1-3.69-.75v-1.67a8.42,8.42,0,0,0,3.73.94c1.62,0,2.93-.39,2.93-1.83a1.62,1.62,0,0,0-.6-1.18c-.6-.6-4-1.71-4.71-2.26a2.74,2.74,0,0,1-1.38-2.44c0-3.55,5.31-3.71,8.18-2.35l-.64,1.46a8.68,8.68,0,0,0-3.25-.73" transform="translate(-18.5 -18.5)" style="fill:#fff"/></g><g id="b"><path id="I" d="M307.11,214.56c.07-5,2.69-8.14,7.64-8.14a9.79,9.79,0,0,1,4.36.91l-.78,1.58a8.45,8.45,0,0,0-3.6-.84c-3.62,0-5.64,2.72-5.64,6.51s1.85,6.51,5.62,6.51a14.15,14.15,0,0,0,3.78-.6v1.62a11.63,11.63,0,0,1-4.06.62c-4.83,0-7.38-3.19-7.32-8.17" transform="translate(-18.5 -18.5)" style="fill:#fff"/><path id="J" d="M323.46,212.82a4.33,4.33,0,0,1,5.07-2.29l-.25,1.67A6,6,0,0,0,327,212c-2,0-3.49,2-3.49,4.09v6.38h-1.81V210.62h1.49l.21,2.2h.08" transform="translate(-18.5 -18.5)" style="fill:#fff"/><path id="G-2" data-name="G" d="M339.2,222a8.7,8.7,0,0,1-3.87.77c-3.56,0-5.68-2.4-5.68-6.07s1.87-6.26,5.22-6.26c3,0,4.89,2.28,4.84,5.35v1.14h-8.19c0,2.63,1.31,4.25,3.88,4.26a9.67,9.67,0,0,0,3.8-.8Zm-1.42-6.53c0-2.12-.93-3.52-2.93-3.52s-3.13,1.51-3.29,3.52h6.22" transform="translate(-18.5 -18.5)" style="fill:#fff"/><path id="K" d="M347.25,210.42c2.82,0,4.17,1.15,4.18,4v8.12h-1.34l-.36-1.69h-.08a4.33,4.33,0,0,1-4,1.91c-2.28,0-3.77-1.24-3.77-3.51s1.92-3.65,5.76-3.77l2-.07c.12-2.2-.44-3.47-2.53-3.47a7.76,7.76,0,0,0-3.36.91l-.56-1.38A8.69,8.69,0,0,1,347.25,210.42Zm-3.47,8.82c0,1.34.88,2,2.24,2a3.28,3.28,0,0,0,3.61-3.5v-1.08c-2.79.15-5.85-.07-5.85,2.58" transform="translate(-18.5 -18.5)" style="fill:#fff"/><path id="L" d="M357.07,219c0,1.33.65,2.21,1.91,2.22a6.43,6.43,0,0,0,1.63-.22v1.38a5.6,5.6,0,0,1-1.89.33c-2.3,0-3.45-1.22-3.45-3.64V212h-1.71v-.87l1.71-.75.76-2.54h1v2.76h3.45V212h-3.45v7" transform="translate(-18.5 -18.5)" style="fill:#fff"/><path id="G-3" data-name="G" d="M371.87,222a8.68,8.68,0,0,1-3.86.77c-3.57,0-5.69-2.4-5.69-6.07s1.87-6.26,5.22-6.26c3,0,4.89,2.28,4.84,5.35v1.14h-8.19c0,2.63,1.31,4.25,3.88,4.26a9.67,9.67,0,0,0,3.8-.8Zm-1.42-6.53c0-2.12-.92-3.52-2.93-3.52s-3.13,1.51-3.29,3.52h6.22" transform="translate(-18.5 -18.5)" style="fill:#fff"/></g><g id="c"><path id="M" d="M391.47,222.51l-2-5h-6.36l-1.95,5h-1.87l6.27-15.93h1.56l6.24,15.93Zm-2.55-6.7c-.88-2.48-1.83-4.56-2.59-7.21-.62,2.5-1.72,4.87-2.55,7.21h5.14" transform="translate(-18.5 -18.5)" style="fill:#fff"/><path id="N" d="M396.49,216.62c0,2.68,1,4.53,3.5,4.53a8,8,0,0,0,3.05-.64v1.6a6.51,6.51,0,0,1-3,.62c-3.57,0-5.42-2.4-5.42-6.09s1.87-6.24,5.54-6.24a8,8,0,0,1,3.06.62l-.56,1.53a7.75,7.75,0,0,0-2.55-.55c-2.42,0-3.62,1.54-3.62,4.62" transform="translate(-18.5 -18.5)" style="fill:#fff"/><path id="N-2" data-name="N" d="M407.07,216.62c0,2.68,1,4.53,3.5,4.53a8,8,0,0,0,3.05-.64v1.6a6.51,6.51,0,0,1-3,.62c-3.57,0-5.42-2.4-5.42-6.09s1.87-6.24,5.54-6.24a8,8,0,0,1,3.06.62l-.56,1.53a7.75,7.75,0,0,0-2.55-.55c-2.42,0-3.62,1.54-3.62,4.62" transform="translate(-18.5 -18.5)" style="fill:#fff"/><path id="O" d="M421.27,210.4c3.43,0,5.44,2.59,5.44,6.15s-1.95,6.24-5.51,6.18-5.37-2.52-5.42-6.18S417.71,210.4,421.27,210.4Zm0,1.53c-2.6,0-3.57,1.82-3.57,4.62s1,4.67,3.59,4.67,3.6-1.89,3.6-4.67-1-4.62-3.62-4.62" transform="translate(-18.5 -18.5)" style="fill:#fff"/><path id="P" d="M434.07,222.73c-2.95,0-4.33-1.34-4.33-4.33v-7.78h1.82v7.71c0,1.92.82,2.89,2.73,2.89,2.72,0,3.59-1.47,3.59-4.35v-6.25h1.81v11.89H438.2l-.26-1.59h-.1a4.24,4.24,0,0,1-3.77,1.81" transform="translate(-18.5 -18.5)" style="fill:#fff"/><path id="Q" d="M449.13,210.4c2.93,0,4.33,1.36,4.31,4.35v7.76h-1.8v-7.69c0-1.92-.82-2.89-2.73-2.89-2.71,0-3.6,1.44-3.6,4.34v6.24h-1.8V210.62H445l.29,1.63h.09a4.32,4.32,0,0,1,3.78-1.85" transform="translate(-18.5 -18.5)" style="fill:#fff"/><path id="L-2" data-name="L" d="M459.08,219c0,1.33.65,2.21,1.91,2.22a6.34,6.34,0,0,0,1.62-.22v1.38a5.5,5.5,0,0,1-1.88.33c-2.3,0-3.46-1.22-3.46-3.64V212h-1.7v-.87l1.7-.75.76-2.54h1.05v2.76h3.45V212h-3.45v7" transform="translate(-18.5 -18.5)" style="fill:#fff"/><path id="R" d="M467.66,206.42c2.64,0,4.38,1.34,4.37,3.89a4.23,4.23,0,0,1-.83,2.54c-.36.55-2.86,2.52-3.24,3.28a4.2,4.2,0,0,0-.34,2h-1.4c-.07-2.38.46-3.22,1.84-4.41a9.67,9.67,0,0,0,1.86-1.87,2.86,2.86,0,0,0,.39-1.52c0-1.58-1.1-2.35-2.76-2.31A7.07,7.07,0,0,0,464,209l-.64-1.47A9.21,9.21,0,0,1,467.66,206.42ZM467,222.83c-.84,0-1.31-.53-1.31-1.47s.44-1.47,1.31-1.47,1.31.56,1.31,1.47-.47,1.48-1.31,1.47" transform="translate(-18.5 -18.5)" style="fill:#fff"/></g><path d="M498.63,165.2H641.75a6,6,0,0,1,6,6v69.2" transform="translate(-18.5 -18.5)" style="fill:none;stroke:#fff;stroke-width:3px"/><path d="M498.67,166.7h-1.74l.25-1.83-.27-1.17h1.76" transform="translate(-18.5 -18.5)" style="fill:#fff"/><path d="M647.75,256.16l-4.63-14.27h9.27Z" transform="translate(-18.5 -18.5)" style="fill:#fff;stroke:#fff;stroke-width:3px"/><g id="d"><path id="S" d="M542.39,152.08c-.27-4.23-.11-8.79-.15-13.26H544v15.87h-2.11l-8.67-13.32h-.09c.33,4.4.11,8.74.18,13.32h-1.71V138.82h2.09l8.64,13.26h.09" transform="translate(-18.5 -18.5)" style="fill:#fff"/><path id="O-2" data-name="O" d="M552.88,142.58c3.43,0,5.44,2.59,5.44,6.15s-2,6.24-5.51,6.17-5.37-2.51-5.42-6.17S549.33,142.58,552.88,142.58Zm0,1.53c-2.59,0-3.57,1.82-3.57,4.62s1,4.67,3.59,4.67,3.6-1.89,3.6-4.67-1-4.62-3.62-4.62" transform="translate(-18.5 -18.5)" style="fill:#fff"/></g><g id="e"><path id="T" d="M502.55,219.49H500.7V212h-8.35v7.47H490.5V203.62h1.85v6.75h8.35v-6.75h1.85v15.87" transform="translate(-18.5 -18.5)" style="fill:#fff"/><path id="K-2" data-name="K" d="M511.1,207.4c2.82,0,4.17,1.15,4.18,4v8.12h-1.34l-.36-1.7h-.08a4.31,4.31,0,0,1-4,1.91c-2.29,0-3.78-1.23-3.78-3.5s1.92-3.66,5.76-3.78l2-.06c.12-2.21-.44-3.48-2.53-3.48a7.79,7.79,0,0,0-3.36.92l-.56-1.38A8.57,8.57,0,0,1,511.1,207.4Zm-3.47,8.82c0,1.33.88,2,2.24,2a3.29,3.29,0,0,0,3.61-3.51v-1.07c-2.79.15-5.85-.08-5.85,2.58" transform="translate(-18.5 -18.5)" style="fill:#fff"/><path id="U" d="M522.68,217.86c1-3.42,1.58-4.59,3.6-10.27h1.93l-4.51,11.9h-2.11l-4.51-11.9H519c1.06,3,2.74,7.27,3.58,10.27h.09" transform="translate(-18.5 -18.5)" style="fill:#fff"/><path id="G-4" data-name="G" d="M539,218.93a8.7,8.7,0,0,1-3.87.77c-3.57,0-5.68-2.4-5.68-6.06s1.86-6.26,5.22-6.26c3,0,4.89,2.28,4.84,5.35v1.14h-8.2c0,2.62,1.32,4.25,3.89,4.26a9.67,9.67,0,0,0,3.8-.8Zm-1.42-6.53c0-2.12-.93-3.52-2.93-3.52s-3.13,1.51-3.29,3.52h6.22" transform="translate(-18.5 -18.5)" style="fill:#fff"/></g><g id="c-2" data-name="c"><path id="M-2" data-name="M" d="M558.6,219.49l-2-5.05h-6.36l-1.95,5.05h-1.87l6.27-15.93h1.55l6.24,15.93Zm-2.55-6.71c-.88-2.47-1.82-4.56-2.58-7.2-.62,2.49-1.72,4.87-2.55,7.2h5.13" transform="translate(-18.5 -18.5)" style="fill:#fff"/><path id="N-3" data-name="N" d="M563.63,213.59c0,2.68,1,4.54,3.5,4.54a8.14,8.14,0,0,0,3-.64v1.59a6.38,6.38,0,0,1-3,.62c-3.57,0-5.42-2.4-5.42-6.08s1.87-6.24,5.53-6.24a8.14,8.14,0,0,1,3.06.61l-.55,1.53a7.75,7.75,0,0,0-2.55-.55c-2.42,0-3.62,1.54-3.62,4.62" transform="translate(-18.5 -18.5)" style="fill:#fff"/><path id="N-4" data-name="N" d="M574.21,213.59c0,2.68,1,4.54,3.5,4.54a8.14,8.14,0,0,0,3-.64v1.59a6.38,6.38,0,0,1-3,.62c-3.57,0-5.42-2.4-5.42-6.08s1.87-6.24,5.53-6.24a8.14,8.14,0,0,1,3.06.61l-.55,1.53a7.75,7.75,0,0,0-2.55-.55c-2.42,0-3.62,1.54-3.62,4.62" transform="translate(-18.5 -18.5)" style="fill:#fff"/><path id="O-3" data-name="O" d="M588.41,207.38c3.43,0,5.44,2.59,5.44,6.15s-2,6.24-5.52,6.17-5.37-2.51-5.41-6.17S584.85,207.38,588.41,207.38Zm0,1.53c-2.6,0-3.57,1.82-3.57,4.62s1,4.66,3.59,4.66,3.6-1.88,3.6-4.66-1-4.62-3.62-4.62" transform="translate(-18.5 -18.5)" style="fill:#fff"/><path id="P-2" data-name="P" d="M601.2,219.7c-2.94,0-4.33-1.33-4.33-4.33v-7.78h1.83v7.72c0,1.92.82,2.88,2.73,2.88,2.71,0,3.59-1.46,3.59-4.35v-6.25h1.8v11.9h-1.48l-.26-1.6H605a4.23,4.23,0,0,1-3.78,1.81" transform="translate(-18.5 -18.5)" style="fill:#fff"/><path id="Q-2" data-name="Q" d="M616.26,207.38c2.93,0,4.33,1.35,4.32,4.35v7.76h-1.8v-7.7c0-1.92-.82-2.88-2.73-2.88-2.72,0-3.61,1.44-3.61,4.34v6.24h-1.8v-11.9h1.47l.29,1.63h.09a4.33,4.33,0,0,1,3.77-1.84" transform="translate(-18.5 -18.5)" style="fill:#fff"/><path id="L-3" data-name="L" d="M626.21,216c0,1.34.66,2.22,1.91,2.23a6.36,6.36,0,0,0,1.63-.22v1.38a5.82,5.82,0,0,1-1.89.32q-3.45,0-3.45-3.63V209h-1.7v-.86l1.7-.75.76-2.54h1v2.75h3.45V209h-3.45v7" transform="translate(-18.5 -18.5)" style="fill:#fff"/><path id="R-2" data-name="R" d="M634.8,203.39c2.63,0,4.38,1.35,4.37,3.9a4.19,4.19,0,0,1-.84,2.54c-.35.54-2.85,2.52-3.23,3.28a4.27,4.27,0,0,0-.35,2h-1.4c-.06-2.37.47-3.22,1.85-4.4a9.77,9.77,0,0,0,1.85-1.88,2.82,2.82,0,0,0,.39-1.52c0-1.57-1.09-2.34-2.75-2.31a7.17,7.17,0,0,0-3.54.93l-.64-1.46A9.1,9.1,0,0,1,634.8,203.39Zm-.68,16.41c-.83,0-1.3-.52-1.3-1.46s.44-1.48,1.3-1.48,1.32.56,1.32,1.48a1.29,1.29,0,0,1-1.32,1.46" transform="translate(-18.5 -18.5)" style="fill:#fff"/></g><path d="M395,714.74c15.46,0,28,15.8,28,35.26s-12.54,35.26-28,35.26H311c-15.46,0-28-15.8-28-35.26s12.54-35.26,28-35.26Z" transform="translate(-18.5 -18.5)" style="fill:#fff;fill-opacity:0;stroke:#fff;stroke-width:3px"/><g id="f-2" data-name="f"><path id="I-2" data-name="I" d="M320.42,735.54c.07-5,2.69-8.14,7.64-8.14a9.82,9.82,0,0,1,4.36.91l-.78,1.58a8.45,8.45,0,0,0-3.6-.84c-3.62,0-5.64,2.72-5.64,6.51s1.85,6.51,5.62,6.51a14.15,14.15,0,0,0,3.78-.6v1.62a11.63,11.63,0,0,1-4.06.62c-4.83,0-7.38-3.19-7.32-8.17" transform="translate(-18.5 -18.5)" style="fill:#fff"/><path id="J-2" data-name="J" d="M336.77,733.8a4.33,4.33,0,0,1,5.07-2.29l-.25,1.67a6,6,0,0,0-1.3-.16c-2,0-3.49,2-3.49,4.09v6.38H335V731.6h1.49l.21,2.2h.08" transform="translate(-18.5 -18.5)" style="fill:#fff"/><path id="G-5" data-name="G" d="M352.51,742.94a8.7,8.7,0,0,1-3.87.77c-3.57,0-5.68-2.4-5.68-6.07s1.87-6.26,5.22-6.26c3,0,4.89,2.28,4.84,5.35v1.14h-8.19c0,2.62,1.31,4.25,3.88,4.26a9.67,9.67,0,0,0,3.8-.8Zm-1.42-6.54c0-2.11-.93-3.51-2.93-3.51s-3.13,1.51-3.29,3.51h6.22" transform="translate(-18.5 -18.5)" style="fill:#fff"/><path id="K-3" data-name="K" d="M360.56,731.4c2.82,0,4.17,1.15,4.18,4v8.12H363.4L363,741.8H363a4.35,4.35,0,0,1-4,1.91c-2.29,0-3.77-1.24-3.77-3.51s1.92-3.65,5.76-3.77l2-.07c.12-2.2-.44-3.47-2.53-3.47a7.76,7.76,0,0,0-3.36.91l-.56-1.38A8.69,8.69,0,0,1,360.56,731.4Zm-3.47,8.82c0,1.34.88,2,2.24,2a3.27,3.27,0,0,0,3.6-3.5v-1.08c-2.78.15-5.84-.07-5.84,2.58" transform="translate(-18.5 -18.5)" style="fill:#fff"/><path id="L-4" data-name="L" d="M370.38,740c0,1.33.65,2.21,1.91,2.22a6.43,6.43,0,0,0,1.63-.22v1.38a5.6,5.6,0,0,1-1.89.33c-2.3,0-3.45-1.22-3.45-3.64V733h-1.71v-.87l1.71-.75.76-2.54h1v2.76h3.45V733h-3.45v7" transform="translate(-18.5 -18.5)" style="fill:#fff"/><path id="G-6" data-name="G" d="M385.18,742.94a8.68,8.68,0,0,1-3.86.77c-3.57,0-5.69-2.4-5.69-6.07s1.87-6.26,5.22-6.26c3,0,4.89,2.28,4.84,5.35v1.14H377.5c0,2.62,1.31,4.25,3.88,4.26a9.67,9.67,0,0,0,3.8-.8Zm-1.42-6.54c0-2.11-.92-3.51-2.93-3.51s-3.13,1.51-3.29,3.51h6.22" transform="translate(-18.5 -18.5)" style="fill:#fff"/></g><g id="g-7" data-name="g"><path id="S-2" data-name="S" d="M314.85,771.15c-.27-4.23-.11-8.79-.15-13.26h1.72v15.86h-2.1l-8.67-13.31h-.09c.33,4.39.11,8.73.18,13.31H304V757.89h2.09l8.64,13.26h.09" transform="translate(-18.5 -18.5)" style="fill:#fff"/><path id="G-8" data-name="G" d="M329.4,773.2a8.68,8.68,0,0,1-3.86.77c-3.57,0-5.69-2.4-5.69-6.07s1.87-6.26,5.22-6.26c3,0,4.9,2.28,4.84,5.35v1.14h-8.19c0,2.63,1.31,4.26,3.88,4.27a9.69,9.69,0,0,0,3.8-.81ZM328,766.67c0-2.12-.92-3.52-2.93-3.52s-3.13,1.51-3.29,3.52H328" transform="translate(-18.5 -18.5)" style="fill:#fff"/><path id="V" d="M343.31,771.82c.42-2.33.82-3.35,2.5-10h1.86l-3.28,11.89h-2.14c-1.08-3.6-2-5.94-2.95-9.88h-.09c-.86,3.76-2,6.42-3,9.88h-2.08l-3.24-11.89h1.88c.78,3,1.35,5.26,1.75,6.82a30,30,0,0,1,.7,3.16h.08c.83-3.56,2-6.63,3-10h1.95l2.13,6.82a23.1,23.1,0,0,1,.82,3.14h.09" transform="translate(-18.5 -18.5)" style="fill:#fff"/></g><g id="h-2" data-name="h"><path id="W" d="M365.92,762.51c0,3.48-2.61,5-6.34,5h-1.87v6.24h-1.84V757.89H360Q365.92,757.89,365.92,762.51Zm-1.91.09c0-2.37-1.62-3.11-4.24-3.12h-2.06v6.45h1.66c2.93,0,4.64-.67,4.64-3.33" transform="translate(-18.5 -18.5)" style="fill:#fff"/><path id="K-4" data-name="K" d="M373.44,761.66c2.83,0,4.17,1.15,4.18,4v8.11h-1.33l-.36-1.69h-.09a4.3,4.3,0,0,1-4,1.91c-2.29,0-3.78-1.24-3.78-3.51s1.92-3.65,5.77-3.77l2-.07c.12-2.2-.43-3.47-2.52-3.47a7.83,7.83,0,0,0-3.37.91l-.55-1.38A8.62,8.62,0,0,1,373.44,761.66ZM370,770.49c0,1.33.88,2,2.25,2a3.27,3.27,0,0,0,3.6-3.5V767.9c-2.79.16-5.85-.07-5.85,2.59" transform="translate(-18.5 -18.5)" style="fill:#fff"/><path id="X" d="M380.78,765.71c0-2.68,1.75-4.09,4.49-4.07a6.21,6.21,0,0,1,1.68.22h4.12V763l-2.21.26a4.06,4.06,0,0,1,.78,2.38c0,2.76-2.46,4.23-5.46,3.74a1.74,1.74,0,0,0-1.15,1.53c0,.85.71,1,1.77,1h2.11c2.38,0,4,.95,4,3.18a3.39,3.39,0,0,1-1.58,3,8.45,8.45,0,0,1-4.62,1c-2.72,0-4.86-.9-4.86-3.32a3,3,0,0,1,2.64-2.95,1.78,1.78,0,0,1-1.07-1.65c0-1.13.62-1.55,1.44-2.08A3.6,3.6,0,0,1,380.78,765.71Zm3.4,7.77c-1.56,0-2.63.76-2.6,2.27s1.42,2,3.15,2a6.51,6.51,0,0,0,3.35-.68,2.08,2.08,0,0,0,1.1-1.83c0-1.6-1-1.72-2.85-1.72Zm1-10.52a2.4,2.4,0,0,0-2.64,2.71,2.36,2.36,0,0,0,2.67,2.53c1.76,0,2.63-.86,2.63-2.56A2.36,2.36,0,0,0,385.2,763" transform="translate(-18.5 -18.5)" style="fill:#fff"/><path id="G-9" data-name="G" d="M402.39,773.2a8.65,8.65,0,0,1-3.86.77c-3.57,0-5.69-2.4-5.69-6.07s1.87-6.26,5.22-6.26c3,0,4.9,2.28,4.84,5.35v1.14h-8.19c0,2.63,1.31,4.26,3.89,4.27a9.6,9.6,0,0,0,3.79-.81ZM401,766.67c0-2.12-.92-3.52-2.93-3.52s-3.12,1.51-3.29,3.52H401" transform="translate(-18.5 -18.5)" style="fill:#fff"/></g><path d="M651,718.85c17.67,0,32,15.78,32,35.26s-14.33,35.27-32,35.27H555c-17.67,0-32-15.8-32-35.26s14.33-35.25,32-35.25Z" transform="translate(-18.5 -18.5)" style="fill:#fff;fill-opacity:0;stroke:#fff;stroke-width:3px"/><g id="i-3" data-name="i"><path id="Y" d="M540.49,731.72c4.7,0,7.26,3.32,7.26,8.16s-2.58,8.17-7.28,8.17-7.31-3.22-7.31-8.19S535.67,731.72,540.49,731.72Zm0,1.65c-3.74,0-5.38,2.56-5.38,6.51s1.6,6.56,5.36,6.56,5.33-2.55,5.33-6.56-1.55-6.51-5.31-6.51" transform="translate(-18.5 -18.5)" style="fill:#fff"/><path id="Z" d="M561.49,741.88c0,3.57-1.6,6.17-4.94,6.17a4.32,4.32,0,0,1-3.73-1.74h-.13c.25,2.16.07,4.53.13,6.86H551V735.94h1.46l.25,1.63h.09a4.13,4.13,0,0,1,3.73-1.84C559.92,735.73,561.49,738.3,561.49,741.88Zm-1.87,0c0-2.63-1-4.6-3.33-4.6-2.78,0-3.51,1.67-3.47,4.62s.73,4.66,3.51,4.66c2.31,0,3.29-2.12,3.29-4.68" transform="translate(-18.5 -18.5)" style="fill:#fff"/><path id="G-10" data-name="G" d="M573.52,747.28a8.68,8.68,0,0,1-3.86.77c-3.57,0-5.69-2.4-5.69-6.06s1.87-6.26,5.22-6.26c3,0,4.89,2.27,4.84,5.35v1.14h-8.19c0,2.62,1.31,4.25,3.88,4.26a9.67,9.67,0,0,0,3.8-.8Zm-1.42-6.53c0-2.12-.92-3.52-2.93-3.52s-3.13,1.51-3.29,3.52h6.22" transform="translate(-18.5 -18.5)" style="fill:#fff"/><path id="Q-3" data-name="Q" d="M582.72,735.73c2.93,0,4.33,1.35,4.32,4.35v7.76h-1.8v-7.7c0-1.92-.83-2.88-2.74-2.88-2.71,0-3.6,1.44-3.6,4.34v6.24h-1.8v-11.9h1.47l.29,1.63H579a4.33,4.33,0,0,1,3.77-1.84" transform="translate(-18.5 -18.5)" style="fill:#fff"/></g><g id="j-3" data-name="j"><path id="aa" d="M605.63,747.84h-8.85V732h8.85v1.64h-7v5.11h6.57v1.63h-6.57v5.84h7v1.65" transform="translate(-18.5 -18.5)" style="fill:#fff"/><path id="ab" d="M611.74,741.75l-4.14-5.81h2l3.14,4.56,3.12-4.56h2l-4.13,5.81,4.35,6.09h-2L612.79,743l-3.36,4.82h-2" transform="translate(-18.5 -18.5)" style="fill:#fff"/><path id="ac" d="M622.32,747.84h-1.81v-11.9h1.81Zm-.89-13.91a1.06,1.06,0,0,1-1.07-1.21c0-.75.39-1.19,1.07-1.19a1.06,1.06,0,0,1,1.06,1.19,1.07,1.07,0,0,1-1.06,1.21" transform="translate(-18.5 -18.5)" style="fill:#fff"/><path id="H-3" data-name="H" d="M629.67,737.23c-1.41,0-2.58.35-2.58,1.51,0,.82.42,1.1,1,1.46a16.93,16.93,0,0,0,2.08.88,8,8,0,0,1,2.86,1.55,2.71,2.71,0,0,1,.75,2c0,2.45-2,3.46-4.71,3.46a7.53,7.53,0,0,1-3.69-.75v-1.67a8.42,8.42,0,0,0,3.73.94c1.62,0,2.93-.39,2.93-1.83a1.62,1.62,0,0,0-.6-1.18c-.6-.6-4-1.71-4.71-2.26a2.74,2.74,0,0,1-1.38-2.44c0-3.55,5.31-3.71,8.18-2.35l-.64,1.46a8.71,8.71,0,0,0-3.25-.74" transform="translate(-18.5 -18.5)" style="fill:#fff"/><path id="L-5" data-name="L" d="M638.67,744.34c0,1.34.65,2.22,1.91,2.23a6.49,6.49,0,0,0,1.63-.22v1.38a5.87,5.87,0,0,1-1.89.32q-3.45,0-3.45-3.63v-7.08h-1.71v-.86l1.71-.75.76-2.54h1v2.75h3.45v1.4h-3.45v7" transform="translate(-18.5 -18.5)" style="fill:#fff"/><path id="ac-2" data-name="ac" d="M646.38,747.84h-1.8v-11.9h1.8Zm-.89-13.91c-.66,0-1.06-.47-1.06-1.21s.39-1.19,1.06-1.19a1.06,1.06,0,0,1,1.07,1.19,1.08,1.08,0,0,1-1.07,1.21" transform="translate(-18.5 -18.5)" style="fill:#fff"/><path id="Q-4" data-name="Q" d="M655.82,735.73c2.93,0,4.33,1.35,4.32,4.35v7.76h-1.8v-7.7c0-1.92-.82-2.88-2.73-2.88-2.72,0-3.61,1.44-3.61,4.34v6.24h-1.8v-11.9h1.47l.29,1.63h.09a4.33,4.33,0,0,1,3.77-1.84" transform="translate(-18.5 -18.5)" style="fill:#fff"/><path id="X-2" data-name="X" d="M663.29,739.8c0-2.68,1.75-4.1,4.49-4.07a6.23,6.23,0,0,1,1.68.21h4.11v1.14l-2.2.26a4.06,4.06,0,0,1,.78,2.38c0,2.77-2.46,4.23-5.47,3.74a1.76,1.76,0,0,0-1.15,1.53c0,.85.72,1,1.78,1h2.11c2.37,0,4,.94,4,3.18a3.37,3.37,0,0,1-1.58,3,8.36,8.36,0,0,1-4.62,1c-2.72,0-4.87-.9-4.87-3.32a3,3,0,0,1,2.65-3,1.77,1.77,0,0,1-1.07-1.65c0-1.13.62-1.55,1.44-2.08A3.59,3.59,0,0,1,663.29,739.8Zm3.39,7.76c-1.55,0-2.62.76-2.59,2.27s1.42,2,3.15,2a6.39,6.39,0,0,0,3.35-.69,2.07,2.07,0,0,0,1.1-1.83c0-1.6-1-1.72-2.85-1.72Zm1-10.52a2.4,2.4,0,0,0-2.63,2.71,2.36,2.36,0,0,0,2.67,2.53,2.3,2.3,0,0,0,2.63-2.56A2.36,2.36,0,0,0,667.7,737" transform="translate(-18.5 -18.5)" style="fill:#fff"/></g><g id="h-4" data-name="h"><path id="W-2" data-name="W" d="M590,766.86c0,3.48-2.61,5-6.35,5h-1.86v6.24h-1.85V762.23h4.12C588,762.23,590,763.78,590,766.86Zm-1.91.08c0-2.36-1.62-3.1-4.24-3.11h-2.06v6.44h1.66c2.93,0,4.64-.67,4.64-3.33" transform="translate(-18.5 -18.5)" style="fill:#fff"/><path id="K-5" data-name="K" d="M597.52,766c2.82,0,4.17,1.15,4.18,4v8.12h-1.34l-.35-1.69h-.09a4.34,4.34,0,0,1-4,1.91c-2.29,0-3.78-1.24-3.78-3.51s1.92-3.66,5.76-3.78l2-.06c.12-2.2-.43-3.47-2.53-3.47a7.83,7.83,0,0,0-3.36.91L593.5,767A8.62,8.62,0,0,1,597.52,766Zm-3.47,8.82c0,1.34.88,2,2.25,2a3.28,3.28,0,0,0,3.6-3.51v-1.07c-2.79.15-5.85-.08-5.85,2.58" transform="translate(-18.5 -18.5)" style="fill:#fff"/><path id="X-3" data-name="X" d="M604.86,770.06c0-2.68,1.74-4.09,4.49-4.07a5.84,5.84,0,0,1,1.68.22h4.11v1.14l-2.2.26a4.05,4.05,0,0,1,.78,2.37c0,2.77-2.46,4.23-5.47,3.75a1.76,1.76,0,0,0-1.15,1.53c0,.84.72,1,1.78,1H611c2.37,0,4,.94,4,3.18a3.4,3.4,0,0,1-1.58,3,8.5,8.5,0,0,1-4.62,1c-2.72,0-4.87-.9-4.87-3.32a3,3,0,0,1,2.65-3,1.76,1.76,0,0,1-1.07-1.65c0-1.13.62-1.56,1.44-2.09A3.58,3.58,0,0,1,604.86,770.06Zm3.39,7.77c-1.55,0-2.62.76-2.59,2.26s1.42,2,3.15,2a6.53,6.53,0,0,0,3.35-.68,2.09,2.09,0,0,0,1.1-1.84c0-1.59-1-1.71-2.85-1.71Zm1-10.53a2.4,2.4,0,0,0-2.63,2.71,2.36,2.36,0,0,0,2.67,2.53c1.75,0,2.63-.85,2.63-2.56a2.36,2.36,0,0,0-2.67-2.68" transform="translate(-18.5 -18.5)" style="fill:#fff"/><path id="G-11" data-name="G" d="M626.47,777.54a8.68,8.68,0,0,1-3.86.78c-3.57,0-5.69-2.4-5.69-6.07s1.87-6.26,5.22-6.26c3,0,4.9,2.28,4.84,5.35v1.14h-8.19c0,2.62,1.31,4.25,3.88,4.26a9.67,9.67,0,0,0,3.8-.8ZM625.05,771c0-2.11-.92-3.51-2.93-3.51S619,769,618.83,771h6.22" transform="translate(-18.5 -18.5)" style="fill:#fff"/></g><path d="M353,643v49.62" transform="translate(-18.5 -18.5)" style="fill:none;stroke:#fff;stroke-width:3px"/><path d="M354.45,643h-3V641.5h3" transform="translate(-18.5 -18.5)" style="fill:#fff"/><path d="M353,708.38l-4.64-14.26h9.28Z" transform="translate(-18.5 -18.5)" style="fill:#fff;stroke:#fff;stroke-width:3px"/><path d="M603,643v53.73" transform="translate(-18.5 -18.5)" style="fill:none;stroke:#fff;stroke-width:3px"/><path d="M604.45,643h-3V641.5h3" transform="translate(-18.5 -18.5)" style="fill:#fff"/><path d="M603,712.5l-4.64-14.27h9.28Z" transform="translate(-18.5 -18.5)" style="fill:#fff;stroke:#fff;stroke-width:3px"/><path d="M353,788.26v49.62" transform="translate(-18.5 -18.5)" style="fill:none;stroke:#fff;stroke-width:3px"/><path d="M354.45,788.3h-3v-1.54h3" transform="translate(-18.5 -18.5)" style="fill:#fff"/><path d="M353,853.64l-4.64-14.26h9.28Z" transform="translate(-18.5 -18.5)" style="fill:#fff;stroke:#fff;stroke-width:3px"/><path d="M603,792.37v45.5" transform="translate(-18.5 -18.5)" style="fill:none;stroke:#fff;stroke-width:3px"/><path d="M604.45,792.4h-3v-1.53h3" transform="translate(-18.5 -18.5)" style="fill:#fff"/><path d="M603,853.64l-4.64-14.26h9.28Z" transform="translate(-18.5 -18.5)" style="fill:#fff;stroke:#fff;stroke-width:3px"/><path d="M163,990.4c16.57,0,30,14.86,30,33.2s-13.43,33.23-30,33.23H73c-16.57,0-30-14.87-30-33.22s13.43-33.2,30-33.2Z" transform="translate(-18.5 -18.5)" style="fill:#fff;fill-opacity:0;stroke:#fff;stroke-width:3px"/><g id="k-6" data-name="k"><path id="ad" d="M65.67,1033.39l-5.38-14.06H60.2c.29,4.29.09,9.5.15,14.06h-1.7v-15.86h2.78l5,13.09h.09l5.06-13.09h2.76v15.86H72.52c.06-4.76-.15-9.47.15-14h-.09l-5.42,14H65.67" transform="translate(-18.5 -18.5)" style="fill:#fff"/><path id="K-7" data-name="K" d="M82.91,1021.31c2.82,0,4.17,1.15,4.18,4v8.11H85.75l-.35-1.69h-.09a4.33,4.33,0,0,1-4,1.91c-2.29,0-3.78-1.24-3.78-3.5s1.92-3.66,5.76-3.78l2-.07c.12-2.2-.43-3.47-2.53-3.47a7.94,7.94,0,0,0-3.36.91l-.56-1.37A8.57,8.57,0,0,1,82.91,1021.31Zm-3.47,8.82c0,1.33.88,2,2.24,2a3.28,3.28,0,0,0,3.61-3.5v-1.08c-2.79.16-5.85-.07-5.85,2.59" transform="translate(-18.5 -18.5)" style="fill:#fff"/><path id="ae" d="M92.58,1027.31c1.45-2,3.6-4,5.26-5.81H100l-4.82,5.07,5.15,6.82H98.13l-4.2-5.62-1.35,1.17v4.45H90.8v-16.88h1.78c0,3.65.1,7.26-.09,10.8h.09" transform="translate(-18.5 -18.5)" style="fill:#fff"/><path id="G-12" data-name="G" d="M110.91,1032.84a8.7,8.7,0,0,1-3.87.77c-3.57,0-5.68-2.4-5.68-6.07s1.86-6.26,5.22-6.26c3,0,4.89,2.28,4.84,5.35v1.14h-8.2c0,2.63,1.32,4.26,3.89,4.27a9.51,9.51,0,0,0,3.8-.81Zm-1.43-6.53c0-2.12-.92-3.52-2.93-3.52s-3.12,1.51-3.28,3.52h6.21" transform="translate(-18.5 -18.5)" style="fill:#fff"/></g><g id="l-6" data-name="l"><path id="S-3" data-name="S" d="M131.35,1030.79c-.27-4.23-.11-8.79-.15-13.26h1.72v15.86h-2.1l-8.67-13.31h-.09c.33,4.39.11,8.73.17,13.31h-1.7v-15.86h2.08l8.65,13.26h.09" transform="translate(-18.5 -18.5)" style="fill:#fff"/><path id="O-4" data-name="O" d="M141.84,1021.28c3.43,0,5.44,2.6,5.44,6.16s-2,6.24-5.52,6.17-5.37-2.52-5.41-6.17S138.28,1021.28,141.84,1021.28Zm-.05,1.53c-2.6,0-3.57,1.83-3.57,4.63s1,4.66,3.59,4.66,3.6-1.89,3.6-4.66-1-4.63-3.62-4.63" transform="translate(-18.5 -18.5)" style="fill:#fff"/><path id="L-7" data-name="L" d="M152.37,1029.9c0,1.33.65,2.21,1.91,2.22a6.37,6.37,0,0,0,1.62-.21v1.37a5.54,5.54,0,0,1-1.88.33q-3.47,0-3.46-3.63v-7.08h-1.7V1022l1.7-.75.76-2.53h1.05v2.75h3.45v1.4h-3.45v7" transform="translate(-18.5 -18.5)" style="fill:#fff"/><path id="G-13" data-name="G" d="M167.17,1032.84a8.7,8.7,0,0,1-3.87.77c-3.57,0-5.68-2.4-5.68-6.07s1.86-6.26,5.22-6.26c3,0,4.89,2.28,4.84,5.35v1.14h-8.2c.05,2.63,1.32,4.26,3.89,4.27a9.51,9.51,0,0,0,3.8-.81Zm-1.43-6.53c0-2.12-.92-3.52-2.93-3.52s-3.12,1.51-3.28,3.52h6.21" transform="translate(-18.5 -18.5)" style="fill:#fff"/><path id="H-5" data-name="H" d="M174.28,1022.79c-1.41,0-2.58.35-2.58,1.51,0,.81.42,1.1,1,1.45a15.76,15.76,0,0,0,2.09.88,7.72,7.72,0,0,1,2.85,1.56,2.71,2.71,0,0,1,.75,2c0,2.45-2,3.46-4.71,3.46a7.55,7.55,0,0,1-3.69-.75v-1.67a8.42,8.42,0,0,0,3.73.93c1.62,0,2.93-.39,2.93-1.82a1.63,1.63,0,0,0-.59-1.18c-.61-.6-4-1.72-4.71-2.26a2.74,2.74,0,0,1-1.39-2.44c0-3.55,5.31-3.71,8.18-2.35l-.64,1.46a8.71,8.71,0,0,0-3.25-.74" transform="translate(-18.5 -18.5)" style="fill:#fff"/></g><path d="M163,1111.57c16.57,0,30,15.8,30,35.26s-13.43,35.27-30,35.27H73c-16.57,0-30-15.8-30-35.27s13.43-35.26,30-35.26Z" transform="translate(-18.5 -18.5)" style="fill:#fff;fill-opacity:0;stroke:#fff;stroke-width:3px"/><g id="m-3" data-name="m"><path id="af" d="M62.12,1139.16c2.65,0,4.17-1.49,4.17-4.13V1124.7h1.85V1135c0,3.65-2.44,5.82-6.14,5.82s-6-2.19-6-5.86V1124.7h1.84v10.35c0,2.69,1.53,4.11,4.28,4.11" transform="translate(-18.5 -18.5)" style="fill:#fff"/><path id="H-6" data-name="H" d="M75.6,1130c-1.41,0-2.58.35-2.58,1.51,0,.81.42,1.09,1,1.45a15.46,15.46,0,0,0,2.08.88,8,8,0,0,1,2.86,1.55,2.72,2.72,0,0,1,.75,2c0,2.45-2,3.46-4.71,3.46a7.53,7.53,0,0,1-3.69-.75v-1.67a8.42,8.42,0,0,0,3.73.93c1.62,0,2.93-.39,2.93-1.82a1.59,1.59,0,0,0-.6-1.18c-.6-.6-4-1.72-4.71-2.26a2.75,2.75,0,0,1-1.38-2.44c0-3.55,5.31-3.71,8.18-2.36l-.64,1.47a8.71,8.71,0,0,0-3.25-.74" transform="translate(-18.5 -18.5)" style="fill:#fff"/><path id="G-14" data-name="G" d="M91.55,1140a8.65,8.65,0,0,1-3.86.77c-3.57,0-5.69-2.4-5.69-6.07s1.87-6.26,5.22-6.26c3,0,4.9,2.28,4.84,5.35v1.14H83.87c0,2.63,1.31,4.25,3.89,4.26a9.59,9.59,0,0,0,3.79-.8Zm-1.42-6.54c0-2.11-.92-3.51-2.93-3.51s-3.12,1.51-3.29,3.51h6.22" transform="translate(-18.5 -18.5)" style="fill:#fff"/></g><g id="n-5" data-name="n"><path id="ag" d="M105.53,1124.7c3.57,0,5.71,1.18,5.71,4.48a4.22,4.22,0,0,1-3.19,4.25l4.3,7.13h-2.18l-3.84-6.6H103v6.6h-1.84V1124.7Zm3.8,4.58c0-2.34-1.4-2.94-3.91-3H103v6.07h2.53c2.42,0,3.78-.85,3.78-3.1" transform="translate(-18.5 -18.5)" style="fill:#fff"/><path id="ac-3" data-name="ac" d="M116.44,1140.56h-1.8v-11.89h1.8Zm-.89-13.91a1.06,1.06,0,0,1-1.06-1.2c0-.75.39-1.2,1.06-1.2a1.21,1.21,0,0,1,0,2.4" transform="translate(-18.5 -18.5)" style="fill:#fff"/><path id="N-6" data-name="N" d="M121.47,1134.67c0,2.68,1,4.53,3.5,4.53a8,8,0,0,0,3.05-.64v1.6a6.51,6.51,0,0,1-3,.62c-3.57,0-5.42-2.4-5.42-6.09s1.87-6.24,5.54-6.24a8,8,0,0,1,3.06.62l-.56,1.53a7.75,7.75,0,0,0-2.55-.55c-2.42,0-3.62,1.54-3.62,4.62" transform="translate(-18.5 -18.5)" style="fill:#fff"/><path id="ah" d="M136.42,1128.47c2.94,0,4.36,1.34,4.36,4.33v7.76H139v-7.69c0-1.92-.82-2.89-2.73-2.89-2.73,0-3.61,1.47-3.61,4.36v6.22h-1.8v-16.88h1.8c0,2.17.09,4.62-.08,6.64h.11a4.25,4.25,0,0,1,3.75-1.85" transform="translate(-18.5 -18.5)" style="fill:#fff"/><path id="L-8" data-name="L" d="M146.41,1137.07c0,1.33.66,2.21,1.91,2.22a6.36,6.36,0,0,0,1.63-.22v1.38a5.56,5.56,0,0,1-1.89.33c-2.3,0-3.45-1.22-3.45-3.64v-7.07h-1.7v-.87l1.7-.75.76-2.54h1v2.76h3.45v1.4h-3.45v7" transform="translate(-18.5 -18.5)" style="fill:#fff"/><path id="G-15" data-name="G" d="M161.21,1140a8.65,8.65,0,0,1-3.86.77c-3.57,0-5.68-2.4-5.68-6.07s1.86-6.26,5.22-6.26c3,0,4.89,2.28,4.83,5.35v1.14h-8.19c.05,2.63,1.32,4.25,3.89,4.26a9.59,9.59,0,0,0,3.79-.8Zm-1.42-6.54c0-2.11-.92-3.51-2.93-3.51s-3.12,1.51-3.28,3.51h6.21" transform="translate(-18.5 -18.5)" style="fill:#fff"/><path id="ab-2" data-name="ab" d="M167.21,1134.47l-4.13-5.8h2l3.14,4.56,3.12-4.56h2l-4.13,5.8,4.35,6.09h-2l-3.33-4.82-3.37,4.82h-2" transform="translate(-18.5 -18.5)" style="fill:#fff"/><path id="L-9" data-name="L" d="M177.92,1137.07c0,1.33.66,2.21,1.91,2.22a6.36,6.36,0,0,0,1.63-.22v1.38a5.56,5.56,0,0,1-1.89.33c-2.3,0-3.45-1.22-3.45-3.64v-7.07h-1.7v-.87l1.7-.75.76-2.54h1v2.76h3.46v1.4h-3.46v7" transform="translate(-18.5 -18.5)" style="fill:#fff"/></g><g id="o-5" data-name="o"><path id="ai" d="M71.75,1170.82H69.91V1155h8.84v1.64h-7v5.8h6.58V1164H71.75v6.78" transform="translate(-18.5 -18.5)" style="fill:#fff"/><path id="P-3" data-name="P" d="M85.3,1171c-2.94,0-4.33-1.33-4.33-4.33v-7.78H82.8v7.72c0,1.92.82,2.88,2.73,2.88,2.71,0,3.59-1.46,3.59-4.35v-6.25h1.8v11.89H89.44l-.26-1.59h-.1A4.23,4.23,0,0,1,85.3,1171" transform="translate(-18.5 -18.5)" style="fill:#fff"/><path id="Q-5" data-name="Q" d="M100.36,1158.71c2.93,0,4.33,1.36,4.32,4.35v7.76h-1.8v-7.69c0-1.92-.82-2.89-2.73-2.89-2.72,0-3.61,1.45-3.61,4.34v6.24h-1.8v-11.89h1.47l.29,1.63h.09a4.31,4.31,0,0,1,3.77-1.85" transform="translate(-18.5 -18.5)" style="fill:#fff"/><path id="N-7" data-name="N" d="M109.59,1164.93c0,2.68,1,4.54,3.5,4.54a8.14,8.14,0,0,0,3-.64v1.59a6.51,6.51,0,0,1-3,.62c-3.57,0-5.42-2.4-5.42-6.09s1.87-6.24,5.53-6.24a8.13,8.13,0,0,1,3.06.62l-.55,1.53a7.75,7.75,0,0,0-2.55-.55c-2.42,0-3.62,1.54-3.62,4.62" transform="translate(-18.5 -18.5)" style="fill:#fff"/><path id="L-10" data-name="L" d="M120.89,1167.33c0,1.33.65,2.21,1.91,2.22a6.87,6.87,0,0,0,1.63-.21v1.37a5.56,5.56,0,0,1-1.89.33c-2.3,0-3.45-1.22-3.45-3.64v-7.07h-1.7v-.87l1.7-.75.76-2.54h1v2.76h3.45v1.4h-3.45v7" transform="translate(-18.5 -18.5)" style="fill:#fff"/><path id="ac-4" data-name="ac" d="M128.61,1170.82h-1.8v-11.89h1.8Zm-.89-13.91c-.66,0-1.06-.46-1.06-1.2s.39-1.2,1.06-1.2a1.21,1.21,0,0,1,0,2.4" transform="translate(-18.5 -18.5)" style="fill:#fff"/><path id="O-6" data-name="O" d="M137.26,1158.71c3.42,0,5.43,2.6,5.43,6.16s-1.95,6.24-5.51,6.17-5.37-2.52-5.41-6.17S133.7,1158.71,137.26,1158.71Zm-.06,1.53c-2.59,0-3.57,1.83-3.57,4.63s1,4.66,3.59,4.66,3.61-1.89,3.61-4.66-1-4.63-3.63-4.63" transform="translate(-18.5 -18.5)" style="fill:#fff"/><path id="Q-6" data-name="Q" d="M151.47,1158.71c2.93,0,4.33,1.36,4.32,4.35v7.76H154v-7.69c0-1.92-.83-2.89-2.74-2.89-2.71,0-3.6,1.45-3.6,4.34v6.24h-1.8v-11.89h1.46l.3,1.63h.08a4.35,4.35,0,0,1,3.78-1.85" transform="translate(-18.5 -18.5)" style="fill:#fff"/><path id="H-7" data-name="H" d="M163,1160.22c-1.41,0-2.59.35-2.59,1.51,0,.81.43,1.1,1,1.45a15.76,15.76,0,0,0,2.09.88,7.88,7.88,0,0,1,2.85,1.55,2.75,2.75,0,0,1,.75,2c0,2.45-2,3.46-4.71,3.46a7.55,7.55,0,0,1-3.69-.75v-1.67a8.45,8.45,0,0,0,3.73.93c1.62,0,2.93-.39,2.93-1.82a1.6,1.6,0,0,0-.59-1.18c-.61-.6-4-1.72-4.71-2.26a2.76,2.76,0,0,1-1.39-2.44c0-3.55,5.32-3.71,8.18-2.36l-.64,1.47a8.66,8.66,0,0,0-3.24-.74" transform="translate(-18.5 -18.5)" style="fill:#fff"/></g><path d="M118,1059.83v29.62" transform="translate(-18.5 -18.5)" style="fill:none;stroke:#fff;stroke-width:3px"/><path d="M119.45,1059.87h-3v-1.54h3" transform="translate(-18.5 -18.5)" style="fill:#fff"/><path d="M118,1105.22,113.31,1091h9.28Z" transform="translate(-18.5 -18.5)" style="fill:#fff;stroke:#fff;stroke-width:3px"/><path d="M342.75,936.35c16.57,0,30,15.78,30,35.26s-13.43,35.27-30,35.27h-90c-16.57,0-30-15.8-30-35.26s13.43-35.25,30-35.25Z" transform="translate(-18.5 -18.5)" style="fill:#fff;fill-opacity:0;stroke:#fff;stroke-width:3px"/><g id="p-4" data-name="p"><path id="M-4" data-name="M" d="M289.26,965.1l-2-5.05h-6.36L279,965.1h-1.87l6.27-15.93h1.56l6.23,15.93Zm-2.55-6.71c-.87-2.47-1.82-4.55-2.58-7.2-.62,2.49-1.72,4.87-2.55,7.2h5.13" transform="translate(-18.5 -18.5)" style="fill:#fff"/><path id="aj" d="M292.42,959.18c0-3.58,1.59-6.19,4.93-6.19a4.3,4.3,0,0,1,3.71,1.76h.14c-.22-2-.09-4.35-.12-6.54h1.8V965.1h-1.46l-.24-1.6h-.1a4.22,4.22,0,0,1-3.73,1.82C294,965.32,292.42,962.78,292.42,959.18Zm1.87,0c0,2.7.85,4.6,3.29,4.6,2.79,0,3.54-1.63,3.5-4.63s-.74-4.68-3.53-4.68c-2.38,0-3.26,2.07-3.26,4.71" transform="translate(-18.5 -18.5)" style="fill:#fff"/><path id="aj-2" data-name="aj" d="M306,959.18c0-3.58,1.58-6.19,4.93-6.19a4.31,4.31,0,0,1,3.71,1.76h.14c-.22-2-.09-4.35-.12-6.54h1.8V965.1H315l-.24-1.6h-.1a4.23,4.23,0,0,1-3.73,1.82C307.61,965.32,306,962.78,306,959.18Zm1.87,0c0,2.7.84,4.6,3.28,4.6,2.79,0,3.55-1.63,3.51-4.63s-.74-4.68-3.53-4.68c-2.38,0-3.26,2.07-3.26,4.71" transform="translate(-18.5 -18.5)" style="fill:#fff"/></g><g id="q-7" data-name="q"><path id="I-4" data-name="I" d="M252.54,987.41c.07-5,2.69-8.14,7.64-8.14a9.82,9.82,0,0,1,4.36.91l-.78,1.58a8.45,8.45,0,0,0-3.6-.84c-3.63,0-5.64,2.72-5.64,6.51s1.85,6.51,5.62,6.51a14.15,14.15,0,0,0,3.78-.6V995a11.66,11.66,0,0,1-4.07.62c-4.82,0-7.37-3.19-7.31-8.17" transform="translate(-18.5 -18.5)" style="fill:#fff"/><path id="K-8" data-name="K" d="M271.58,983.27c2.82,0,4.17,1.15,4.18,4v8.12h-1.33l-.36-1.69H274a4.3,4.3,0,0,1-4,1.91c-2.29,0-3.78-1.24-3.78-3.51s1.92-3.65,5.77-3.77l2-.07c.12-2.2-.43-3.47-2.52-3.47a7.83,7.83,0,0,0-3.37.91l-.55-1.38A8.62,8.62,0,0,1,271.58,983.27Zm-3.47,8.82c0,1.34.88,2,2.25,2a3.27,3.27,0,0,0,3.6-3.5v-1.08c-2.79.15-5.85-.07-5.85,2.58" transform="translate(-18.5 -18.5)" style="fill:#fff"/><path id="ak" d="M281.27,995.36h-1.8V978.48h1.8v16.88" transform="translate(-18.5 -18.5)" style="fill:#fff"/><path id="G-16" data-name="G" d="M294,994.81a8.68,8.68,0,0,1-3.86.77c-3.57,0-5.69-2.4-5.69-6.07s1.87-6.26,5.22-6.26c3,0,4.89,2.28,4.84,5.35v1.14H286.3c0,2.63,1.31,4.25,3.88,4.26a9.67,9.67,0,0,0,3.8-.8Zm-1.42-6.53c0-2.12-.92-3.52-2.93-3.52s-3.13,1.51-3.29,3.52h6.22" transform="translate(-18.5 -18.5)" style="fill:#fff"/><path id="Q-8" data-name="Q" d="M303.18,983.25c2.93,0,4.33,1.36,4.32,4.35v7.76h-1.8v-7.69c0-1.92-.83-2.89-2.74-2.89-2.71,0-3.6,1.44-3.6,4.34v6.24h-1.8V983.47H299l.29,1.63h.08a4.35,4.35,0,0,1,3.78-1.85" transform="translate(-18.5 -18.5)" style="fill:#fff"/><path id="aj-3" data-name="aj" d="M310.54,989.45c0-3.58,1.58-6.2,4.92-6.2a4.31,4.31,0,0,1,3.71,1.76h.15c-.22-2-.09-4.35-.12-6.53H321v16.88h-1.47l-.24-1.59h-.09a4.27,4.27,0,0,1-3.74,1.81C312.11,995.58,310.54,993,310.54,989.45Zm1.86,0c0,2.7.85,4.6,3.29,4.6,2.79,0,3.55-1.63,3.51-4.62s-.74-4.69-3.53-4.69c-2.39,0-3.27,2.07-3.27,4.71" transform="translate(-18.5 -18.5)" style="fill:#fff"/><path id="K-9" data-name="K" d="M329.29,983.27c2.82,0,4.16,1.15,4.18,4v8.12h-1.34l-.36-1.69h-.08a4.33,4.33,0,0,1-4,1.91c-2.29,0-3.77-1.24-3.77-3.51s1.92-3.65,5.76-3.77l2-.07c.12-2.2-.44-3.47-2.53-3.47a7.76,7.76,0,0,0-3.36.91l-.56-1.38A8.66,8.66,0,0,1,329.29,983.27Zm-3.47,8.82c0,1.34.87,2,2.24,2a3.27,3.27,0,0,0,3.6-3.5v-1.08c-2.78.15-5.84-.07-5.84,2.58" transform="translate(-18.5 -18.5)" style="fill:#fff"/><path id="J-4" data-name="J" d="M339,985.67a4.31,4.31,0,0,1,5.06-2.29l-.25,1.67a5.89,5.89,0,0,0-1.3-.16c-2,0-3.49,2-3.49,4.09v6.38h-1.8V983.47h1.48l.21,2.2H339" transform="translate(-18.5 -18.5)" style="fill:#fff"/></g><path d="M342.75,1056.83c16.57,0,30,14.88,30,33.22s-13.43,33.23-30,33.23h-90c-16.57,0-30-14.88-30-33.23s13.43-33.22,30-33.22Z" transform="translate(-18.5 -18.5)" style="fill:#fff;fill-opacity:0;stroke:#fff;stroke-width:3px"/><g id="r-3" data-name="r"><path id="M-5" data-name="M" d="M257.65,1099.84l-2-5h-6.36l-1.95,5H245.5l6.27-15.93h1.55l6.24,15.93Zm-2.55-6.71c-.88-2.47-1.82-4.56-2.58-7.21-.62,2.5-1.73,4.88-2.55,7.21h5.13" transform="translate(-18.5 -18.5)" style="fill:#fff"/><path id="aj-4" data-name="aj" d="M260.81,1093.92c0-3.58,1.58-6.19,4.93-6.19a4.32,4.32,0,0,1,3.71,1.75h.14c-.22-2-.09-4.35-.12-6.53h1.8v16.89H269.8l-.23-1.6h-.1a4.25,4.25,0,0,1-3.73,1.81C262.38,1100.05,260.81,1097.51,260.81,1093.92Zm1.87,0c0,2.71.84,4.6,3.28,4.6,2.79,0,3.55-1.62,3.51-4.62s-.74-4.69-3.53-4.69c-2.39,0-3.26,2.08-3.26,4.71" transform="translate(-18.5 -18.5)" style="fill:#fff"/><path id="aj-5" data-name="aj" d="M274.43,1093.92c0-3.58,1.58-6.19,4.92-6.19a4.3,4.3,0,0,1,3.71,1.75h.15c-.22-2-.09-4.35-.12-6.53h1.8v16.89h-1.47l-.24-1.6h-.09a4.27,4.27,0,0,1-3.74,1.81C276,1100.05,274.43,1097.51,274.43,1093.92Zm1.86,0c0,2.71.85,4.6,3.29,4.6,2.79,0,3.55-1.62,3.51-4.62s-.74-4.69-3.53-4.69c-2.39,0-3.27,2.08-3.27,4.71" transform="translate(-18.5 -18.5)" style="fill:#fff"/></g><g id="s-4" data-name="s"><path id="aa-2" data-name="aa" d="M303.59,1099.84h-8.84V1084h8.84v1.64h-7v5.11h6.58v1.63h-6.58v5.84h7v1.65" transform="translate(-18.5 -18.5)" style="fill:#fff"/><path id="U-2" data-name="U" d="M310.53,1098.21c1-3.42,1.58-4.59,3.6-10.27h1.93l-4.51,11.9h-2.11l-4.51-11.9h1.93c1.06,3,2.74,7.27,3.58,10.27h.09" transform="translate(-18.5 -18.5)" style="fill:#fff"/><path id="G-17" data-name="G" d="M326.86,1099.28a8.7,8.7,0,0,1-3.87.77c-3.57,0-5.68-2.4-5.68-6.06s1.87-6.26,5.22-6.26c3,0,4.89,2.27,4.84,5.35v1.13h-8.19c0,2.63,1.31,4.26,3.88,4.27a9.67,9.67,0,0,0,3.8-.8Zm-1.42-6.53c0-2.12-.93-3.52-2.93-3.52s-3.13,1.51-3.29,3.52h6.22" transform="translate(-18.5 -18.5)" style="fill:#fff"/><path id="Q-9" data-name="Q" d="M336.06,1087.73c2.93,0,4.33,1.35,4.32,4.35v7.76h-1.8v-7.7c0-1.92-.83-2.88-2.74-2.88-2.71,0-3.6,1.44-3.6,4.34v6.24h-1.8v-11.9h1.46l.3,1.63h.08a4.33,4.33,0,0,1,3.78-1.84" transform="translate(-18.5 -18.5)" style="fill:#fff"/><path id="L-11" data-name="L" d="M346,1096.34c0,1.34.65,2.22,1.91,2.23a6.43,6.43,0,0,0,1.63-.22v1.38a5.87,5.87,0,0,1-1.89.32q-3.45,0-3.45-3.63v-7.08H342.5v-.87l1.71-.74.76-2.54h1v2.75h3.45v1.4H346v7" transform="translate(-18.5 -18.5)" style="fill:#fff"/></g><path d="M342.75,1173.35c16.57,0,30,15.8,30,35.26s-13.43,35.27-30,35.27h-90c-16.57,0-30-15.78-30-35.26s13.43-35.25,30-35.25Z" transform="translate(-18.5 -18.5)" style="fill:#fff;fill-opacity:0;stroke:#fff;stroke-width:3px"/><g id="p-5" data-name="p"><path id="M-6" data-name="M" d="M289.26,1202.1l-2-5h-6.36l-1.95,5h-1.87l6.27-15.93h1.56l6.23,15.93Zm-2.55-6.7c-.87-2.48-1.82-4.56-2.58-7.21-.62,2.5-1.72,4.87-2.55,7.21h5.13" transform="translate(-18.5 -18.5)" style="fill:#fff"/><path id="aj-6" data-name="aj" d="M292.42,1196.19c0-3.58,1.59-6.2,4.93-6.2a4.32,4.32,0,0,1,3.71,1.76h.14c-.22-2-.09-4.35-.12-6.53h1.8v16.88h-1.46l-.24-1.59h-.1a4.24,4.24,0,0,1-3.73,1.81C294,1202.32,292.42,1199.78,292.42,1196.19Zm1.87,0c0,2.7.85,4.6,3.29,4.6,2.79,0,3.54-1.63,3.5-4.62s-.74-4.69-3.53-4.69c-2.38,0-3.26,2.07-3.26,4.71" transform="translate(-18.5 -18.5)" style="fill:#fff"/><path id="aj-7" data-name="aj" d="M306,1196.19c0-3.58,1.58-6.2,4.93-6.2a4.33,4.33,0,0,1,3.71,1.76h.14c-.22-2-.09-4.35-.12-6.53h1.8v16.88H315l-.24-1.59h-.1a4.25,4.25,0,0,1-3.73,1.81C307.61,1202.32,306,1199.78,306,1196.19Zm1.87,0c0,2.7.84,4.6,3.28,4.6,2.79,0,3.55-1.63,3.51-4.62s-.74-4.69-3.53-4.69c-2.38,0-3.26,2.07-3.26,4.71" transform="translate(-18.5 -18.5)" style="fill:#fff"/></g><g id="t-2" data-name="t"><path id="ag-2" data-name="ag" d="M253.65,1216.5c3.57,0,5.7,1.18,5.7,4.48a4.22,4.22,0,0,1-3.19,4.26l4.31,7.12h-2.18l-3.84-6.59h-3.31v6.59H249.3V1216.5Zm3.8,4.58c0-2.33-1.4-2.94-3.91-3h-2.4v6.06h2.53c2.42,0,3.78-.84,3.78-3.1" transform="translate(-18.5 -18.5)" style="fill:#fff"/><path id="G-18" data-name="G" d="M271.65,1231.81a8.68,8.68,0,0,1-3.86.77c-3.57,0-5.69-2.4-5.69-6.06s1.87-6.26,5.22-6.26c3,0,4.89,2.27,4.84,5.34v1.14H264c0,2.63,1.31,4.26,3.88,4.27a9.67,9.67,0,0,0,3.8-.8Zm-1.42-6.53c0-2.12-.93-3.52-2.93-3.52s-3.13,1.51-3.29,3.52h6.22" transform="translate(-18.5 -18.5)" style="fill:#fff"/><path id="al" d="M288.16,1220.26c2.81,0,4,1.42,4,4.35v7.75h-1.8v-7.73c0-1.82-.72-2.84-2.5-2.84-2.4,0-3.29,1.42-3.29,3.93v6.64h-1.8v-7.73c0-1.84-.71-2.84-2.5-2.84-2.55,0-3.27,1.54-3.27,4.34v6.23h-1.8v-11.89h1.46l.3,1.63h.08a4,4,0,0,1,3.52-1.84c1.86,0,3.07.67,3.65,2h.08a4.23,4.23,0,0,1,3.84-2" transform="translate(-18.5 -18.5)" style="fill:#fff"/><path id="ac-5" data-name="ac" d="M297.7,1232.36h-1.8v-11.89h1.8Zm-.89-13.91c-.66,0-1.06-.46-1.06-1.2s.39-1.19,1.06-1.19a1.2,1.2,0,0,1,0,2.39" transform="translate(-18.5 -18.5)" style="fill:#fff"/><path id="Q-10" data-name="Q" d="M307.14,1220.26c2.93,0,4.33,1.35,4.32,4.35v7.75h-1.8v-7.69c0-1.92-.83-2.88-2.74-2.88-2.71,0-3.6,1.44-3.6,4.34v6.23h-1.8v-11.89H303l.29,1.63h.09a4.31,4.31,0,0,1,3.77-1.84" transform="translate(-18.5 -18.5)" style="fill:#fff"/><path id="aj-8" data-name="aj" d="M314.5,1226.45c0-3.58,1.58-6.19,4.92-6.19a4.33,4.33,0,0,1,3.72,1.75h.14c-.22-2-.09-4.35-.12-6.53H325v16.88h-1.47l-.24-1.59h-.09a4.27,4.27,0,0,1-3.74,1.81C316.07,1232.58,314.5,1230,314.5,1226.45Zm1.86,0c0,2.7.85,4.6,3.29,4.6,2.79,0,3.55-1.62,3.51-4.62s-.74-4.69-3.53-4.69c-2.39,0-3.27,2.08-3.27,4.71" transform="translate(-18.5 -18.5)" style="fill:#fff"/><path id="G-19" data-name="G" d="M337.66,1231.81a8.65,8.65,0,0,1-3.86.77c-3.57,0-5.68-2.4-5.68-6.06s1.86-6.26,5.21-6.26c3,0,4.9,2.27,4.84,5.34v1.14H330c0,2.63,1.31,4.26,3.89,4.27a9.59,9.59,0,0,0,3.79-.8Zm-1.42-6.53c0-2.12-.92-3.52-2.93-3.52s-3.12,1.51-3.28,3.52h6.21" transform="translate(-18.5 -18.5)" style="fill:#fff"/><path id="J-5" data-name="J" d="M343,1222.67a4.32,4.32,0,0,1,5.07-2.28l-.25,1.67a6,6,0,0,0-1.3-.17c-2,0-3.49,2-3.49,4.09v6.38h-1.8v-11.89h1.48l.21,2.2H343" transform="translate(-18.5 -18.5)" style="fill:#fff"/></g><path d="M297.75,1009.87v24.84" transform="translate(-18.5 -18.5)" style="fill:none;stroke:#fff;stroke-width:3px"/><path d="M299.25,1009.9h-3v-1.53h3" transform="translate(-18.5 -18.5)" style="fill:#fff"/><path d="M297.75,1050.48l-4.63-14.27h9.27Z" transform="translate(-18.5 -18.5)" style="fill:#fff;stroke:#fff;stroke-width:3px"/><path d="M297.75,1126.28v25" transform="translate(-18.5 -18.5)" style="fill:none;stroke:#fff;stroke-width:3px"/><path d="M299.25,1126.3h-3v-1.52h3" transform="translate(-18.5 -18.5)" style="fill:#fff"/><path d="M297.75,1167l-4.63-14.27h9.27Z" transform="translate(-18.5 -18.5)" style="fill:#fff;stroke:#fff;stroke-width:3px"/><path d="M528,1054.8c16.57,0,30,15.78,30,35.25s-13.43,35.27-30,35.27H438c-16.57,0-30-15.8-30-35.27s13.43-35.26,30-35.26Z" transform="translate(-18.5 -18.5)" style="fill:#fff;fill-opacity:0;stroke:#fff;stroke-width:3px"/><g id="u-3" data-name="u"><path id="M-7" data-name="M" d="M462,1083.54l-2-5h-6.36l-1.95,5h-1.87l6.27-15.92h1.56l6.24,15.92Zm-2.55-6.7c-.88-2.48-1.83-4.56-2.59-7.21-.62,2.5-1.72,4.88-2.55,7.21h5.14" transform="translate(-18.5 -18.5)" style="fill:#fff"/><path id="L-12" data-name="L" d="M467.7,1080.05c0,1.33.65,2.21,1.91,2.22a6,6,0,0,0,1.62-.21v1.38a5.76,5.76,0,0,1-1.88.32q-3.45,0-3.45-3.63v-7.08h-1.71v-.87l1.71-.75.75-2.53h1.05v2.75h3.45v1.4H467.7v7" transform="translate(-18.5 -18.5)" style="fill:#fff"/><path id="L-13" data-name="L" d="M475.54,1080.05c0,1.33.65,2.21,1.91,2.22a6,6,0,0,0,1.63-.21v1.38a5.87,5.87,0,0,1-1.89.32q-3.45,0-3.45-3.63v-7.08H472v-.87l1.7-.75.76-2.53h1v2.75H479v1.4h-3.45v7" transform="translate(-18.5 -18.5)" style="fill:#fff"/><path id="K-10" data-name="K" d="M485.93,1071.46c2.82,0,4.16,1.15,4.17,4v8.11h-1.33l-.36-1.69h-.09a4.28,4.28,0,0,1-4,1.91c-2.29,0-3.77-1.24-3.77-3.5s1.92-3.66,5.76-3.78l2-.06c.11-2.21-.44-3.48-2.53-3.48a8,8,0,0,0-3.37.91l-.55-1.37A8.51,8.51,0,0,1,485.93,1071.46Zm-3.48,8.82c0,1.33.88,2,2.25,2a3.27,3.27,0,0,0,3.6-3.5v-1.07c-2.79.15-5.85-.08-5.85,2.58" transform="translate(-18.5 -18.5)" style="fill:#fff"/><path id="N-8" data-name="N" d="M495,1077.65c0,2.68,1,4.54,3.5,4.54a8.14,8.14,0,0,0,3.05-.64v1.59a6.51,6.51,0,0,1-3,.62c-3.57,0-5.42-2.4-5.42-6.09s1.87-6.24,5.54-6.24a8.22,8.22,0,0,1,3.06.62l-.56,1.53a7.75,7.75,0,0,0-2.55-.55c-2.42,0-3.62,1.54-3.62,4.62" transform="translate(-18.5 -18.5)" style="fill:#fff"/><path id="ah-2" data-name="ah" d="M510,1071.46c2.94,0,4.36,1.33,4.36,4.33v7.75h-1.8v-7.69c0-1.92-.82-2.89-2.73-2.89-2.73,0-3.61,1.47-3.61,4.37v6.21h-1.8v-16.88h1.8c0,2.17.09,4.62-.08,6.64h.11a4.27,4.27,0,0,1,3.75-1.84" transform="translate(-18.5 -18.5)" style="fill:#fff"/></g><g id="v-2" data-name="v"><path id="am" d="M437.91,1113.81v-15.87h1.84v14.2h7v1.67h-8.84" transform="translate(-18.5 -18.5)" style="fill:#fff"/><path id="O-7" data-name="O" d="M454,1101.7c3.43,0,5.43,2.59,5.43,6.15s-1.95,6.24-5.51,6.17-5.37-2.51-5.41-6.17S450.44,1101.7,454,1101.7Zm-.06,1.53c-2.59,0-3.57,1.82-3.57,4.62s1,4.67,3.59,4.67,3.61-1.89,3.61-4.67-1-4.62-3.63-4.62" transform="translate(-18.5 -18.5)" style="fill:#fff"/><path id="N-9" data-name="N" d="M463.8,1107.91c0,2.68,1,4.54,3.5,4.54a8.14,8.14,0,0,0,3.05-.64v1.6a6.53,6.53,0,0,1-3,.61c-3.57,0-5.41-2.39-5.41-6.08s1.87-6.24,5.53-6.24a8,8,0,0,1,3.06.62l-.55,1.53a7.51,7.51,0,0,0-2.55-.56c-2.42,0-3.62,1.54-3.62,4.62" transform="translate(-18.5 -18.5)" style="fill:#fff"/><path id="K-11" data-name="K" d="M477.64,1101.72c2.82,0,4.17,1.15,4.18,4v8.12h-1.34l-.35-1.7H480a4.31,4.31,0,0,1-4,1.91c-2.29,0-3.78-1.23-3.78-3.5s1.92-3.66,5.76-3.78l2-.06c.12-2.21-.43-3.47-2.53-3.47a7.79,7.79,0,0,0-3.36.91l-.55-1.38A8.5,8.5,0,0,1,477.64,1101.72Zm-3.47,8.82c0,1.34.88,2,2.24,2A3.29,3.29,0,0,0,480,1109V1108c-2.79.15-5.85-.08-5.85,2.58" transform="translate(-18.5 -18.5)" style="fill:#fff"/><path id="ak-2" data-name="ak" d="M487.33,1113.81h-1.8v-16.89h1.8v16.89" transform="translate(-18.5 -18.5)" style="fill:#fff"/></g><g id="w-3" data-name="w"><path id="ai-2" data-name="ai" d="M499,1113.81h-1.85v-15.87H506v1.64h-7v5.81h6.57V1107H499v6.79" transform="translate(-18.5 -18.5)" style="fill:#fff"/><path id="ac-6" data-name="ac" d="M510.19,1113.81h-1.8v-11.9h1.8Zm-.89-13.91c-.66,0-1.06-.47-1.06-1.21s.39-1.19,1.06-1.19a1.06,1.06,0,0,1,1.07,1.19,1.08,1.08,0,0,1-1.07,1.21" transform="translate(-18.5 -18.5)" style="fill:#fff"/><path id="ak-3" data-name="ak" d="M515.81,1113.81H514v-16.89h1.8v16.89" transform="translate(-18.5 -18.5)" style="fill:#fff"/><path id="G-20" data-name="G" d="M528.52,1113.25a8.68,8.68,0,0,1-3.86.77c-3.57,0-5.69-2.39-5.69-6.06s1.87-6.26,5.22-6.26c3,0,4.89,2.28,4.84,5.35v1.14h-8.19c0,2.62,1.31,4.25,3.88,4.26a9.67,9.67,0,0,0,3.8-.8Zm-1.42-6.53c0-2.11-.92-3.51-2.93-3.51s-3.13,1.5-3.29,3.51h6.22" transform="translate(-18.5 -18.5)" style="fill:#fff"/></g><path d="M703.38,1056.83c16.57,0,30,14.83,30,33.1s-13.43,33.12-30,33.12h-90c-16.57,0-30-14.82-30-33.1s13.43-33.12,30-33.12Z" transform="translate(-18.5 -18.5)" style="fill:#fff;fill-opacity:0;stroke:#fff;stroke-width:3px"/><g id="x-4" data-name="x"><path id="an" d="M614.6,1085.39c-1.75,0-3.11.75-3.11,2.38a2.34,2.34,0,0,0,1.33,2.32,12,12,0,0,0,2.21,1,8.67,8.67,0,0,1,3.44,1.91,3.72,3.72,0,0,1,.93,2.64c0,3-2.47,4.44-5.64,4.44a10.41,10.41,0,0,1-4.34-.72v-1.78a12.16,12.16,0,0,0,4.4.89c2.16,0,3.71-.74,3.71-2.65a2.31,2.31,0,0,0-1.43-2.32,14.51,14.51,0,0,0-2.36-1,7.47,7.47,0,0,1-3.17-1.88,4.17,4.17,0,0,1-1-2.83c0-2.6,2.27-4,5-4a10.93,10.93,0,0,1,4.35.87l-.58,1.61a9.66,9.66,0,0,0-3.82-.83" transform="translate(-18.5 -18.5)" style="fill:#fff"/><path id="ah-3" data-name="ah" d="M628,1087.75c2.94,0,4.36,1.33,4.36,4.33v7.76h-1.8v-7.7c0-1.92-.82-2.88-2.73-2.88-2.73,0-3.61,1.46-3.61,4.36v6.22h-1.8V1083h1.8c0,2.17.09,4.62-.08,6.64h.11a4.26,4.26,0,0,1,3.75-1.84" transform="translate(-18.5 -18.5)" style="fill:#fff"/><path id="K-12" data-name="K" d="M640.48,1087.75c2.82,0,4.17,1.15,4.18,4v8.12h-1.33l-.36-1.7h-.09a4.3,4.3,0,0,1-4,1.91c-2.29,0-3.78-1.23-3.78-3.5s1.92-3.66,5.76-3.78l2-.06c.12-2.21-.43-3.48-2.53-3.48a7.86,7.86,0,0,0-3.36.92l-.55-1.38A8.5,8.5,0,0,1,640.48,1087.75Zm-3.47,8.82c0,1.33.88,2,2.25,2a3.28,3.28,0,0,0,3.6-3.51V1094c-2.79.15-5.85-.08-5.85,2.58" transform="translate(-18.5 -18.5)" style="fill:#fff"/><path id="J-6" data-name="J" d="M650.15,1090.15a4.32,4.32,0,0,1,5.07-2.29l-.25,1.67a6,6,0,0,0-1.3-.17c-2,0-3.5,2-3.5,4.1v6.38h-1.8v-11.9h1.49l.2,2.21h.09" transform="translate(-18.5 -18.5)" style="fill:#fff"/><path id="G-21" data-name="G" d="M665.88,1099.28a8.65,8.65,0,0,1-3.86.77c-3.57,0-5.69-2.4-5.69-6.06s1.87-6.26,5.22-6.26c3,0,4.9,2.27,4.84,5.35v1.13H658.2c0,2.63,1.31,4.26,3.89,4.27a9.59,9.59,0,0,0,3.79-.8Zm-1.42-6.53c0-2.12-.92-3.52-2.93-3.52s-3.12,1.51-3.29,3.52h6.22" transform="translate(-18.5 -18.5)" style="fill:#fff"/></g><g id="w-4" data-name="w"><path id="ai-3" data-name="ai" d="M677.35,1099.84h-1.84V1084h8.84v1.64h-7v5.81h6.58v1.63h-6.58v6.79" transform="translate(-18.5 -18.5)" style="fill:#fff"/><path id="ac-7" data-name="ac" d="M688.51,1099.84h-1.8v-11.9h1.8Zm-.89-13.92a1.06,1.06,0,0,1-1.07-1.2c0-.75.39-1.19,1.07-1.19a1.2,1.2,0,0,1,0,2.39" transform="translate(-18.5 -18.5)" style="fill:#fff"/><path id="ak-4" data-name="ak" d="M694.13,1099.84h-1.8V1083h1.8v16.89" transform="translate(-18.5 -18.5)" style="fill:#fff"/><path id="G-22" data-name="G" d="M706.83,1099.28a8.65,8.65,0,0,1-3.86.77c-3.57,0-5.68-2.4-5.68-6.06s1.86-6.26,5.21-6.26c3,0,4.9,2.27,4.84,5.35v1.13h-8.19c.05,2.63,1.31,4.26,3.89,4.27a9.59,9.59,0,0,0,3.79-.8Zm-1.42-6.53c0-2.12-.92-3.52-2.93-3.52s-3.12,1.51-3.28,3.52h6.21" transform="translate(-18.5 -18.5)" style="fill:#fff"/></g><path d="M883.35,1054.68c16.56,0,30,15.8,30,35.26s-13.44,35.26-30,35.26h-90c-16.57,0-30-15.78-30-35.26s13.43-35.26,30-35.26Z" transform="translate(-18.5 -18.5)" style="fill:#fff;fill-opacity:0;stroke:#fff;stroke-width:3px"/><g id="f-3" data-name="f"><path id="I-5" data-name="I" d="M805.82,1075.48c.06-5,2.69-8.14,7.63-8.14a9.86,9.86,0,0,1,4.37.91l-.78,1.59a8.36,8.36,0,0,0-3.61-.85c-3.62,0-5.64,2.72-5.64,6.51s1.86,6.51,5.62,6.51a14.15,14.15,0,0,0,3.79-.6V1083a11.69,11.69,0,0,1-4.07.62c-4.83,0-7.38-3.19-7.31-8.17" transform="translate(-18.5 -18.5)" style="fill:#fff"/><path id="J-7" data-name="J" d="M822.17,1073.74a4.32,4.32,0,0,1,5.06-2.29l-.24,1.67a6,6,0,0,0-1.31-.16c-2,0-3.49,2-3.49,4.09v6.38h-1.8v-11.89h1.48l.21,2.2h.09" transform="translate(-18.5 -18.5)" style="fill:#fff"/><path id="G-23" data-name="G" d="M837.9,1082.88a8.68,8.68,0,0,1-3.86.77c-3.57,0-5.69-2.4-5.69-6.07s1.87-6.26,5.22-6.26c3,0,4.9,2.28,4.84,5.35v1.14h-8.19c0,2.63,1.31,4.25,3.88,4.27a9.69,9.69,0,0,0,3.8-.81Zm-1.42-6.53c0-2.12-.92-3.52-2.93-3.52s-3.12,1.51-3.29,3.52h6.22" transform="translate(-18.5 -18.5)" style="fill:#fff"/><path id="K-13" data-name="K" d="M846,1071.34c2.82,0,4.17,1.15,4.18,4v8.11H848.8l-.36-1.69h-.09a4.32,4.32,0,0,1-4,1.91c-2.29,0-3.78-1.24-3.78-3.51s1.92-3.65,5.76-3.77l2-.07c.12-2.2-.43-3.47-2.53-3.47a7.83,7.83,0,0,0-3.36.91l-.55-1.38A8.62,8.62,0,0,1,846,1071.34Zm-3.47,8.83c0,1.33.88,2,2.25,2a3.27,3.27,0,0,0,3.6-3.5v-1.08c-2.79.16-5.85-.07-5.85,2.59" transform="translate(-18.5 -18.5)" style="fill:#fff"/><path id="L-14" data-name="L" d="M855.77,1079.94c0,1.33.65,2.21,1.91,2.22a6.87,6.87,0,0,0,1.63-.21v1.37a5.6,5.6,0,0,1-1.89.33c-2.3,0-3.45-1.22-3.45-3.64v-7.07h-1.7v-.87l1.7-.75.76-2.54h1v2.76h3.45v1.4h-3.45v7" transform="translate(-18.5 -18.5)" style="fill:#fff"/><path id="G-24" data-name="G" d="M870.57,1082.88a8.65,8.65,0,0,1-3.86.77c-3.57,0-5.69-2.4-5.69-6.07s1.87-6.26,5.22-6.26c3,0,4.9,2.28,4.84,5.35v1.14h-8.19c0,2.63,1.31,4.25,3.88,4.27a9.65,9.65,0,0,0,3.8-.81Zm-1.42-6.53c0-2.12-.92-3.52-2.93-3.52s-3.12,1.51-3.29,3.52h6.22" transform="translate(-18.5 -18.5)" style="fill:#fff"/></g><g id="y-2" data-name="y"><path id="an-2" data-name="an" d="M799.65,1099.25c-1.76,0-3.11.75-3.11,2.38a2.33,2.33,0,0,0,1.33,2.32,12.67,12.67,0,0,0,2.21,1,8.67,8.67,0,0,1,3.44,1.91,3.77,3.77,0,0,1,.93,2.64c0,3-2.48,4.44-5.64,4.44a10.2,10.2,0,0,1-4.34-.73v-1.78a11.91,11.91,0,0,0,4.4.89c2.16,0,3.71-.73,3.71-2.64a2.33,2.33,0,0,0-1.43-2.33,15.38,15.38,0,0,0-2.37-1,7.59,7.59,0,0,1-3.16-1.88,4.17,4.17,0,0,1-1-2.83c0-2.6,2.27-4,5-4a10.93,10.93,0,0,1,4.35.87l-.58,1.61a9.66,9.66,0,0,0-3.82-.83" transform="translate(-18.5 -18.5)" style="fill:#fff"/><path id="P-6" data-name="P" d="M811.62,1113.91c-2.94,0-4.33-1.33-4.33-4.33v-7.78h1.82v7.72c0,1.92.83,2.88,2.74,2.88,2.71,0,3.59-1.46,3.59-4.35v-6.25h1.8v11.89h-1.49l-.26-1.59h-.09a4.24,4.24,0,0,1-3.78,1.81" transform="translate(-18.5 -18.5)" style="fill:#fff"/><path id="ao" d="M826.59,1113.91a4.31,4.31,0,0,1-3.73-1.75h-.13l-.38,1.53h-1.29v-16.88h1.8c0,2.15.07,4.59-.08,6.58h.08a4.27,4.27,0,0,1,3.73-1.78c3.37,0,4.94,2.54,4.94,6.13S829.94,1113.91,826.59,1113.91Zm3.08-6.19c0-2.79-.79-4.61-3.34-4.61-2.77,0-3.47,1.59-3.47,4.63s.74,4.66,3.52,4.66c2.47,0,3.29-2,3.29-4.68" transform="translate(-18.5 -18.5)" style="fill:#fff"/><path id="Z-2" data-name="Z" d="M845.15,1107.74c0,3.57-1.6,6.17-4.94,6.17a4.31,4.31,0,0,1-3.73-1.75h-.13c.25,2.16.08,4.54.13,6.87h-1.8V1101.8h1.46l.25,1.63h.09a4.15,4.15,0,0,1,3.73-1.85C843.59,1101.58,845.15,1104.16,845.15,1107.74Zm-1.87,0c0-2.63-.95-4.61-3.33-4.61-2.78,0-3.5,1.68-3.47,4.63s.74,4.66,3.52,4.66c2.31,0,3.28-2.12,3.28-4.68" transform="translate(-18.5 -18.5)" style="fill:#fff"/><path id="K-14" data-name="K" d="M852.77,1101.61c2.82,0,4.16,1.15,4.17,4v8.11h-1.33l-.36-1.69h-.09a4.28,4.28,0,0,1-4,1.91c-2.29,0-3.77-1.24-3.77-3.5s1.92-3.66,5.76-3.78l2-.06c.12-2.21-.44-3.48-2.53-3.48a8,8,0,0,0-3.37.91l-.55-1.37A8.54,8.54,0,0,1,852.77,1101.61Zm-3.48,8.82c0,1.33.88,2,2.25,2a3.27,3.27,0,0,0,3.6-3.5v-1.07c-2.79.15-5.85-.08-5.85,2.58" transform="translate(-18.5 -18.5)" style="fill:#fff"/><path id="X-5" data-name="X" d="M860.1,1105.65c0-2.68,1.75-4.09,4.49-4.07a6.29,6.29,0,0,1,1.69.22h4.11v1.14l-2.2.26a4.06,4.06,0,0,1,.78,2.38c0,2.76-2.47,4.23-5.47,3.74a1.76,1.76,0,0,0-1.15,1.53c0,.85.71,1,1.78,1h2.1c2.38,0,4,.94,4,3.18a3.38,3.38,0,0,1-1.59,3,8.36,8.36,0,0,1-4.62,1c-2.71,0-4.86-.9-4.86-3.32a3,3,0,0,1,2.65-3,1.77,1.77,0,0,1-1.08-1.65c0-1.13.62-1.55,1.45-2.08A3.59,3.59,0,0,1,860.1,1105.65Zm3.4,7.77c-1.55,0-2.63.76-2.6,2.27s1.43,2,3.15,2a6.38,6.38,0,0,0,3.35-.68,2.07,2.07,0,0,0,1.1-1.83c0-1.6-1-1.72-2.84-1.72Zm1-10.52a2.4,2.4,0,0,0-2.64,2.71,2.36,2.36,0,0,0,2.67,2.53c1.76,0,2.64-.86,2.64-2.56a2.36,2.36,0,0,0-2.67-2.68" transform="translate(-18.5 -18.5)" style="fill:#fff"/><path id="G-25" data-name="G" d="M881.72,1113.14a8.7,8.7,0,0,1-3.87.77c-3.57,0-5.68-2.4-5.68-6.06s1.86-6.27,5.22-6.27c3,0,4.89,2.28,4.84,5.35v1.14H874c.05,2.63,1.32,4.26,3.89,4.27a9.51,9.51,0,0,0,3.8-.81Zm-1.43-6.53c0-2.12-.92-3.52-2.92-3.52s-3.13,1.51-3.29,3.52h6.21" transform="translate(-18.5 -18.5)" style="fill:#fff"/></g><path d="M118,881.5v86.77" transform="translate(-18.5 -18.5)" style="fill:none;stroke:#fff;stroke-width:3px"/><path d="M119.45,881.54h-3V880h3" transform="translate(-18.5 -18.5)" style="fill:#fff"/><path d="M118,984l-4.64-14.27h9.28Z" transform="translate(-18.5 -18.5)" style="fill:#fff;stroke:#fff;stroke-width:3px"/><path d="M297.75,881.5v32.73" transform="translate(-18.5 -18.5)" style="fill:none;stroke:#fff;stroke-width:3px"/><path d="M299.25,881.54h-3V880h3" transform="translate(-18.5 -18.5)" style="fill:#fff"/><path d="M297.75,930l-4.63-14.27h9.27Z" transform="translate(-18.5 -18.5)" style="fill:#fff;stroke:#fff;stroke-width:3px"/><path d="M483,881.5v151.17" transform="translate(-18.5 -18.5)" style="fill:none;stroke:#fff;stroke-width:3px"/><path d="M484.45,881.54h-3V880h3" transform="translate(-18.5 -18.5)" style="fill:#fff"/><path d="M483,1048.44l-4.64-14.27h9.28Z" transform="translate(-18.5 -18.5)" style="fill:#fff;stroke:#fff;stroke-width:3px"/><path d="M658.38,881.5v153.2" transform="translate(-18.5 -18.5)" style="fill:none;stroke:#fff;stroke-width:3px"/><path d="M659.88,881.54h-3V880h3" transform="translate(-18.5 -18.5)" style="fill:#fff"/><path d="M658.38,1050.48l-4.63-14.27H663Z" transform="translate(-18.5 -18.5)" style="fill:#fff;stroke:#fff;stroke-width:3px"/><path d="M838.35,881.5v151.06" transform="translate(-18.5 -18.5)" style="fill:none;stroke:#fff;stroke-width:3px"/><path d="M839.85,881.54h-3V880h3" transform="translate(-18.5 -18.5)" style="fill:#fff"/><path d="M838.35,1048.33l-4.64-14.27H843Z" transform="translate(-18.5 -18.5)" style="fill:#fff;stroke:#fff;stroke-width:3px"/><path d="M118,1185.1v112.78" transform="translate(-18.5 -18.5)" style="fill:none;stroke:#fff;stroke-width:3px"/><path d="M119.45,1185.13h-3v-1.53h3" transform="translate(-18.5 -18.5)" style="fill:#fff"/><path d="M118,1313.65l-4.64-14.27h9.28Z" transform="translate(-18.5 -18.5)" style="fill:#fff;stroke:#fff;stroke-width:3px"/><path d="M297.75,1246.87v51" transform="translate(-18.5 -18.5)" style="fill:none;stroke:#fff;stroke-width:3px"/><path d="M299.25,1246.9h-3v-1.53h3" transform="translate(-18.5 -18.5)" style="fill:#fff"/><path d="M297.75,1313.64l-4.63-14.26h9.27Z" transform="translate(-18.5 -18.5)" style="fill:#fff;stroke:#fff;stroke-width:3px"/><path d="M483,1128.32v169.56" transform="translate(-18.5 -18.5)" style="fill:none;stroke:#fff;stroke-width:3px"/><path d="M484.45,1128.36h-3v-1.54h3" transform="translate(-18.5 -18.5)" style="fill:#fff"/><path d="M483,1313.65l-4.64-14.27h9.28Z" transform="translate(-18.5 -18.5)" style="fill:#fff;stroke:#fff;stroke-width:3px"/><path d="M658.38,1126.05v171.83" transform="translate(-18.5 -18.5)" style="fill:none;stroke:#fff;stroke-width:3px"/><path d="M659.88,1126.1h-3v-1.55h3" transform="translate(-18.5 -18.5)" style="fill:#fff"/><path d="M658.38,1313.65l-4.63-14.27H663Z" transform="translate(-18.5 -18.5)" style="fill:#fff;stroke:#fff;stroke-width:3px"/><path d="M838.35,1128.2v169.68" transform="translate(-18.5 -18.5)" style="fill:none;stroke:#fff;stroke-width:3px"/><path d="M839.85,1128.24h-3v-1.54h3" transform="translate(-18.5 -18.5)" style="fill:#fff"/><path d="M838.35,1313.65l-4.64-14.27H843Z" transform="translate(-18.5 -18.5)" style="fill:#fff;stroke:#fff;stroke-width:3px"/><path d="M869,1332.33V1384a6,6,0,0,0,6,6h92a6,6,0,0,0,6-6V796a6,6,0,0,0-6-6h-99.2a6,6,0,0,0-6,6v41.88m7.2,494.49v-1.54" transform="translate(-18.5 -18.5)" style="fill:none;stroke:#fff;stroke-width:3px"/><path d="M861.75,853.65l-4.64-14.27h9.27Z" transform="translate(-18.5 -18.5)" style="fill:#fff;stroke:#fff;stroke-width:3px"/><path d="M483,1341.5v36.38" transform="translate(-18.5 -18.5)" style="fill:none;stroke:#fff;stroke-width:3px"/><path d="M484.45,1341.54h-3V1340h3" transform="translate(-18.5 -18.5)" style="fill:#fff"/><path d="M483,1393.64l-4.64-14.26h9.28Z" transform="translate(-18.5 -18.5)" style="fill:#fff;stroke:#fff;stroke-width:3px"/><path d="M473,63v57.4" transform="translate(-18.5 -18.5)" style="fill:none;stroke:#fff;stroke-width:3px"/><path d="M472.88,61.5l1.57,0v1.6h-3V61.32" transform="translate(-18.5 -18.5)" style="fill:#fff"/><path d="M473,136.16l-4.64-14.27h9.28Z" transform="translate(-18.5 -18.5)" style="fill:#fff;stroke:#fff;stroke-width:3px"/><g id="z-3" data-name="z"><path id="S-5" data-name="S" d="M494,98.66c-.27-4.23-.11-8.79-.15-13.26h1.73v15.87h-2.11L484.75,88h-.09c.33,4.4.11,8.74.18,13.32h-1.71V85.4h2.09l8.65,13.26H494" transform="translate(-18.5 -18.5)" style="fill:#fff"/><path id="G-26" data-name="G" d="M508.5,100.71a8.65,8.65,0,0,1-3.86.78c-3.57,0-5.69-2.4-5.69-6.07s1.87-6.26,5.22-6.26c3,0,4.9,2.28,4.84,5.35v1.14h-8.19c0,2.62,1.31,4.25,3.88,4.26a9.64,9.64,0,0,0,3.8-.8Zm-1.42-6.53c0-2.11-.92-3.51-2.93-3.51s-3.12,1.51-3.29,3.51h6.22" transform="translate(-18.5 -18.5)" style="fill:#fff"/><path id="V-3" data-name="V" d="M522.41,99.34c.43-2.34.82-3.36,2.5-10h1.87l-3.29,11.89h-2.14c-1.07-3.6-2-6-3-9.89h-.09c-.86,3.77-2,6.43-3,9.89h-2.09L510,89.38h1.89c.77,3,1.34,5.26,1.74,6.82a29.46,29.46,0,0,1,.7,3.16h.08c.83-3.56,2-6.63,3-10h2l2.12,6.82a23.35,23.35,0,0,1,.83,3.14h.08" transform="translate(-18.5 -18.5)" style="fill:#fff"/></g><g id="A-2" data-name="A"><path id="af-2" data-name="af" d="M540.92,99.87c2.66,0,4.18-1.49,4.18-4.14V85.4H547V95.67c0,3.65-2.44,5.82-6.14,5.82s-6-2.2-6-5.86V85.4h1.85V95.76c0,2.69,1.53,4.11,4.27,4.11" transform="translate(-18.5 -18.5)" style="fill:#fff"/><path id="H-8" data-name="H" d="M554.41,90.67c-1.41,0-2.58.34-2.58,1.51,0,.81.42,1.09,1,1.45a15.46,15.46,0,0,0,2.08.88,8,8,0,0,1,2.86,1.55,2.71,2.71,0,0,1,.75,2c0,2.46-2,3.47-4.71,3.47a7.53,7.53,0,0,1-3.69-.75V99.07a8.42,8.42,0,0,0,3.73.93c1.62,0,2.93-.39,2.93-1.82a1.63,1.63,0,0,0-.6-1.19c-.6-.59-4-1.71-4.71-2.25a2.77,2.77,0,0,1-1.38-2.45c0-3.54,5.31-3.71,8.18-2.35l-.64,1.46a8.88,8.88,0,0,0-3.25-.73" transform="translate(-18.5 -18.5)" style="fill:#fff"/><path id="G-27" data-name="G" d="M570.36,100.71a8.65,8.65,0,0,1-3.86.78c-3.57,0-5.69-2.4-5.69-6.07s1.87-6.26,5.22-6.26c3,0,4.9,2.28,4.84,5.35v1.14h-8.19c0,2.62,1.31,4.25,3.88,4.26a9.64,9.64,0,0,0,3.8-.8Zm-1.42-6.53c0-2.11-.92-3.51-2.93-3.51s-3.12,1.51-3.29,3.51h6.22" transform="translate(-18.5 -18.5)" style="fill:#fff"/><path id="J-8" data-name="J" d="M575.72,91.58a4.33,4.33,0,0,1,5.07-2.29L580.54,91a6,6,0,0,0-1.3-.16c-2,0-3.5,2-3.5,4.09v6.38h-1.8V89.38h1.49l.21,2.2h.08" transform="translate(-18.5 -18.5)" style="fill:#fff"/><path id="R-4" data-name="R" d="M585.68,85.18c2.64,0,4.39,1.34,4.38,3.89a4.19,4.19,0,0,1-.84,2.54c-.36.54-2.85,2.52-3.23,3.28a4.32,4.32,0,0,0-.35,2h-1.4c-.06-2.38.47-3.23,1.85-4.41a9.8,9.8,0,0,0,1.85-1.88,2.82,2.82,0,0,0,.39-1.52c0-1.57-1.09-2.34-2.75-2.31a7,7,0,0,0-3.54.94l-.64-1.47A9.05,9.05,0,0,1,585.68,85.18Zm-.67,16.4c-.83,0-1.3-.52-1.3-1.46s.43-1.48,1.3-1.48,1.31.57,1.31,1.48-.46,1.47-1.31,1.46" transform="translate(-18.5 -18.5)" style="fill:#fff"/></g><path d="M293.51,264.24a6,6,0,0,1,8.5,0l16.7,16.7a6,6,0,0,1,0,8.5L302,306.14a6,6,0,0,1-8.5,0l-16.7-16.7a6,6,0,0,1,0-8.5Zm350,0a6,6,0,0,1,8.5,0l16.7,16.7a6,6,0,0,1,0,8.5L652,306.14a6,6,0,0,1-8.5,0l-16.7-16.7a6,6,0,0,1,0-8.5ZM435,340c15.46,0,28,13.43,28,30s-12.54,30-28,30H351c-15.46,0-28-13.43-28-30s12.54-30,28-30Z" transform="translate(-18.5 -18.5)" style="fill:#fff;fill-opacity:0;stroke:#fff;stroke-width:3px"/><g id="B-2" data-name="B"><path id="ag-3" data-name="ag" d="M357.49,362.26c3.57,0,5.71,1.19,5.71,4.48A4.22,4.22,0,0,1,360,371l4.31,7.13h-2.18l-3.84-6.6H355v6.6h-1.85V362.26Zm3.8,4.58c0-2.33-1.4-2.94-3.91-3H355V370h2.52c2.42,0,3.78-.85,3.78-3.11" transform="translate(-18.5 -18.5)" style="fill:#fff"/><path id="G-28" data-name="G" d="M375.49,377.57a8.52,8.52,0,0,1-3.86.77c-3.57,0-5.68-2.39-5.68-6.06s1.86-6.26,5.21-6.26c3,0,4.9,2.28,4.84,5.35v1.14h-8.19c.05,2.62,1.31,4.25,3.89,4.26a9.59,9.59,0,0,0,3.79-.8ZM374.07,371c0-2.11-.92-3.51-2.93-3.51S368,369,367.86,371h6.21" transform="translate(-18.5 -18.5)" style="fill:#fff"/><path id="X-6" data-name="X" d="M378.52,370.09c0-2.68,1.75-4.09,4.49-4.07a6.3,6.3,0,0,1,1.69.21h4.11v1.14l-2.2.26a4.09,4.09,0,0,1,.78,2.38c0,2.77-2.47,4.23-5.47,3.74a1.78,1.78,0,0,0-1.15,1.53c0,.85.71,1,1.78,1h2.1c2.38,0,4,.94,4,3.18a3.38,3.38,0,0,1-1.59,3,8.36,8.36,0,0,1-4.62,1.05c-2.71,0-4.86-.9-4.86-3.32a3,3,0,0,1,2.65-3,1.76,1.76,0,0,1-1.08-1.65c0-1.12.62-1.55,1.44-2.08A3.58,3.58,0,0,1,378.52,370.09Zm3.4,7.77c-1.55,0-2.63.76-2.6,2.26s1.43,2,3.15,2a6.37,6.37,0,0,0,3.35-.69,2.07,2.07,0,0,0,1.1-1.83c0-1.59-1-1.71-2.84-1.71Zm1-10.53A2.4,2.4,0,0,0,380.3,370a2.36,2.36,0,0,0,2.67,2.53c1.76,0,2.64-.86,2.64-2.56a2.36,2.36,0,0,0-2.67-2.68" transform="translate(-18.5 -18.5)" style="fill:#fff"/><path id="ac-8" data-name="ac" d="M393.05,378.13h-1.8v-11.9h1.8Zm-.89-13.91c-.66,0-1.06-.47-1.06-1.21s.39-1.19,1.06-1.19a1.06,1.06,0,0,1,1.06,1.19,1.07,1.07,0,0,1-1.06,1.21" transform="translate(-18.5 -18.5)" style="fill:#fff"/><path id="H-9" data-name="H" d="M400.41,367.53c-1.41,0-2.59.34-2.59,1.5,0,.82.43,1.1,1,1.46a16.25,16.25,0,0,0,2.08.88,7.88,7.88,0,0,1,2.85,1.55,2.71,2.71,0,0,1,.75,2c0,2.46-2,3.46-4.71,3.46a7.68,7.68,0,0,1-3.69-.74v-1.68a8.46,8.46,0,0,0,3.74.94c1.61,0,2.93-.39,2.93-1.83a1.62,1.62,0,0,0-.6-1.18c-.61-.59-4-1.71-4.71-2.25a2.78,2.78,0,0,1-1.39-2.45c0-3.54,5.32-3.71,8.18-2.35l-.64,1.46a8.83,8.83,0,0,0-3.24-.73" transform="translate(-18.5 -18.5)" style="fill:#fff"/><path id="L-15" data-name="L" d="M409.4,374.63c0,1.34.65,2.22,1.91,2.23a6.36,6.36,0,0,0,1.63-.22V378a5.82,5.82,0,0,1-1.89.32q-3.45,0-3.45-3.63v-7.08h-1.7v-.86l1.7-.75.76-2.54h1v2.75h3.45v1.4H409.4v7" transform="translate(-18.5 -18.5)" style="fill:#fff"/><path id="G-29" data-name="G" d="M424.2,377.57a8.52,8.52,0,0,1-3.86.77c-3.57,0-5.69-2.39-5.69-6.06s1.87-6.26,5.22-6.26c3,0,4.9,2.28,4.84,5.35v1.14h-8.19c0,2.62,1.31,4.25,3.89,4.26a9.63,9.63,0,0,0,3.79-.8ZM422.78,371c0-2.11-.92-3.51-2.93-3.51s-3.12,1.5-3.29,3.51h6.22" transform="translate(-18.5 -18.5)" style="fill:#fff"/><path id="J-9" data-name="J" d="M429.56,368.44a4.32,4.32,0,0,1,5.07-2.29l-.25,1.67a6,6,0,0,0-1.3-.16c-2,0-3.5,2-3.5,4.09v6.38h-1.8v-11.9h1.49l.21,2.21h.08" transform="translate(-18.5 -18.5)" style="fill:#fff"/></g><path d="M595,340c15.46,0,28,13.43,28,30s-12.54,30-28,30H511c-15.46,0-28-13.43-28-30s12.54-30,28-30Z" transform="translate(-18.5 -18.5)" style="fill:#fff;fill-opacity:0;stroke:#fff;stroke-width:3px"/><g id="C-3" data-name="C"><path id="am-2" data-name="am" d="M526.94,378.13V362.26h1.84v14.2h7v1.67h-8.84" transform="translate(-18.5 -18.5)" style="fill:#fff"/><path id="O-8" data-name="O" d="M543,366c3.43,0,5.44,2.59,5.44,6.15s-2,6.24-5.52,6.17-5.37-2.51-5.41-6.17S539.47,366,543,366Zm0,1.53c-2.6,0-3.57,1.82-3.57,4.62s1,4.67,3.59,4.67,3.6-1.89,3.6-4.67-1-4.62-3.62-4.62" transform="translate(-18.5 -18.5)" style="fill:#fff"/><path id="X-7" data-name="X" d="M551.07,370.09c0-2.68,1.75-4.09,4.49-4.07a6.18,6.18,0,0,1,1.68.21h4.12v1.14l-2.21.26a4,4,0,0,1,.79,2.38c0,2.77-2.47,4.23-5.47,3.74a1.78,1.78,0,0,0-1.15,1.53c0,.85.71,1,1.78,1h2.1c2.38,0,4,.94,4,3.18a3.37,3.37,0,0,1-1.58,3,8.36,8.36,0,0,1-4.62,1.05c-2.71,0-4.86-.9-4.86-3.32a3,3,0,0,1,2.64-3,1.77,1.77,0,0,1-1.07-1.65c0-1.12.62-1.55,1.44-2.08A3.58,3.58,0,0,1,551.07,370.09Zm3.4,7.77c-1.56,0-2.63.76-2.6,2.26s1.42,2,3.15,2a6.37,6.37,0,0,0,3.35-.69,2.07,2.07,0,0,0,1.1-1.83c0-1.59-1-1.71-2.84-1.71Zm1-10.53a2.4,2.4,0,0,0-2.64,2.71,2.36,2.36,0,0,0,2.67,2.53c1.76,0,2.64-.86,2.64-2.56a2.36,2.36,0,0,0-2.67-2.68" transform="translate(-18.5 -18.5)" style="fill:#fff"/><path id="ac-9" data-name="ac" d="M565.6,378.13h-1.8v-11.9h1.8Zm-.89-13.91c-.66,0-1.06-.47-1.06-1.21s.39-1.19,1.06-1.19a1.06,1.06,0,0,1,1.06,1.19,1.07,1.07,0,0,1-1.06,1.21" transform="translate(-18.5 -18.5)" style="fill:#fff"/><path id="Q-11" data-name="Q" d="M575,366c2.93,0,4.33,1.35,4.32,4.35v7.76h-1.8v-7.7c0-1.92-.83-2.88-2.74-2.88-2.71,0-3.6,1.44-3.6,4.34v6.24h-1.8v-11.9h1.46l.3,1.63h.08A4.35,4.35,0,0,1,575,366" transform="translate(-18.5 -18.5)" style="fill:#fff"/></g><path d="M581.09,403V504a6,6,0,0,1-6,6h-10" transform="translate(-18.5 -18.5)" style="fill:none;stroke:#fff;stroke-width:3px"/><path d="M582.59,403h-3V401.5h3" transform="translate(-18.5 -18.5)" style="fill:#fff"/><path d="M549.3,510l14.27-4.64v9.28Z" transform="translate(-18.5 -18.5)" style="fill:#fff;stroke:#fff;stroke-width:3px"/><path d="M622.07,285.2H559a6,6,0,0,0-6,6v26.68" transform="translate(-18.5 -18.5)" style="fill:none;stroke:#fff;stroke-width:3px"/><path d="M623.52,285.53l.27,1.17H622v-3h1.75" transform="translate(-18.5 -18.5)" style="fill:#fff"/><path d="M553,333.65l-4.64-14.27h9.28Z" transform="translate(-18.5 -18.5)" style="fill:#fff;stroke:#fff;stroke-width:3px"/><g id="a-3" data-name="a"><path id="F-4" data-name="F" d="M578,266.75l4.23-7.93h2l-5.29,9.71v6.16h-1.87v-6.07l-5.28-9.8h2" transform="translate(-18.5 -18.5)" style="fill:#fff"/><path id="G-30" data-name="G" d="M593.91,274.13a8.65,8.65,0,0,1-3.86.77c-3.57,0-5.68-2.39-5.68-6.06s1.86-6.26,5.21-6.26c3,0,4.9,2.28,4.84,5.35v1.14h-8.19c0,2.62,1.31,4.25,3.89,4.26a9.59,9.59,0,0,0,3.79-.8Zm-1.42-6.53c0-2.11-.92-3.51-2.93-3.51s-3.12,1.5-3.29,3.51h6.22" transform="translate(-18.5 -18.5)" style="fill:#fff"/><path id="H-10" data-name="H" d="M601,264.09c-1.41,0-2.58.34-2.58,1.5,0,.82.42,1.1,1,1.46a16.93,16.93,0,0,0,2.08.88,8,8,0,0,1,2.86,1.55,2.71,2.71,0,0,1,.75,2c0,2.45-2,3.46-4.71,3.46a7.53,7.53,0,0,1-3.69-.75v-1.67a8.38,8.38,0,0,0,3.73.94c1.62,0,2.93-.39,2.93-1.83a1.62,1.62,0,0,0-.6-1.18c-.6-.6-4-1.71-4.71-2.26a2.75,2.75,0,0,1-1.39-2.44c0-3.55,5.32-3.71,8.19-2.35l-.64,1.46a8.68,8.68,0,0,0-3.25-.73" transform="translate(-18.5 -18.5)" style="fill:#fff"/></g><path d="M515,474.34c15.46,0,28,16,28,35.66s-12.54,35.66-28,35.66H431c-15.46,0-28-16-28-35.66s12.54-35.66,28-35.66Z" transform="translate(-18.5 -18.5)" style="fill:#fff;fill-opacity:0;stroke:#fff;stroke-width:3px"/><g id="D-2" data-name="D"><path id="ap" d="M422.22,514.07c0,3-2.28,4.52-5.46,4.52h-5.53V502.72h4.48a8.48,8.48,0,0,1,4.57.95,3.66,3.66,0,0,1-1.67,6.5v.11C421,510.69,422.22,512,422.22,514.07Zm-2.44-7.23c0-2.11-1.6-2.52-4-2.52h-2.72v5.2h3C418.49,509.48,419.78,509,419.78,506.84Zm.47,7.1c0-2.21-1.6-2.86-4-2.86h-3.16V517h3.31c2.39,0,3.87-.79,3.87-3.07" transform="translate(-18.5 -18.5)" style="fill:#fff"/><path id="K-15" data-name="K" d="M429.83,506.5c2.82,0,4.16,1.15,4.17,4v8.12h-1.33l-.36-1.69h-.09a4.33,4.33,0,0,1-4,1.91c-2.29,0-3.77-1.24-3.77-3.51s1.92-3.66,5.76-3.78l2-.06c.12-2.2-.44-3.47-2.53-3.47a7.83,7.83,0,0,0-3.37.91l-.55-1.38A8.66,8.66,0,0,1,429.83,506.5Zm-3.48,8.82c0,1.34.88,2,2.25,2a3.28,3.28,0,0,0,3.6-3.51v-1.07c-2.79.15-5.85-.08-5.85,2.58" transform="translate(-18.5 -18.5)" style="fill:#fff"/><path id="N-10" data-name="N" d="M438.92,512.7c0,2.68,1,4.53,3.5,4.53a8.14,8.14,0,0,0,3.05-.64v1.6a6.51,6.51,0,0,1-3,.62c-3.57,0-5.42-2.4-5.42-6.09s1.87-6.24,5.54-6.24a8,8,0,0,1,3.06.62l-.56,1.53a7.75,7.75,0,0,0-2.55-.56c-2.42,0-3.62,1.54-3.62,4.63" transform="translate(-18.5 -18.5)" style="fill:#fff"/><path id="ae-2" data-name="ae" d="M450.07,512.5c1.46-1.94,3.61-4,5.27-5.8h2.13l-4.81,5.06,5.15,6.83h-2.18l-4.2-5.62-1.36,1.17v4.45h-1.78V501.7h1.78c0,3.65.1,7.26-.08,10.8h.08" transform="translate(-18.5 -18.5)" style="fill:#fff"/><path id="P-7" data-name="P" d="M464.16,518.81c-2.94,0-4.33-1.34-4.33-4.33V506.7h1.82v7.71c0,1.92.83,2.89,2.74,2.89,2.71,0,3.59-1.47,3.59-4.35V506.7h1.8v11.89h-1.49L468,517h-.1a4.21,4.21,0,0,1-3.77,1.82" transform="translate(-18.5 -18.5)" style="fill:#fff"/><path id="Z-4" data-name="Z" d="M484.07,512.63c0,3.57-1.6,6.18-4.94,6.18a4.34,4.34,0,0,1-3.73-1.75h-.13c.25,2.16.08,4.53.13,6.87h-1.8V506.7h1.46l.25,1.62h.09a4.14,4.14,0,0,1,3.73-1.84C482.51,506.48,484.07,509.05,484.07,512.63Zm-1.87,0c0-2.63-.95-4.6-3.33-4.6-2.78,0-3.5,1.67-3.47,4.62s.74,4.67,3.52,4.67c2.31,0,3.28-2.13,3.28-4.69" transform="translate(-18.5 -18.5)" style="fill:#fff"/></g><g id="E-2" data-name="E"><path id="ai-4" data-name="ai" d="M495.1,518.59h-1.84V502.72h8.84v1.64h-7v5.81h6.58v1.64H495.1v6.78" transform="translate(-18.5 -18.5)" style="fill:#fff"/><path id="ac-10" data-name="ac" d="M506.26,518.59h-1.8V506.7h1.8Zm-.89-13.91c-.66,0-1.06-.47-1.06-1.21s.39-1.19,1.06-1.19a1.06,1.06,0,0,1,1.06,1.19,1.07,1.07,0,0,1-1.06,1.21" transform="translate(-18.5 -18.5)" style="fill:#fff"/><path id="ak-5" data-name="ak" d="M511.88,518.59h-1.8V501.7h1.8v16.89" transform="translate(-18.5 -18.5)" style="fill:#fff"/><path id="G-31" data-name="G" d="M524.59,518a8.7,8.7,0,0,1-3.87.78c-3.57,0-5.68-2.4-5.68-6.07s1.86-6.26,5.22-6.26c3,0,4.89,2.28,4.84,5.35V513h-8.2c.05,2.62,1.32,4.25,3.89,4.26a9.67,9.67,0,0,0,3.8-.8Zm-1.43-6.53c0-2.11-.92-3.51-2.93-3.51s-3.12,1.51-3.28,3.51h6.21" transform="translate(-18.5 -18.5)" style="fill:#fff"/><path id="H-11" data-name="H" d="M531.7,508c-1.41,0-2.58.34-2.58,1.51,0,.81.42,1.09,1,1.45a15.17,15.17,0,0,0,2.09.88,7.88,7.88,0,0,1,2.85,1.55,2.71,2.71,0,0,1,.75,2c0,2.46-2,3.47-4.71,3.47a7.55,7.55,0,0,1-3.69-.75v-1.67a8.42,8.42,0,0,0,3.73.93c1.62,0,2.93-.39,2.93-1.82a1.65,1.65,0,0,0-.59-1.19c-.61-.59-4-1.71-4.71-2.25a2.76,2.76,0,0,1-1.39-2.45c0-3.54,5.31-3.71,8.18-2.35l-.64,1.46a8.88,8.88,0,0,0-3.25-.73" transform="translate(-18.5 -18.5)" style="fill:#fff"/></g><path d="M363.15,403V504a6,6,0,0,0,6,6h11.68" transform="translate(-18.5 -18.5)" style="fill:none;stroke:#fff;stroke-width:3px"/><path d="M364.65,403h-3V401.5h3" transform="translate(-18.5 -18.5)" style="fill:#fff"/><path d="M396.6,510l-14.27,4.64v-9.28Z" transform="translate(-18.5 -18.5)" style="fill:#fff;stroke:#fff;stroke-width:3px"/><path d="M323.45,285.2H387a6,6,0,0,1,6,6v26.68" transform="translate(-18.5 -18.5)" style="fill:none;stroke:#fff;stroke-width:3px"/><path d="M323.48,286.7h-1.75l.25-1.83-.27-1.17h1.77" transform="translate(-18.5 -18.5)" style="fill:#fff"/><path d="M393,333.65l-4.64-14.27h9.28Z" transform="translate(-18.5 -18.5)" style="fill:#fff;stroke:#fff;stroke-width:3px"/><g id="a-4" data-name="a"><path id="F-5" data-name="F" d="M339.9,266.75l4.23-7.93h2l-5.3,9.71v6.16H339v-6.07l-5.29-9.8h2" transform="translate(-18.5 -18.5)" style="fill:#fff"/><path id="G-32" data-name="G" d="M355.82,274.13a8.7,8.7,0,0,1-3.87.77c-3.57,0-5.68-2.39-5.68-6.06s1.87-6.26,5.22-6.26c3,0,4.89,2.28,4.84,5.35v1.14h-8.19c0,2.62,1.31,4.25,3.88,4.26a9.67,9.67,0,0,0,3.8-.8Zm-1.42-6.53c0-2.11-.93-3.51-2.93-3.51s-3.13,1.5-3.29,3.51h6.22" transform="translate(-18.5 -18.5)" style="fill:#fff"/><path id="H-12" data-name="H" d="M362.94,264.09c-1.41,0-2.59.34-2.59,1.5,0,.82.43,1.1,1,1.46a17.29,17.29,0,0,0,2.09.88,7.88,7.88,0,0,1,2.85,1.55,2.71,2.71,0,0,1,.75,2c0,2.45-2,3.46-4.71,3.46a7.55,7.55,0,0,1-3.69-.75v-1.67a8.45,8.45,0,0,0,3.73.94c1.62,0,2.93-.39,2.93-1.83a1.61,1.61,0,0,0-.59-1.18c-.61-.6-4-1.71-4.71-2.26a2.73,2.73,0,0,1-1.39-2.44c0-3.55,5.32-3.71,8.18-2.35l-.64,1.46a8.63,8.63,0,0,0-3.24-.73" transform="translate(-18.5 -18.5)" style="fill:#fff"/></g><path d="M473,548.66v49.22" transform="translate(-18.5 -18.5)" style="fill:none;stroke:#fff;stroke-width:3px"/><path d="M474.45,548.7h-3v-1.54h3" transform="translate(-18.5 -18.5)" style="fill:#fff"/><path d="M473,613.65l-4.64-14.27h9.28Z" transform="translate(-18.5 -18.5)" style="fill:#fff;stroke:#fff;stroke-width:3px"/><path d="M297.75,310.88v287" transform="translate(-18.5 -18.5)" style="fill:none;stroke:#fff;stroke-width:3px"/><path d="M299.25,310.92h-3v-1.75l1.83.26,1.17-.27" transform="translate(-18.5 -18.5)" style="fill:#fff"/><path d="M297.75,613.65l-4.63-14.27h9.27Z" transform="translate(-18.5 -18.5)" style="fill:#fff;stroke:#fff;stroke-width:3px"/><g id="d-3" data-name="d"><path id="S-6" data-name="S" d="M272.58,470c-.27-4.23-.11-8.79-.15-13.26h1.72v15.86h-2.1l-8.67-13.31h-.09c.33,4.39.11,8.73.17,13.31h-1.7V456.7h2.08L272.49,470h.09" transform="translate(-18.5 -18.5)" style="fill:#fff"/><path id="O-9" data-name="O" d="M283.07,460.45c3.43,0,5.44,2.6,5.44,6.15s-2,6.24-5.51,6.18-5.38-2.52-5.42-6.18S279.51,460.45,283.07,460.45ZM283,462c-2.6,0-3.57,1.82-3.57,4.62s1,4.67,3.59,4.67,3.6-1.89,3.6-4.67-1-4.62-3.62-4.62" transform="translate(-18.5 -18.5)" style="fill:#fff"/></g><path d="M647.75,310.88v287" transform="translate(-18.5 -18.5)" style="fill:none;stroke:#fff;stroke-width:3px"/><path d="M649.25,310.92h-3v-1.75l1.83.26,1.17-.27" transform="translate(-18.5 -18.5)" style="fill:#fff"/><path d="M647.75,613.65l-4.63-14.27h9.27Z" transform="translate(-18.5 -18.5)" style="fill:#fff;stroke:#fff;stroke-width:3px"/><g id="d-4" data-name="d"><path id="S-7" data-name="S" d="M668.76,470c-.28-4.23-.11-8.79-.16-13.26h1.73v15.86h-2.11l-8.67-13.31h-.08c.32,4.39.11,8.73.17,13.31h-1.7V456.7H660L668.67,470h.09" transform="translate(-18.5 -18.5)" style="fill:#fff"/><path id="O-10" data-name="O" d="M679.25,460.45c3.43,0,5.43,2.6,5.43,6.15s-1.95,6.24-5.51,6.18-5.37-2.52-5.41-6.18S675.69,460.45,679.25,460.45Zm-.06,1.53c-2.59,0-3.57,1.82-3.57,4.62s1,4.67,3.6,4.67,3.6-1.89,3.6-4.67-1-4.62-3.63-4.62" transform="translate(-18.5 -18.5)" style="fill:#fff"/></g><path d="M503,1420a20,20,0,1,1-20-20A20,20,0,0,1,503,1420Z" transform="translate(-18.5 -18.5)" style="fill:#fff;fill-opacity:0;stroke:#fff;stroke-width:3px"/><path d="M495,1420a12,12,0,1,1-12-12A12,12,0,0,1,495,1420ZM493,40a20,20,0,1,1-20-20A20,20,0,0,1,493,40ZM223,626a6,6,0,0,1,6-6H727.38a6,6,0,0,1,6,6v8a6,6,0,0,1-6,6H229a6,6,0,0,1-6-6ZM20,866a6,6,0,0,1,6-6H917a6,6,0,0,1,6,6v6.5a6,6,0,0,1-6,6H26a6,6,0,0,1-6-6Zm0,460a6,6,0,0,1,6-6H917a6,6,0,0,1,6,6v6.5a6,6,0,0,1-6,6H26a6,6,0,0,1-6-6Z" transform="translate(-18.5 -18.5)" style="fill:#fff;stroke:#fff;stroke-width:3px"/></svg>