<?xml version="1.0" encoding="utf-8"?>
<!-- Generator: Adobe Illustrator 25.2.1, SVG Export Plug-In . SVG Version: 6.00 Build 0)  -->
<svg version="1.1" id="Layer_1" xmlns:svgjs="http://svgjs.com/svgjs"
	 xmlns="http://www.w3.org/2000/svg" xmlns:xlink="http://www.w3.org/1999/xlink" x="0px" y="0px" viewBox="0 0 415.8 512"
	 style="enable-background:new 0 0 415.8 512;" xml:space="preserve">
<style type="text/css">
	.st0{fill:#FFFFFF;}
</style>
<g>
	<path class="st0" d="M308.6,199c-5.2,0-9.4,4.2-9.4,9.4v177.2c0,5.2,4.2,9.4,9.4,9.4s9.4-4.2,9.4-9.4V208.4
		C318,203.2,313.8,199,308.6,199z"/>
	<path class="st0" d="M198,199c-5.2,0-9.4,4.2-9.4,9.4v177.2c0,5.2,4.2,9.4,9.4,9.4s9.4-4.2,9.4-9.4V208.4
		C207.4,203.2,203.1,199,198,199z"/>
	<path class="st0" d="M117.4,173.1v231c0,13.7,5,26.5,13.8,35.7c8.7,9.3,20.8,14.5,33.5,14.5H342c12.7,0,24.8-5.2,33.5-14.5
		c8.8-9.2,13.8-22.1,13.8-35.7V173.1c17.4-4.6,28.6-21.4,26.4-39.3c-2.3-17.8-17.5-31.2-35.5-31.2h-48V91
		c0.1-9.9-3.8-19.3-10.8-26.3c-7-7-16.4-10.9-26.3-10.8h-83.4c-9.9,0-19.3,3.9-26.4,10.9c-7,7-10.9,16.4-10.8,26.3v11.7h-48
		c-18,0-33.2,13.4-35.5,31.2C88.7,151.7,99.9,168.5,117.4,173.1z M342,435.6H164.6c-16,0-28.5-13.8-28.5-31.4V174h234.4v230.2
		C370.5,421.8,358,435.6,342,435.6z M193.3,91c-0.1-4.8,1.9-9.6,5.3-13.1c3.4-3.4,8.1-5.3,13.1-5.2h83.3c4.8-0.1,9.6,1.8,13.1,5.2
		c3.4,3.4,5.4,8.1,5.3,13.1v11.7h-120V91z M126.5,121.5H380c9.3,0,16.9,7.6,16.9,16.9s-7.6,16.9-16.9,16.9H126.5
		c-9.3,0-16.9-7.6-16.9-16.9S117.2,121.5,126.5,121.5z"/>
	<path class="st0" d="M253.3,199c-5.2,0-9.4,4.2-9.4,9.4v177.2c0,5.2,4.2,9.4,9.4,9.4c5.2,0,9.4-4.2,9.4-9.4V208.4
		C262.6,203.2,258.4,199,253.3,199z"/>
</g>
</svg>
